<?xml version="1.0" standalone="no"?>
<!DOCTYPE svg PUBLIC "-//W3C//DTD SVG 1.1//EN" "http://www.w3.org/Graphics/SVG/1.1/DTD/svg11.dtd" >
<svg xmlns="http://www.w3.org/2000/svg" xmlns:xlink="http://www.w3.org/1999/xlink" version="1.1">
<metadata>
Created by FontForge 20170731 at Wed Dec  4 13:07:39 2019
 By Aleksey,,,
(c) Bayerische Motoren Werke AG (BMW AG) 2019. The font is subject to copyright protection and other intellectual property rights. All rights reserved.
</metadata>
<defs>
<font id="BMWTypeNextLatin-Bold" horiz-adv-x="500" >
  <font-face 
    font-family="BMWTypeNext Latin Bold"
    font-weight="700"
    font-stretch="normal"
    units-per-em="1000"
    panose-1="0 0 0 0 0 0 0 0 0 0"
    ascent="800"
    descent="-200"
    x-height="528"
    cap-height="754"
    bbox="-189 -280 1549 1065"
    underline-thickness="50"
    underline-position="-276"
    unicode-range="U+000D-FB02"
  />
<missing-glyph horiz-adv-x="600" 
d="M50 0v754h500v-754h-500zM321 377l194 -314v627zM279 377l-194 313v-627zM300 411l191 309h-382zM300 343l-191 -309h382z" />
    <glyph glyph-name=".notdef" horiz-adv-x="600" 
d="M50 0v754h500v-754h-500zM321 377l194 -314v627zM279 377l-194 313v-627zM300 411l191 309h-382zM300 343l-191 -309h382z" />
    <glyph glyph-name="uni0000" horiz-adv-x="0" 
 />
    <glyph glyph-name="uni0000" horiz-adv-x="0" 
 />
    <glyph glyph-name="uni000D" unicode="&#xd;" horiz-adv-x="249" 
 />
    <glyph glyph-name="space" unicode=" " horiz-adv-x="240" 
 />
    <glyph glyph-name="exclam" unicode="!" horiz-adv-x="318" 
d="M94 240q-3 90 -3 348v166h152v-166q0 -258 -3 -348h-146zM86 0v178h162v-178h-162z" />
    <glyph glyph-name="quotedbl" unicode="&#x22;" horiz-adv-x="504" 
d="M292 648v106h145v-106q0 -87 -15 -252h-115q-15 165 -15 252zM67 648v106h145v-106q0 -87 -15 -252h-115q-15 165 -15 252z" />
    <glyph glyph-name="numbersign" unicode="#" horiz-adv-x="650" 
d="M116 182h-100v114h119l26 163h-100v114h119l29 181h118l-29 -181h118l29 181h118l-29 -181h100v-114h-119l-26 -163h100v-114h-119l-29 -182h-118l29 182h-118l-29 -182h-118zM253 296h118l26 163h-117z" />
    <glyph glyph-name="dollar" unicode="$" horiz-adv-x="693" 
d="M122 393q-63 52 -63 151q0 122 77 179q48 36 141 40v94h133v-96q81 -10 200 -35v-141q-188 43 -269 43q-84 0 -107 -17q-23 -16 -23 -57t26 -55q30 -16 97 -37l108 -34q96 -31 128 -59q64 -54 64 -153q0 -110 -76 -170q-50 -40 -148 -52v-107h-133v105q-98 8 -211 27v142
q167 -35 274 -35q79 0 112 21q30 20 30 61q0 34 -18 50q-14 12 -100 39l-128 41q-79 26 -114 55z" />
    <glyph glyph-name="percent" unicode="%" horiz-adv-x="1134" 
d="M107 370q-30 30 -41 70.5t-11 105.5q0 115 46 166q47 53 149 53q88 0 138 -44q57 -50 57 -175q0 -115 -55 -171q-50 -51 -140 -51q-97 0 -143 46zM741 35q-30 30 -41 70.5t-11 105.5q0 115 46 166q47 53 149 53q88 0 138 -44q57 -50 57 -175q0 -115 -55 -171
q-50 -51 -140 -51q-97 0 -143 46zM274 0l428 754h153l-428 -754h-153zM815 211q0 -75 21 -95q16 -15 48 -15q29 0 46 16q23 22 23 94q0 63 -15 84q-16 23 -54 23q-40 0 -56 -26q-13 -21 -13 -81zM181 546q0 -75 21 -95q16 -15 48 -15q29 0 46 16q23 22 23 94q0 63 -15 84
q-16 23 -54 23q-40 0 -56 -26q-13 -21 -13 -81z" />
    <glyph glyph-name="ampersand" unicode="&#x26;" horiz-adv-x="818" 
d="M122 34q-36 25 -57.5 69.5t-21.5 96.5q0 88 53 151q27 32 94 81q-22 24 -37 53q-22 44 -22 94q0 83 48 132q57 60 202 60q77 0 214 -32v-138q-130 32 -206 32q-72 0 -91 -22q-14 -17 -14 -45q0 -20 12 -37t49 -58q53 -58 171 -171h-195l-42 42q-43 -31 -60 -52
q-27 -32 -27 -72q0 -53 35 -76t96 -23q65 0 114 28q36 20 74 66l74 87h175l-111 -131l169 -169h-206l-63 64q-38 -36 -83 -55q-61 -26 -143 -26q-126 0 -201 51z" />
    <glyph glyph-name="quotesingle" unicode="'" horiz-adv-x="279" 
d="M82 396q-15 165 -15 252v106h145v-106q0 -87 -15 -252h-115z" />
    <glyph glyph-name="parenleft" unicode="(" horiz-adv-x="346" 
d="M61 504q0 121 52 177q64 69 205 94v-130q-66 -20 -87 -48q-22 -29 -22 -130v-370q0 -106 22 -132q23 -27 87 -46v-130q-142 25 -205 94q-52 56 -52 177v444z" />
    <glyph glyph-name="parenright" unicode=")" horiz-adv-x="346" 
d="M115 597q-21 28 -87 48v130q142 -25 205 -94q52 -56 52 -177v-444q0 -121 -52 -177q-64 -69 -205 -94v130q64 19 87 46q22 26 22 132v370q0 101 -22 130z" />
    <glyph glyph-name="asterisk" unicode="*" horiz-adv-x="575" 
d="M80 706l161 -99l-2 147h97l-2 -147l161 99v-111l-103 -61l103 -61v-111l-161 99l2 -147h-97l2 147l-161 -99v111l103 61l-103 61v111z" />
    <glyph glyph-name="plus" unicode="+" horiz-adv-x="700" 
d="M65 311v132h214v224h142v-224h214v-132h-214v-224h-142v224h-214z" />
    <glyph glyph-name="comma" unicode="," horiz-adv-x="300" 
d="M171 -188h-112q22 110 22 191v175h152v-151q0 -97 -62 -215z" />
    <glyph glyph-name="hyphen" unicode="-" horiz-adv-x="458" 
d="M408 194h-358v146h358v-146z" />
    <glyph glyph-name="period" unicode="." horiz-adv-x="300" 
d="M233 0h-166v178h166v-178z" />
    <glyph glyph-name="slash" unicode="/" horiz-adv-x="437" 
d="M153 0h-153l284 754h153z" />
    <glyph glyph-name="zero" unicode="0" horiz-adv-x="665" 
d="M131 56q-44 51 -56 121t-12 199q0 118 9.5 188.5t43.5 115.5q69 91 215 91q123 0 193 -67q50 -48 64 -123t14 -205q0 -124 -12.5 -192t-56.5 -121q-65 -80 -202 -80q-136 0 -200 73zM231 573q-18 -43 -18 -200q0 -93 5 -138.5t25 -74.5q27 -38 88 -38q59 0 87 38
q22 30 28 76t6 143q0 92 -5 137.5t-24 74.5q-27 41 -92 41q-75 0 -100 -59z" />
    <glyph glyph-name="one" unicode="1" horiz-adv-x="426" 
d="M342 0h-150v580l-191 -58v148l341 105v-775z" />
    <glyph glyph-name="two" unicode="2" horiz-adv-x="607" 
d="M35 0v140q227 215 308 315q44 54 44 94q0 39 -24 59q-26 23 -109 23q-62 0 -205 -28v140q143 28 220 28q78 0 125 -13.5t83 -45.5q30 -26 45.5 -66.5t15.5 -82.5q0 -72 -26.5 -123.5t-86.5 -115.5q-67 -72 -188 -184h327v-140h-529z" />
    <glyph glyph-name="three" unicode="3" horiz-adv-x="606" 
d="M33 146q135 -24 216 -24q82 0 117 26q31 24 31 71q0 52 -50 76q-26 13 -103 13h-135v135h215l24 33q40 54 40 85q0 32 -18 49q-25 22 -107 22q-71 0 -224 -30v139q159 30 227 30q149 0 212 -59q58 -54 58 -139q0 -51 -43 -118q-22 -35 -39 -58q28 -19 47 -42
q46 -53 46 -136q0 -97 -56 -156q-77 -80 -239 -80q-95 0 -219 23v140z" />
    <glyph glyph-name="four" unicode="4" horiz-adv-x="624" 
d="M407 142h-385v142l346 470h181l-346 -471h204v132h148v-415h-148v142z" />
    <glyph glyph-name="five" unicode="5" horiz-adv-x="611" 
d="M68 3v140q105 -21 194 -21q78 0 110 29q30 28 30 80q0 47 -31 72t-146 25h-147v426h456v-139h-308v-148h61q139 0 204 -65q61 -61 61 -171q0 -107 -62 -175q-67 -73 -218 -73q-88 0 -204 20z" />
    <glyph glyph-name="six" unicode="6" horiz-adv-x="654" 
d="M131 51q-71 73 -71 224q0 150 29.5 233.5t94.5 136.5q114 94 367 122v-139q-142 -16 -222 -56t-97 -108q53 3 107 3q139 0 199 -63q61 -64 61 -174q0 -106 -60 -172q-68 -75 -203 -75q-140 0 -205 68zM210 257q0 -70 30 -107q26 -32 96 -32q57 0 85 29t28 83q0 53 -25 79
q-25 25 -103 25q-49 0 -109 -3q-2 -21 -2 -74z" />
    <glyph glyph-name="seven" unicode="7" horiz-adv-x="544" 
d="M211 0h-172l325 612h-364v142h536v-139z" />
    <glyph glyph-name="eight" unicode="8" horiz-adv-x="687" 
d="M137 35q-74 58 -74 173q0 77 45 128q25 28 55 52q-28 17 -50 44q-38 48 -38 124q0 101 61 153q72 62 206 62t203 -59q67 -56 67 -156q0 -60 -41 -114q-20 -25 -47 -54q32 -20 56 -48q44 -53 44 -132q0 -105 -67 -162q-74 -64 -216 -64q-135 0 -204 53zM212 214
q0 -53 27 -75q30 -25 105 -25q68 0 100 25t32 73q0 56 -43 80q-32 19 -159 38q-24 -20 -39 -40q-23 -32 -23 -76zM246 614q-23 -20 -23 -66t30 -66q29 -20 160 -43q18 19 29 36q22 33 22 73q0 44 -25 65q-31 26 -97 26q-68 0 -96 -25z" />
    <glyph glyph-name="nine" unicode="9" horiz-adv-x="654" 
d="M55 510q0 120 57 186q64 75 202 75q140 0 208 -81q72 -86 72 -287q0 -128 -14 -196q-19 -93 -76 -150q-74 -74 -229 -74q-89 0 -193 23v139q105 -23 187 -23q76 0 111 20q38 22 53 68q11 34 11 70q-81 -11 -160 -11q-115 0 -170 63q-59 67 -59 178zM231 602
q-26 -32 -26 -92t24 -84q23 -23 89 -23q56 0 126 10q0 138 -36 185q-30 38 -90 38t-87 -34z" />
    <glyph glyph-name="colon" unicode=":" horiz-adv-x="300" 
d="M233 0h-166v178h166v-178zM67 528h166v-178h-166v178z" />
    <glyph glyph-name="semicolon" unicode=";" horiz-adv-x="300" 
d="M171 -188h-112q22 110 22 191v175h152v-151q0 -97 -62 -215zM67 528h166v-178h-166v178z" />
    <glyph glyph-name="less" unicode="&#x3c;" horiz-adv-x="700" 
d="M635 94l-570 218v130l570 218v-131l-399 -152l399 -152v-131z" />
    <glyph glyph-name="equal" unicode="=" horiz-adv-x="700" 
d="M635 202h-570v130h570v-130zM65 552h570v-130h-570v130z" />
    <glyph glyph-name="greater" unicode="&#x3e;" horiz-adv-x="700" 
d="M464 377l-399 152v131l570 -218v-130l-570 -218v131z" />
    <glyph glyph-name="question" unicode="?" horiz-adv-x="559" 
d="M245 635q-64 0 -185 -25v133q120 28 213 28q112 0 175 -49q31 -24 50 -63.5t19 -79.5q0 -51 -15 -89.5t-54 -86.5q-36 -43 -93 -104q-24 -26 -37 -59h-162q16 54 55 103q35 44 105 116q51 53 51 101q0 37 -24 56t-98 19zM318 0h-162v178h162v-178z" />
    <glyph glyph-name="at" unicode="@" horiz-adv-x="986" 
d="M67 235q0 95 27 183t82 147q52 56 122 82.5t194 26.5q138 0 422 -111v-293q0 -124 -53 -185q-56 -63 -167 -84q-60 -11 -120 -11v65q-22 -19 -45 -35q-28 -19 -47.5 -26t-49.5 -7q-76 0 -120 71q-38 62 -38 177q0 104 38 165q27 43 65.5 61t114.5 18q32 0 71.5 -8.5
t66 -17t79.5 -26.5v-307q41 11 63 42q21 30 21 135v187q-198 74 -301 74q-90 0 -138.5 -16t-82.5 -51q-82 -85 -82 -256q0 -160 57 -240q45 -64 155 -92v-123q-176 38 -254 147q-42 59 -61 129.5t-19 178.5zM425 314q-11 -30 -11 -79q0 -58 9 -85q11 -31 38 -31t62 28
q22 17 48 41v151q-44 14 -70 14q-33 0 -50 -8t-26 -31z" />
    <glyph glyph-name="A" unicode="A" horiz-adv-x="747" 
d="M1 0l274 754h196l275 -754h-163l-50 137h-323l-49 -137h-160zM370 603l-114 -325h229z" />
    <glyph glyph-name="B" unicode="B" horiz-adv-x="737" 
d="M72 754h357q119 0 173 -38q35 -25 55.5 -64.5t20.5 -83.5q0 -57 -34 -115q-16 -28 -41 -65q41 -32 60 -57q32 -42 32 -108q0 -110 -74 -168q-70 -55 -218 -55h-331v754zM222 311v-173h184q86 0 113 23q24 21 24 62q0 51 -39 73q-28 15 -102 15h-180zM222 449h261
q15 24 24 39q20 35 20 62q0 41 -27 55q-21 11 -88 11h-190v-167z" />
    <glyph glyph-name="C" unicode="C" horiz-adv-x="657" 
d="M110 109q-53 82 -53 257q0 185 55 274q81 131 263 131q53 0 132 -15q62 -12 112 -24v-144q-76 18 -125 27q-58 11 -101 11q-64 0 -100.5 -18t-56.5 -58q-27 -54 -27 -181t29 -178q20 -34 58 -48.5t102 -14.5q66 0 221 33v-145q-160 -33 -247 -33q-75 0 -130.5 20.5
t-81.5 45t-50 60.5z" />
    <glyph glyph-name="D" unicode="D" horiz-adv-x="735" 
d="M72 754h272q90 0 150 -19t102 -66q43 -48 62.5 -114t19.5 -175q0 -214 -105 -308q-44 -39 -100 -55.5t-137 -16.5h-264v754zM345 613h-123v-472h118q56 0 91 14.5t59 50.5q36 53 36 174q0 68 -8.5 112.5t-34.5 75.5q-23 27 -55 36t-83 9z" />
    <glyph glyph-name="E" unicode="E" horiz-adv-x="657" 
d="M72 0v754h534v-141h-384v-159h362v-141h-362v-172h401v-141h-551z" />
    <glyph glyph-name="F" unicode="F" horiz-adv-x="621" 
d="M72 0v754h526v-141h-376v-167h338v-141h-338v-305h-150z" />
    <glyph glyph-name="G" unicode="G" horiz-adv-x="723" 
d="M57 366q0 184 58 277q38 60 98 94t162 34q84 0 252 -41v-143q-96 22 -149 31q-48 8 -85 8q-65 0 -100.5 -17.5t-55.5 -58.5q-28 -56 -28 -181q0 -133 29 -184q20 -35 57.5 -48.5t102.5 -13.5q47 0 107 6v276h148v-397q-166 -25 -281 -25q-107 0 -165.5 30t-94.5 86
q-55 86 -55 267z" />
    <glyph glyph-name="H" unicode="H" horiz-adv-x="746" 
d="M222 0h-150v754h150v-288h302v288h150v-754h-150v323h-302v-323z" />
    <glyph glyph-name="I" unicode="I" horiz-adv-x="294" 
d="M222 0h-150v754h150v-754z" />
    <glyph glyph-name="J" unicode="J" horiz-adv-x="405" 
d="M-27 -122v147q95 31 151 65q38 24 50 58q10 28 10 100v506h150v-517q0 -124 -19 -168q-21 -50 -74 -81q-50 -29 -132 -61.5t-136 -48.5z" />
    <glyph glyph-name="K" unicode="K" horiz-adv-x="698" 
d="M222 0h-150v754h150v-354l286 354h184l-299 -365l336 -389h-199l-308 360v-360z" />
    <glyph glyph-name="L" unicode="L" horiz-adv-x="608" 
d="M593 0h-521v754h150v-609h371v-145z" />
    <glyph glyph-name="M" unicode="M" horiz-adv-x="897" 
d="M72 0v754h193l185 -423l185 423h190v-754h-146v527l-165 -377h-131l-165 377v-527h-146z" />
    <glyph glyph-name="N" unicode="N" horiz-adv-x="755" 
d="M72 0v754h162l301 -504v504h148v-754h-162l-301 504v-504h-148z" />
    <glyph glyph-name="O" unicode="O" horiz-adv-x="780" 
d="M118 99q-61 91 -61 276q0 179 55 268q40 65 102 96.5t176 31.5q101 0 161 -27.5t103 -86.5q69 -94 69 -282q0 -185 -70 -280q-43 -59 -102 -85.5t-161 -26.5q-113 0 -172 28t-100 88zM243 568q-34 -55 -34 -193q0 -137 34 -191q37 -59 147 -59q94 0 135 51q46 57 46 199
q0 131 -36 188q-41 66 -145 66q-53 0 -89 -12.5t-58 -48.5z" />
    <glyph glyph-name="P" unicode="P" horiz-adv-x="682" 
d="M72 0v754h324q127 0 190 -62q65 -64 65 -181q0 -125 -70 -188q-60 -55 -184 -60q-44 -2 -175 -2v-261h-150zM222 613v-211q113 0 160 2q68 3 92 26q25 24 25 80t-26 81q-23 22 -93 22h-158z" />
    <glyph glyph-name="Q" unicode="Q" horiz-adv-x="780" 
d="M57 375q0 179 55 268q40 65 102 96.5t176 31.5q101 0 161 -27.5t103 -86.5q69 -94 69 -282q0 -186 -70 -276q-32 -41 -84 -65l142 -33v-129l-353 84q-100 25 -165 66q-136 87 -136 353zM243 568q-34 -55 -34 -193q0 -140 34 -194q38 -60 147 -60q93 0 135 52
q46 57 46 202q0 131 -36 188q-41 66 -145 66q-53 0 -89 -12.5t-58 -48.5z" />
    <glyph glyph-name="R" unicode="R" horiz-adv-x="727" 
d="M72 0v754h335q75 0 121 -11.5t84 -43.5q70 -60 70 -170q0 -49 -16 -86t-50 -78q-35 -40 -74 -80l177 -285h-173l-160 259h-164v-259h-150zM389 613h-167v-213h240q19 21 36 43q32 42 32 86t-28 65q-26 19 -113 19z" />
    <glyph glyph-name="S" unicode="S" horiz-adv-x="649" 
d="M100 393q-63 53 -63 154q0 119 78 178q60 46 195 46q90 0 278 -42v-144q-204 45 -272 45q-78 0 -103 -19q-24 -19 -24 -54q0 -39 21 -55q19 -14 80 -33l130 -41q97 -31 129 -59q63 -54 63 -156q0 -110 -76 -170t-230 -60q-84 0 -262 33v146q190 -38 274 -38q81 0 112 21
q30 20 30 60q0 37 -21 54q-18 14 -95 38l-129 41q-80 26 -115 55z" />
    <glyph glyph-name="T" unicode="T" horiz-adv-x="676" 
d="M263 612h-253v142h656v-142h-253v-612h-150v612z" />
    <glyph glyph-name="U" unicode="U" horiz-adv-x="739" 
d="M70 294v460h150v-463q0 -57 6.5 -87.5t27.5 -50.5q30 -28 116 -28q85 0 114 27q21 19 28 50.5t7 88.5v463h150v-460q0 -89 -14.5 -144t-52.5 -94q-40 -40 -95 -56.5t-137 -16.5q-87 0 -142 16.5t-94 58.5q-37 40 -50.5 96t-13.5 140z" />
    <glyph glyph-name="V" unicode="V" horiz-adv-x="718" 
d="M-5 754h164l201 -577l202 577h161l-269 -754h-190z" />
    <glyph glyph-name="W" unicode="W" horiz-adv-x="949" 
d="M12 754h154l110 -557l124 443h152l122 -443l112 557h151l-153 -754h-190l-119 431l-119 -431h-192z" />
    <glyph glyph-name="X" unicode="X" horiz-adv-x="738" 
d="M175 0h-175l258 382l-247 372h179l179 -270l181 270h175l-245 -363l258 -391h-179l-190 289z" />
    <glyph glyph-name="Y" unicode="Y" horiz-adv-x="665" 
d="M-15 754h173l179 -312l179 312h164l-272 -467v-287h-150v287z" />
    <glyph glyph-name="Z" unicode="Z" horiz-adv-x="672" 
d="M636 0h-600v142l398 471h-383v141h578v-142l-398 -471h405v-141z" />
    <glyph glyph-name="bracketleft" unicode="[" horiz-adv-x="366" 
d="M338 -192h-271v946h271v-130h-123v-686h123v-130z" />
    <glyph glyph-name="backslash" unicode="\" horiz-adv-x="437" 
d="M437 0h-153l-284 754h153z" />
    <glyph glyph-name="bracketright" unicode="]" horiz-adv-x="366" 
d="M28 -62h123v686h-123v130h271v-946h-271v130z" />
    <glyph glyph-name="asciicircum" unicode="^" horiz-adv-x="850" 
d="M43 335l322 419h122l320 -419h-183l-199 264l-199 -264h-183z" />
    <glyph glyph-name="underscore" unicode="_" 
d="M500 -192h-500v142h500v-142z" />
    <glyph glyph-name="grave" unicode="`" 
d="M382 600h-156l-145 154h162z" />
    <glyph glyph-name="a" unicode="a" horiz-adv-x="609" 
d="M45 252q0 132 42 202q55 91 202 91q57 0 113.5 -14t141.5 -44v-487h-144v68q-13 -11 -51 -38q-34 -24 -61.5 -35.5t-65.5 -11.5q-90 0 -137 78q-40 66 -40 191zM193 252q0 -63 13 -99q12 -32 50 -32q31 0 92 46q29 21 50 40v187q-58 21 -98 21q-66 0 -88 -43
q-19 -38 -19 -120z" />
    <glyph glyph-name="b" unicode="b" horiz-adv-x="611" 
d="M65 754h146v-260q33 17 55 28q51 23 103 23q95 0 146 -70q51 -69 51 -206q0 -132 -49 -204q-29 -43 -72.5 -62.5t-119.5 -19.5q-58 0 -127 12q-90 15 -133 26v733zM211 128q15 -3 39 -7q40 -6 67 -6q59 0 79 37q22 41 22 112q0 83 -21 118q-19 30 -65 30q-29 0 -77 -24
q-24 -12 -44 -24v-236z" />
    <glyph glyph-name="c" unicode="c" horiz-adv-x="496" 
d="M91 72q-44 66 -44 191q0 121 45 190q30 45 75.5 68.5t120.5 23.5q61 0 180 -31v-138q-111 31 -161 31q-74 0 -94 -42q-18 -37 -18 -102q0 -63 16 -99q19 -44 96 -44q56 0 161 25v-138q-120 -24 -179 -24q-80 0 -124 22t-74 67z" />
    <glyph glyph-name="d" unicode="d" horiz-adv-x="611" 
d="M45 261q0 130 40 196q28 45 67 66.5t99 21.5q50 0 149 -29v238h146v-754h-144v60q-18 -15 -46 -33q-68 -44 -133 -44q-88 0 -137 82q-41 68 -41 196zM209 371q-16 -33 -16 -109q0 -73 14 -108q13 -32 58 -32q31 0 90 40q27 18 45 32v193q-75 25 -112 25q-60 0 -79 -41z
" />
    <glyph glyph-name="e" unicode="e" horiz-adv-x="580" 
d="M90 70q-45 62 -45 189q0 126 40 193q55 93 210 93q144 0 201 -75q41 -54 41 -158q0 -58 -10 -108h-339q0 -31 16 -54q28 -41 119 -41q69 0 188 18v-124q-125 -20 -203 -20q-86 0 -135.5 21t-82.5 66zM206 386q-18 -29 -18 -78h208q2 12 2 27q0 35 -15 57q-24 35 -88 35
t-89 -41z" />
    <glyph glyph-name="f" unicode="f" horiz-adv-x="351" 
d="M65 0v521q0 67 11 102q15 48 59 78q62 43 215 74v-142q-89 -19 -116 -39q-18 -13 -21 -35q-2 -14 -2 -38h140v-134h-140v-387h-146z" />
    <glyph glyph-name="g" unicode="g" horiz-adv-x="609" 
d="M46 263q0 130 41 194q29 46 77 67t127 21q83 0 253 -58v-422q0 -131 -57 -196q-70 -78 -235 -78q-80 0 -184 14v128q111 -15 184 -15q72 0 112 33q34 28 34 73v20q-18 -9 -52 -22q-60 -22 -110 -22q-98 0 -146 74q-44 68 -44 189zM194 263q0 -57 14 -93q14 -38 69 -38
q32 0 72 17q19 8 49 23v220q-62 20 -101 20q-69 0 -88 -43q-15 -34 -15 -106z" />
    <glyph glyph-name="h" unicode="h" horiz-adv-x="602" 
d="M65 754h146v-250q105 41 161 41q75 0 118 -44q26 -27 37 -67.5t11 -117.5v-316h-146v309q0 65 -15 82q-12 13 -52 13q-32 0 -114 -32v-372h-146v754z" />
    <glyph glyph-name="i" unicode="i" horiz-adv-x="276" 
d="M211 0h-146v528h146v-528zM65 754h146v-154h-146v154z" />
    <glyph glyph-name="j" unicode="j" horiz-adv-x="287" 
d="M137 -135q-73 -47 -192 -76v142q68 20 92 37q29 21 34 49q5 26 5 86v425h146v-451q0 -85 -13 -122q-19 -56 -72 -90zM76 600v154h146v-154h-146z" />
    <glyph glyph-name="k" unicode="k" horiz-adv-x="586" 
d="M211 0h-146v754h146v-451l195 225h181l-210 -241l230 -287h-186l-210 265v-265z" />
    <glyph glyph-name="l" unicode="l" horiz-adv-x="276" 
d="M211 0h-146v754h146v-754z" />
    <glyph glyph-name="m" unicode="m" horiz-adv-x="885" 
d="M65 528h146v-30q103 47 155 47q57 0 94 -30q15 -13 25 -28q111 58 172 58q76 0 117 -42q25 -26 36 -67.5t11 -119.5v-316h-146v309q0 66 -13 82q-11 13 -45 13q-35 0 -101 -35v-369h-146v309q0 65 -10 80t-44 15q-31 0 -105 -34v-370h-146v528z" />
    <glyph glyph-name="n" unicode="n" horiz-adv-x="604" 
d="M65 528h146v-29q117 46 166 46q75 0 116 -42q25 -26 36 -67.5t11 -119.5v-316h-146v309q0 62 -14 81q-11 14 -49 14q-37 0 -120 -34v-370h-146v528z" />
    <glyph glyph-name="o" unicode="o" horiz-adv-x="610" 
d="M92 75q-47 65 -47 188q0 121 44 186q65 96 216 96q146 0 212 -92q48 -67 48 -190q0 -119 -46 -183q-35 -48 -84.5 -72.5t-129.5 -24.5q-82 0 -130.5 23t-82.5 69zM214 369q-21 -38 -21 -106q0 -65 20 -102q24 -44 92 -44q59 0 88 40q24 35 24 109t-26 110q-25 35 -86 35
q-67 0 -91 -42z" />
    <glyph glyph-name="p" unicode="p" horiz-adv-x="611" 
d="M65 -192v720h144v-42q26 16 62 34q52 25 101 25q90 0 142 -73t52 -204q0 -133 -49 -203q-58 -82 -154 -82q-61 0 -152 35v-210h-146zM211 356v-204q78 -35 114 -35q48 0 69 34q24 40 24 113q0 78 -24 117q-19 31 -59 31q-24 0 -56 -17q-47 -24 -68 -39z" />
    <glyph glyph-name="q" unicode="q" horiz-adv-x="611" 
d="M45 263q0 126 42 192q56 90 208 90q86 0 251 -59v-678h-146v227q-20 -11 -51 -25q-60 -27 -118 -27q-92 0 -144 82q-42 65 -42 198zM193 263q0 -73 15 -107q15 -35 64 -35q35 0 79 22q38 19 49 26v223q-60 20 -103 20q-65 0 -86 -43q-18 -37 -18 -106z" />
    <glyph glyph-name="r" unicode="r" horiz-adv-x="399" 
d="M65 0v528h146v-60q40 28 66 41q43 21 120 32v-147q-66 -11 -115 -30q-40 -16 -71 -37v-327h-146z" />
    <glyph glyph-name="s" unicode="s" horiz-adv-x="528" 
d="M75 273q-34 39 -34 105q0 82 48 123q51 44 170 44q85 0 205 -30v-133q-136 34 -202 34q-48 0 -62 -10q-12 -8 -12 -28t18 -28q14 -7 48 -15l91 -24q73 -19 105 -53q37 -39 37 -107q0 -74 -47 -117q-57 -51 -187 -51q-69 0 -206 25v133q138 -29 222 -29q43 0 57 9t14 29
q0 19 -16 28q-11 6 -61 19l-95 26q-65 18 -93 50z" />
    <glyph glyph-name="t" unicode="t" horiz-adv-x="390" 
d="M65 226v442h146v-147h164v-134h-164v-154q0 -45 4 -62q6 -26 35 -35q27 -8 98 -12v-131q-138 5 -194 23q-58 18 -76 64q-13 33 -13 146z" />
    <glyph glyph-name="u" unicode="u" horiz-adv-x="602" 
d="M113 39q-49 53 -49 179v310h146v-303q0 -67 14 -84q16 -19 61 -19q52 0 106 13v393h146v-503q-168 -42 -272 -42q-100 0 -152 56z" />
    <glyph glyph-name="v" unicode="v" horiz-adv-x="555" 
d="M-4 528h160l124 -384l124 384h155l-184 -528h-197z" />
    <glyph glyph-name="w" unicode="w" horiz-adv-x="872" 
d="M4 528h147l103 -381l105 381h157l106 -381l102 381h144l-146 -528h-190l-97 353l-93 -353h-192z" />
    <glyph glyph-name="x" unicode="x" horiz-adv-x="590" 
d="M170 0h-170l196 269l-189 259h173l115 -161l118 161h170l-189 -253l196 -275h-173l-122 176z" />
    <glyph glyph-name="y" unicode="y" horiz-adv-x="588" 
d="M0 528h160l136 -347l136 347h156l-292 -720h-154l75 185z" />
    <glyph glyph-name="z" unicode="z" horiz-adv-x="517" 
d="M491 0h-465v125l255 269h-243v134h440v-124l-254 -270h267v-134z" />
    <glyph glyph-name="braceleft" unicode="{" horiz-adv-x="426" 
d="M19 347q38 2 62 11q43 15 43 58v193q0 82 47 120q31 25 82 25h145v-130h-61q-35 0 -50 -15t-15 -49v-175q0 -67 -49 -92q-18 -8 -61 -13q52 -6 72 -19q38 -24 38 -85v-174q0 -34 15 -49t50 -15h61v-130h-145q-57 0 -91 33q-38 36 -38 113v190q0 48 -59 63q-15 4 -46 6
v134z" />
    <glyph glyph-name="bar" unicode="|" horiz-adv-x="271" 
d="M203 -192h-135v946h135v-946z" />
    <glyph glyph-name="braceright" unicode="}" horiz-adv-x="426" 
d="M28 624v130h145q51 0 82 -25q47 -38 47 -120v-193q0 -41 43 -58q24 -9 62 -11v-134q-31 -2 -46 -6q-59 -17 -59 -63v-190q0 -77 -38 -113q-35 -33 -91 -33h-145v130h61q35 0 50 15t15 49v174q0 61 38 85q20 13 72 19q-43 5 -61 13q-49 23 -49 92v175q0 34 -15 49t-50 15
h-61z" />
    <glyph glyph-name="asciitilde" unicode="~" horiz-adv-x="850" 
d="M171 198h-146q21 140 68 199q52 63 154 63q80 0 181 -63l77 -48q62 -38 93 -38q30 0 46 25q21 33 35 104h146q-18 -123 -59 -185q-51 -77 -164 -77q-93 0 -184 58l-78 50q-56 36 -86 36q-33 0 -51 -27q-20 -31 -32 -97z" />
    <glyph glyph-name="uni00A0" unicode="&#xa0;" horiz-adv-x="240" 
 />
    <glyph glyph-name="exclamdown" unicode="&#xa1;" horiz-adv-x="318" 
d="M75 -26q0 258 3 348h146q3 -90 3 -348v-166h-152v166zM70 562h162v-178h-162v178z" />
    <glyph glyph-name="cent" unicode="&#xa2;" horiz-adv-x="543" 
d="M105 82q-40 62 -40 181t41 182q44 68 128 85v108h126v-106q61 -10 126 -27v-137q-116 29 -164 29q-75 0 -94 -40q-15 -33 -15 -94t15 -94q19 -41 94 -41q54 0 164 25v-137q-63 -13 -126 -19v-110h-126v111q-47 7 -76 27t-53 57z" />
    <glyph glyph-name="sterling" unicode="&#xa3;" horiz-adv-x="638" 
d="M583 0h-493v569q0 96 47 148q29 31 67 42.5t106 11.5q69 0 232 -33v-139q-156 33 -214 33q-52 0 -75 -25q-13 -15 -13 -48v-76h193v-132h-193v-208h343v-143z" />
    <glyph glyph-name="currency" unicode="&#xa4;" horiz-adv-x="827" 
d="M70 671h150l75 -84q55 21 118 21q59 0 117 -23l77 86h150l-139 -155q34 -51 34 -139q0 -84 -34 -140l139 -154h-150l-74 82q-56 -22 -120 -22q-66 0 -121 21l-72 -81h-150l137 153q-29 51 -29 138q0 92 30 142zM337 463q-32 -26 -32 -87q0 -59 31 -87q22 -21 78 -21
q58 0 83 28q28 31 28 82t-31 80q-28 26 -81 26q-52 0 -76 -21z" />
    <glyph glyph-name="yen" unicode="&#xa5;" horiz-adv-x="715" 
d="M10 754h173l179 -312l179 312h164l-158 -271h121v-132h-198l-37 -64v-287h-150v287l-37 64h-199v132h121z" />
    <glyph glyph-name="brokenbar" unicode="&#xa6;" horiz-adv-x="271" 
d="M203 336h-135v418h135v-418zM68 226h135v-418h-135v418z" />
    <glyph glyph-name="section" unicode="&#xa7;" horiz-adv-x="660" 
d="M62 331q0 45 31 92q19 29 51 63q-26 18 -39 38q-20 32 -20 83q0 82 58 124q56 40 186 40q81 0 241 -31v-122q-162 33 -242 33q-63 0 -82 -12q-14 -9 -14 -32q0 -19 21 -32q15 -8 69 -31l112 -48q84 -36 118 -64q46 -37 46 -96q0 -50 -35 -97q-25 -35 -50 -63
q28 -21 41 -43q17 -29 17 -74q0 -71 -56 -115q-61 -49 -196 -49q-75 0 -224 24v124q158 -28 233 -28q58 0 81 14q15 10 15 30q0 19 -20 33q-17 11 -74 36l-134 59q-71 31 -102 61q-32 32 -32 83zM203 355q0 -26 21 -40q15 -11 60 -30l123 -53q19 20 31 38q19 27 19 46
q0 25 -22 40q-13 10 -82 39l-98 42q-18 -17 -34 -38q-18 -24 -18 -44z" />
    <glyph glyph-name="dieresis" unicode="&#xa8;" 
d="M448 600h-139v154h139v-154zM191 600h-139v154h139v-154z" />
    <glyph glyph-name="copyright" unicode="&#xa9;" horiz-adv-x="918" 
d="M60 377q0 183 105 288.5t294 105.5t294 -105.5t105 -288.5t-105 -288.5t-294 -105.5t-294 105.5t-105 288.5zM459 679q-147 0 -225 -79t-78 -223t78 -223t225 -79t225 79t78 223t-78 223t-225 79zM297 224q-38 56 -38 149q0 103 37 158q24 36 62.5 55t108.5 19
q44 0 87 -8q35 -6 74 -16v-94q-53 11 -82 16q-40 7 -70 7q-73 0 -96 -39q-17 -30 -17 -96q0 -57 18 -89q22 -38 101 -38q42 0 146 22v-96q-108 -20 -163 -20q-121 0 -168 70z" />
    <glyph glyph-name="ordfeminine" unicode="&#xaa;" horiz-adv-x="510" 
d="M44 558q0 99 36 147q49 66 162 66q69 0 212 -42v-363h-124v57l-35 -28q-50 -40 -103 -40q-71 0 -112 58q-36 50 -36 145zM184 626q-12 -25 -12 -68t8 -59q10 -20 42 -20q25 0 71 33q28 21 35 28v101q-46 14 -78 14q-52 0 -66 -29z" />
    <glyph glyph-name="guillemotleft" unicode="&#xab;" horiz-adv-x="671" 
d="M318 264l176 206h170l-176 -206l176 -206h-170zM209 58l-176 206l176 206h170l-176 -206l176 -206h-170z" />
    <glyph glyph-name="logicalnot" unicode="&#xac;" horiz-adv-x="700" 
d="M635 160h-136v236h-434v132h570v-368z" />
    <glyph glyph-name="registered" unicode="&#xae;" horiz-adv-x="918" 
d="M459 -17q-189 0 -294 105.5t-105 288.5t105 288.5t294 105.5t294 -105.5t105 -288.5t-105 -288.5t-294 -105.5zM459 679q-147 0 -225 -79t-78 -223t78 -223t225 -79t225 79t78 223t-78 223t-225 79zM276 164v431h217q85 0 128 -33q44 -35 44 -97q0 -50 -37 -97
q-16 -20 -47 -53l93 -151h-116l-82 134h-98v-134h-102zM473 503h-95v-113h146q14 16 19 22q18 22 18 46q0 27 -19 37q-15 8 -69 8z" />
    <glyph glyph-name="macron" unicode="&#xaf;" 
d="M452 625h-404v101h404v-101z" />
    <glyph glyph-name="degree" unicode="&#xb0;" horiz-adv-x="479" 
d="M40 577q0 89 54.5 141.5t146.5 52.5q90 0 144 -53t54 -141q0 -86 -53.5 -136t-144.5 -50q-93 0 -147 49.5t-54 136.5zM160 581q0 -35 21.5 -55.5t58.5 -20.5q36 0 57.5 20t21.5 56t-21.5 56t-57.5 20q-37 0 -58.5 -20.5t-21.5 -55.5z" />
    <glyph glyph-name="plusminus" unicode="&#xb1;" horiz-adv-x="700" 
d="M65 443h214v224h142v-224h214v-132h-214v-162h-142v162h-214v132zM65 0v130h570v-130h-570z" />
    <glyph glyph-name="twosuperior" unicode="&#xb2;" horiz-adv-x="438" 
d="M43 450v101q106 75 146 110q53 46 53 69q0 18 -12 27t-52 9q-44 0 -128 -21v114q88 21 144 21q83 0 126 -32q47 -34 47 -98q0 -33 -10.5 -56t-34.5 -51q-35 -39 -91 -85h161v-108h-349z" />
    <glyph glyph-name="threesuperior" unicode="&#xb3;" horiz-adv-x="450" 
d="M50 554q80 -16 131 -16q49 0 64 9q16 9 16 30q0 17 -13 26t-58 9h-93v96h138l11 15q10 14 10 27q0 16 -11 23q-13 8 -54 8q-54 0 -138 -19v98q93 20 151 20q93 0 136 -29q40 -28 40 -78q0 -34 -15 -60q-9 -15 -27 -39q19 -15 31 -34q18 -28 18 -70q0 -55 -40 -91
q-45 -40 -152 -40q-73 0 -145 15v100z" />
    <glyph glyph-name="acute" unicode="&#xb4;" 
d="M267 600h-156l141 154h162z" />
    <glyph glyph-name="uni00B5" unicode="&#xb5;" horiz-adv-x="598" 
d="M65 -192v720h146v-213q0 -80 3 -110q3 -32 22.5 -57.5t61.5 -25.5q37 0 89 13v393h146v-503q-160 -42 -235 -42q-63 0 -87 28v-203h-146z" />
    <glyph glyph-name="paragraph" unicode="&#xb6;" horiz-adv-x="759" 
d="M121 323q-74 63 -74 193q0 129 81 193q57 45 175 45h370v-946h-106v842h-114v-842h-106v464q-59 0 -89 2t-69.5 13.5t-67.5 35.5z" />
    <glyph glyph-name="periodcentered" unicode="&#xb7;" horiz-adv-x="300" 
d="M233 178h-166v178h166v-178z" />
    <glyph glyph-name="cedilla" unicode="&#xb8;" 
d="M274 -205h-145l93 145h144z" />
    <glyph glyph-name="onesuperior" unicode="&#xb9;" horiz-adv-x="330" 
d="M265 450h-131v274l-113 -30v118l244 70v-432z" />
    <glyph glyph-name="ordmasculine" unicode="&#xba;" horiz-adv-x="514" 
d="M91 413q-49 51 -49 150q0 89 40 138q58 70 175 70q114 0 172 -66q43 -50 43 -142q0 -94 -48 -147q-54 -61 -167 -61q-111 0 -166 58zM187 625q-16 -21 -16 -62q0 -39 16 -63q18 -26 70 -26q45 0 67 25q19 21 19 66q0 42 -20 65q-21 22 -66 22q-50 0 -70 -27z" />
    <glyph glyph-name="guillemotright" unicode="&#xbb;" horiz-adv-x="671" 
d="M462 58h-170l176 206l-176 206h170l176 -206zM183 264l-176 206h170l176 -206l-176 -206h-170z" />
    <glyph glyph-name="onequarter" unicode="&#xbc;" horiz-adv-x="981" 
d="M141 0l428 754h153l-428 -754h-153zM792 62h-244v111l183 246h155l-185 -248h91v64h125v-235h-125v62zM21 579v118l244 70v-432h-131v274z" />
    <glyph glyph-name="onehalf" unicode="&#xbd;" horiz-adv-x="961" 
d="M294 0h-153l428 754h153zM915 0h-349v101q106 75 146 110q53 46 53 69q0 18 -12 27t-52 9q-44 0 -128 -21v114q87 21 144 21q83 0 126 -32q47 -34 47 -98q0 -33 -10.5 -56t-34.5 -51q-35 -39 -91 -85h161v-108zM21 579v118l244 70v-432h-131v274z" />
    <glyph glyph-name="threequarters" unicode="&#xbe;" horiz-adv-x="1101" 
d="M261 0l428 754h153l-428 -754h-153zM50 439q80 -16 131 -16q49 0 64 9q16 9 16 30q0 17 -13 26t-58 9h-93v96h138l11 15q10 14 10 27q0 16 -11 23q-13 8 -54 8q-54 0 -138 -19v98q93 20 151 20q93 0 136 -29q40 -28 40 -78q0 -34 -15 -60q-9 -15 -27 -39q19 -15 31 -34
q18 -29 18 -70q0 -55 -40 -91q-45 -40 -152 -40q-73 0 -145 15v100zM912 62h-244v111l183 246h155l-185 -248h91v64h125v-235h-125v62z" />
    <glyph glyph-name="questiondown" unicode="&#xbf;" horiz-adv-x="559" 
d="M42 -17q0 51 15 89.5t54 86.5q36 43 93 104q24 26 37 59h162q-16 -54 -55 -103q-35 -44 -105 -116q-51 -53 -51 -101q0 -37 24 -56t98 -19q64 0 185 25v-133q-120 -28 -213 -28q-112 0 -175 49q-31 24 -50 63.5t-19 79.5zM241 384v178h162v-178h-162z" />
    <glyph glyph-name="Agrave" unicode="&#xc0;" horiz-adv-x="747" 
d="M1 0l274 754h196l275 -754h-163l-50 137h-323l-49 -137h-160zM370 603l-114 -325h229zM173 950h162l139 -154h-156z" />
    <glyph glyph-name="Aacute" unicode="&#xc1;" horiz-adv-x="747" 
d="M1 0l274 754h196l275 -754h-163l-50 137h-323l-49 -137h-160zM256 278h229l-115 325zM436 796h-156l141 154h162z" />
    <glyph glyph-name="Acircumflex" unicode="&#xc2;" horiz-adv-x="747" 
d="M1 0l274 754h196l275 -754h-163l-50 137h-323l-49 -137h-160zM141 796l147 154h168l147 -154h-151l-81 81l-81 -81h-149zM370 603l-114 -325h229z" />
    <glyph glyph-name="Atilde" unicode="&#xc3;" horiz-adv-x="747" 
d="M161 0h-160l274 754h196l275 -754h-163l-50 137h-323zM150 803q29 87 61 120.5t88 33.5q38 0 109 -38q46 -25 65 -25q12 0 21.5 9.5t21.5 34.5h105q-28 -70 -60.5 -107t-85.5 -37q-50 0 -106 34q-47 28 -68 28q-16 0 -24.5 -10t-21.5 -43h-105zM370 603l-114 -325h229z
" />
    <glyph glyph-name="Adieresis" unicode="&#xc4;" horiz-adv-x="747" 
d="M1 0l274 754h196l275 -754h-163l-50 137h-323l-49 -137h-160zM370 603l-114 -325h229zM450 796v154h139v-154h-139zM158 796v154h139v-154h-139z" />
    <glyph glyph-name="Aring" unicode="&#xc5;" horiz-adv-x="747" 
d="M1 0l258 711q-10 10 -18 26q-13 27 -13 64q0 58 34 92q39 39 111 39q73 0 111 -39q34 -34 34 -92q0 -39 -14 -66q-7 -14 -17 -24l259 -711h-163l-50 137h-323l-49 -137h-160zM256 278h229l-115 325zM330 840q-15 -12 -15 -39q0 -24 14 -37q15 -14 44 -14t44 14
q14 13 14 37q0 27 -15 39q-14 13 -43 13t-43 -13z" />
    <glyph glyph-name="AE" unicode="&#xc6;" horiz-adv-x="1175" 
d="M178 0h-188l509 754h625v-141h-384v-159h362v-141h-362v-172h401v-141h-551v137h-320zM590 614l-225 -336h225v336z" />
    <glyph glyph-name="Ccedilla" unicode="&#xc7;" horiz-adv-x="657" 
d="M57 366q0 185 55 274q81 131 263 131q53 0 132 -15q62 -12 112 -24v-144q-76 18 -125 27q-58 11 -101 11q-64 0 -100.5 -18t-56.5 -58q-27 -54 -27 -181t29 -178q20 -34 58 -48.5t102 -14.5q66 0 221 33v-145q-160 -33 -247 -33q-75 0 -130.5 20.5t-81.5 45t-50 60.5
q-53 82 -53 257zM216 -205l93 145h144l-92 -145h-145z" />
    <glyph glyph-name="Egrave" unicode="&#xc8;" horiz-adv-x="657" 
d="M623 0h-551v754h534v-141h-384v-159h362v-141h-362v-172h401v-141zM282 796l-145 154h162l139 -154h-156z" />
    <glyph glyph-name="Eacute" unicode="&#xc9;" horiz-adv-x="657" 
d="M623 0h-551v754h534v-141h-384v-159h362v-141h-362v-172h401v-141zM217 796l141 154h162l-147 -154h-156z" />
    <glyph glyph-name="Ecircumflex" unicode="&#xca;" horiz-adv-x="657" 
d="M72 0v754h534v-141h-384v-159h362v-141h-362v-172h401v-141h-551zM249 796h-149l147 154h168l147 -154h-151l-81 81z" />
    <glyph glyph-name="Edieresis" unicode="&#xcb;" horiz-adv-x="657" 
d="M72 0v754h534v-141h-384v-159h362v-141h-362v-172h401v-141h-551zM543 796h-139v154h139v-154zM133 796v154h139v-154h-139z" />
    <glyph glyph-name="Igrave" unicode="&#xcc;" horiz-adv-x="294" 
d="M222 0h-150v754h150v-754zM233 796h-156l-145 154h162z" />
    <glyph glyph-name="Iacute" unicode="&#xcd;" horiz-adv-x="294" 
d="M222 0h-150v754h150v-754zM217 796h-156l141 154h162z" />
    <glyph glyph-name="Icircumflex" unicode="&#xce;" horiz-adv-x="294" 
d="M72 754h150v-754h-150v754zM67 796h-149l147 154h168l147 -154h-151l-81 81z" />
    <glyph glyph-name="Idieresis" unicode="&#xcf;" horiz-adv-x="294" 
d="M222 0h-150v754h150v-754zM194 950h139v-154h-139v154zM-39 796v154h139v-154h-139z" />
    <glyph glyph-name="Eth" unicode="&#xd0;" horiz-adv-x="755" 
d="M20 454h72v300h272q90 0 150 -19t102 -66q43 -48 62.5 -114t19.5 -175q0 -214 -105 -308q-44 -39 -100 -55.5t-137 -16.5h-264v315h-72v139zM365 613h-123v-159h186v-139h-186v-174h118q56 0 91 14.5t59 50.5q36 53 36 174q0 68 -8.5 112.5t-34.5 75.5q-23 27 -55 36
t-83 9z" />
    <glyph glyph-name="Ntilde" unicode="&#xd1;" horiz-adv-x="755" 
d="M72 0v754h162l301 -504v504h148v-754h-162l-301 504v-504h-148zM150 803q29 87 61 120.5t88 33.5q38 0 109 -38q46 -25 65 -25q12 0 21.5 9.5t21.5 34.5h105q-28 -70 -60.5 -107t-85.5 -37q-50 0 -106 34q-47 28 -68 28q-16 0 -24.5 -10t-21.5 -43h-105z" />
    <glyph glyph-name="Ograve" unicode="&#xd2;" horiz-adv-x="780" 
d="M118 99q-61 91 -61 276q0 179 55 268q40 65 102 96.5t176 31.5q101 0 161 -27.5t103 -86.5q69 -94 69 -282q0 -185 -70 -280q-43 -59 -102 -85.5t-161 -26.5q-113 0 -172 28t-100 88zM209 375q0 -137 34 -191q37 -59 147 -59q94 0 135 51q46 57 46 199q0 131 -36 188
q-41 66 -145 66q-53 0 -89 -12.5t-58 -48.5q-34 -55 -34 -193zM199 950h162l139 -154h-156z" />
    <glyph glyph-name="Oacute" unicode="&#xd3;" horiz-adv-x="780" 
d="M118 99q-61 91 -61 276q0 179 55 268q40 65 102 96.5t176 31.5q101 0 161 -27.5t103 -86.5q69 -94 69 -282q0 -185 -70 -280q-43 -59 -102 -85.5t-161 -26.5q-113 0 -172 28t-100 88zM209 375q0 -137 34 -191q37 -59 147 -59q94 0 135 51q46 57 46 199q0 131 -36 188
q-41 66 -145 66q-53 0 -89 -12.5t-58 -48.5q-34 -55 -34 -193zM274 796l141 154h162l-147 -154h-156z" />
    <glyph glyph-name="Ocircumflex" unicode="&#xd4;" horiz-adv-x="780" 
d="M118 99q-61 91 -61 276q0 179 55 268q40 65 102 96.5t176 31.5q101 0 161 -27.5t103 -86.5q69 -94 69 -282q0 -185 -70 -280q-43 -59 -102 -85.5t-161 -26.5q-113 0 -172 28t-100 88zM209 375q0 -137 34 -191q37 -59 147 -59q94 0 135 51q46 57 46 199q0 131 -36 188
q-41 66 -145 66q-53 0 -89 -12.5t-58 -48.5q-34 -55 -34 -193zM308 796h-149l147 154h168l147 -154h-151l-81 81z" />
    <glyph glyph-name="Otilde" unicode="&#xd5;" horiz-adv-x="780" 
d="M118 99q-61 91 -61 276q0 179 55 268q40 65 102 96.5t176 31.5q101 0 161 -27.5t103 -86.5q69 -94 69 -282q0 -185 -70 -280q-43 -59 -102 -85.5t-161 -26.5q-113 0 -172 28t-100 88zM209 375q0 -137 34 -191q37 -59 147 -59q94 0 135 51q46 57 46 199q0 131 -36 188
q-41 66 -145 66q-53 0 -89 -12.5t-58 -48.5q-34 -55 -34 -193zM159 803q29 87 61 120.5t88 33.5q38 0 109 -38q46 -25 65 -25q12 0 21.5 9.5t21.5 34.5h105q-28 -70 -60.5 -107t-85.5 -37q-50 0 -106 34q-47 28 -68 28q-16 0 -24.5 -10t-21.5 -43h-105z" />
    <glyph glyph-name="Odieresis" unicode="&#xd6;" horiz-adv-x="780" 
d="M118 99q-61 91 -61 276q0 179 55 268q40 65 102 96.5t176 31.5q101 0 161 -27.5t103 -86.5q69 -94 69 -282q0 -185 -70 -280q-43 -59 -102 -85.5t-161 -26.5q-113 0 -172 28t-100 88zM209 375q0 -137 34 -191q37 -59 147 -59q94 0 135 51q46 57 46 199q0 131 -36 188
q-41 66 -145 66q-53 0 -89 -12.5t-58 -48.5q-34 -55 -34 -193zM610 796h-139v154h139v-154zM170 950h139v-154h-139v154z" />
    <glyph glyph-name="multiply" unicode="&#xd7;" horiz-adv-x="700" 
d="M49 630h169l132 -159l132 159h169l-212 -253l212 -254h-169l-132 160l-132 -160h-169l212 254z" />
    <glyph glyph-name="Oslash" unicode="&#xd8;" horiz-adv-x="780" 
d="M118 99q-61 91 -61 276q0 179 55 268q40 65 102 96.5t176 31.5q101 0 161 -27.5t103 -86.5q69 -94 69 -282q0 -185 -70 -280q-43 -59 -102 -85.5t-161 -26.5q-113 0 -172 28t-100 88zM295 136q33 -14 95 -14q98 0 139 51q46 57 46 202q0 104 -22 160zM205 375
q0 -99 17 -153l256 395q-34 15 -88 15t-91.5 -12.5t-59.5 -48.5q-34 -55 -34 -196z" />
    <glyph glyph-name="Ugrave" unicode="&#xd9;" horiz-adv-x="739" 
d="M70 754h150v-463q0 -57 6.5 -87.5t27.5 -50.5q30 -28 116 -28q85 0 114 27q21 19 28 50.5t7 88.5v463h150v-460q0 -89 -14.5 -144t-52.5 -94q-40 -40 -95 -56.5t-137 -16.5q-87 0 -142 16.5t-94 58.5q-37 40 -50.5 96t-13.5 140v460zM187 950h162l139 -154h-156z" />
    <glyph glyph-name="Uacute" unicode="&#xda;" horiz-adv-x="739" 
d="M70 294v460h150v-463q0 -57 6.5 -87.5t27.5 -50.5q30 -28 116 -28q85 0 114 27q21 19 28 50.5t7 88.5v463h150v-460q0 -89 -14.5 -144t-52.5 -94q-40 -40 -95 -56.5t-137 -16.5q-87 0 -142 16.5t-94 58.5q-37 40 -50.5 96t-13.5 140zM256 796l141 154h162l-147 -154h-156
z" />
    <glyph glyph-name="Ucircumflex" unicode="&#xdb;" horiz-adv-x="739" 
d="M70 754h150v-463q0 -57 6.5 -87.5t27.5 -50.5q30 -28 116 -28q85 0 114 27q21 19 28 50.5t7 88.5v463h150v-460q0 -89 -14.5 -144t-52.5 -94q-40 -40 -95 -56.5t-137 -16.5q-87 0 -142 16.5t-94 58.5q-37 40 -50.5 96t-13.5 140v460zM286 796h-149l147 154h168l147 -154
h-151l-81 81z" />
    <glyph glyph-name="Udieresis" unicode="&#xdc;" horiz-adv-x="739" 
d="M70 754h150v-463q0 -57 6.5 -87.5t27.5 -50.5q30 -28 116 -28q85 0 114 27q21 19 28 50.5t7 88.5v463h150v-460q0 -89 -14.5 -144t-52.5 -94q-40 -40 -95 -56.5t-137 -16.5q-87 0 -142 16.5t-94 58.5q-37 40 -50.5 96t-13.5 140v460zM446 796v154h139v-154h-139zM294 796
h-139v154h139v-154z" />
    <glyph glyph-name="Yacute" unicode="&#xdd;" horiz-adv-x="665" 
d="M-15 754h173l179 -312l179 312h164l-272 -467v-287h-150v287zM216 796l141 154h162l-147 -154h-156z" />
    <glyph glyph-name="Thorn" unicode="&#xde;" horiz-adv-x="672" 
d="M72 0v754h150v-127h174q117 0 177 -59q65 -64 65 -181q0 -121 -69 -183q-59 -54 -185 -59q-44 -2 -162 -2v-143h-150zM222 486v-202q103 0 150 2q66 3 89 25q25 23 25 76t-25 76q-26 23 -96 23h-143z" />
    <glyph glyph-name="germandbls" unicode="&#xdf;" horiz-adv-x="660" 
d="M65 0v511q0 65 9 99q15 57 59 93q73 61 184 61q101 0 159 -39q74 -50 74 -142q0 -58 -35 -110q-18 -27 -51 -65l66 -59q48 -43 70 -78q27 -44 27 -98q0 -76 -48 -124q-58 -58 -170 -58q-56 0 -117 8v131q57 -10 97 -10q49 0 69 15q19 14 19 40q0 22 -12 38q-9 12 -53 51
l-138 124q78 82 107 120q23 31 23 60q0 30 -20 47q-22 18 -67 18q-59 0 -87 -38q-13 -17 -17 -47q-2 -14 -2 -43v-505h-146z" />
    <glyph glyph-name="agrave" unicode="&#xe0;" horiz-adv-x="609" 
d="M45 252q0 132 42 202q55 91 202 91q57 0 113.5 -14t141.5 -44v-487h-144v68q-13 -11 -51 -38q-34 -24 -61.5 -35.5t-65.5 -11.5q-90 0 -137 78q-40 66 -40 191zM193 252q0 -63 13 -99q12 -32 50 -32q31 0 92 46q29 21 50 40v187q-58 21 -98 21q-66 0 -88 -43
q-19 -38 -19 -120zM266 600l-145 154h162l139 -154h-156z" />
    <glyph glyph-name="aacute" unicode="&#xe1;" horiz-adv-x="609" 
d="M45 252q0 132 42 202q55 91 202 91q57 0 113.5 -14t141.5 -44v-487h-144v68q-13 -11 -51 -38q-34 -24 -61.5 -35.5t-65.5 -11.5q-90 0 -137 78q-40 66 -40 191zM212 372q-19 -38 -19 -120q0 -63 13 -99q12 -32 50 -32q31 0 92 46q29 21 50 40v187q-58 21 -98 21
q-66 0 -88 -43zM199 600l141 154h162l-147 -154h-156z" />
    <glyph glyph-name="acircumflex" unicode="&#xe2;" horiz-adv-x="609" 
d="M45 252q0 132 42 202q55 91 202 91q57 0 113.5 -14t141.5 -44v-487h-144v68q-13 -11 -51 -38q-34 -24 -61.5 -35.5t-65.5 -11.5q-90 0 -137 78q-40 66 -40 191zM193 252q0 -63 13 -99q12 -32 50 -32q31 0 92 46q29 21 50 40v187q-58 21 -98 21q-66 0 -88 -43
q-19 -38 -19 -120zM76 600l147 154h168l147 -154h-151l-81 81l-81 -81h-149z" />
    <glyph glyph-name="atilde" unicode="&#xe3;" horiz-adv-x="609" 
d="M85 61q-40 66 -40 191q0 132 42 202q55 91 202 91q57 0 113.5 -14t141.5 -44v-487h-144v68q-13 -11 -51 -38q-34 -24 -61.5 -35.5t-65.5 -11.5q-90 0 -137 78zM193 252q0 -63 13 -99q12 -32 50 -32q31 0 92 46q29 21 50 40v187q-58 21 -98 21q-66 0 -88 -43
q-19 -38 -19 -120zM84 608q29 87 61 120.5t88 33.5q38 0 109 -38q46 -25 65 -25q12 0 21.5 9.5t21.5 34.5h105q-28 -70 -60.5 -107t-85.5 -37q-50 0 -106 34q-47 28 -68 28q-16 0 -24.5 -10t-21.5 -43h-105z" />
    <glyph glyph-name="adieresis" unicode="&#xe4;" horiz-adv-x="609" 
d="M45 252q0 132 42 202q55 91 202 91q57 0 113.5 -14t141.5 -44v-487h-144v68q-13 -11 -51 -38q-34 -24 -61.5 -35.5t-65.5 -11.5q-90 0 -137 78q-40 66 -40 191zM212 372q-19 -38 -19 -120q0 -63 13 -99q12 -32 50 -32q31 0 92 46q29 21 50 40v187q-58 21 -98 21
q-66 0 -88 -43zM491 600h-139v154h139v-154zM120 754h139v-154h-139v154z" />
    <glyph glyph-name="aring" unicode="&#xe5;" horiz-adv-x="609" 
d="M45 252q0 132 42 202q55 91 202 91q57 0 113.5 -14t141.5 -44v-487h-144v68q-13 -11 -51 -38q-34 -24 -61.5 -35.5t-65.5 -11.5q-90 0 -137 78q-40 66 -40 191zM202 603q-42 35 -42 100q0 57 34 92q39 39 111 39t111 -39q34 -34 34 -92q0 -65 -42 -100q-38 -30 -103 -30
t-103 30zM212 372q-19 -38 -19 -120q0 -63 13 -99q12 -32 50 -32q31 0 92 46q29 21 50 40v187q-58 21 -98 21q-66 0 -88 -43zM247 703q0 -24 14 -37q15 -14 44 -14t44 14q14 13 14 37q0 27 -15 39q-14 13 -43 13t-43 -13q-15 -12 -15 -39z" />
    <glyph glyph-name="ae" unicode="&#xe6;" horiz-adv-x="918" 
d="M88 20q-49 42 -49 123q0 99 60 139q39 26 134 26h153v35q0 39 -18 54q-23 20 -86 20q-87 0 -212 -29v124q135 33 226 33q129 0 173 -53q48 53 164 53q144 0 201 -75q41 -54 41 -158q0 -58 -10 -108h-339q0 -31 15 -54q27 -41 120 -41q71 0 188 18v-124q-122 -20 -203 -20
q-156 0 -211 79q-57 -40 -98 -57q-54 -22 -115 -22q-90 0 -134 37zM544 386q-18 -29 -18 -78h208q2 12 2 27q0 35 -15 57q-24 35 -88 35t-89 -41zM193 186q-10 -12 -10 -36q0 -25 11 -36q15 -15 57 -15q43 0 84 25q28 17 51 34v46h-122q-55 0 -71 -18z" />
    <glyph glyph-name="ccedilla" unicode="&#xe7;" horiz-adv-x="496" 
d="M91 72q-44 66 -44 191q0 121 45 190q30 45 75.5 68.5t120.5 23.5q61 0 180 -31v-138q-111 31 -161 31q-74 0 -94 -42q-18 -37 -18 -102q0 -63 16 -99q19 -44 96 -44q56 0 161 25v-138q-120 -24 -179 -24q-80 0 -124 22t-74 67zM121 -205l93 145h144l-92 -145h-145z" />
    <glyph glyph-name="egrave" unicode="&#xe8;" horiz-adv-x="580" 
d="M45 259q0 126 40 193q55 93 210 93q144 0 201 -75q41 -54 41 -158q0 -58 -10 -108h-339q0 -31 16 -54q28 -41 119 -41q69 0 188 18v-124q-125 -20 -203 -20q-86 0 -135.5 21t-82.5 66q-45 62 -45 189zM247 600l-145 154h162l139 -154h-156zM206 386q-18 -29 -18 -78h208
q2 12 2 27q0 35 -15 57q-24 35 -88 35t-89 -41z" />
    <glyph glyph-name="eacute" unicode="&#xe9;" horiz-adv-x="580" 
d="M45 259q0 126 40 193q55 93 210 93q144 0 201 -75q41 -54 41 -158q0 -58 -10 -108h-339q0 -31 16 -54q28 -41 119 -41q69 0 188 18v-124q-125 -20 -203 -20q-86 0 -135.5 21t-82.5 66q-45 62 -45 189zM184 600l141 154h162l-147 -154h-156zM188 308h208q2 12 2 27
q0 35 -15 57q-24 35 -88 35t-89 -41q-18 -29 -18 -78z" />
    <glyph glyph-name="ecircumflex" unicode="&#xea;" horiz-adv-x="580" 
d="M45 259q0 126 40 193q55 93 210 93q144 0 201 -75q41 -54 41 -158q0 -58 -10 -108h-339q0 -31 16 -54q28 -41 119 -41q69 0 188 18v-124q-125 -20 -203 -20q-86 0 -135.5 21t-82.5 66q-45 62 -45 189zM211 600h-149l147 154h168l147 -154h-151l-81 81zM206 386
q-18 -29 -18 -78h208q2 12 2 27q0 35 -15 57q-24 35 -88 35t-89 -41z" />
    <glyph glyph-name="edieresis" unicode="&#xeb;" horiz-adv-x="580" 
d="M90 70q-45 62 -45 189q0 126 40 193q55 93 210 93q144 0 201 -75q41 -54 41 -158q0 -58 -10 -108h-339q0 -31 16 -54q28 -41 119 -41q69 0 188 18v-124q-125 -20 -203 -20q-86 0 -135.5 21t-82.5 66zM206 386q-18 -29 -18 -78h208q2 12 2 27q0 35 -15 57q-24 35 -88 35
t-89 -41zM482 600h-139v154h139v-154zM106 600v154h139v-154h-139z" />
    <glyph glyph-name="igrave" unicode="&#xec;" horiz-adv-x="276" 
d="M222 600h-156l-145 154h162zM211 0h-146v528h146v-528z" />
    <glyph glyph-name="iacute" unicode="&#xed;" horiz-adv-x="276" 
d="M210 600h-156l141 154h162zM211 0h-146v528h146v-528z" />
    <glyph glyph-name="icircumflex" unicode="&#xee;" horiz-adv-x="276" 
d="M65 528h146v-528h-146v528zM57 600h-149l147 154h168l147 -154h-151l-81 81z" />
    <glyph glyph-name="idieresis" unicode="&#xef;" horiz-adv-x="276" 
d="M211 0h-146v528h146v-528zM175 754h139v-154h-139v154zM-38 600v154h139v-154h-139z" />
    <glyph glyph-name="eth" unicode="&#xf0;" horiz-adv-x="623" 
d="M45 247q0 97 40 161q53 85 185 85q58 0 120 -17q-14 58 -50 98l-173 -67v98l91 35q-38 16 -91 20v115q145 -12 235 -77l145 56v-99l-73 -28q94 -122 94 -372q0 -107 -45 -174q-66 -98 -217 -98q-154 0 -217 92q-44 65 -44 172zM193 247q0 -57 18 -88q24 -42 95 -42
q64 0 90 37q24 35 24 98q0 50 -8 90q-17 7 -54 15t-62 8q-67 0 -87 -38q-16 -31 -16 -80z" />
    <glyph glyph-name="ntilde" unicode="&#xf1;" horiz-adv-x="604" 
d="M211 0h-146v528h146v-29q117 46 166 46q75 0 116 -42q25 -26 36 -67.5t11 -119.5v-316h-146v309q0 62 -14 81q-11 14 -49 14q-37 0 -120 -34v-370zM74 608q29 87 61 120.5t88 33.5q38 0 109 -38q46 -25 65 -25q12 0 21.5 9.5t21.5 34.5h105q-28 -70 -60.5 -107t-85.5 -37
q-50 0 -106 34q-47 28 -68 28q-16 0 -24.5 -10t-21.5 -43h-105z" />
    <glyph glyph-name="ograve" unicode="&#xf2;" horiz-adv-x="610" 
d="M92 75q-47 65 -47 188q0 121 44 186q65 96 216 96q146 0 212 -92q48 -67 48 -190q0 -119 -46 -183q-35 -48 -84.5 -72.5t-129.5 -24.5q-82 0 -130.5 23t-82.5 69zM193 263q0 -65 20 -102q24 -44 92 -44q59 0 88 40q24 35 24 109t-26 110q-25 35 -86 35q-67 0 -91 -42
q-21 -38 -21 -106zM109 754h162l139 -154h-156z" />
    <glyph glyph-name="oacute" unicode="&#xf3;" horiz-adv-x="610" 
d="M92 75q-47 65 -47 188q0 121 44 186q65 96 216 96q146 0 212 -92q48 -67 48 -190q0 -119 -46 -183q-35 -48 -84.5 -72.5t-129.5 -24.5q-82 0 -130.5 23t-82.5 69zM193 263q0 -65 20 -102q24 -44 92 -44q59 0 88 40q24 35 24 109t-26 110q-25 35 -86 35q-67 0 -91 -42
q-21 -38 -21 -106zM191 600l141 154h162l-147 -154h-156z" />
    <glyph glyph-name="ocircumflex" unicode="&#xf4;" horiz-adv-x="610" 
d="M92 75q-47 65 -47 188q0 121 44 186q65 96 216 96q146 0 212 -92q48 -67 48 -190q0 -119 -46 -183q-35 -48 -84.5 -72.5t-129.5 -24.5q-82 0 -130.5 23t-82.5 69zM193 263q0 -65 20 -102q24 -44 92 -44q59 0 88 40q24 35 24 109t-26 110q-25 35 -86 35q-67 0 -91 -42
q-21 -38 -21 -106zM74 600l147 154h168l147 -154h-151l-81 81l-81 -81h-149z" />
    <glyph glyph-name="otilde" unicode="&#xf5;" horiz-adv-x="610" 
d="M92 75q-47 65 -47 188q0 121 44 186q65 96 216 96q146 0 212 -92q48 -67 48 -190q0 -119 -46 -183q-35 -48 -84.5 -72.5t-129.5 -24.5q-82 0 -130.5 23t-82.5 69zM214 369q-21 -38 -21 -106q0 -65 20 -102q24 -44 92 -44q59 0 88 40q24 35 24 109t-26 110q-25 35 -86 35
q-67 0 -91 -42zM180 608h-105q29 87 61 120.5t88 33.5q38 0 109 -38q46 -25 65 -25q12 0 21.5 9.5t21.5 34.5h105q-28 -70 -60.5 -107t-85.5 -37q-50 0 -106 34q-47 28 -68 28q-16 0 -24.5 -10t-21.5 -43z" />
    <glyph glyph-name="odieresis" unicode="&#xf6;" horiz-adv-x="610" 
d="M92 75q-47 65 -47 188q0 121 44 186q65 96 216 96q146 0 212 -92q48 -67 48 -190q0 -119 -46 -183q-35 -48 -84.5 -72.5t-129.5 -24.5q-82 0 -130.5 23t-82.5 69zM214 369q-21 -38 -21 -106q0 -65 20 -102q24 -44 92 -44q59 0 88 40q24 35 24 109t-26 110q-25 35 -86 35
q-67 0 -91 -42zM494 600h-139v154h139v-154zM116 754h139v-154h-139v154z" />
    <glyph glyph-name="divide" unicode="&#xf7;" horiz-adv-x="700" 
d="M65 311v132h570v-132h-570zM424 87h-148v157h148v-157zM424 510h-148v157h148v-157z" />
    <glyph glyph-name="oslash" unicode="&#xf8;" horiz-adv-x="610" 
d="M92 75q-47 65 -47 188q0 121 44 186q65 96 216 96q146 0 212 -92q48 -67 48 -190q0 -119 -46 -183q-35 -48 -84.5 -72.5t-129.5 -24.5q-82 0 -130.5 23t-82.5 69zM188 263q0 -44 8 -78l166 221q-25 10 -57 10q-72 0 -96 -42q-21 -38 -21 -111zM249 122q23 -10 56 -10
q64 0 93 40q24 35 24 114q0 48 -7 77z" />
    <glyph glyph-name="ugrave" unicode="&#xf9;" horiz-adv-x="602" 
d="M64 528h146v-303q0 -67 14 -84q16 -19 61 -19q52 0 106 13v393h146v-503q-168 -42 -272 -42q-100 0 -152 56q-49 53 -49 179v310zM118 754h162l139 -154h-156z" />
    <glyph glyph-name="uacute" unicode="&#xfa;" horiz-adv-x="602" 
d="M113 39q-49 53 -49 179v310h146v-303q0 -67 14 -84q16 -19 61 -19q52 0 106 13v393h146v-503q-168 -42 -272 -42q-100 0 -152 56zM190 600l141 154h162l-147 -154h-156z" />
    <glyph glyph-name="ucircumflex" unicode="&#xfb;" horiz-adv-x="602" 
d="M64 528h146v-303q0 -67 14 -84q16 -19 61 -19q52 0 106 13v393h146v-503q-168 -42 -272 -42q-100 0 -152 56q-49 53 -49 179v310zM217 600h-149l147 154h168l147 -154h-151l-81 81z" />
    <glyph glyph-name="udieresis" unicode="&#xfc;" horiz-adv-x="602" 
d="M64 218v310h146v-303q0 -67 14 -84q16 -19 61 -19q52 0 106 13v393h146v-503q-168 -42 -272 -42q-100 0 -152 56q-49 53 -49 179zM350 754h139v-154h-139v154zM113 600v154h139v-154h-139z" />
    <glyph glyph-name="yacute" unicode="&#xfd;" horiz-adv-x="588" 
d="M217 -7l-217 535h160l136 -347l136 347h156l-292 -720h-154zM180 600l141 154h162l-147 -154h-156z" />
    <glyph glyph-name="thorn" unicode="&#xfe;" horiz-adv-x="611" 
d="M65 -192v946h146v-268q30 19 61 34q52 25 100 25q90 0 142 -73t52 -204q0 -133 -49 -203q-58 -82 -154 -82q-61 0 -152 35v-210h-146zM211 152q78 -35 114 -35q48 0 69 34q24 40 24 113q0 78 -24 117q-19 31 -59 31q-24 0 -56 -17q-47 -24 -68 -39v-204z" />
    <glyph glyph-name="ydieresis" unicode="&#xff;" horiz-adv-x="588" 
d="M217 -7l-217 535h160l136 -347l136 347h156l-292 -720h-154zM346 754h139v-154h-139v154zM103 600v154h139v-154h-139z" />
    <glyph glyph-name="Amacron" unicode="&#x100;" horiz-adv-x="747" 
d="M1 0l274 754h196l275 -754h-163l-50 137h-323l-49 -137h-160zM171 821v101h404v-101h-404zM370 603l-114 -325h229z" />
    <glyph glyph-name="amacron" unicode="&#x101;" horiz-adv-x="609" 
d="M45 252q0 132 42 202q55 91 202 91q57 0 113.5 -14t141.5 -44v-487h-144v68q-13 -11 -51 -38q-34 -24 -61.5 -35.5t-65.5 -11.5q-90 0 -137 78q-40 66 -40 191zM193 252q0 -63 13 -99q12 -32 50 -32q31 0 92 46q29 21 50 40v187q-58 21 -98 21q-66 0 -88 -43
q-19 -38 -19 -120zM106 726h404v-101h-404v101z" />
    <glyph glyph-name="Abreve" unicode="&#x102;" horiz-adv-x="747" 
d="M1 0l274 754h196l275 -754h-163l-50 137h-323l-49 -137h-160zM178 950h120q5 -19 16 -36q18 -28 59 -28q44 0 61 28q9 14 14 36h120q-13 -69 -47 -105q-48 -53 -148 -53q-99 0 -145 51q-33 37 -50 107zM370 603l-114 -325h229z" />
    <glyph glyph-name="abreve" unicode="&#x103;" horiz-adv-x="609" 
d="M45 252q0 132 42 202q55 91 202 91q57 0 113.5 -14t141.5 -44v-487h-144v68q-13 -11 -51 -38q-34 -24 -61.5 -35.5t-65.5 -11.5q-90 0 -137 78q-40 66 -40 191zM193 252q0 -63 13 -99q12 -32 50 -32q31 0 92 46q29 21 50 40v187q-58 21 -98 21q-66 0 -88 -43
q-19 -38 -19 -120zM158 647q-33 37 -50 107h120q5 -19 16 -36q18 -28 59 -28q44 0 61 28q9 14 14 36h120q-13 -69 -47 -105q-48 -53 -148 -53q-99 0 -145 51z" />
    <glyph glyph-name="Aogonek" unicode="&#x104;" horiz-adv-x="747" 
d="M161 0h-160l274 754h196l275 -754q-41 -33 -63 -52q-24 -23 -24 -41q0 -17 25 -17q20 0 71 17v-97q-62 -19 -112 -19q-71 0 -102 22q-30 21 -30 68q0 38 24 72q17 23 45 47l-50 137h-320zM370 605l-113 -327h226z" />
    <glyph glyph-name="aogonek" unicode="&#x105;" horiz-adv-x="609" 
d="M45 252q0 132 42 202q55 91 202 91q57 0 113.5 -14t141.5 -44v-487q-35 -24 -67 -53q-25 -24 -25 -40q0 -17 25 -17q21 0 67 16v-97q-59 -18 -108 -18q-71 0 -102 22q-30 21 -30 68q0 38 34 72q20 19 62 47v68q-13 -11 -51 -38q-34 -24 -61.5 -35.5t-65.5 -11.5
q-90 0 -137 78q-40 66 -40 191zM193 252q0 -63 13 -99q12 -32 50 -32q31 0 92 46q29 21 50 40v187q-58 21 -98 21q-66 0 -88 -43q-19 -38 -19 -120z" />
    <glyph glyph-name="Cacute" unicode="&#x106;" horiz-adv-x="657" 
d="M57 366q0 185 55 274q81 131 263 131q53 0 132 -15q62 -12 112 -24v-144q-76 18 -125 27q-58 11 -101 11q-64 0 -100.5 -18t-56.5 -58q-27 -54 -27 -181t29 -178q20 -34 58 -48.5t102 -14.5q66 0 221 33v-145q-160 -33 -247 -33q-75 0 -130.5 20.5t-81.5 45t-50 60.5
q-53 82 -53 257zM246 796l141 154h162l-147 -154h-156z" />
    <glyph glyph-name="cacute" unicode="&#x107;" horiz-adv-x="496" 
d="M91 72q-44 66 -44 191q0 121 45 190q30 45 75.5 68.5t120.5 23.5q61 0 180 -31v-138q-111 31 -161 31q-74 0 -94 -42q-18 -37 -18 -102q0 -63 16 -99q19 -44 96 -44q56 0 161 25v-138q-120 -24 -179 -24q-80 0 -124 22t-74 67zM154 600l141 154h162l-147 -154h-156z" />
    <glyph glyph-name="Ccircumflex" unicode="&#x108;" horiz-adv-x="657" 
d="M110 109q-53 82 -53 257q0 185 55 274q81 131 263 131q53 0 132 -15q62 -12 112 -24v-144q-76 18 -125 27q-58 11 -101 11q-64 0 -100.5 -18t-56.5 -58q-27 -54 -27 -181t29 -178q20 -34 58 -48.5t102 -14.5q66 0 221 33v-145q-160 -33 -247 -33q-75 0 -130.5 20.5
t-81.5 45t-50 60.5zM281 796h-149l147 154h168l147 -154h-151l-81 81z" />
    <glyph glyph-name="ccircumflex" unicode="&#x109;" horiz-adv-x="496" 
d="M91 72q-44 66 -44 191q0 121 45 190q30 45 75.5 68.5t120.5 23.5q61 0 180 -31v-138q-111 31 -161 31q-74 0 -94 -42q-18 -37 -18 -102q0 -63 16 -99q19 -44 96 -44q56 0 161 25v-138q-120 -24 -179 -24q-80 0 -124 22t-74 67zM41 600l147 154h168l147 -154h-151l-81 81
l-81 -81h-149z" />
    <glyph glyph-name="Cdotaccent" unicode="&#x10a;" horiz-adv-x="657" 
d="M57 366q0 185 55 274q81 131 263 131q53 0 132 -15q62 -12 112 -24v-144q-76 18 -125 27q-58 11 -101 11q-64 0 -100.5 -18t-56.5 -58q-27 -54 -27 -181t29 -178q20 -34 58 -48.5t102 -14.5q66 0 221 33v-145q-160 -33 -247 -33q-75 0 -130.5 20.5t-81.5 45t-50 60.5
q-53 82 -53 257zM286 796v154h148v-154h-148z" />
    <glyph glyph-name="cdotaccent" unicode="&#x10b;" horiz-adv-x="496" 
d="M91 72q-44 66 -44 191q0 121 45 190q30 45 75.5 68.5t120.5 23.5q61 0 180 -31v-138q-111 31 -161 31q-74 0 -94 -42q-18 -37 -18 -102q0 -63 16 -99q19 -44 96 -44q56 0 161 25v-138q-120 -24 -179 -24q-80 0 -124 22t-74 67zM200 600v154h148v-154h-148z" />
    <glyph glyph-name="Ccaron" unicode="&#x10c;" horiz-adv-x="657" 
d="M110 109q-53 82 -53 257q0 185 55 274q81 131 263 131q53 0 132 -15q62 -12 112 -24v-144q-76 18 -125 27q-58 11 -101 11q-64 0 -100.5 -18t-56.5 -58q-27 -54 -27 -181t29 -178q20 -34 58 -48.5t102 -14.5q66 0 221 33v-145q-160 -33 -247 -33q-75 0 -130.5 20.5
t-81.5 45t-50 60.5zM129 950h151l81 -81l81 81h149l-147 -154h-168z" />
    <glyph glyph-name="ccaron" unicode="&#x10d;" horiz-adv-x="496" 
d="M91 72q-44 66 -44 191q0 121 45 190q30 45 75.5 68.5t120.5 23.5q61 0 180 -31v-138q-111 31 -161 31q-74 0 -94 -42q-18 -37 -18 -102q0 -63 16 -99q19 -44 96 -44q56 0 161 25v-138q-120 -24 -179 -24q-80 0 -124 22t-74 67zM37 754h151l81 -81l81 81h149l-147 -154
h-168z" />
    <glyph glyph-name="Dcaron" unicode="&#x10e;" horiz-adv-x="735" 
d="M72 754h272q90 0 150 -19t102 -66q43 -48 62.5 -114t19.5 -175q0 -214 -105 -308q-44 -39 -100 -55.5t-137 -16.5h-264v754zM222 141h118q56 0 91 14.5t59 50.5q36 53 36 174q0 68 -8.5 112.5t-34.5 75.5q-23 27 -55 36t-83 9h-123v-472zM245 796l-147 154h151l81 -81
l81 81h149l-147 -154h-168z" />
    <glyph glyph-name="dcaron" unicode="&#x10f;" horiz-adv-x="707" 
d="M86 65q-41 68 -41 196q0 130 40 196q28 45 67 66.5t99 21.5q50 0 149 -29v238h146v-754h-144v60q-18 -15 -46 -33q-68 -44 -133 -44q-88 0 -137 82zM193 262q0 -73 14 -108q13 -32 58 -32q31 0 90 40q27 18 45 32v193q-75 25 -112 25q-60 0 -79 -41q-16 -33 -16 -109z
M600 754h120v-64q0 -76 -26 -143h-94v207z" />
    <glyph glyph-name="Dcroat" unicode="&#x110;" horiz-adv-x="755" 
d="M20 454h72v300h272q90 0 150 -19t102 -66q43 -48 62.5 -114t19.5 -175q0 -214 -105 -308q-44 -39 -100 -55.5t-137 -16.5h-264v315h-72v139zM365 613h-123v-159h186v-139h-186v-174h118q56 0 91 14.5t59 50.5q36 53 36 174q0 68 -8.5 112.5t-34.5 75.5q-23 27 -55 36
t-83 9z" />
    <glyph glyph-name="dcroat" unicode="&#x111;" horiz-adv-x="611" 
d="M45 261q0 130 40 196q27 44 66 64t100 20q51 0 149 -27v65h-189v107h189v68h146v-68h73v-107h-73v-579h-144v60q-18 -15 -46 -33q-68 -44 -133 -44q-88 0 -137 82q-41 68 -41 196zM193 262q0 -73 14 -108q13 -32 58 -32q31 0 90 40q27 18 45 32v193q-75 25 -112 25
q-60 0 -79 -41q-16 -33 -16 -109z" />
    <glyph glyph-name="Emacron" unicode="&#x112;" horiz-adv-x="657" 
d="M72 0v754h534v-141h-384v-159h362v-141h-362v-172h401v-141h-551zM134 821v101h404v-101h-404z" />
    <glyph glyph-name="emacron" unicode="&#x113;" horiz-adv-x="580" 
d="M90 70q-45 62 -45 189q0 126 40 193q55 93 210 93q144 0 201 -75q41 -54 41 -158q0 -58 -10 -108h-339q0 -31 16 -54q28 -41 119 -41q69 0 188 18v-124q-125 -20 -203 -20q-86 0 -135.5 21t-82.5 66zM498 625h-404v101h404v-101zM188 308h208q2 12 2 27q0 35 -15 57
q-24 35 -88 35t-89 -41q-18 -29 -18 -78z" />
    <glyph glyph-name="Ebreve" unicode="&#x114;" horiz-adv-x="657" 
d="M623 0h-551v754h534v-141h-384v-159h362v-141h-362v-172h401v-141zM137 950h120q5 -19 16 -36q18 -28 59 -28q44 0 61 28q9 14 14 36h120q-13 -69 -47 -105q-48 -53 -148 -53q-99 0 -145 51q-33 37 -50 107z" />
    <glyph glyph-name="ebreve" unicode="&#x115;" horiz-adv-x="580" 
d="M90 70q-45 62 -45 189q0 126 40 193q55 93 210 93q144 0 201 -75q41 -54 41 -158q0 -58 -10 -108h-339q0 -31 16 -54q28 -41 119 -41q69 0 188 18v-124q-125 -20 -203 -20q-86 0 -135.5 21t-82.5 66zM150 647q-33 37 -50 107h120q5 -19 16 -36q18 -28 59 -28q44 0 61 28
q9 14 14 36h120q-13 -69 -47 -105q-48 -53 -148 -53q-99 0 -145 51zM206 386q-18 -29 -18 -78h208q2 12 2 27q0 35 -15 57q-24 35 -88 35t-89 -41z" />
    <glyph glyph-name="Edotaccent" unicode="&#x116;" horiz-adv-x="657" 
d="M72 0v754h534v-141h-384v-159h362v-141h-362v-172h401v-141h-551zM408 796h-148v154h148v-154z" />
    <glyph glyph-name="edotaccent" unicode="&#x117;" horiz-adv-x="580" 
d="M45 259q0 126 40 193q55 93 210 93q144 0 201 -75q41 -54 41 -158q0 -58 -10 -108h-339q0 -31 16 -54q28 -41 119 -41q69 0 188 18v-124q-125 -20 -203 -20q-86 0 -135.5 21t-82.5 66q-45 62 -45 189zM217 600v154h148v-154h-148zM206 386q-18 -29 -18 -78h208q2 12 2 27
q0 35 -15 57q-24 35 -88 35t-89 -41z" />
    <glyph glyph-name="Eogonek" unicode="&#x118;" horiz-adv-x="657" 
d="M72 0v754h534v-141h-384v-159h362v-141h-362v-172h401v-141q-51 -35 -71 -53q-25 -24 -25 -40q0 -17 25 -17q20 0 71 17v-97q-62 -19 -112 -19q-71 0 -102 22q-30 21 -30 68q0 38 34 72q21 21 61 47h-402z" />
    <glyph glyph-name="eogonek" unicode="&#x119;" horiz-adv-x="580" 
d="M90 70q-45 62 -45 189q0 104 24 162q27 63 80.5 93.5t145.5 30.5q144 0 201 -75q41 -54 41 -158q0 -58 -10 -108h-339q0 -31 16 -54q28 -41 119 -41q71 0 188 18v-124q-33 -23 -68 -55q-25 -24 -25 -41t25 -17q20 0 71 17v-97q-62 -19 -112 -19q-71 0 -102 22
q-30 21 -30 68q0 37 35 72q13 13 37 31q-12 -1 -34 -1q-76 0 -128.5 17.5t-89.5 69.5zM188 308h208q2 12 2 27q0 35 -15 57q-24 35 -88 35t-89 -41q-18 -29 -18 -78z" />
    <glyph glyph-name="Ecaron" unicode="&#x11a;" horiz-adv-x="657" 
d="M623 0h-551v754h534v-141h-384v-159h362v-141h-362v-172h401v-141zM246 796l-147 154h151l81 -81l81 81h149l-147 -154h-168z" />
    <glyph glyph-name="ecaron" unicode="&#x11b;" horiz-adv-x="580" 
d="M90 70q-45 62 -45 189q0 126 40 193q55 93 210 93q144 0 201 -75q41 -54 41 -158q0 -58 -10 -108h-339q0 -31 16 -54q28 -41 119 -41q69 0 188 18v-124q-125 -20 -203 -20q-86 0 -135.5 21t-82.5 66zM64 754h151l81 -81l81 81h149l-147 -154h-168zM188 308h208q2 12 2 27
q0 35 -15 57q-24 35 -88 35t-89 -41q-18 -29 -18 -78z" />
    <glyph glyph-name="Gcircumflex" unicode="&#x11c;" horiz-adv-x="723" 
d="M112 99q-55 86 -55 267q0 184 58 277q38 60 98 94t162 34q84 0 252 -41v-143q-96 22 -149 31q-48 8 -85 8q-65 0 -100.5 -17.5t-55.5 -58.5q-28 -56 -28 -181q0 -133 29 -184q20 -35 57.5 -48.5t102.5 -13.5q47 0 107 6v276h148v-397q-166 -25 -281 -25q-107 0 -165.5 30
t-94.5 86zM285 796h-149l147 154h168l147 -154h-151l-81 81z" />
    <glyph glyph-name="gcircumflex" unicode="&#x11d;" horiz-adv-x="609" 
d="M46 263q0 130 41 194q29 46 77 67t127 21q83 0 253 -58v-422q0 -131 -57 -196q-70 -78 -235 -78q-80 0 -184 14v128q111 -15 184 -15q72 0 112 33q34 28 34 73v20q-18 -9 -52 -22q-60 -22 -110 -22q-98 0 -146 74q-44 68 -44 189zM194 263q0 -57 14 -93q14 -38 69 -38
q32 0 72 17q19 8 49 23v220q-62 20 -101 20q-69 0 -88 -43q-15 -34 -15 -106zM219 600h-149l147 154h168l147 -154h-151l-81 81z" />
    <glyph glyph-name="Gbreve" unicode="&#x11e;" horiz-adv-x="723" 
d="M57 366q0 184 58 277q38 60 98 94t162 34q84 0 252 -41v-143q-96 22 -149 31q-48 8 -85 8q-65 0 -100.5 -17.5t-55.5 -58.5q-28 -56 -28 -181q0 -133 29 -184q20 -35 57.5 -48.5t102.5 -13.5q47 0 107 6v276h148v-397q-166 -25 -281 -25q-107 0 -165.5 30t-94.5 86
q-55 86 -55 267zM220 843q-33 37 -50 107h120q5 -19 16 -36q18 -28 59 -28q44 0 61 28q9 14 14 36h120q-13 -69 -47 -105q-48 -53 -148 -53q-99 0 -145 51z" />
    <glyph glyph-name="gbreve" unicode="&#x11f;" horiz-adv-x="609" 
d="M90 74q-44 68 -44 189q0 130 41 194q29 46 77 67t127 21q83 0 253 -58v-422q0 -131 -57 -196q-70 -78 -235 -78q-80 0 -184 14v128q111 -15 184 -15q72 0 112 33q34 28 34 73v20q-18 -9 -52 -22q-60 -22 -110 -22q-98 0 -146 74zM194 263q0 -57 14 -93q14 -38 69 -38
q32 0 72 17q19 8 49 23v220q-62 20 -101 20q-69 0 -88 -43q-15 -34 -15 -106zM156 647q-33 37 -50 107h120q5 -19 16 -36q18 -28 59 -28q44 0 61 28q9 14 14 36h120q-13 -69 -47 -105q-48 -53 -148 -53q-99 0 -145 51z" />
    <glyph glyph-name="Gdotaccent" unicode="&#x120;" horiz-adv-x="723" 
d="M112 99q-55 86 -55 267q0 184 58 277q38 60 98 94t162 34q84 0 252 -41v-143q-96 22 -149 31q-48 8 -85 8q-65 0 -100.5 -17.5t-55.5 -58.5q-28 -56 -28 -181q0 -133 29 -184q20 -35 57.5 -48.5t102.5 -13.5q47 0 107 6v276h148v-397q-166 -25 -281 -25q-107 0 -165.5 30
t-94.5 86zM291 796v154h148v-154h-148z" />
    <glyph glyph-name="gdotaccent" unicode="&#x121;" horiz-adv-x="609" 
d="M90 74q-44 68 -44 189q0 130 41 194q29 46 77 67t127 21q83 0 253 -58v-422q0 -131 -57 -196q-70 -78 -235 -78q-80 0 -184 14v128q111 -15 184 -15q72 0 112 33q34 28 34 73v20q-18 -9 -52 -22q-60 -22 -110 -22q-98 0 -146 74zM194 263q0 -57 14 -93q14 -38 69 -38
q32 0 72 17q19 8 49 23v220q-62 20 -101 20q-69 0 -88 -43q-15 -34 -15 -106zM227 600v154h148v-154h-148z" />
    <glyph glyph-name="uni0122" unicode="&#x122;" horiz-adv-x="723" 
d="M112 99q-55 86 -55 267q0 184 58 277q38 60 98 94t162 34q84 0 252 -41v-143q-96 22 -149 31q-48 8 -85 8q-65 0 -100.5 -17.5t-55.5 -58.5q-28 -56 -28 -181q0 -133 29 -184q20 -35 57.5 -48.5t102.5 -13.5q47 0 107 6v276h148v-397q-166 -25 -281 -25q-107 0 -165.5 30
t-94.5 86zM303 -280q16 76 16 151v79h122v-53q0 -96 -43 -177h-95z" />
    <glyph glyph-name="uni0123" unicode="&#x123;" horiz-adv-x="609" 
d="M46 263q0 130 41 194q29 46 77 67t127 21q83 0 253 -58v-422q0 -131 -57 -196q-70 -78 -235 -78q-80 0 -184 14v128q111 -15 184 -15q72 0 112 33q34 28 34 73v20q-18 -9 -52 -22q-60 -22 -110 -22q-98 0 -146 74q-44 68 -44 189zM194 263q0 -57 14 -93q14 -38 69 -38
q32 0 72 17q19 8 49 23v220q-62 20 -101 20q-69 0 -88 -43q-15 -34 -15 -106zM237 659q0 104 43 185h95q-16 -76 -16 -159v-99h-122v73z" />
    <glyph glyph-name="Hcircumflex" unicode="&#x124;" horiz-adv-x="746" 
d="M222 0h-150v754h150v-288h302v288h150v-754h-150v323h-302v-323zM291 796h-149l147 154h168l147 -154h-151l-81 81z" />
    <glyph glyph-name="hcircumflex" unicode="&#x125;" horiz-adv-x="602" 
d="M65 0v754h146v-250q105 41 161 41q75 0 118 -44q26 -27 37 -67.5t11 -117.5v-316h-146v309q0 65 -15 82q-12 13 -52 13q-32 0 -114 -32v-372h-146zM-90 796l147 154h168l147 -154h-151l-81 81l-81 -81h-149z" />
    <glyph glyph-name="Hbar" unicode="&#x126;" horiz-adv-x="746" 
d="M222 0h-150v754h150v-87h302v87h150v-754h-150v302h-302v-302zM524 528h-302v-87h302v87z" />
    <glyph glyph-name="hbar" unicode="&#x127;" horiz-adv-x="602" 
d="M65 579h-65v107h65v68h146v-68h197v-107h-197v-75q100 37 161 37q77 0 118 -42q26 -28 37 -67t11 -116v-316h-146v309q0 65 -15 82q-12 13 -52 13q-32 0 -114 -32v-372h-146v579z" />
    <glyph glyph-name="Itilde" unicode="&#x128;" horiz-adv-x="294" 
d="M72 0v754h150v-754h-150zM-80 804q29 87 61 120.5t88 33.5q38 0 109 -38q46 -25 65 -25q12 0 21.5 9.5t21.5 34.5h105q-28 -70 -60.5 -107t-85.5 -37q-50 0 -106 34q-47 28 -68 28q-16 0 -24.5 -10t-21.5 -43h-105z" />
    <glyph glyph-name="itilde" unicode="&#x129;" horiz-adv-x="276" 
d="M65 0v528h146v-528h-146zM-95 608q29 87 61 120.5t88 33.5q38 0 109 -38q46 -25 65 -25q12 0 21.5 9.5t21.5 34.5h105q-28 -70 -60.5 -107t-85.5 -37q-50 0 -106 34q-47 28 -68 28q-16 0 -24.5 -10t-21.5 -43h-105z" />
    <glyph glyph-name="Imacron" unicode="&#x12a;" horiz-adv-x="294" 
d="M222 0h-150v754h150v-754zM347 821h-404v101h404v-101z" />
    <glyph glyph-name="imacron" unicode="&#x12b;" horiz-adv-x="276" 
d="M211 0h-146v528h146v-528zM341 625h-404v101h404v-101z" />
    <glyph glyph-name="Ibreve" unicode="&#x12c;" horiz-adv-x="294" 
d="M72 0v754h150v-754h-150zM-47 950h120q5 -19 16 -36q18 -28 59 -28q44 0 61 28q9 14 14 36h120q-13 -69 -47 -105q-48 -53 -148 -53q-99 0 -145 51q-33 37 -50 107z" />
    <glyph glyph-name="ibreve" unicode="&#x12d;" horiz-adv-x="276" 
d="M65 528h146v-528h-146v528zM-56 754h120q5 -19 16 -36q18 -28 59 -28q44 0 61 28q9 14 14 36h120q-13 -69 -47 -105q-48 -53 -148 -53q-99 0 -145 51q-33 37 -50 107z" />
    <glyph glyph-name="Iogonek" unicode="&#x12e;" horiz-adv-x="294" 
d="M52 -187q-30 22 -30 60q0 39 16 71q15 30 34 56v754h150v-754q-21 -26 -36 -50q-16 -27 -16 -43q0 -17 25 -17q20 0 71 17v-97q-62 -19 -112 -19q-71 0 -102 22z" />
    <glyph glyph-name="iogonek" unicode="&#x12f;" horiz-adv-x="276" 
d="M42 -187q-30 22 -30 60q0 39 16 71q16 30 37 56v528h146v-528q-21 -26 -36 -50q-15 -25 -15 -43q0 -17 25 -17q20 0 71 17v-97q-62 -19 -112 -19q-71 0 -102 22zM211 600h-146v154h146v-154z" />
    <glyph glyph-name="Idotaccent" unicode="&#x130;" horiz-adv-x="294" 
d="M222 0h-150v754h150v-754zM221 796h-148v154h148v-154z" />
    <glyph glyph-name="dotlessi" unicode="&#x131;" horiz-adv-x="276" 
d="M211 0h-146v528h146v-528z" />
    <glyph glyph-name="IJ" unicode="&#x132;" horiz-adv-x="694" 
d="M263 25q95 31 151 65q38 24 50 58q10 28 10 100v506h150v-517q0 -124 -19 -168q-21 -50 -74 -81q-50 -29 -132 -61.5t-136 -48.5v147zM72 0v754h150v-754h-150z" />
    <glyph glyph-name="ij" unicode="&#x133;" horiz-adv-x="558" 
d="M216 -211v142q68 20 92 37q29 21 34 49q5 26 5 86v425h146v-451q0 -85 -13 -122q-19 -56 -72 -90q-73 -47 -192 -76zM211 0h-146v528h146v-528zM347 600v154h146v-154h-146zM65 600v154h146v-154h-146z" />
    <glyph glyph-name="Jcircumflex" unicode="&#x134;" horiz-adv-x="405" 
d="M-27 25q95 31 151 65q38 24 50 58q10 28 10 100v506h150v-517q0 -124 -19 -168q-21 -50 -74 -81q-50 -29 -132 -61.5t-136 -48.5v147zM172 796h-149l147 154h168l147 -154h-151l-81 81z" />
    <glyph glyph-name="jcircumflex" unicode="&#x135;" horiz-adv-x="287" 
d="M-55 -214v134q64 20 90 38q25 18 33 49q6 22 6 93v428h148v-457q0 -90 -9 -119q-17 -57 -76 -93q-69 -43 -192 -73zM62 600h-149l147 154h168l147 -154h-151l-81 81z" />
    <glyph glyph-name="uni0136" unicode="&#x136;" horiz-adv-x="698" 
d="M72 0v754h150v-354l286 354h184l-299 -365l336 -389h-199l-308 360v-360h-150zM249 -280q16 76 16 151v79h122v-53q0 -96 -43 -177h-95z" />
    <glyph glyph-name="uni0137" unicode="&#x137;" horiz-adv-x="586" 
d="M211 0h-146v754h146v-451l195 225h181l-210 -241l230 -287h-186l-210 265v-265zM301 -280h-95q16 76 16 151v79h122v-53q0 -96 -43 -177z" />
    <glyph glyph-name="kgreenlandic" unicode="&#x138;" horiz-adv-x="594" 
d="M65 528h148v-225q102 38 148 81q42 39 61 144h149q-25 -137 -67 -197q-28 -41 -97 -84l199 -247h-184l-209 264v-264h-148v528z" />
    <glyph glyph-name="Lacute" unicode="&#x139;" horiz-adv-x="608" 
d="M593 0h-521v754h150v-609h371v-145zM212 796h-156l141 154h162z" />
    <glyph glyph-name="lacute" unicode="&#x13a;" horiz-adv-x="276" 
d="M211 0h-146v754h146v-754zM194 796h-156l141 154h162z" />
    <glyph glyph-name="uni013B" unicode="&#x13b;" horiz-adv-x="608" 
d="M593 0h-521v754h150v-609h371v-145zM334 -280h-95q16 76 16 151v79h122v-53q0 -96 -43 -177z" />
    <glyph glyph-name="uni013C" unicode="&#x13c;" horiz-adv-x="276" 
d="M65 0v754h146v-754h-146zM65 -280q16 76 16 151v79h122v-53q0 -96 -43 -177h-95z" />
    <glyph glyph-name="Lcaron" unicode="&#x13d;" horiz-adv-x="608" 
d="M593 0h-521v754h150v-609h371v-145zM441 547h-94v207h120v-64q0 -76 -26 -143z" />
    <glyph glyph-name="lcaron" unicode="&#x13e;" horiz-adv-x="372" 
d="M211 0h-146v754h146v-754zM359 547h-94v207h120v-64q0 -76 -26 -143z" />
    <glyph glyph-name="Ldot" unicode="&#x13f;" horiz-adv-x="608" 
d="M593 0h-521v754h150v-609h371v-145zM525 313h-148v154h148v-154z" />
    <glyph glyph-name="ldot" unicode="&#x140;" horiz-adv-x="424" 
d="M211 0h-146v754h146v-754zM424 313h-148v154h148v-154z" />
    <glyph glyph-name="Lslash" unicode="&#x141;" horiz-adv-x="608" 
d="M-3 216v129l75 49v360h150v-268l146 93v-129l-146 -94v-211h371v-145h-521v264z" />
    <glyph glyph-name="lslash" unicode="&#x142;" horiz-adv-x="316" 
d="M10 219v127l75 48v360h146v-265l75 48v-127l-75 -48v-362h-146v267z" />
    <glyph glyph-name="Nacute" unicode="&#x143;" horiz-adv-x="755" 
d="M72 754h162l301 -504v504h148v-754h-162l-301 504v-504h-148v754zM260 796l141 154h162l-147 -154h-156z" />
    <glyph glyph-name="nacute" unicode="&#x144;" horiz-adv-x="604" 
d="M65 528h146v-29q117 46 166 46q75 0 116 -42q25 -26 36 -67.5t11 -119.5v-316h-146v309q0 62 -14 81q-11 14 -49 14q-37 0 -120 -34v-370h-146v528zM176 600l141 154h162l-147 -154h-156z" />
    <glyph glyph-name="uni0145" unicode="&#x145;" horiz-adv-x="755" 
d="M72 754h162l301 -504v504h148v-754h-162l-301 504v-504h-148v754zM409 -280h-95q16 76 16 151v79h122v-53q0 -96 -43 -177z" />
    <glyph glyph-name="uni0146" unicode="&#x146;" horiz-adv-x="604" 
d="M65 0v528h146v-29q117 46 166 46q75 0 116 -42q25 -26 36 -67.5t11 -119.5v-316h-146v309q0 62 -14 81q-11 14 -49 14q-37 0 -120 -34v-370h-146zM312 -280h-95q16 76 16 151v79h122v-53q0 -96 -43 -177z" />
    <glyph glyph-name="Ncaron" unicode="&#x147;" horiz-adv-x="755" 
d="M72 0v754h162l301 -504v504h148v-754h-162l-301 504v-504h-148zM145 950h151l81 -81l81 81h149l-147 -154h-168z" />
    <glyph glyph-name="ncaron" unicode="&#x148;" horiz-adv-x="604" 
d="M65 0v528h146v-29q117 46 166 46q75 0 116 -42q25 -26 36 -67.5t11 -119.5v-316h-146v309q0 62 -14 81q-11 14 -49 14q-37 0 -120 -34v-370h-146zM217 600l-147 154h151l81 -81l81 81h149l-147 -154h-168z" />
    <glyph glyph-name="napostrophe" unicode="&#x149;" horiz-adv-x="652" 
d="M113 0v528h146v-29q117 46 166 46q75 0 116 -42q25 -26 36 -67.5t11 -119.5v-316h-146v309q0 62 -14 81q-11 14 -49 14q-37 0 -120 -34v-370h-146zM-33 524q16 76 16 151v79h122v-53q0 -96 -43 -177h-95z" />
    <glyph glyph-name="Eng" unicode="&#x14a;" horiz-adv-x="755" 
d="M72 0v754h162l301 -504v504h148v-610q0 -126 -17 -168q-19 -47 -74 -81q-49 -30 -129.5 -61.5t-138.5 -48.5v147q95 31 142 56q37 20 41 35l-287 481v-504h-148z" />
    <glyph glyph-name="eng" unicode="&#x14b;" horiz-adv-x="604" 
d="M65 0v528h146v-29q117 46 166 46q75 0 116 -42q25 -26 36 -67.5t11 -119.5v-213q0 -111 -13 -148q-19 -56 -72 -90q-73 -47 -192 -76v135q68 20 92 37q29 21 34 49q5 26 5 93v206q0 62 -14 81q-11 14 -49 14q-37 0 -120 -34v-370h-146z" />
    <glyph glyph-name="Omacron" unicode="&#x14c;" horiz-adv-x="780" 
d="M118 99q-61 91 -61 276q0 179 55 268q40 65 102 96.5t176 31.5q101 0 161 -27.5t103 -86.5q69 -94 69 -282q0 -185 -70 -280q-43 -59 -102 -85.5t-161 -26.5q-113 0 -172 28t-100 88zM209 375q0 -137 34 -191q37 -59 147 -59q94 0 135 51q46 57 46 199q0 131 -36 188
q-41 66 -145 66q-53 0 -89 -12.5t-58 -48.5q-34 -55 -34 -193zM186 821v101h404v-101h-404z" />
    <glyph glyph-name="omacron" unicode="&#x14d;" horiz-adv-x="610" 
d="M92 75q-47 65 -47 188q0 121 44 186q65 96 216 96q146 0 212 -92q48 -67 48 -190q0 -119 -46 -183q-35 -48 -84.5 -72.5t-129.5 -24.5q-82 0 -130.5 23t-82.5 69zM193 263q0 -65 20 -102q24 -44 92 -44q59 0 88 40q24 35 24 109t-26 110q-25 35 -86 35q-67 0 -91 -42
q-21 -38 -21 -106zM104 625v101h404v-101h-404z" />
    <glyph glyph-name="Obreve" unicode="&#x14e;" horiz-adv-x="780" 
d="M118 99q-61 91 -61 276q0 179 55 268q40 65 102 96.5t176 31.5q101 0 161 -27.5t103 -86.5q69 -94 69 -282q0 -185 -70 -280q-43 -59 -102 -85.5t-161 -26.5q-113 0 -172 28t-100 88zM243 568q-34 -55 -34 -193q0 -137 34 -191q37 -59 147 -59q94 0 135 51q46 57 46 199
q0 131 -36 188q-41 66 -145 66q-53 0 -89 -12.5t-58 -48.5zM246 843q-33 37 -50 107h120q5 -19 16 -36q18 -28 59 -28q44 0 61 28q9 14 14 36h120q-13 -69 -47 -105q-48 -53 -148 -53q-99 0 -145 51z" />
    <glyph glyph-name="obreve" unicode="&#x14f;" horiz-adv-x="610" 
d="M92 75q-47 65 -47 188q0 121 44 186q65 96 216 96q146 0 212 -92q48 -67 48 -190q0 -119 -46 -183q-35 -48 -84.5 -72.5t-129.5 -24.5q-82 0 -130.5 23t-82.5 69zM214 369q-21 -38 -21 -106q0 -65 20 -102q24 -44 92 -44q59 0 88 40q24 35 24 109t-26 110q-25 35 -86 35
q-67 0 -91 -42zM161 647q-33 37 -50 107h120q5 -19 16 -36q18 -28 59 -28q44 0 61 28q9 14 14 36h120q-13 -69 -47 -105q-48 -53 -148 -53q-99 0 -145 51z" />
    <glyph glyph-name="Ohungarumlaut" unicode="&#x150;" horiz-adv-x="780" 
d="M118 99q-61 91 -61 276q0 179 55 268q40 65 102 96.5t176 31.5q101 0 161 -27.5t103 -86.5q69 -94 69 -282q0 -185 -70 -280q-43 -59 -102 -85.5t-161 -26.5q-113 0 -172 28t-100 88zM209 375q0 -137 34 -191q37 -59 147 -59q94 0 135 51q46 57 46 199q0 131 -36 188
q-41 66 -145 66q-53 0 -89 -12.5t-58 -48.5q-34 -55 -34 -193zM413 796l105 154h143l-111 -154h-137zM198 796l105 154h143l-111 -154h-137z" />
    <glyph glyph-name="ohungarumlaut" unicode="&#x151;" horiz-adv-x="610" 
d="M92 75q-47 65 -47 188q0 121 44 186q65 96 216 96q146 0 212 -92q48 -67 48 -190q0 -119 -46 -183q-35 -48 -84.5 -72.5t-129.5 -24.5q-82 0 -130.5 23t-82.5 69zM193 263q0 -65 20 -102q24 -44 92 -44q59 0 88 40q24 35 24 109t-26 110q-25 35 -86 35q-67 0 -91 -42
q-21 -38 -21 -106zM460 600h-137l105 154h143zM108 600l105 154h143l-111 -154h-137z" />
    <glyph glyph-name="OE" unicode="&#x152;" horiz-adv-x="1131" 
d="M57 375q0 179 55 268q40 65 102 96.5t176 31.5q76 0 133 -17h557v-141h-401q8 -16 12 -28q25 -73 25 -131h342v-141h-342q0 -64 -23 -139q-4 -13 -14 -33h418v-141h-571q-57 -17 -136 -17q-113 0 -172 28t-100 88q-61 91 -61 276zM209 375q0 -137 34 -191q37 -59 147 -59
q97 0 136 51q42 56 42 199q0 132 -32 188q-38 66 -146 66q-53 0 -89 -12.5t-58 -48.5q-34 -55 -34 -193z" />
    <glyph glyph-name="oe" unicode="&#x153;" horiz-adv-x="945" 
d="M92 75q-47 65 -47 188q0 121 44 186q65 96 216 96q121 0 178 -66q55 66 177 66q144 0 201 -75q41 -54 41 -158q0 -58 -10 -108h-339q0 -31 16 -54q28 -41 119 -41q71 0 188 18v-124q-125 -20 -203 -20q-83 0 -123.5 16.5t-67.5 51.5q-59 -68 -177 -68q-82 0 -130.5 23
t-82.5 69zM193 263q0 -65 20 -102q24 -44 92 -44q59 0 88 40q24 35 24 109t-26 110q-25 35 -86 35q-67 0 -91 -42q-21 -38 -21 -106zM571 386q-18 -29 -18 -78h208q2 12 2 27q0 35 -15 57q-24 35 -88 35t-89 -41z" />
    <glyph glyph-name="Racute" unicode="&#x154;" horiz-adv-x="727" 
d="M72 754h335q75 0 121 -11.5t84 -43.5q70 -60 70 -170q0 -49 -16 -86t-50 -78q-35 -40 -74 -80l177 -285h-173l-160 259h-164v-259h-150v754zM222 613v-213h240q19 21 36 43q32 42 32 86t-28 65q-26 19 -113 19h-167zM228 796l141 154h162l-147 -154h-156z" />
    <glyph glyph-name="racute" unicode="&#x155;" horiz-adv-x="399" 
d="M211 0h-146v528h146v-60q40 28 66 41q43 21 120 32v-147q-66 -11 -115 -30q-40 -16 -71 -37v-327zM207 600h-156l141 154h162z" />
    <glyph glyph-name="uni0156" unicode="&#x156;" horiz-adv-x="727" 
d="M72 0v754h335q75 0 121 -11.5t84 -43.5q70 -60 70 -170q0 -49 -16 -86t-50 -78q-35 -40 -74 -80l177 -285h-173l-160 259h-164v-259h-150zM222 613v-213h240q19 21 36 43q32 42 32 86t-28 65q-26 19 -113 19h-167zM274 -280q16 76 16 151v79h122v-53q0 -96 -43 -177h-95z
" />
    <glyph glyph-name="uni0157" unicode="&#x157;" horiz-adv-x="399" 
d="M65 0v528h146v-60q40 28 66 41q43 21 120 32v-147q-66 -11 -115 -30q-40 -16 -71 -37v-327h-146zM65 -280q16 76 16 151v79h122v-53q0 -96 -43 -177h-95z" />
    <glyph glyph-name="Rcaron" unicode="&#x158;" horiz-adv-x="727" 
d="M72 0v754h335q75 0 121 -11.5t84 -43.5q70 -60 70 -170q0 -49 -16 -86t-50 -78q-35 -40 -74 -80l177 -285h-173l-160 259h-164v-259h-150zM389 613h-167v-213h240q19 21 36 43q32 42 32 86t-28 65q-26 19 -113 19zM264 796l-147 154h151l81 -81l81 81h149l-147 -154h-168
z" />
    <glyph glyph-name="rcaron" unicode="&#x159;" horiz-adv-x="399" 
d="M211 0h-146v528h146v-60q40 28 66 41q43 21 120 32v-147q-66 -11 -115 -30q-40 -16 -71 -37v-327zM-25 754h151l81 -81l81 81h149l-147 -154h-168z" />
    <glyph glyph-name="Sacute" unicode="&#x15a;" horiz-adv-x="649" 
d="M37 547q0 119 78 178q60 46 195 46q90 0 278 -42v-144q-204 45 -272 45q-78 0 -103 -19q-24 -19 -24 -54q0 -39 21 -55q19 -14 80 -33l130 -41q97 -31 129 -59q63 -54 63 -156q0 -110 -76 -170t-230 -60q-84 0 -262 33v146q190 -38 274 -38q81 0 112 21q30 20 30 60
q0 37 -21 54q-18 14 -95 38l-129 41q-80 26 -115 55q-63 53 -63 154zM353 796h-156l141 154h162z" />
    <glyph glyph-name="sacute" unicode="&#x15b;" horiz-adv-x="528" 
d="M41 378q0 82 48 123q51 44 170 44q85 0 205 -30v-133q-136 34 -202 34q-48 0 -62 -10q-12 -8 -12 -28t18 -28q14 -7 48 -15l91 -24q73 -19 105 -53q37 -39 37 -107q0 -74 -47 -117q-57 -51 -187 -51q-69 0 -206 25v133q138 -29 222 -29q43 0 57 9t14 29q0 19 -16 28
q-11 6 -61 19l-95 26q-65 18 -93 50q-34 39 -34 105zM140 600l141 154h162l-147 -154h-156z" />
    <glyph glyph-name="Scircumflex" unicode="&#x15c;" horiz-adv-x="649" 
d="M37 547q0 119 78 178q60 46 195 46q90 0 278 -42v-144q-204 45 -272 45q-78 0 -103 -19q-24 -19 -24 -54q0 -39 21 -55q19 -14 80 -33l130 -41q97 -31 129 -59q63 -54 63 -156q0 -110 -76 -170t-230 -60q-84 0 -262 33v146q190 -38 274 -38q81 0 112 21q30 20 30 60
q0 37 -21 54q-18 14 -95 38l-129 41q-80 26 -115 55q-63 53 -63 154zM242 796h-149l147 154h168l147 -154h-151l-81 81z" />
    <glyph glyph-name="scircumflex" unicode="&#x15d;" horiz-adv-x="528" 
d="M75 273q-34 39 -34 105q0 82 48 123q51 44 170 44q85 0 205 -30v-133q-136 34 -202 34q-48 0 -62 -10q-12 -8 -12 -28t18 -28q14 -7 48 -15l91 -24q73 -19 105 -53q37 -39 37 -107q0 -74 -47 -117q-57 -51 -187 -51q-69 0 -206 25v133q138 -29 222 -29q43 0 57 9t14 29
q0 19 -16 28q-11 6 -61 19l-95 26q-65 18 -93 50zM32 600l147 154h168l147 -154h-151l-81 81l-81 -81h-149z" />
    <glyph glyph-name="Scedilla" unicode="&#x15e;" horiz-adv-x="649" 
d="M37 547q0 119 78 178q60 46 195 46q90 0 278 -42v-144q-204 45 -272 45q-78 0 -103 -19q-24 -19 -24 -54q0 -39 21 -55q19 -14 80 -33l130 -41q97 -31 129 -59q63 -54 63 -156q0 -110 -76 -170t-230 -60q-84 0 -262 33v146q190 -38 274 -38q81 0 112 21q30 20 30 60
q0 37 -21 54q-18 14 -95 38l-129 41q-80 26 -115 55q-63 53 -63 154zM326 -205h-145l93 145h144z" />
    <glyph glyph-name="scedilla" unicode="&#x15f;" horiz-adv-x="528" 
d="M41 378q0 82 48 123q51 44 170 44q85 0 205 -30v-133q-136 34 -202 34q-48 0 -62 -10q-12 -8 -12 -28t18 -28q14 -7 48 -15l91 -24q73 -19 105 -53q37 -39 37 -107q0 -74 -47 -117q-57 -51 -187 -51q-69 0 -206 25v133q138 -29 222 -29q43 0 57 9t14 29q0 19 -16 28
q-11 6 -61 19l-95 26q-65 18 -93 50q-34 39 -34 105zM118 -205l93 145h144l-92 -145h-145z" />
    <glyph glyph-name="Scaron" unicode="&#x160;" horiz-adv-x="649" 
d="M100 393q-63 53 -63 154q0 119 78 178q60 46 195 46q90 0 278 -42v-144q-204 45 -272 45q-78 0 -103 -19q-24 -19 -24 -54q0 -39 21 -55q19 -14 80 -33l130 -41q97 -31 129 -59q63 -54 63 -156q0 -110 -76 -170t-230 -60q-84 0 -262 33v146q190 -38 274 -38q81 0 112 21
q30 20 30 60q0 37 -21 54q-18 14 -95 38l-129 41q-80 26 -115 55zM237 796l-147 154h151l81 -81l81 81h149l-147 -154h-168z" />
    <glyph glyph-name="scaron" unicode="&#x161;" horiz-adv-x="528" 
d="M41 378q0 82 48 123q51 44 170 44q85 0 205 -30v-133q-136 34 -202 34q-48 0 -62 -10q-12 -8 -12 -28t18 -28q14 -7 48 -15l91 -24q73 -19 105 -53q37 -39 37 -107q0 -74 -47 -117q-57 -51 -187 -51q-69 0 -206 25v133q138 -29 222 -29q43 0 57 9t14 29q0 19 -16 28
q-11 6 -61 19l-95 26q-65 18 -93 50q-34 39 -34 105zM32 754h151l81 -81l81 81h149l-147 -154h-168z" />
    <glyph glyph-name="uni0162" unicode="&#x162;" horiz-adv-x="676" 
d="M10 612v142h656v-142h-253v-612h-150v612h-253zM338 -205h-145l93 145h144z" />
    <glyph glyph-name="uni0163" unicode="&#x163;" horiz-adv-x="390" 
d="M65 668h146v-147h164v-134h-164v-154q0 -45 4 -62q6 -26 35 -35q27 -8 98 -12v-131q-138 5 -194 23q-58 18 -76 64q-13 33 -13 146v442zM187 -205h-145l93 145h144z" />
    <glyph glyph-name="Tcaron" unicode="&#x164;" horiz-adv-x="676" 
d="M10 754h656v-142h-253v-612h-150v612h-253v142zM255 796l-147 154h151l81 -81l81 81h149l-147 -154h-168z" />
    <glyph glyph-name="tcaron" unicode="&#x165;" horiz-adv-x="390" 
d="M65 668h146v-147h164v-134h-164v-154q0 -45 4 -62q6 -26 35 -35q27 -8 98 -12v-131q-138 5 -194 23q-58 18 -76 64q-13 33 -13 146v442zM265 569v185h120v-59q0 -59 -26 -126h-94z" />
    <glyph glyph-name="Tbar" unicode="&#x166;" horiz-adv-x="676" 
d="M10 612v142h656v-142h-253v-171h130v-139h-130v-302h-150v302h-130v139h130v171h-253z" />
    <glyph glyph-name="tbar" unicode="&#x167;" horiz-adv-x="420" 
d="M65 226v442h146v-147h164v-117h-164v-55h164v-117h-164v-10q0 -31 4 -51q6 -26 35 -35q24 -7 98 -12v-131q-138 5 -194 23q-58 18 -76 64q-13 33 -13 146z" />
    <glyph glyph-name="Utilde" unicode="&#x168;" horiz-adv-x="739" 
d="M70 294v460h150v-463q0 -57 6.5 -87.5t27.5 -50.5q30 -28 116 -28q85 0 114 27q21 19 28 50.5t7 88.5v463h150v-460q0 -89 -14.5 -144t-52.5 -94q-40 -40 -95 -56.5t-137 -16.5q-87 0 -142 16.5t-94 58.5q-37 40 -50.5 96t-13.5 140zM143 804q29 87 61 120.5t88 33.5
q38 0 109 -38q46 -25 65 -25q12 0 21.5 9.5t21.5 34.5h105q-28 -70 -60.5 -107t-85.5 -37q-50 0 -106 34q-47 28 -68 28q-16 0 -24.5 -10t-21.5 -43h-105z" />
    <glyph glyph-name="utilde" unicode="&#x169;" horiz-adv-x="602" 
d="M64 528h146v-303q0 -67 14 -84q16 -19 61 -19q52 0 106 13v393h146v-503q-168 -42 -272 -42q-100 0 -152 56q-49 53 -49 179v310zM74 608q29 87 61 120.5t88 33.5q38 0 109 -38q46 -25 65 -25q12 0 21.5 9.5t21.5 34.5h105q-28 -70 -60.5 -107t-85.5 -37q-50 0 -106 34
q-47 28 -68 28q-16 0 -24.5 -10t-21.5 -43h-105z" />
    <glyph glyph-name="Umacron" unicode="&#x16a;" horiz-adv-x="739" 
d="M70 754h150v-463q0 -57 6.5 -87.5t27.5 -50.5q30 -28 116 -28q85 0 114 27q21 19 28 50.5t7 88.5v463h150v-460q0 -89 -14.5 -144t-52.5 -94q-40 -40 -95 -56.5t-137 -16.5q-87 0 -142 16.5t-94 58.5q-37 40 -50.5 96t-13.5 140v460zM166 821v101h404v-101h-404z" />
    <glyph glyph-name="umacron" unicode="&#x16b;" horiz-adv-x="602" 
d="M113 39q-49 53 -49 179v310h146v-303q0 -67 14 -84q16 -19 61 -19q52 0 106 13v393h146v-503q-168 -42 -272 -42q-100 0 -152 56zM97 726h404v-101h-404v101z" />
    <glyph glyph-name="Ubreve" unicode="&#x16c;" horiz-adv-x="739" 
d="M70 294v460h150v-463q0 -57 6.5 -87.5t27.5 -50.5q30 -28 116 -28q85 0 114 27q21 19 28 50.5t7 88.5v463h150v-460q0 -89 -14.5 -144t-52.5 -94q-40 -40 -95 -56.5t-137 -16.5q-87 0 -142 16.5t-94 58.5q-37 40 -50.5 96t-13.5 140zM225 843q-33 37 -50 107h120
q5 -19 16 -36q18 -28 59 -28q44 0 61 28q9 14 14 36h120q-13 -69 -47 -105q-48 -53 -148 -53q-99 0 -145 51z" />
    <glyph glyph-name="ubreve" unicode="&#x16d;" horiz-adv-x="602" 
d="M64 528h146v-303q0 -67 14 -84q16 -19 61 -19q52 0 106 13v393h146v-503q-168 -42 -272 -42q-100 0 -152 56q-49 53 -49 179v310zM157 647q-33 37 -50 107h120q5 -19 16 -36q18 -28 59 -28q44 0 61 28q9 14 14 36h120q-13 -69 -47 -105q-48 -53 -148 -53q-99 0 -145 51z
" />
    <glyph glyph-name="Uring" unicode="&#x16e;" horiz-adv-x="739" 
d="M70 294v460h150v-463q0 -57 6.5 -87.5t27.5 -50.5q30 -28 116 -28q85 0 114 27q21 19 28 50.5t7 88.5v463h150v-460q0 -89 -14.5 -144t-52.5 -94q-40 -40 -95 -56.5t-137 -16.5q-87 0 -142 16.5t-94 58.5q-37 40 -50.5 96t-13.5 140zM265 774q-42 34 -42 100q0 57 34 92
q39 39 111 39t111 -39q34 -34 34 -92q0 -66 -42 -100q-37 -30 -103 -30t-103 30zM325 913q-15 -13 -15 -39q0 -24 14 -37q15 -14 44 -14t44 14q14 13 14 37q0 26 -15 39q-14 13 -43 13t-43 -13z" />
    <glyph glyph-name="uring" unicode="&#x16f;" horiz-adv-x="602" 
d="M64 218v310h146v-303q0 -67 14 -84q16 -19 61 -19q52 0 106 13v393h146v-503q-168 -42 -272 -42q-100 0 -152 56q-49 53 -49 179zM159 703q0 57 34 92q39 39 111 39t111 -39q34 -34 34 -92q0 -65 -42 -100q-37 -30 -103 -30t-103 30q-42 35 -42 100zM261 742
q-15 -12 -15 -39q0 -24 14 -37q15 -14 44 -14t44 14q14 13 14 37q0 27 -15 39q-14 13 -43 13t-43 -13z" />
    <glyph glyph-name="Uhungarumlaut" unicode="&#x170;" horiz-adv-x="739" 
d="M70 294v460h150v-463q0 -57 6.5 -87.5t27.5 -50.5q30 -28 116 -28q85 0 114 27q21 19 28 50.5t7 88.5v463h150v-460q0 -89 -14.5 -144t-52.5 -94q-40 -40 -95 -56.5t-137 -16.5q-87 0 -142 16.5t-94 58.5q-37 40 -50.5 96t-13.5 140zM522 796h-137l105 154h143zM170 796
l105 154h143l-111 -154h-137z" />
    <glyph glyph-name="uhungarumlaut" unicode="&#x171;" horiz-adv-x="602" 
d="M64 528h146v-303q0 -67 14 -84q16 -19 61 -19q52 0 106 13v393h146v-503q-168 -42 -272 -42q-100 0 -152 56q-49 53 -49 179v310zM460 600h-137l105 154h143zM108 600l105 154h143l-111 -154h-137z" />
    <glyph glyph-name="Uogonek" unicode="&#x172;" horiz-adv-x="739" 
d="M70 294v460h150v-464q0 -57 6.5 -87t27.5 -50q30 -28 116 -28q85 0 114 27q21 19 28 50t7 88v464h150v-460q0 -89 -14.5 -144t-52.5 -94q-21 -21 -62 -45q-54 -31 -89 -64q-25 -24 -25 -40q0 -17 25 -17q20 0 71 17v-97q-62 -19 -112 -19q-71 0 -102 22q-30 21 -30 68
q0 38 34 72q19 19 37 31h-14q-132 0 -201 74q-37 40 -50.5 96t-13.5 140z" />
    <glyph glyph-name="uogonek" unicode="&#x173;" horiz-adv-x="602" 
d="M64 218v310h146v-303q0 -67 14 -84q16 -19 61 -19q52 0 106 13v393h146v-503q-31 -29 -68 -73q-25 -28 -25 -45t25 -17q22 0 68 17v-97q-62 -19 -109 -19q-71 0 -102 22q-30 21 -30 68q0 35 35 70q26 26 45 41q-65 -9 -111 -9q-100 0 -152 56q-49 53 -49 179z" />
    <glyph glyph-name="Wcircumflex" unicode="&#x174;" horiz-adv-x="949" 
d="M164 0l-152 754h154l110 -557l124 443h152l122 -443l112 557h151l-153 -754h-190l-119 431l-119 -431h-192zM247 796l147 154h168l147 -154h-151l-81 81l-81 -81h-149z" />
    <glyph glyph-name="wcircumflex" unicode="&#x175;" horiz-adv-x="872" 
d="M150 0l-146 528h147l103 -381l105 381h157l106 -381l102 381h144l-146 -528h-190l-97 353l-93 -353h-192zM206 600l147 154h168l147 -154h-151l-81 81l-81 -81h-149z" />
    <glyph glyph-name="Ycircumflex" unicode="&#x176;" horiz-adv-x="665" 
d="M-15 754h173l179 -312l179 312h164l-272 -467v-287h-150v287zM254 796h-149l147 154h168l147 -154h-151l-81 81z" />
    <glyph glyph-name="ycircumflex" unicode="&#x177;" horiz-adv-x="588" 
d="M0 528h160l136 -347l136 347h156l-292 -720h-154l75 185zM212 600h-149l147 154h168l147 -154h-151l-81 81z" />
    <glyph glyph-name="Ydieresis" unicode="&#x178;" horiz-adv-x="665" 
d="M-15 754h173l179 -312l179 312h164l-272 -467v-287h-150v287zM399 950h139v-154h-139v154zM127 796v154h139v-154h-139z" />
    <glyph glyph-name="Zacute" unicode="&#x179;" horiz-adv-x="672" 
d="M636 0h-600v142l398 471h-383v141h578v-142l-398 -471h405v-141zM383 796h-156l141 154h162z" />
    <glyph glyph-name="zacute" unicode="&#x17a;" horiz-adv-x="517" 
d="M491 0h-465v125l255 269h-243v134h440v-124l-254 -270h267v-134zM305 600h-156l141 154h162z" />
    <glyph glyph-name="Zdotaccent" unicode="&#x17b;" horiz-adv-x="672" 
d="M636 0h-600v142l398 471h-383v141h578v-142l-398 -471h405v-141zM410 796h-148v154h148v-154z" />
    <glyph glyph-name="zdotaccent" unicode="&#x17c;" horiz-adv-x="517" 
d="M491 0h-465v125l255 269h-243v134h440v-124l-254 -270h267v-134zM333 600h-148v154h148v-154z" />
    <glyph glyph-name="Zcaron" unicode="&#x17d;" horiz-adv-x="672" 
d="M36 142l398 471h-383v141h578v-142l-398 -471h405v-141h-600v142zM105 950h151l81 -81l81 81h149l-147 -154h-168z" />
    <glyph glyph-name="zcaron" unicode="&#x17e;" horiz-adv-x="517" 
d="M491 0h-465v125l255 269h-243v134h440v-124l-254 -270h267v-134zM175 600l-147 154h151l81 -81l81 81h149l-147 -154h-168z" />
    <glyph glyph-name="uni018F" unicode="&#x18f;" horiz-adv-x="722" 
d="M55 287q0 76 8 151h448q-3 75 -25 119q-20 39 -58.5 55t-104.5 16q-88 0 -242 -39v142q162 40 264 40q197 0 271 -134q49 -89 49 -271q0 -168 -54 -258q-74 -125 -263 -125q-146 0 -215 69q-78 78 -78 235zM208 297q-1 -9 -1 -37q0 -73 39 -109q30 -27 103 -27
q99 0 136 65q23 41 26 108h-303z" />
    <glyph glyph-name="florin" unicode="&#x192;" horiz-adv-x="415" 
d="M-15 -68q65 19 92 37q24 16 33 50q6 22 6 93v409q0 65 11 100q15 48 59 78q62 43 215 74v-142q-89 -19 -116 -39q-18 -13 -21 -35q-2 -14 -2 -36h140v-134h-140v-275q0 -125 -9 -158q-14 -54 -78 -93q-71 -43 -190 -72v143z" />
    <glyph glyph-name="uni019D" unicode="&#x19d;" horiz-adv-x="759" 
d="M-86 -68q59 22 102 49q38 25 50 58q10 28 10 100v615h162l301 -504v504h148v-754h-162l-301 504v-376q0 -126 -19 -170q-20 -47 -72 -79q-91 -56 -219 -94v147z" />
    <glyph glyph-name="Gcaron" unicode="&#x1e6;" horiz-adv-x="723" 
d="M112 99q-55 86 -55 267q0 184 58 277q38 60 98 94t162 34q84 0 252 -41v-143q-96 22 -149 31q-48 8 -85 8q-65 0 -100.5 -17.5t-55.5 -58.5q-28 -56 -28 -181q0 -133 29 -184q20 -35 57.5 -48.5t102.5 -13.5q47 0 107 6v276h148v-397q-166 -25 -281 -25q-107 0 -165.5 30
t-94.5 86zM130 950h151l81 -81l81 81h149l-147 -154h-168z" />
    <glyph glyph-name="gcaron" unicode="&#x1e7;" horiz-adv-x="609" 
d="M46 263q0 130 41 194q29 46 77 67t127 21q83 0 253 -58v-422q0 -131 -57 -196q-70 -78 -235 -78q-80 0 -184 14v128q111 -15 184 -15q72 0 112 33q34 28 34 73v20q-18 -9 -52 -22q-60 -22 -110 -22q-98 0 -146 74q-44 68 -44 189zM194 263q0 -57 14 -93q14 -38 69 -38
q32 0 72 17q19 8 49 23v220q-62 20 -101 20q-69 0 -88 -43q-15 -34 -15 -106zM71 754h151l81 -81l81 81h149l-147 -154h-168z" />
    <glyph glyph-name="uni01EA" unicode="&#x1ea;" horiz-adv-x="780" 
d="M117 99q-60 89 -60 276q0 181 54 268q40 65 102.5 96.5t176.5 31.5q105 0 170.5 -31.5t105.5 -97.5q58 -97 58 -267q0 -186 -69 -280q-20 -27 -37.5 -42.5t-49.5 -36.5q-45 -29 -89 -69q-25 -24 -25 -40q0 -17 25 -17q20 0 71 17v-97q-62 -19 -112 -19q-71 0 -102 22
q-30 21 -30 68q0 37 34 72q17 19 37 32h-26q-158 0 -234 114zM209 375q0 -137 34 -191q37 -59 147 -59q95 0 136 51q46 57 46 199q0 131 -36 188q-41 66 -146 66q-53 0 -89 -12.5t-58 -48.5q-34 -55 -34 -193z" />
    <glyph glyph-name="uni01EB" unicode="&#x1eb;" horiz-adv-x="610" 
d="M45 263q0 121 44 186q65 96 216 96q147 0 213 -92q48 -67 48 -190q0 -119 -46 -183q-22 -31 -55 -55q-54 -39 -91 -77q-25 -25 -25 -41q0 -17 25 -17q20 0 71 17v-97q-62 -19 -112 -19q-71 0 -102 22q-30 21 -30 68q0 38 34 72q13 13 37 31q-66 4 -108 27t-72 64
q-47 65 -47 188zM214 369q-21 -38 -21 -106q0 -65 20 -102q24 -44 92 -44q60 0 89 40q24 35 24 109q0 72 -27 110q-26 35 -86 35q-67 0 -91 -42z" />
    <glyph glyph-name="Aringacute" unicode="&#x1fa;" horiz-adv-x="747" 
d="M1 0l258 711q-10 10 -18 26q-13 27 -13 64q0 58 34 92q39 39 111 39q73 0 111 -39q34 -34 34 -92q0 -39 -14 -66q-7 -14 -17 -24l259 -711h-163l-50 137h-323l-49 -137h-160zM256 278h229l-115 325zM285 965l92 100h159l-95 -100h-156zM330 840q-15 -12 -15 -39
q0 -24 14 -37q15 -14 44 -14t44 14q14 13 14 37q0 27 -15 39q-14 13 -43 13t-43 -13z" />
    <glyph glyph-name="aringacute" unicode="&#x1fb;" horiz-adv-x="609" 
d="M45 252q0 132 42 202q55 91 202 91q57 0 113.5 -14t141.5 -44v-487h-144v68q-13 -11 -51 -38q-34 -24 -61.5 -35.5t-65.5 -11.5q-90 0 -137 78q-40 66 -40 191zM160 703q0 57 34 92q39 39 111 39t111 -39q34 -34 34 -92q0 -65 -42 -100q-38 -30 -103 -30t-103 30
q-42 35 -42 100zM212 372q-19 -38 -19 -120q0 -63 13 -99q12 -32 50 -32q31 0 92 46q29 21 50 40v187q-58 21 -98 21q-66 0 -88 -43zM385 850h-156l91 100h160zM262 742q-15 -12 -15 -39q0 -24 14 -37q15 -14 44 -14t44 14q14 13 14 37q0 27 -15 39q-14 13 -43 13t-43 -13z
" />
    <glyph glyph-name="AEacute" unicode="&#x1fc;" horiz-adv-x="1175" 
d="M-10 0l509 754h625v-141h-384v-159h362v-141h-362v-172h401v-141h-551v137h-320l-92 -137h-188zM590 614l-225 -336h225v336zM593 796l141 154h162l-147 -154h-156z" />
    <glyph glyph-name="aeacute" unicode="&#x1fd;" horiz-adv-x="918" 
d="M39 143q0 99 60 139q39 26 134 26h153v35q0 39 -18 54q-23 20 -86 20q-87 0 -212 -29v124q135 33 226 33q129 0 173 -53q48 53 164 53q144 0 201 -75q41 -54 41 -158q0 -58 -10 -108h-339q0 -31 15 -54q27 -41 120 -41q71 0 188 18v-124q-122 -20 -203 -20
q-156 0 -211 79q-57 -40 -98 -57q-54 -22 -115 -22q-90 0 -134 37q-49 42 -49 123zM514 600h-156l141 154h162zM526 308h208q2 12 2 27q0 35 -15 57q-24 35 -88 35t-89 -41q-18 -29 -18 -78zM193 186q-10 -12 -10 -36q0 -25 11 -36q15 -15 57 -15q43 0 84 25q28 17 51 34v46
h-122q-55 0 -71 -18z" />
    <glyph glyph-name="Oslashacute" unicode="&#x1fe;" horiz-adv-x="780" 
d="M118 99q-61 91 -61 276q0 179 55 268q40 65 102 96.5t176 31.5q101 0 161 -27.5t103 -86.5q69 -94 69 -282q0 -185 -70 -280q-43 -59 -102 -85.5t-161 -26.5q-113 0 -172 28t-100 88zM295 136q33 -14 95 -14q98 0 139 51q46 57 46 202q0 104 -22 160zM239 571
q-34 -55 -34 -196q0 -99 17 -153l256 395q-34 15 -88 15t-91.5 -12.5t-59.5 -48.5zM274 796l141 154h162l-147 -154h-156z" />
    <glyph glyph-name="oslashacute" unicode="&#x1ff;" horiz-adv-x="610" 
d="M92 75q-47 65 -47 188q0 121 44 186q65 96 216 96q146 0 212 -92q48 -67 48 -190q0 -119 -46 -183q-35 -48 -84.5 -72.5t-129.5 -24.5q-82 0 -130.5 23t-82.5 69zM191 600l141 154h162l-147 -154h-156zM188 263q0 -44 8 -78l166 221q-25 10 -57 10q-72 0 -96 -42
q-21 -38 -21 -111zM415 343l-166 -221q23 -10 56 -10q64 0 93 40q24 35 24 114q0 48 -7 77z" />
    <glyph glyph-name="uni0218" unicode="&#x218;" horiz-adv-x="649" 
d="M37 547q0 119 78 178q60 46 195 46q90 0 278 -42v-144q-204 45 -272 45q-78 0 -103 -19q-24 -19 -24 -54q0 -39 21 -55q19 -14 80 -33l130 -41q97 -31 129 -59q63 -54 63 -156q0 -110 -76 -170t-230 -60q-84 0 -262 33v146q190 -38 274 -38q81 0 112 21q30 20 30 60
q0 37 -21 54q-18 14 -95 38l-129 41q-80 26 -115 55q-63 53 -63 154zM248 -280q16 76 16 151v79h122v-53q0 -96 -43 -177h-95z" />
    <glyph glyph-name="uni0219" unicode="&#x219;" horiz-adv-x="528" 
d="M41 378q0 82 48 123q51 44 170 44q85 0 205 -30v-133q-136 34 -202 34q-48 0 -62 -10q-12 -8 -12 -28t18 -28q14 -7 48 -15l91 -24q73 -19 105 -53q37 -39 37 -107q0 -74 -47 -117q-57 -51 -187 -51q-69 0 -206 25v133q138 -29 222 -29q43 0 57 9t14 29q0 19 -16 28
q-11 6 -61 19l-95 26q-65 18 -93 50q-34 39 -34 105zM188 -280q16 76 16 151v79h122v-53q0 -96 -43 -177h-95z" />
    <glyph glyph-name="uni021A" unicode="&#x21a;" horiz-adv-x="676" 
d="M263 612h-253v142h656v-142h-253v-612h-150v612zM359 -280h-95q16 76 16 151v79h122v-53q0 -96 -43 -177z" />
    <glyph glyph-name="uni021B" unicode="&#x21b;" horiz-adv-x="390" 
d="M65 226v442h146v-147h164v-134h-164v-154q0 -45 4 -62q6 -26 35 -35q27 -8 98 -12v-131q-138 5 -194 23q-58 18 -76 64q-13 33 -13 146zM201 -280h-95q16 76 16 151v79h122v-53q0 -96 -43 -177z" />
    <glyph glyph-name="uni0232" unicode="&#x232;" horiz-adv-x="665" 
d="M-15 754h173l179 -312l179 312h164l-272 -467v-287h-150v287zM137 922h404v-101h-404v101z" />
    <glyph glyph-name="uni0233" unicode="&#x233;" horiz-adv-x="588" 
d="M217 -7l-217 535h160l136 -347l136 347h156l-292 -720h-154zM497 625h-404v101h404v-101z" />
    <glyph glyph-name="uni0237" unicode="&#x237;" horiz-adv-x="287" 
d="M-55 -214v134q64 20 90 38q25 18 33 49q6 22 6 93v428h148v-457q0 -90 -9 -119q-17 -57 -76 -93q-69 -43 -192 -73z" />
    <glyph glyph-name="uni0259" unicode="&#x259;" horiz-adv-x="580" 
d="M43 216q0 58 10 108h339q0 30 -14 54q-24 41 -121 41q-71 0 -188 -18v124q125 20 203 20q87 0 137 -21t82 -66q44 -63 44 -189q0 -130 -41 -194q-58 -92 -209 -92q-144 0 -201 75q-41 54 -41 158zM182 193q0 -35 15 -57q24 -35 88 -35q65 0 90 41q17 27 17 78h-208
q-2 -12 -2 -27z" />
    <glyph glyph-name="uni0272" unicode="&#x272;" horiz-adv-x="604" 
d="M-64 -76q68 20 92 37q27 19 32 49q5 26 5 69v449h146v-29q117 46 166 46q75 0 116 -42q25 -26 36 -67.5t11 -119.5v-316h-146v309q0 62 -14 81q-11 14 -49 14q-37 0 -120 -34v-274q0 -104 -13 -141q-20 -58 -70 -90q-73 -47 -192 -76v135z" />
    <glyph glyph-name="circumflex" unicode="&#x2c6;" 
d="M19 600l147 154h168l147 -154h-151l-81 81l-81 -81h-149z" />
    <glyph glyph-name="caron" unicode="&#x2c7;" 
d="M19 754h151l81 -81l81 81h149l-147 -154h-168z" />
    <glyph glyph-name="breve" unicode="&#x2d8;" 
d="M55 754h120q5 -19 16 -36q18 -28 59 -28q44 0 61 28q9 14 14 36h120q-13 -69 -47 -105q-48 -53 -148 -53q-99 0 -145 51q-33 37 -50 107z" />
    <glyph glyph-name="dotaccent" unicode="&#x2d9;" 
d="M324 600h-148v154h148v-154z" />
    <glyph glyph-name="ring" unicode="&#x2da;" 
d="M147 603q-42 35 -42 100q0 57 34 92q39 39 111 39t111 -39q34 -34 34 -92q0 -65 -42 -100q-37 -30 -103 -30q-65 0 -103 30zM207 742q-15 -12 -15 -39q0 -24 14 -37q15 -14 44 -14t44 14q14 13 14 37q0 27 -15 39q-14 13 -43 13t-43 -13z" />
    <glyph glyph-name="ogonek" unicode="&#x2db;" 
d="M286 -187q-30 21 -30 68q0 38 34 72q13 13 61 47h149q-51 -35 -71 -53q-25 -24 -25 -40q0 -17 25 -17q20 0 71 17v-97q-62 -19 -112 -19q-71 0 -102 22z" />
    <glyph glyph-name="tilde" unicode="&#x2dc;" 
d="M120 608h-105q29 87 61 120.5t88 33.5q38 0 109 -38q46 -25 65 -25q12 0 21.5 9.5t21.5 34.5h105q-28 -70 -60.5 -107t-85.5 -37q-50 0 -106 34q-47 28 -68 28q-16 0 -24.5 -10t-21.5 -43z" />
    <glyph glyph-name="hungarumlaut" unicode="&#x2dd;" 
d="M244 600l105 154h143l-111 -154h-137zM166 600h-137l105 154h143z" />
    <glyph glyph-name="uni0326" unicode="&#x326;" 
d="M267 -280h-95q16 76 16 151v79h122v-53q0 -96 -43 -177z" />
    <glyph glyph-name="pi" unicode="&#x3c0;" horiz-adv-x="670" 
d="M107 391h-98v137h645v-137h-98v-170q0 -51 3 -67q4 -22 30 -29q20 -6 51 -8v-124q-90 3 -141 17q-59 16 -77 66q-12 33 -12 145v170h-157v-391h-146v391z" />
    <glyph glyph-name="Wgrave" unicode="&#x1e80;" horiz-adv-x="949" 
d="M12 754h154l110 -557l124 443h152l122 -443l112 557h151l-153 -754h-190l-119 431l-119 -431h-192zM294 950h162l139 -154h-156z" />
    <glyph glyph-name="wgrave" unicode="&#x1e81;" horiz-adv-x="872" 
d="M150 0l-146 528h147l103 -381l105 381h157l106 -381l102 381h144l-146 -528h-190l-97 353l-93 -353h-192zM401 600l-145 154h162l139 -154h-156z" />
    <glyph glyph-name="Wacute" unicode="&#x1e82;" horiz-adv-x="949" 
d="M164 0l-152 754h154l110 -557l124 443h152l122 -443l112 557h151l-153 -754h-190l-119 431l-119 -431h-192zM365 796l141 154h162l-147 -154h-156z" />
    <glyph glyph-name="wacute" unicode="&#x1e83;" horiz-adv-x="872" 
d="M150 0l-146 528h147l103 -381l105 381h157l106 -381l102 381h144l-146 -528h-190l-97 353l-93 -353h-192zM328 600l141 154h162l-147 -154h-156z" />
    <glyph glyph-name="Wdieresis" unicode="&#x1e84;" horiz-adv-x="949" 
d="M164 0l-152 754h154l110 -557l124 443h152l122 -443l112 557h151l-153 -754h-190l-119 431l-119 -431h-192zM536 950h139v-154h-139v154zM279 796v154h139v-154h-139z" />
    <glyph glyph-name="wdieresis" unicode="&#x1e85;" horiz-adv-x="872" 
d="M150 0l-146 528h147l103 -381l105 381h157l106 -381l102 381h144l-146 -528h-190l-97 353l-93 -353h-192zM633 600h-139v154h139v-154zM237 754h139v-154h-139v154z" />
    <glyph glyph-name="Germandbls" unicode="&#x1e9e;" horiz-adv-x="794" 
d="M220 0h-150v366q0 74 1 111t9.5 83.5t25.5 77.5q35 65 99 99t184 34q145 0 311 -41v-138l-104 -163l35 -21q45 -27 70 -50q58 -55 58 -142q0 -115 -70 -173q-40 -33 -89 -46.5t-130 -13.5q-67 0 -157 18v145q102 -22 165 -22q77 0 105 21q25 20 25 62q0 35 -20 55
q-16 16 -84 53l-111 61l151 238q-58 15 -140 15q-73 0 -108 -13t-55 -49q-21 -37 -21 -178v-389z" />
    <glyph glyph-name="uni1EA0" unicode="&#x1ea0;" horiz-adv-x="747" 
d="M1 0l274 754h196l275 -754h-163l-50 137h-323l-49 -137h-160zM370 603l-114 -325h229zM299 -38h148v-154h-148v154z" />
    <glyph glyph-name="uni1EA1" unicode="&#x1ea1;" horiz-adv-x="609" 
d="M45 252q0 132 42 202q55 91 202 91q57 0 113.5 -14t141.5 -44v-487h-144v68q-13 -11 -51 -38q-34 -24 -61.5 -35.5t-65.5 -11.5q-90 0 -137 78q-40 66 -40 191zM193 252q0 -63 13 -99q12 -32 50 -32q31 0 92 46q29 21 50 40v187q-58 21 -98 21q-66 0 -88 -43
q-19 -38 -19 -120zM225 -192v154h148v-154h-148z" />
    <glyph glyph-name="uni1EB8" unicode="&#x1eb8;" horiz-adv-x="657" 
d="M72 0v754h534v-141h-384v-159h362v-141h-362v-172h401v-141h-551zM417 -192h-148v154h148v-154z" />
    <glyph glyph-name="uni1EB9" unicode="&#x1eb9;" horiz-adv-x="580" 
d="M45 259q0 126 40 193q55 93 210 93q144 0 201 -75q41 -54 41 -158q0 -58 -10 -108h-339q0 -31 16 -54q28 -41 119 -41q69 0 188 18v-124q-125 -20 -203 -20q-86 0 -135.5 21t-82.5 66q-45 62 -45 189zM219 -206v154h148v-154h-148zM206 386q-18 -29 -18 -78h208
q2 12 2 27q0 35 -15 57q-24 35 -88 35t-89 -41z" />
    <glyph glyph-name="uni1EBC" unicode="&#x1ebc;" horiz-adv-x="657" 
d="M72 0v754h534v-141h-384v-159h362v-141h-362v-172h401v-141h-551zM214 804h-105q29 87 61 120.5t88 33.5q38 0 109 -38q46 -25 65 -25q12 0 21.5 9.5t21.5 34.5h105q-28 -70 -60.5 -107t-85.5 -37q-50 0 -106 34q-47 28 -68 28q-16 0 -24.5 -10t-21.5 -43z" />
    <glyph glyph-name="uni1EBD" unicode="&#x1ebd;" horiz-adv-x="580" 
d="M90 70q-45 62 -45 189q0 126 40 193q55 93 210 93q144 0 201 -75q41 -54 41 -158q0 -58 -10 -108h-339q0 -31 16 -54q28 -41 119 -41q69 0 188 18v-124q-125 -20 -203 -20q-86 0 -135.5 21t-82.5 66zM172 608h-105q29 87 61 120.5t88 33.5q38 0 109 -38q46 -25 65 -25
q12 0 21.5 9.5t21.5 34.5h105q-28 -70 -60.5 -107t-85.5 -37q-50 0 -106 34q-47 28 -68 28q-16 0 -24.5 -10t-21.5 -43zM206 386q-18 -29 -18 -78h208q2 12 2 27q0 35 -15 57q-24 35 -88 35t-89 -41z" />
    <glyph glyph-name="uni1ECA" unicode="&#x1eca;" horiz-adv-x="294" 
d="M222 0h-150v754h150v-754zM221 -192h-148v154h148v-154z" />
    <glyph glyph-name="uni1ECB" unicode="&#x1ecb;" horiz-adv-x="276" 
d="M211 0h-146v528h146v-528zM65 -192v154h148v-154h-148zM65 754h146v-154h-146v154z" />
    <glyph glyph-name="uni1ECC" unicode="&#x1ecc;" horiz-adv-x="780" 
d="M118 99q-61 91 -61 276q0 179 55 268q40 65 102 96.5t176 31.5q101 0 161 -27.5t103 -86.5q69 -94 69 -282q0 -185 -70 -280q-43 -59 -102 -85.5t-161 -26.5q-113 0 -172 28t-100 88zM209 375q0 -137 34 -191q37 -59 147 -59q94 0 135 51q46 57 46 199q0 131 -36 188
q-41 66 -145 66q-53 0 -89 -12.5t-58 -48.5q-34 -55 -34 -193zM311 -192v154h148v-154h-148z" />
    <glyph glyph-name="uni1ECD" unicode="&#x1ecd;" horiz-adv-x="610" 
d="M92 75q-47 65 -47 188q0 121 44 186q65 96 216 96q146 0 212 -92q48 -67 48 -190q0 -119 -46 -183q-35 -48 -84.5 -72.5t-129.5 -24.5q-82 0 -130.5 23t-82.5 69zM193 263q0 -65 20 -102q24 -44 92 -44q59 0 88 40q24 35 24 109t-26 110q-25 35 -86 35q-67 0 -91 -42
q-21 -38 -21 -106zM231 -192v154h148v-154h-148z" />
    <glyph glyph-name="uni1EE4" unicode="&#x1ee4;" horiz-adv-x="739" 
d="M70 754h150v-463q0 -57 6.5 -87.5t27.5 -50.5q30 -28 116 -28q85 0 114 27q21 19 28 50.5t7 88.5v463h150v-460q0 -89 -14.5 -144t-52.5 -94q-40 -40 -95 -56.5t-137 -16.5q-87 0 -142 16.5t-94 58.5q-37 40 -50.5 96t-13.5 140v460zM295 -192v154h148v-154h-148z" />
    <glyph glyph-name="uni1EE5" unicode="&#x1ee5;" horiz-adv-x="602" 
d="M64 528h146v-303q0 -67 14 -84q16 -19 61 -19q52 0 106 13v393h146v-503q-168 -42 -272 -42q-100 0 -152 56q-49 53 -49 179v310zM229 -192v154h148v-154h-148z" />
    <glyph glyph-name="Ygrave" unicode="&#x1ef2;" horiz-adv-x="665" 
d="M-15 754h173l179 -312l179 312h164l-272 -467v-287h-150v287zM296 796l-145 154h162l139 -154h-156z" />
    <glyph glyph-name="ygrave" unicode="&#x1ef3;" horiz-adv-x="588" 
d="M0 528h160l136 -347l136 347h156l-292 -720h-154l75 185zM108 754h162l139 -154h-156z" />
    <glyph glyph-name="uni1EF8" unicode="&#x1ef8;" horiz-adv-x="665" 
d="M-15 754h173l179 -312l179 312h164l-272 -467v-287h-150v287zM105 804q29 87 61 120.5t88 33.5q38 0 109 -38q46 -25 65 -25q12 0 21.5 9.5t21.5 34.5h105q-28 -70 -60.5 -107t-85.5 -37q-50 0 -106 34q-47 28 -68 28q-16 0 -24.5 -10t-21.5 -43h-105z" />
    <glyph glyph-name="uni1EF9" unicode="&#x1ef9;" horiz-adv-x="588" 
d="M217 -7l-217 535h160l136 -347l136 347h156l-292 -720h-154zM70 608q29 87 61 120.5t88 33.5q38 0 109 -38q46 -25 65 -25q12 0 21.5 9.5t21.5 34.5h105q-28 -70 -60.5 -107t-85.5 -37q-50 0 -106 34q-47 28 -68 28q-16 0 -24.5 -10t-21.5 -43h-105z" />
    <glyph glyph-name="endash" unicode="&#x2013;" horiz-adv-x="600" 
d="M550 196h-500v142h500v-142z" />
    <glyph glyph-name="emdash" unicode="&#x2014;" horiz-adv-x="1000" 
d="M1000 196h-1000v142h1000v-142z" />
    <glyph glyph-name="quoteleft" unicode="&#x2018;" horiz-adv-x="290" 
d="M209 396h-142v143q0 110 55 215h109q-22 -102 -22 -191v-167z" />
    <glyph glyph-name="quoteright" unicode="&#x2019;" horiz-adv-x="290" 
d="M168 396h-109q22 102 22 191v167h142v-143q0 -110 -55 -215z" />
    <glyph glyph-name="quotesinglbase" unicode="&#x201a;" horiz-adv-x="290" 
d="M168 -188h-109q22 102 22 191v167h142v-143q0 -110 -55 -215z" />
    <glyph glyph-name="quotedblleft" unicode="&#x201c;" horiz-adv-x="512" 
d="M431 396h-142v143q0 110 55 215h109q-22 -102 -22 -191v-167zM67 396v143q0 110 55 215h109q-22 -102 -22 -191v-167h-142z" />
    <glyph glyph-name="quotedblright" unicode="&#x201d;" horiz-adv-x="512" 
d="M390 396h-109q22 102 22 191v167h142v-143q0 -110 -55 -215zM168 396h-109q22 102 22 191v167h142v-143q0 -110 -55 -215z" />
    <glyph glyph-name="quotedblbase" unicode="&#x201e;" horiz-adv-x="512" 
d="M390 -188h-109q22 102 22 191v167h142v-143q0 -110 -55 -215zM168 -188h-109q22 102 22 191v167h142v-143q0 -110 -55 -215z" />
    <glyph glyph-name="dagger" unicode="&#x2020;" horiz-adv-x="628" 
d="M45 415v130h201v209h136v-209h201v-130h-201v-511h-136v511h-201z" />
    <glyph glyph-name="daggerdbl" unicode="&#x2021;" horiz-adv-x="628" 
d="M45 243h201v172h-201v130h201v209h136v-209h201v-130h-201v-172h201v-130h-201v-209h-136v209h-201v130z" />
    <glyph glyph-name="bullet" unicode="&#x2022;" horiz-adv-x="534" 
d="M72 377q0 96 49.5 145.5t145.5 49.5t145.5 -50.5t49.5 -146.5q0 -193 -195 -193q-96 0 -145.5 49.5t-49.5 145.5z" />
    <glyph glyph-name="ellipsis" unicode="&#x2026;" horiz-adv-x="960" 
d="M727 0v178h166v-178h-166zM397 0v178h166v-178h-166zM67 178h166v-178h-166v178z" />
    <glyph glyph-name="perthousand" unicode="&#x2030;" horiz-adv-x="1604" 
d="M55 546q0 115 46 166q47 53 149 53q88 0 138 -44q57 -50 57 -175q0 -115 -55 -171q-50 -51 -140 -51q-97 0 -143 46q-30 30 -41 70.5t-11 105.5zM741 35q-30 30 -41 70.5t-11 105.5q0 115 46 166q47 53 149 53q88 0 138 -44q57 -50 57 -175q0 -115 -55 -171
q-50 -51 -140 -51q-97 0 -143 46zM1159 211q0 115 46 166q47 53 149 53q88 0 138 -44q57 -50 57 -175q0 -115 -55 -171q-50 -51 -140 -51q-97 0 -143 46q-30 30 -41 70.5t-11 105.5zM427 0h-153l428 754h153zM1285 211q0 -75 21 -95q16 -15 48 -15q29 0 46 16q23 22 23 94
q0 63 -15 84q-16 23 -54 23q-40 0 -56 -26q-13 -21 -13 -81zM828 292q-13 -21 -13 -81q0 -75 21 -95q16 -15 48 -15q29 0 46 16q23 22 23 94q0 63 -15 84q-16 23 -54 23q-40 0 -56 -26zM181 546q0 -75 21 -95q16 -15 48 -15q29 0 46 16q23 22 23 94q0 63 -15 84
q-16 23 -54 23q-40 0 -56 -26q-13 -21 -13 -81z" />
    <glyph glyph-name="guilsinglleft" unicode="&#x2039;" horiz-adv-x="386" 
d="M379 58h-170l-176 206l176 206h170l-176 -206z" />
    <glyph glyph-name="guilsinglright" unicode="&#x203a;" horiz-adv-x="386" 
d="M177 58h-170l176 206l-176 206h170l176 -206z" />
    <glyph glyph-name="fraction" unicode="&#x2044;" horiz-adv-x="193" 
d="M-36 0h-153l428 754h153z" />
    <glyph glyph-name="uni2070" unicode="&#x2070;" 
d="M107 485q-30 30 -41 70.5t-11 105.5q0 115 46 166q47 53 149 53q88 0 138 -44q57 -50 57 -175q0 -115 -55 -171q-50 -51 -140 -51q-97 0 -143 46zM194 742q-13 -21 -13 -81q0 -75 21 -95q16 -15 48 -15q29 0 46 16q23 22 23 94q0 63 -15 84q-16 23 -54 23q-40 0 -56 -26z
" />
    <glyph glyph-name="uni2071" unicode="&#x2071;" horiz-adv-x="258" 
d="M191 450h-124v313h124v-313zM193 809h-128v130h128v-130z" />
    <glyph glyph-name="uni2074" unicode="&#x2074;" horiz-adv-x="458" 
d="M269 512h-244v111l183 246h155l-185 -248h91v64h125v-235h-125v62z" />
    <glyph glyph-name="uni2075" unicode="&#x2075;" horiz-adv-x="442" 
d="M61 449v100q75 -11 125 -11q47 0 61 9q13 9 13 29q0 21 -15 29t-109 8h-71v256h308v-105h-186v-56h39q68 0 109 -22q51 -28 51 -102q0 -69 -41 -105q-47 -40 -158 -40q-53 0 -126 10z" />
    <glyph glyph-name="uni2076" unicode="&#x2076;" horiz-adv-x="464" 
d="M93 483q-38 38 -38 121q0 80 13 124.5t57 79.5q73 57 262 73v-100q-101 -9 -148 -26q-44 -16 -50 -46q42 2 84 2q74 0 110 -36q32 -32 32 -94q0 -64 -39 -100q-46 -42 -140 -42q-100 0 -143 44zM180 625q-1 -12 -1 -30q0 -38 9 -49q13 -17 48 -17q30 0 43 12q14 12 14 39
q0 26 -12 37q-11 10 -48 10q-25 0 -53 -2z" />
    <glyph glyph-name="uni2077" unicode="&#x2077;" horiz-adv-x="406" 
d="M197 450h-148l193 313h-222v106h368v-105z" />
    <glyph glyph-name="uni2078" unicode="&#x2078;" horiz-adv-x="490" 
d="M103 471q-41 30 -41 89q0 47 30 77q12 12 30 26q-21 11 -34 30q-16 23 -16 70q0 58 48 90q40 27 126 27q84 0 129 -30q44 -29 44 -85q0 -41 -23 -71q-12 -17 -27 -32q24 -14 36 -29q23 -29 23 -73q0 -58 -45 -89q-46 -32 -136 -32q-100 0 -144 32zM183 570q0 -21 12 -31
q15 -12 52 -12q32 0 48 14q12 11 12 32q0 23 -19 33q-15 7 -74 15q-17 -12 -23 -22q-8 -11 -8 -29zM201 779q-12 -10 -12 -31q0 -27 17 -36q14 -7 71 -15q10 11 17 22q9 13 9 29q0 21 -11 31q-14 12 -46 12q-31 0 -45 -12z" />
    <glyph glyph-name="uni2079" unicode="&#x2079;" horiz-adv-x="464" 
d="M50 735q0 66 37 101q48 44 143 44q92 0 136 -50q43 -49 43 -145q0 -107 -21 -151q-21 -45 -63 -68q-51 -27 -125 -27q-61 0 -128 14v100q75 -15 110 -15q40 0 59 6q23 7 33 20q12 16 12 40q-58 -6 -103 -6q-79 0 -108 34q-25 29 -25 103zM172 737q0 -30 10 -41t39 -11
q27 0 65 4q0 59 -11 77q-12 21 -45 21q-32 0 -44 -12q-14 -14 -14 -38z" />
    <glyph glyph-name="uni207D" unicode="&#x207d;" horiz-adv-x="290" 
d="M52 714q0 71 9 118t38 76q59 61 176 77v-122q-56 -15 -76 -40q-15 -18 -18.5 -46t-3.5 -93v-49q0 -64 4 -93.5t18 -45.5q22 -25 76 -40v-122q-117 16 -176 77q-29 29 -38 76t-9 118v109z" />
    <glyph glyph-name="uni207E" unicode="&#x207e;" horiz-adv-x="290" 
d="M91 823q-20 25 -76 40v122q117 -16 176 -77q29 -29 38 -76t9 -118v-109q0 -71 -9 -118t-38 -76q-59 -61 -176 -77v122q53 15 76 40q15 16 18.5 44.5t3.5 94.5v49q0 65 -3.5 93t-18.5 46z" />
    <glyph glyph-name="uni207F" unicode="&#x207f;" horiz-adv-x="492" 
d="M65 763h124v-27q73 35 120 35q57 0 89 -35q30 -32 30 -133v-153h-124v126q0 54 -10 68q-8 11 -34 11q-19 0 -71 -26v-179h-124v313z" />
    <glyph glyph-name="uni2080" unicode="&#x2080;" 
d="M107 -95q-30 30 -41 70.5t-11 105.5q0 115 46 166q47 53 149 53q88 0 138 -44q57 -50 57 -175q0 -115 -55 -171q-50 -51 -140 -51q-97 0 -143 46zM194 162q-13 -21 -13 -81q0 -75 21 -95q16 -15 48 -15q29 0 46 16q23 22 23 94q0 63 -15 84q-16 23 -54 23q-40 0 -56 -26z
" />
    <glyph glyph-name="uni2081" unicode="&#x2081;" horiz-adv-x="330" 
d="M265 -130h-131v274l-113 -30v118l244 70v-432z" />
    <glyph glyph-name="uni2082" unicode="&#x2082;" horiz-adv-x="438" 
d="M43 -130v101q106 75 146 110q53 46 53 69q0 18 -12 27t-52 9q-44 0 -128 -21v114q88 21 144 21q83 0 126 -32q47 -34 47 -98q0 -33 -10.5 -56t-34.5 -51q-35 -39 -91 -85h161v-108h-349z" />
    <glyph glyph-name="uni2083" unicode="&#x2083;" horiz-adv-x="450" 
d="M50 -26q80 -16 131 -16q49 0 64 9q16 9 16 30q0 17 -13 26t-58 9h-93v96h138l11 15q10 14 10 27q0 16 -11 23q-13 8 -54 8q-54 0 -138 -19v98q93 20 151 20q93 0 136 -29q40 -28 40 -78q0 -34 -15 -60q-9 -15 -27 -39q19 -15 31 -34q18 -29 18 -70q0 -55 -40 -91
q-45 -40 -152 -40q-73 0 -145 15v100z" />
    <glyph glyph-name="uni2084" unicode="&#x2084;" horiz-adv-x="458" 
d="M269 -68h-244v111l183 246h155l-185 -248h91v64h125v-235h-125v62z" />
    <glyph glyph-name="uni2085" unicode="&#x2085;" horiz-adv-x="442" 
d="M61 -131v100q75 -11 125 -11q47 0 61 9q13 9 13 29q0 21 -15 29t-109 8h-71v256h308v-105h-186v-56h39q68 0 109 -22q51 -28 51 -102q0 -69 -41 -105q-47 -40 -158 -40q-53 0 -126 10z" />
    <glyph glyph-name="uni2086" unicode="&#x2086;" horiz-adv-x="464" 
d="M93 -97q-38 38 -38 121q0 80 13 124.5t57 79.5q73 57 262 73v-100q-101 -9 -148 -26q-44 -16 -50 -46q42 2 84 2q74 0 110 -36q32 -32 32 -94q0 -64 -39 -100q-46 -42 -140 -42q-100 0 -143 44zM180 45q-1 -12 -1 -30q0 -38 9 -49q13 -17 48 -17q30 0 43 12q14 12 14 39
q0 26 -12 37q-11 10 -48 10q-25 0 -53 -2z" />
    <glyph glyph-name="uni2087" unicode="&#x2087;" horiz-adv-x="406" 
d="M197 -130h-148l193 313h-222v106h368v-105z" />
    <glyph glyph-name="uni2088" unicode="&#x2088;" horiz-adv-x="490" 
d="M103 -109q-41 30 -41 89q0 47 30 77q12 12 30 26q-21 11 -34 30q-16 23 -16 70q0 58 48 90q40 27 126 27q84 0 129 -30q44 -29 44 -85q0 -41 -23 -71q-12 -17 -27 -32q24 -14 36 -29q23 -29 23 -73q0 -58 -45 -89q-46 -32 -136 -32q-100 0 -144 32zM183 -10q0 -21 12 -31
q15 -12 52 -12q32 0 48 14q12 11 12 32q0 23 -19 33q-15 7 -74 15q-17 -13 -23 -22q-8 -11 -8 -29zM201 199q-12 -10 -12 -31q0 -27 17 -36q14 -7 71 -15q10 11 17 22q9 13 9 29q0 21 -11 31q-14 12 -46 12q-31 0 -45 -12z" />
    <glyph glyph-name="uni2089" unicode="&#x2089;" horiz-adv-x="464" 
d="M50 155q0 66 37 101q48 44 143 44q92 0 136 -50q43 -49 43 -145q0 -107 -21 -151q-21 -45 -63 -68q-51 -27 -125 -27q-61 0 -128 14v100q75 -15 110 -15q40 0 59 6q23 7 33 20q12 16 12 40q-58 -6 -103 -6q-79 0 -108 34q-25 29 -25 103zM172 157q0 -30 10 -41t39 -11
q27 0 65 4q0 59 -11 77q-12 21 -45 21q-32 0 -44 -12q-14 -14 -14 -38z" />
    <glyph glyph-name="uni208D" unicode="&#x208d;" horiz-adv-x="290" 
d="M52 134q0 71 9 118t38 76q59 61 176 77v-122q-56 -15 -76 -40q-15 -18 -18.5 -46t-3.5 -93v-49q0 -64 4 -93.5t18 -45.5q22 -25 76 -40v-122q-117 16 -176 77q-29 29 -38 76t-9 118v109z" />
    <glyph glyph-name="uni208E" unicode="&#x208e;" horiz-adv-x="290" 
d="M91 243q-20 25 -76 40v122q117 -16 176 -77q29 -29 38 -76t9 -118v-109q0 -71 -9 -118t-38 -76q-59 -61 -176 -77v122q53 15 76 40q15 16 18.5 44.5t3.5 94.5v49q0 65 -3.5 93t-18.5 46z" />
    <glyph glyph-name="uni2093" unicode="&#x2093;" horiz-adv-x="476" 
d="M164 -130h-154l130 161l-126 152h156l66 -84l65 84h154l-123 -149l134 -164h-156l-73 91z" />
    <glyph glyph-name="Euro" unicode="&#x20ac;" horiz-adv-x="710" 
d="M120 101q-40 71 -40 265q0 200 44 280q35 64 98 94.5t184 30.5q83 0 245 -27v-141q-156 26 -229 26t-111 -9.5t-55 -36.5q-13 -20 -15 -54h286v-122h-295v-55h295v-122h-288q2 -37 11 -58q13 -29 54 -38t122 -9q74 0 225 18v-142q-151 -18 -246 -18q-123 0 -188 30
t-97 88z" />
    <glyph glyph-name="uni20BA" unicode="&#x20ba;" horiz-adv-x="656" 
d="M90 754h150v-134l218 67v-124l-218 -67v-59l218 67v-124l-218 -67v-195q120 0 167 52q28 32 37.5 65.5t13.5 96.5h151q-7 -160 -61 -231q-45 -60 -117 -89t-192 -29q-106 0 -149 5v766z" />
    <glyph glyph-name="uni20BD" unicode="&#x20bd;" horiz-adv-x="716" 
d="M90 0v754h324q127 0 190 -62q65 -64 65 -171q0 -113 -70 -176q-59 -54 -184 -59q-44 -2 -175 -2v-55h313v-122h-313v-107h-150zM400 614h-160v-192q113 0 160 2q72 3 94 26q23 24 23 71q0 46 -23 70q-23 23 -94 23z" />
    <glyph glyph-name="uni2103" unicode="&#x2103;" horiz-adv-x="1119" 
d="M519 366q0 185 55 274q81 131 263 131q53 0 132 -15q62 -12 112 -24v-144q-76 18 -125 27q-58 11 -101 11q-64 0 -100.5 -18t-56.5 -58q-27 -54 -27 -181t29 -178q20 -34 58 -48.5t102 -14.5q66 0 221 33v-145q-160 -33 -247 -33q-75 0 -130.5 20.5t-81.5 45t-50 60.5
q-53 82 -53 257zM40 577q0 89 54.5 141.5t146.5 52.5q90 0 144 -53t54 -141q0 -86 -53.5 -136t-144.5 -50q-93 0 -147 49.5t-54 136.5zM160 581q0 -35 21.5 -55.5t58.5 -20.5q36 0 57.5 20t21.5 56t-21.5 56t-57.5 20q-37 0 -58.5 -20.5t-21.5 -55.5z" />
    <glyph glyph-name="uni2109" unicode="&#x2109;" horiz-adv-x="1085" 
d="M536 0v754h526v-141h-376v-167h338v-141h-338v-305h-150zM40 577q0 89 54.5 141.5t146.5 52.5q90 0 144 -53t54 -141q0 -86 -53.5 -136t-144.5 -50q-93 0 -147 49.5t-54 136.5zM240 657q-37 0 -58.5 -20.5t-21.5 -55.5t21.5 -55.5t58.5 -20.5q36 0 57.5 20t21.5 56
t-21.5 56t-57.5 20z" />
    <glyph glyph-name="uni2113" unicode="&#x2113;" horiz-adv-x="513" 
d="M99 41q-34 43 -34 162v322q0 71 6.5 109t25.5 66q47 71 173 71q99 0 147 -44q53 -48 53 -142q0 -80 -60.5 -165t-198.5 -223v-11q0 -37 17 -55t68 -18q66 0 177 34v-136q-100 -29 -181 -29q-146 0 -193 59zM220 614q-9 -22 -9 -97v-145q43 51 61.5 75t34 58t15.5 67
q0 27 -6 44q-10 29 -48 29q-35 0 -48 -31z" />
    <glyph glyph-name="uni2116" unicode="&#x2116;" horiz-adv-x="1220" 
d="M72 754h162l301 -504v504h148v-754h-162l-301 504v-504h-148v754zM760 563q0 89 40 138q58 70 175 70q114 0 172 -66q43 -50 43 -142q0 -94 -48 -147q-54 -61 -167 -61q-111 0 -166 58q-49 51 -49 150zM905 625q-16 -21 -16 -62q0 -39 16 -63q18 -26 70 -26q45 0 67 25
q19 21 19 66q0 42 -20 65q-21 22 -66 22q-50 0 -70 -27z" />
    <glyph glyph-name="trademark" unicode="&#x2122;" horiz-adv-x="1066" 
d="M509 325v429h126l118 -221l122 221h119v-429h-104v261l-97 -176h-84l-96 181v-266h-104zM37 654v100h402v-100h-146v-329h-110v329h-146z" />
    <glyph glyph-name="uni2126" unicode="&#x2126;" horiz-adv-x="788" 
d="M19 0v135h139q-41 32 -65 85q-32 70 -32 197q0 137 55 226q40 65 102 96.5t176 31.5q100 0 160.5 -27.5t103.5 -86.5q36 -49 52.5 -115t16.5 -125q0 -126 -36 -197q-24 -46 -61 -85h139v-135h-334v135q71 48 101 96q39 60 39 186q0 89 -36 146q-41 66 -145 66
q-53 0 -89 -12.5t-58 -48.5q-34 -55 -34 -151q0 -128 37 -186q21 -33 42 -51.5t61 -44.5v-135h-334z" />
    <glyph glyph-name="estimated" unicode="&#x212e;" horiz-adv-x="770" 
d="M142 70q-92 87 -92 221q0 132 94 221q89 85 241 85q140 0 232 -75q97 -77 103 -240h-533q-5 0 -7 -0.5t-4.5 -4.5t-2.5 -11v-149q0 -29 63 -68.5t149 -39.5q61 0 117.5 27t94.5 70h63q-60 -69 -126 -95q-64 -26 -149 -26q-154 0 -243 85zM385 576q-80 0 -146 -40.5
t-66 -66.5v-160q0 -8 15 -8h393q9 0 12 3t3 12v146q0 37 -70 75.5t-141 38.5z" />
    <glyph glyph-name="onethird" unicode="&#x2153;" horiz-adv-x="973" 
d="M141 0l428 754h153l-428 -754h-153zM573 4v100q80 -16 131 -16q49 0 64 9q16 9 16 30q0 17 -13 26t-58 9h-93v96h138l11 15q10 14 10 27q0 16 -11 23q-13 8 -54 8q-54 0 -138 -19v98q93 20 151 20q93 0 136 -29q40 -28 40 -78q0 -34 -15 -60q-9 -15 -27 -39
q19 -15 31 -34q18 -28 18 -70q0 -55 -40 -91q-45 -40 -152 -40q-72 0 -145 15zM21 579v118l244 70v-432h-131v274z" />
    <glyph glyph-name="twothirds" unicode="&#x2154;" horiz-adv-x="1081" 
d="M249 0l428 754h153l-428 -754h-153zM681 4v100q80 -16 131 -16q49 0 64 9q16 9 16 30q0 17 -13 26t-58 9h-93v96h138l11 15q10 14 10 27q0 16 -11 23q-13 8 -54 8q-54 0 -138 -19v98q93 20 151 20q93 0 136 -29q40 -28 40 -78q0 -34 -15 -60q-9 -15 -27 -39
q19 -15 31 -34q18 -28 18 -70q0 -55 -40 -91q-45 -40 -152 -40q-72 0 -145 15zM43 335v101q106 75 146 110q53 46 53 69q0 18 -12 27t-52 9q-44 0 -128 -21v114q88 21 144 21q83 0 126 -32q47 -34 47 -98q0 -33 -10.5 -56t-34.5 -51q-35 -39 -91 -85h161v-108h-349z" />
    <glyph glyph-name="oneeighth" unicode="&#x215b;" horiz-adv-x="1013" 
d="M626 21q-41 30 -41 89q0 47 30 77q12 12 30 26q-21 11 -34 30q-16 23 -16 70q0 58 48 90q41 27 126 27q84 0 129 -30q44 -29 44 -85q0 -41 -23 -71q-12 -17 -27 -32q24 -14 36 -29q23 -29 23 -73q0 -58 -45 -89q-46 -32 -136 -32q-100 0 -144 32zM141 0l428 754h153
l-428 -754h-153zM21 697l244 70v-432h-131v274l-113 -30v118zM714 149q-8 -11 -8 -29q0 -21 12 -31q15 -12 52 -12q32 0 48 14q12 11 12 32q0 23 -19 33q-15 7 -74 15q-17 -12 -23 -22zM724 329q-12 -10 -12 -31q0 -27 17 -36q14 -7 71 -15q10 11 17 22q9 13 9 29
q0 21 -11 31q-14 12 -46 12q-31 0 -45 -12z" />
    <glyph glyph-name="threeeighths" unicode="&#x215c;" horiz-adv-x="1133" 
d="M746 21q-41 30 -41 89q0 47 30 77q12 12 30 26q-21 11 -34 30q-16 23 -16 70q0 58 48 90q41 27 126 27q84 0 129 -30q44 -29 44 -85q0 -41 -23 -71q-12 -17 -27 -32q24 -14 36 -29q23 -29 23 -73q0 -58 -45 -89q-46 -32 -136 -32q-100 0 -144 32zM414 0h-153l428 754h153
zM195 324q-73 0 -145 15v100q80 -16 131 -16q49 0 64 9q16 9 16 30q0 17 -13 26t-58 9h-93v96h138l11 15q10 14 10 27q0 16 -11 23q-13 8 -54 8q-54 0 -138 -19v98q93 20 151 20q93 0 136 -29q40 -28 40 -78q0 -34 -15 -60q-9 -15 -27 -39q19 -15 31 -34q18 -29 18 -70
q0 -55 -40 -91q-45 -40 -152 -40zM826 120q0 -21 12 -31q15 -12 52 -12q32 0 48 14q12 11 12 32q0 23 -19 33q-15 7 -74 15q-17 -12 -23 -22q-8 -11 -8 -29zM844 329q-12 -10 -12 -31q0 -27 17 -36q14 -7 71 -15q10 11 17 22q9 13 9 29q0 21 -11 31q-14 12 -46 12
q-31 0 -45 -12z" />
    <glyph glyph-name="fiveeighths" unicode="&#x215d;" horiz-adv-x="1125" 
d="M697 110q0 47 30 77q12 12 30 26q-21 11 -34 30q-16 23 -16 70q0 58 48 90q40 27 126 27q84 0 129 -30q44 -29 44 -85q0 -41 -23 -71q-12 -17 -27 -32q24 -14 36 -29q23 -29 23 -73q0 -58 -45 -89q-46 -32 -136 -32q-100 0 -144 32q-41 30 -41 89zM406 0h-153l428 754
h153zM61 434q75 -11 125 -11q47 0 61 9q13 9 13 29q0 21 -15 29t-109 8h-71v256h308v-105h-186v-56h39q68 0 109 -22q51 -28 51 -102q0 -69 -41 -105q-47 -40 -158 -40q-53 0 -126 10v100zM818 120q0 -21 12 -31q15 -12 52 -12q32 0 48 14q12 11 12 32q0 23 -19 33
q-15 7 -74 15q-17 -12 -23 -22q-8 -11 -8 -29zM824 298q0 -27 17 -36q14 -7 71 -15q10 11 17 22q9 13 9 29q0 21 -11 31q-14 12 -46 12q-31 0 -45 -12q-12 -10 -12 -31z" />
    <glyph glyph-name="seveneighths" unicode="&#x215e;" horiz-adv-x="1089" 
d="M702 21q-41 30 -41 89q0 47 30 77q12 12 30 26q-21 11 -34 30q-16 23 -16 70q0 58 48 90q41 27 126 27q84 0 129 -30q44 -29 44 -85q0 -41 -23 -71q-12 -17 -27 -32q24 -14 36 -29q23 -29 23 -73q0 -58 -45 -89q-46 -32 -136 -32q-100 0 -144 32zM217 0l428 754h153
l-428 -754h-153zM20 648v106h368v-105l-191 -314h-148l193 313h-222zM790 149q-8 -11 -8 -29q0 -21 12 -31q15 -12 52 -12q32 0 48 14q12 11 12 32q0 23 -19 33q-15 7 -74 15q-17 -12 -23 -22zM800 329q-12 -10 -12 -31q0 -27 17 -36q14 -7 71 -15q10 11 17 22q9 13 9 29
q0 21 -11 31q-14 12 -46 12q-31 0 -45 -12z" />
    <glyph glyph-name="uni215F" unicode="&#x215f;" horiz-adv-x="523" 
d="M294 0h-153l428 754h153zM265 335h-131v274l-113 -30v118l244 70v-432z" />
    <glyph glyph-name="arrowleft" unicode="&#x2190;" horiz-adv-x="848" 
d="M319 132l-294 245l294 245h203l-210 -175h484v-140h-484l210 -175h-203z" />
    <glyph glyph-name="arrowup" unicode="&#x2191;" horiz-adv-x="600" 
d="M370 0h-140v484l-175 -210v203l245 294l245 -294v-203l-175 210v-484z" />
    <glyph glyph-name="arrowright" unicode="&#x2192;" horiz-adv-x="848" 
d="M529 132h-203l210 175h-484v140h484l-210 175h203l294 -245z" />
    <glyph glyph-name="arrowdown" unicode="&#x2193;" horiz-adv-x="600" 
d="M300 -17l-245 294v203l175 -210v484h140v-484l175 210v-203z" />
    <glyph glyph-name="arrowboth" unicode="&#x2194;" horiz-adv-x="1150" 
d="M319 132l-294 245l294 245h203l-210 -175h526l-210 175h203l294 -245l-294 -245h-203l210 175h-526l210 -175h-203z" />
    <glyph glyph-name="arrowupdn" unicode="&#x2195;" horiz-adv-x="600" 
d="M55 430v203l245 294l245 -294v-203l-175 210v-526l175 210v-203l-245 -294l-245 294v203l175 -210v526z" />
    <glyph glyph-name="uni2196" unicode="&#x2196;" horiz-adv-x="648" 
d="M598 56l-377 377l18 -201h-131l-40 453l453 -40v-131l-200 18l279 -279z" />
    <glyph glyph-name="uni2197" unicode="&#x2197;" horiz-adv-x="648" 
d="M50 56l-2 197l279 279l-200 -18v131l453 40l-40 -453h-131l18 201z" />
    <glyph glyph-name="uni2198" unicode="&#x2198;" horiz-adv-x="648" 
d="M580 96l-453 40v131l200 -18l-279 279l2 197l377 -377l-18 201h131z" />
    <glyph glyph-name="uni2199" unicode="&#x2199;" horiz-adv-x="648" 
d="M521 136l-453 -40l40 453h131l-18 -201l377 377l2 -197l-279 -279l200 18v-131z" />
    <glyph glyph-name="partialdiff" unicode="&#x2202;" horiz-adv-x="620" 
d="M89 75q-44 65 -44 172q0 97 40 161q56 90 185 90q45 0 118 -20q-17 74 -70 117q-56 45 -171 57v123q198 -17 299 -116q122 -120 122 -404q0 -107 -45 -174q-66 -98 -217 -98q-154 0 -217 92zM209 327q-16 -31 -16 -80q0 -57 18 -88q24 -42 95 -42q64 0 90 37q24 35 24 98
q0 50 -8 90q-17 7 -54 15t-62 8q-67 0 -87 -38z" />
    <glyph glyph-name="uni2206" unicode="&#x2206;" horiz-adv-x="812" 
d="M812 0h-812l333 754h146zM586 141l-180 407l-180 -407h360z" />
    <glyph glyph-name="product" unicode="&#x220f;" horiz-adv-x="772" 
d="M80 -130v884h612v-884h-150v741h-312v-741h-150z" />
    <glyph glyph-name="summation" unicode="&#x2211;" horiz-adv-x="674" 
d="M639 -130h-599v136l274 310l-262 304v134h571v-141h-367l256 -297l-269 -305h396v-141z" />
    <glyph glyph-name="minus" unicode="&#x2212;" horiz-adv-x="700" 
d="M635 311h-570v132h570v-132z" />
    <glyph glyph-name="radical" unicode="&#x221a;" horiz-adv-x="700" 
d="M393 0h-204l-122 311h-67v132h172l119 -302l291 708h160z" />
    <glyph glyph-name="infinity" unicode="&#x221e;" horiz-adv-x="1011" 
d="M54 337q0 206 213 206q110 0 240 -121q68 61 121.5 91t115.5 30q105 0 159 -56.5t54 -149.5q0 -92 -56.5 -149t-156.5 -57q-65 0 -121 29.5t-119 91.5q-64 -60 -119.5 -90.5t-117.5 -30.5q-213 0 -213 206zM588 336q55 -50 85.5 -65t70.5 -15q37 0 59 23t22 58
q0 39 -21 60t-60 21q-35 0 -71 -18.5t-85 -63.5zM186 337q0 -81 81 -81q35 0 69.5 17t86.5 63q-95 82 -156 82q-81 0 -81 -81z" />
    <glyph glyph-name="integral" unicode="&#x222b;" horiz-adv-x="600" 
d="M36 -57q62 -17 110 -17q66 0 75 51q6 31 6 143v457q0 100 49 147t130 47q70 0 158 -21v-129q-64 16 -107 16q-41 0 -61 -19.5t-22 -76.5q-1 -24 -1 -163v-277q0 -109 -2 -152q-3 -71 -50 -114.5t-118 -43.5q-89 0 -167 21v131z" />
    <glyph glyph-name="approxequal" unicode="&#x2248;" horiz-adv-x="700" 
d="M213 460q-66 0 -148 -79v141q67 69 148 69q41 0 72.5 -7.5t84.5 -34.5q47 -24 67 -31t47 -7q68 0 151 80v-141q-68 -70 -151 -70q-34 0 -59.5 9t-89.5 40q-42 20 -65.5 25.5t-56.5 5.5zM65 304q68 70 148 70q34 0 59 -8.5t93 -40.5q43 -20 65 -25.5t54 -5.5q69 0 151 79
v-141q-74 -69 -151 -69q-38 0 -69 7.5t-85 34.5q-47 23 -68 30.5t-49 7.5q-68 0 -148 -80v141z" />
    <glyph glyph-name="notequal" unicode="&#x2260;" horiz-adv-x="700" 
d="M65 332h185l59 90h-244v130h330l96 144h131l-96 -144h109v-130h-195l-59 -90h254v-130h-340l-95 -144h-131l95 144h-99v130z" />
    <glyph glyph-name="lessequal" unicode="&#x2264;" horiz-adv-x="700" 
d="M65 332v130l570 198v-129l-389 -134l389 -133v-129zM65 0v126h570v-126h-570z" />
    <glyph glyph-name="greaterequal" unicode="&#x2265;" horiz-adv-x="700" 
d="M454 397l-389 134v129l570 -198v-130l-570 -197v129zM65 0v126h570v-126h-570z" />
    <glyph glyph-name="lozenge" unicode="&#x25ca;" horiz-adv-x="700" 
d="M350 -17l-308 395l308 397l308 -397zM350 209l133 169l-133 171l-133 -171z" />
    <glyph glyph-name="fi" unicode="&#xfb01;" horiz-adv-x="637" 
d="M211 0h-146v521q0 67 11 102q15 48 59 78q62 43 215 74v-142q-89 -19 -116 -39q-18 -13 -21 -35q-2 -14 -2 -38h140v-134h-140v-387zM426 0v528h146v-528h-146zM426 600v154h146v-154h-146z" />
    <glyph glyph-name="fl" unicode="&#xfb02;" horiz-adv-x="637" 
d="M65 521q0 67 11 102q15 48 59 78q62 43 215 74v-142q-89 -19 -116 -39q-18 -13 -21 -35q-2 -14 -2 -38h140v-134h-140v-387h-146v521zM426 0v754h146v-754h-146z" />
    <glyph glyph-name="zero.tf" horiz-adv-x="650" 
d="M127 56q-44 51 -56 121t-12 199q0 118 9.5 188.5t43.5 115.5q69 91 211 91q120 0 190 -67q50 -48 64 -123t14 -205q0 -124 -12.5 -192t-56.5 -121q-65 -80 -199 -80q-132 0 -196 73zM227 573q-18 -43 -18 -200q0 -93 5 -138.5t25 -74.5q27 -38 84 -38q56 0 84 38
q22 30 28 76t6 143q0 92 -5 137.5t-24 74.5q-27 41 -89 41q-37 0 -59.5 -13t-36.5 -46z" />
    <glyph glyph-name="one.tf" horiz-adv-x="650" 
d="M85 661l371 114v-633h147v-142h-472v142h175v438l-221 -67v148z" />
    <glyph glyph-name="two.tf" horiz-adv-x="650" 
d="M52 0v140q227 215 308 315q44 54 44 94q0 39 -24 59q-26 23 -109 23q-62 0 -205 -28v140q143 28 220 28q78 0 125 -13.5t83 -45.5q30 -26 45.5 -66.5t15.5 -82.5q0 -72 -26.5 -123.5t-86.5 -115.5q-67 -72 -188 -184h327v-140h-529z" />
    <glyph glyph-name="three.tf" horiz-adv-x="650" 
d="M60 146q135 -24 216 -24q82 0 117 26q31 23 31 71q0 50 -50 76q-26 13 -103 13h-135v135h215l24 33q40 54 40 85q0 32 -18 49q-25 22 -107 22q-71 0 -224 -30v139q159 30 227 30q149 0 212 -59q58 -54 58 -139q0 -51 -43 -118q-22 -35 -39 -58q28 -19 47 -42
q46 -53 46 -136q0 -97 -56 -156q-77 -80 -239 -80q-93 0 -219 23v140z" />
    <glyph glyph-name="four.tf" horiz-adv-x="650" 
d="M417 142h-385v142l346 470h181l-346 -471h204v132h148v-415h-148v142z" />
    <glyph glyph-name="five.tf" horiz-adv-x="650" 
d="M83 3v140q105 -21 197 -21q81 0 113 29q30 28 30 80q0 47 -31 72t-152 25h-147v426h462v-139h-314v-148h67q139 0 204 -65q61 -61 61 -171q0 -107 -62 -175q-67 -73 -221 -73q-91 0 -207 20z" />
    <glyph glyph-name="six.tf" horiz-adv-x="650" 
d="M133 51q-71 73 -71 224q0 150 29.5 233.5t94.5 136.5q115 95 361 122v-139q-134 -15 -216 -56q-80 -40 -97 -108q52 3 104 3q136 0 196 -63q61 -64 61 -174q0 -106 -60 -172q-68 -75 -200 -75q-137 0 -202 68zM212 257q0 -70 30 -107q26 -32 93 -32q54 0 82 29t28 83
q0 53 -25 79q-25 25 -100 25q-46 0 -106 -3q-2 -21 -2 -74z" />
    <glyph glyph-name="seven.tf" horiz-adv-x="650" 
d="M264 0h-174l342 612h-395v142h570v-139z" />
    <glyph glyph-name="eight.tf" horiz-adv-x="650" 
d="M122 35q-74 58 -74 173q0 77 45 128q25 28 55 52q-28 17 -50 44q-38 48 -38 124q0 101 61 153q72 62 203 62q130 0 199 -59q67 -56 67 -156q0 -60 -41 -114q-20 -25 -47 -54q32 -20 56 -48q44 -53 44 -132q0 -105 -67 -162q-74 -64 -212 -64q-132 0 -201 53zM197 214
q0 -53 27 -75q30 -25 102 -25q64 0 96 25t32 73q0 56 -43 80q-34 20 -152 38q-24 -20 -39 -40q-23 -32 -23 -76zM231 614q-23 -20 -23 -66t30 -66q31 -21 153 -43q18 19 29 36q22 33 22 73q0 44 -25 65q-31 26 -93 26q-65 0 -93 -25z" />
    <glyph glyph-name="nine.tf" horiz-adv-x="650" 
d="M55 510q0 120 57 186q64 75 199 75q137 0 205 -81q72 -86 72 -287q0 -128 -14 -196q-19 -93 -76 -150q-74 -74 -226 -74q-86 0 -190 23v139q105 -23 184 -23q73 0 108 20q38 22 53 68q11 34 11 70q-81 -11 -157 -11q-112 0 -167 63q-59 67 -59 178zM231 602
q-26 -32 -26 -92q0 -59 24 -84q23 -23 86 -23q53 0 123 10q0 138 -36 185q-30 38 -87 38t-84 -34z" />
    <glyph glyph-name="zero.numr" 
d="M107 370q-30 30 -41 70.5t-11 105.5q0 115 46 166q47 53 149 53q88 0 138 -44q57 -50 57 -175q0 -115 -55 -171q-50 -51 -140 -51q-97 0 -143 46zM194 627q-13 -21 -13 -81q0 -75 21 -95q16 -15 48 -15q29 0 46 16q23 22 23 94q0 63 -15 84q-16 23 -54 23q-40 0 -56 -26z
" />
    <glyph glyph-name="one.numr" horiz-adv-x="330" 
d="M265 335h-131v274l-113 -30v118l244 70v-432z" />
    <glyph glyph-name="two.numr" horiz-adv-x="438" 
d="M43 335v101q106 75 146 110q53 46 53 69q0 18 -12 27t-52 9q-44 0 -128 -21v114q88 21 144 21q83 0 126 -32q47 -34 47 -98q0 -33 -10.5 -56t-34.5 -51q-35 -39 -91 -85h161v-108h-349z" />
    <glyph glyph-name="three.numr" horiz-adv-x="450" 
d="M50 439q80 -16 131 -16q49 0 64 9q16 9 16 30q0 17 -13 26t-58 9h-93v96h138l11 15q10 14 10 27q0 16 -11 23q-13 8 -54 8q-54 0 -138 -19v98q93 20 151 20q93 0 136 -29q40 -28 40 -78q0 -34 -15 -60q-9 -15 -27 -39q19 -15 31 -34q18 -29 18 -70q0 -55 -40 -91
q-45 -40 -152 -40q-73 0 -145 15v100z" />
    <glyph glyph-name="four.numr" horiz-adv-x="458" 
d="M269 397h-244v111l183 246h155l-185 -248h91v64h125v-235h-125v62z" />
    <glyph glyph-name="five.numr" horiz-adv-x="442" 
d="M61 334v100q75 -11 125 -11q47 0 61 9q13 9 13 29q0 21 -15 29t-109 8h-71v256h308v-105h-186v-56h39q68 0 109 -22q51 -28 51 -102q0 -69 -41 -105q-47 -40 -158 -40q-53 0 -126 10z" />
    <glyph glyph-name="six.numr" horiz-adv-x="464" 
d="M93 368q-38 38 -38 121q0 80 13 124.5t57 79.5q73 57 262 73v-100q-101 -9 -148 -26q-44 -16 -50 -46q42 2 84 2q74 0 110 -36q32 -32 32 -94q0 -64 -39 -100q-46 -42 -140 -42q-100 0 -143 44zM180 510q-1 -12 -1 -30q0 -38 9 -49q13 -17 48 -17q30 0 43 12q14 12 14 39
q0 26 -12 37q-11 10 -48 10q-25 0 -53 -2z" />
    <glyph glyph-name="seven.numr" horiz-adv-x="406" 
d="M197 335h-148l193 313h-222v106h368v-105z" />
    <glyph glyph-name="eight.numr" horiz-adv-x="490" 
d="M103 356q-41 30 -41 89q0 47 30 77q12 12 30 26q-21 11 -34 30q-16 23 -16 70q0 58 48 90q40 27 126 27q84 0 129 -30q44 -29 44 -85q0 -41 -23 -71q-12 -17 -27 -32q24 -14 36 -29q23 -29 23 -73q0 -58 -45 -89q-46 -32 -136 -32q-100 0 -144 32zM183 455q0 -21 12 -31
q15 -12 52 -12q32 0 48 14q12 11 12 32q0 24 -19 33q-15 7 -74 15q-17 -12 -23 -22q-8 -11 -8 -29zM201 664q-12 -10 -12 -31q0 -27 17 -36q14 -7 71 -15q10 11 17 22q9 14 9 29q0 21 -11 31q-14 12 -46 12q-31 0 -45 -12z" />
    <glyph glyph-name="nine.numr" horiz-adv-x="464" 
d="M50 620q0 66 37 101q48 44 143 44q92 0 136 -50q43 -49 43 -145q0 -107 -21 -151q-21 -45 -63 -68q-51 -27 -125 -27q-61 0 -128 14v100q75 -15 110 -15q40 0 59 6q23 7 33 20q12 16 12 40q-58 -6 -103 -6q-79 0 -108 34q-25 29 -25 103zM172 622q0 -30 10 -41t39 -11
q27 0 65 4q0 59 -11 77q-12 21 -45 21q-32 0 -44 -12q-14 -14 -14 -38z" />
    <glyph glyph-name="zero.dnom" 
d="M107 35q-30 30 -41 70.5t-11 105.5q0 115 46 166q47 53 149 53q88 0 138 -44q57 -50 57 -175q0 -115 -55 -171q-50 -51 -140 -51q-97 0 -143 46zM194 292q-13 -21 -13 -81q0 -75 21 -95q16 -15 48 -15q29 0 46 16q23 22 23 94q0 63 -15 84q-16 23 -54 23q-40 0 -56 -26z
" />
    <glyph glyph-name="one.dnom" horiz-adv-x="330" 
d="M265 0h-131v274l-113 -30v118l244 70v-432z" />
    <glyph glyph-name="two.dnom" horiz-adv-x="438" 
d="M43 0v101q106 75 146 110q53 46 53 69q0 18 -12 27t-52 9q-44 0 -128 -21v114q88 21 144 21q83 0 126 -32q47 -34 47 -98q0 -33 -10.5 -56t-34.5 -51q-35 -39 -91 -85h161v-108h-349z" />
    <glyph glyph-name="three.dnom" horiz-adv-x="450" 
d="M50 104q80 -16 131 -16q49 0 64 9q16 9 16 30q0 17 -13 26t-58 9h-93v96h138l11 15q10 14 10 27q0 16 -11 23q-13 8 -54 8q-54 0 -138 -19v98q93 20 151 20q93 0 136 -29q40 -28 40 -78q0 -34 -15 -60q-9 -15 -27 -39q19 -15 31 -34q18 -28 18 -70q0 -55 -40 -91
q-45 -40 -152 -40q-73 0 -145 15v100z" />
    <glyph glyph-name="four.dnom" horiz-adv-x="458" 
d="M269 62h-244v111l183 246h155l-185 -248h91v64h125v-235h-125v62z" />
    <glyph glyph-name="five.dnom" horiz-adv-x="442" 
d="M61 -1v100q75 -11 125 -11q47 0 61 9q13 9 13 29q0 21 -15 29t-109 8h-71v256h308v-105h-186v-56h39q68 0 109 -22q51 -28 51 -102q0 -69 -41 -105q-47 -40 -158 -40q-53 0 -126 10z" />
    <glyph glyph-name="six.dnom" horiz-adv-x="464" 
d="M93 33q-38 38 -38 121q0 80 13 124.5t57 79.5q73 57 262 73v-100q-101 -9 -148 -26q-44 -16 -50 -46q42 2 84 2q74 0 110 -36q32 -32 32 -94q0 -64 -39 -100q-46 -42 -140 -42q-100 0 -143 44zM180 175q-1 -12 -1 -30q0 -38 9 -49q13 -17 48 -17q30 0 43 12q14 12 14 39
q0 26 -12 37q-11 10 -48 10q-25 0 -53 -2z" />
    <glyph glyph-name="seven.dnom" horiz-adv-x="406" 
d="M197 0h-148l193 313h-222v106h368v-105z" />
    <glyph glyph-name="eight.dnom" horiz-adv-x="490" 
d="M103 21q-41 30 -41 89q0 47 30 77q12 12 30 26q-21 11 -34 30q-16 23 -16 70q0 58 48 90q40 27 126 27q84 0 129 -30q44 -29 44 -85q0 -41 -23 -71q-12 -17 -27 -32q24 -14 36 -29q23 -29 23 -73q0 -58 -45 -89q-46 -32 -136 -32q-100 0 -144 32zM183 120q0 -21 12 -31
q15 -12 52 -12q32 0 48 14q12 11 12 32q0 23 -19 33q-15 7 -74 15q-17 -12 -23 -22q-8 -11 -8 -29zM201 329q-12 -10 -12 -31q0 -27 17 -36q14 -7 71 -15q10 11 17 22q9 13 9 29q0 21 -11 31q-14 12 -46 12q-31 0 -45 -12z" />
    <glyph glyph-name="nine.dnom" horiz-adv-x="464" 
d="M50 285q0 66 37 101q48 44 143 44q92 0 136 -50q43 -49 43 -145q0 -107 -21 -151q-21 -45 -63 -68q-51 -27 -125 -27q-61 0 -128 14v100q75 -15 110 -15q40 0 59 6q23 7 33 20q12 16 12 40q-58 -6 -103 -6q-79 0 -108 34q-25 29 -25 103zM172 287q0 -30 10 -41t39 -11
q27 0 65 4q0 59 -11 77q-12 21 -45 21q-32 0 -44 -12q-14 -14 -14 -38z" />
    <glyph glyph-name="IJacute" horiz-adv-x="694" 
d="M531 -12q-49 -29 -130.5 -61.5t-137.5 -48.5v147q95 31 151 65q38 24 50 58q10 28 10 100v506h150v-517q0 -124 -19 -168q-21 -50 -74 -81zM72 754h150v-754h-150v754zM624 796h-156l141 154h162zM215 796h-156l141 154h162z" />
    <glyph glyph-name="ijacute" horiz-adv-x="558" 
d="M216 -214v134q64 20 90 38q25 18 33 49q6 22 6 93v428h148v-457q0 -90 -9 -119q-17 -57 -76 -93q-69 -43 -192 -73zM211 0h-146v528h146v-528zM489 600h-156l141 154h162zM210 600h-156l141 154h162z" />
    <glyph glyph-name="space.tf" horiz-adv-x="325" 
 />
    <glyph glyph-name="period.tf" horiz-adv-x="325" 
d="M246 0h-166v178h166v-178z" />
    <glyph glyph-name="comma.tf" horiz-adv-x="325" 
d="M184 -188h-112q22 110 22 191v175h152v-151q0 -97 -62 -215z" />
    <glyph glyph-name="colon.tf" horiz-adv-x="325" 
d="M246 0h-166v178h166v-178zM80 528h166v-178h-166v178z" />
    <glyph glyph-name="dollar.tf" horiz-adv-x="650" 
d="M110 393q-63 50 -63 151q0 122 77 179q48 37 131 40v94h133v-96q70 -9 190 -35v-141q-181 43 -259 43q-74 0 -97 -17q-23 -16 -23 -57q0 -42 26 -56q30 -17 87 -36l98 -34q95 -32 128 -59q64 -53 64 -153q0 -110 -76 -170q-51 -41 -138 -52v-107h-133v105q-82 7 -201 27
v142q163 -35 264 -35q69 0 102 21q30 20 30 61q0 32 -18 50q-13 13 -90 39l-118 41q-79 28 -114 55z" />
    <glyph glyph-name="Euro.tf" horiz-adv-x="650" 
d="M101 104q-40 71 -40 262q0 198 44 278q35 64 95.5 94.5t176.5 30.5q81 0 225 -26v-141q-141 25 -209 25q-69 0 -104 -9.5t-52 -36.5q-13 -20 -15 -52h266v-122h-275v-55h275v-122h-268q2 -34 11 -55q13 -29 51.5 -38t114.5 -9q71 0 205 17v-142q-140 -17 -226 -17
q-119 0 -181 30t-94 88z" />
    <glyph glyph-name="sterling.tf" horiz-adv-x="650" 
d="M595 0h-505v569q0 96 47 148q29 31 67.5 42.5t107.5 11.5q75 0 242 -33v-139q-156 33 -224 33q-54 0 -77 -25q-13 -15 -13 -48v-76h205v-132h-205v-208h355v-143z" />
    <glyph glyph-name="yen.tf" horiz-adv-x="650" 
d="M146 483l-144 271h169l159 -302l159 302h160l-144 -271h109v-132h-176l-37 -69v-282h-150v282l-37 69h-177v132h109z" />
    <glyph glyph-name="uni20BA.tf" horiz-adv-x="650" 
d="M90 754h150v-134l212 65v-124l-212 -65v-59l212 65v-124l-212 -65v-195q114 0 161 52q28 32 37.5 65t13.5 95h151q-7 -158 -61 -229q-45 -60 -114.5 -89t-188.5 -29q-106 0 -149 5v766z" />
    <glyph glyph-name="uni20BD.tf" horiz-adv-x="650" 
d="M80 0v754h278q127 0 190 -62q65 -64 65 -171q0 -111 -69 -176q-58 -54 -175 -59q-44 -2 -139 -2v-61h267v-122h-267v-101h-150zM347 614h-117v-192q77 0 124 2q63 3 85 26q22 24 22 71q0 46 -23 70q-23 23 -91 23z" />
    <glyph glyph-name="parenleft.case" horiz-adv-x="346" 
d="M61 599q0 121 52 177q64 69 205 94v-130q-66 -20 -87 -48q-22 -29 -22 -130v-370q0 -106 22 -132q23 -27 87 -46v-130q-142 25 -205 94q-52 56 -52 177v444z" />
    <glyph glyph-name="parenright.case" horiz-adv-x="346" 
d="M115 692q-21 28 -87 48v130q142 -25 205 -94q52 -56 52 -177v-444q0 -121 -52 -177q-64 -69 -205 -94v130q64 19 87 46q22 26 22 132v370q0 101 -22 130z" />
    <glyph glyph-name="bracketleft.case" horiz-adv-x="366" 
d="M338 -97h-271v946h271v-130h-123v-686h123v-130z" />
    <glyph glyph-name="bracketright.case" horiz-adv-x="366" 
d="M28 33h123v686h-123v130h271v-946h-271v130z" />
    <glyph glyph-name="braceleft.case" horiz-adv-x="426" 
d="M19 442q38 2 62 11q43 15 43 58v193q0 82 47 120q31 25 82 25h145v-130h-61q-35 0 -50 -15t-15 -49v-175q0 -68 -49 -92q-18 -8 -61 -13q52 -6 72 -19q38 -24 38 -85v-174q0 -34 15 -49t50 -15h61v-130h-145q-57 0 -91 33q-38 36 -38 113v190q0 48 -59 63q-15 4 -46 6
v134z" />
    <glyph glyph-name="braceright.case" horiz-adv-x="426" 
d="M28 719v130h145q51 0 82 -25q47 -38 47 -120v-193q0 -41 43 -58q24 -9 62 -11v-134q-31 -2 -46 -6q-59 -17 -59 -63v-190q0 -77 -38 -113q-35 -33 -91 -33h-145v130h61q35 0 50 15t15 49v174q0 61 38 85q20 13 72 19q-43 5 -61 13q-49 23 -49 92v175q0 34 -15 49t-50 15
h-61z" />
    <glyph glyph-name="hyphen.case" horiz-adv-x="458" 
d="M408 306h-358v146h358v-146z" />
    <glyph glyph-name="endash.case" horiz-adv-x="600" 
d="M550 308h-500v142h500v-142z" />
    <glyph glyph-name="emdash.case" horiz-adv-x="1000" 
d="M1000 308h-1000v142h1000v-142z" />
    <glyph glyph-name="guillemotleft.case" horiz-adv-x="671" 
d="M318 376l176 206h170l-176 -206l176 -206h-170zM209 170l-176 206l176 206h170l-176 -206l176 -206h-170z" />
    <glyph glyph-name="guillemotright.case" horiz-adv-x="671" 
d="M462 170h-170l176 206l-176 206h170l176 -206zM183 376l-176 206h170l176 -206l-176 -206h-170z" />
    <glyph glyph-name="guilsinglleft.case" horiz-adv-x="386" 
d="M379 170h-170l-176 206l176 206h170l-176 -206z" />
    <glyph glyph-name="guilsinglright.case" horiz-adv-x="386" 
d="M177 170h-170l176 206l-176 206h170l176 -206z" />
    <glyph glyph-name="questiondown.case" horiz-adv-x="559" 
d="M42 175q0 51 15 89.5t54 86.5q36 43 93 104q24 26 37 59h162q-16 -54 -55 -103q-35 -44 -105 -116q-51 -53 -51 -101q0 -37 24 -56t98 -19q64 0 185 25v-133q-120 -28 -213 -28q-112 0 -175 49q-31 24 -50 63.5t-19 79.5zM241 576v178h162v-178h-162z" />
    <glyph glyph-name="exclamdown.case" horiz-adv-x="318" 
d="M75 166q0 258 3 348h146q3 -90 3 -348v-166h-152v166zM70 754h162v-178h-162v178z" />
    </font>
</defs>
</svg>
