<?xml version="1.0" standalone="no"?>
<!DOCTYPE svg PUBLIC "-//W3C//DTD SVG 1.1//EN" "http://www.w3.org/Graphics/SVG/1.1/DTD/svg11.dtd" >
<svg xmlns="http://www.w3.org/2000/svg" xmlns:xlink="http://www.w3.org/1999/xlink" version="1.1">
<metadata>
Created by FontForge 20170731 at Wed Mar 20 11:32:49 2019
 By Aleksey,,,
</metadata>
<defs>
<font id="BMWTypeGlobal-Light" horiz-adv-x="2048" >
  <font-face 
    font-family="BMWTypeGlobal-Light"
    font-weight="200"
    font-stretch="normal"
    units-per-em="2048"
    panose-1="2 0 3 3 0 0 0 0 0 0"
    ascent="1638"
    descent="-410"
    x-height="1081"
    cap-height="1544"
    bbox="-117 -424 2599 1814"
    underline-thickness="50"
    underline-position="-200"
    unicode-range="U+0020-FFE5"
  />
<missing-glyph horiz-adv-x="518" 
d="M52 0v1544h414v-1544h-414zM414 52v1440h-310v-1440h310z" />
    <glyph glyph-name=".notdef" horiz-adv-x="518" 
d="M52 0v1544h414v-1544h-414zM414 52v1440h-310v-1440h310z" />
    <glyph glyph-name=".null" horiz-adv-x="0" 
 />
    <glyph glyph-name="nonmarkingreturn" horiz-adv-x="682" 
 />
    <glyph glyph-name="space" unicode=" " horiz-adv-x="518" 
 />
    <glyph glyph-name="exclam" unicode="!" horiz-adv-x="555" 
d="M188 0v250h179v-250h-179zM219 512l-26 748v284h169v-284l-26 -748h-117z" />
    <glyph glyph-name="quotedbl" unicode="&#x22;" horiz-adv-x="829" 
d="M186 952l-36 428v164h169v-164l-34 -428h-99zM547 952l-37 428v164h170v-164l-35 -428h-98z" />
    <glyph glyph-name="numbersign" unicode="#" horiz-adv-x="1446" 
d="M272 0l90 389h-219v117h246l105 450h-218v117h244l90 387h115l-90 -387h336l90 387h115l-91 -387h215v-117h-241l-105 -450h213v-117h-239l-90 -389h-115l90 389h-336l-90 -389h-115zM504 506h336l104 450h-336z" />
    <glyph glyph-name="dollar" unicode="$" horiz-adv-x="1339" 
d="M610 -190v155q-239 13 -371 135q-109 102 -159 308l135 32q42 -159 110 -235q99 -109 285 -123v647l-94 19q-401 82 -401 411q0 208 161 324q124 88 334 98v121h115v-125q217 -19 333 -127q94 -88 142 -254l-127 -45q-57 163 -143 233q-76 62 -205 80v-620l121 -25
q381 -79 381 -420q0 -212 -151 -325q-127 -94 -351 -109v-155h-115zM725 82q354 29 354 302q0 135 -80 211q-68 65 -217 99l-57 13v-625zM610 866v602q-160 -8 -251 -76q-105 -78 -105 -222q0 -233 301 -293z" />
    <glyph glyph-name="percent" unicode="%" horiz-adv-x="1956" 
d="M563 -37l703 1534h123l-703 -1534h-123zM1535 883q339 0 339 -459q0 -461 -344 -461q-340 0 -340 459q0 228 81 344q83 117 264 117zM1528 782q-219 0 -219 -358q0 -361 221 -361q225 0 225 366q0 353 -227 353zM427 1497q339 0 339 -459q0 -460 -344 -460
q-340 0 -340 457q0 228 82 344q83 118 263 118zM420 1397q-219 0 -219 -359q0 -360 221 -360q225 0 225 364q0 355 -227 355z" />
    <glyph glyph-name="ampersand" unicode="&#x26;" horiz-adv-x="1401" 
d="M457 895q-73 82 -107 133q-65 98 -65 206q0 164 123 254q101 73 268 73q192 0 295 -112q76 -81 76 -203q0 -161 -151 -270q-86 -61 -237 -120l418 -489q107 139 205 325l107 -55q-100 -203 -234 -365l236 -272h-183l-147 174q-235 -211 -482 -211q-189 0 -324 102
q-167 127 -167 342q0 177 103 301q89 107 266 187zM987 262l-457 545q-155 -71 -230 -161q-81 -98 -81 -235q0 -144 104 -240q103 -95 257 -95q218 0 407 186zM584 940q156 58 238 120q100 78 100 186q0 104 -90 166q-70 48 -166 48q-111 0 -181 -62q-67 -60 -67 -159
q0 -65 35 -127q31 -54 98 -133z" />
    <glyph glyph-name="quotesingle" unicode="'" horiz-adv-x="465" 
d="M184 952l-37 428v164h170v-164l-34 -428h-99z" />
    <glyph glyph-name="parenleft" unicode="(" horiz-adv-x="551" 
d="M395 -387q-313 411 -313 966q0 552 313 963l103 -55q-267 -415 -267 -912q0 -349 138 -665q53 -123 129 -242z" />
    <glyph glyph-name="parenright" unicode=")" horiz-adv-x="551" 
d="M156 -387l-103 55q266 422 266 918q0 481 -266 901l103 55q313 -412 313 -962q0 -555 -313 -967z" />
    <glyph glyph-name="asterisk" unicode="*" horiz-adv-x="985" 
d="M430 741l8 310l-266 -160l-57 100l266 152l-266 151l57 101l266 -160l-8 309h125l-8 -309l266 160l57 -101l-266 -151l266 -152l-57 -100l-266 160l8 -310h-125z" />
    <glyph glyph-name="plus" unicode="+" horiz-adv-x="1194" 
d="M537 178v498h-486v110h486v498h118v-498h486v-110h-486v-498h-118z" />
    <glyph glyph-name="comma" unicode="," horiz-adv-x="465" 
d="M154 -369l-66 64q133 142 133 280v25h-78v250h179v-240q0 -207 -168 -379z" />
    <glyph glyph-name="hyphen" unicode="-" horiz-adv-x="782" 
d="M123 469v143h536v-143h-536z" />
    <glyph glyph-name="period" unicode="." horiz-adv-x="465" 
d="M143 0v250h179v-250h-179z" />
    <glyph glyph-name="slash" unicode="/" horiz-adv-x="481" 
d="M0 0l362 1544h119l-362 -1544h-119z" />
    <glyph glyph-name="zero" unicode="0" horiz-adv-x="1194" 
d="M600 1544q512 0 512 -790q0 -791 -517 -791q-513 0 -513 791q0 790 518 790zM593 1425q-366 0 -366 -671q0 -672 370 -672q180 0 276 163q94 159 94 518q0 662 -374 662z" />
    <glyph glyph-name="one" unicode="1" horiz-adv-x="1194" 
d="M641 0v1354q-180 -138 -352 -238l-57 98q229 140 401 293h139v-1507h-131z" />
    <glyph glyph-name="two" unicode="2" horiz-adv-x="1194" 
d="M105 0v63q0 216 214 407q77 68 228 168q196 129 263 199q117 124 117 283q0 142 -87 223q-90 84 -242 84q-170 0 -264 -113q-58 -70 -96 -208l-129 29q109 409 497 409q234 0 361 -135q105 -112 105 -295q0 -205 -157 -358q-73 -71 -212 -164q-199 -133 -266 -189
q-163 -136 -180 -278h831v-125h-983z" />
    <glyph glyph-name="three" unicode="3" horiz-adv-x="1194" 
d="M91 387l135 21q36 -328 352 -328q164 0 260 69q113 81 113 240q0 205 -165 280q-93 42 -253 44v123q161 7 268 78q121 80 121 239q0 137 -85 209q-81 70 -239 70q-281 0 -343 -295l-131 20q70 387 485 387q233 0 354 -115q103 -98 103 -268q0 -180 -122 -282
q-69 -58 -181 -99q169 -23 257 -131q76 -92 76 -249q0 -190 -116 -306q-131 -131 -395 -131q-237 0 -361 116q-109 101 -133 308z" />
    <glyph glyph-name="four" unicode="4" horiz-adv-x="1194" 
d="M784 0v338h-700v117l702 1052h131v-1052h172v-117h-170v-338h-135zM225 455h557v854z" />
    <glyph glyph-name="five" unicode="5" horiz-adv-x="1194" 
d="M130 289l131 35q71 -246 327 -246q351 0 351 419q0 162 -78 270q-84 116 -261 116q-111 0 -195 -45q-58 -32 -115 -103l-121 17l123 755h744v-123h-646l-77 -487q73 53 132 74q83 30 189 30q174 0 294 -101q157 -131 157 -401q0 -248 -129 -391q-131 -145 -366 -145
q-372 0 -460 326z" />
    <glyph glyph-name="six" unicode="6" horiz-adv-x="1194" 
d="M1062 1284l-120 -55q-89 201 -309 201q-227 0 -325 -234q-66 -156 -81 -455q56 108 160 169t242 61q181 0 302 -96q160 -129 160 -405q0 -212 -115 -348q-136 -159 -385 -159q-277 0 -401 202q-109 177 -109 535q0 417 150 637q140 207 407 207q316 0 424 -260zM607 852
q-172 0 -271 -120q-87 -107 -87 -276q0 -162 84 -266q93 -116 256 -116q149 0 244 89q113 107 113 309q0 181 -87 279q-89 101 -252 101z" />
    <glyph glyph-name="seven" unicode="7" horiz-adv-x="1194" 
d="M340 0q96 448 243 770q129 284 368 612h-809v125h948v-141q-240 -334 -360 -597q-144 -313 -238 -769h-152z" />
    <glyph glyph-name="eight" unicode="8" horiz-adv-x="1194" 
d="M332 782q-221 115 -221 355q0 202 146 313q126 94 347 94q263 0 390 -151q87 -103 87 -262q0 -235 -221 -349q275 -109 275 -387q0 -190 -132 -306q-144 -126 -405 -126q-241 0 -383 105q-158 117 -158 332q0 276 275 382zM588 723q-191 0 -294 -94q-93 -84 -93 -230
q0 -147 92 -231q103 -94 301 -94q183 0 286 78q111 85 111 248q0 161 -115 248q-99 75 -288 75zM593 1438q-171 0 -262 -89q-81 -79 -81 -215q0 -137 80 -216q92 -89 267 -89q157 0 248 74q97 79 97 232q0 136 -81 214q-91 89 -268 89z" />
    <glyph glyph-name="nine" unicode="9" horiz-adv-x="1194" 
d="M141 201l116 59q81 -178 311 -178q229 0 326 231q67 160 76 453q-54 -104 -149 -163q-109 -66 -250 -66q-243 0 -367 159q-98 126 -98 337q0 232 133 372q131 139 368 139q309 0 428 -259q81 -175 81 -476q0 -419 -147 -638q-139 -208 -402 -208q-318 0 -426 238z
M599 1434q-160 0 -255 -109q-93 -107 -93 -290q0 -179 86 -279q87 -101 245 -101q168 0 269 112q95 106 95 292q0 183 -111 289q-89 86 -236 86z" />
    <glyph glyph-name="colon" unicode=":" horiz-adv-x="465" 
d="M143 0v250h179v-250h-179zM143 831v250h179v-250h-179z" />
    <glyph glyph-name="semicolon" unicode=";" horiz-adv-x="465" 
d="M154 -369l-66 64q133 142 133 280v25h-78v250h179v-240q0 -207 -168 -379zM143 831v250h179v-250h-179z" />
    <glyph glyph-name="less" unicode="&#x3c;" horiz-adv-x="1194" 
d="M1141 178l-1090 496v114l1090 496v-123l-944 -430l944 -430v-123z" />
    <glyph glyph-name="equal" unicode="=" horiz-adv-x="1194" 
d="M51 434v115h1090v-115h-1090zM51 913v115h1090v-115h-1090z" />
    <glyph glyph-name="greater" unicode="&#x3e;" horiz-adv-x="1194" 
d="M51 178v123l944 430l-944 430v123l1090 -496v-114z" />
    <glyph glyph-name="question" unicode="?" horiz-adv-x="1049" 
d="M379 0v250h178v-250h-178zM401 506v153q0 87 50 138q26 27 77 60l29 19q133 88 172 130q78 86 78 200q0 262 -296 262q-163 0 -247 -100q-46 -54 -76 -158l-127 21q86 350 471 350q235 0 345 -140q69 -87 69 -226q0 -238 -301 -428q-65 -41 -83 -67q-27 -38 -27 -102
v-112h-134z" />
    <glyph glyph-name="at" unicode="@" horiz-adv-x="1882" 
d="M1100 475q-120 -143 -317 -143q-154 0 -238 92q-80 86 -80 239q0 214 128 386q146 196 374 196q182 0 264 -149l24 118h129l-131 -587q-20 -89 -20 -112q0 -73 102 -73q123 0 209 86q119 119 119 336q0 307 -279 497q-184 126 -445 126q-302 0 -507 -195
q-213 -202 -213 -527q0 -388 284 -585q176 -123 482 -123q203 0 363 66l41 -105q-163 -71 -406 -71q-259 0 -425 73q-217 95 -339 294q-121 197 -121 456q0 300 190 530q244 297 662 297q326 0 556 -183q148 -118 225 -288q53 -118 53 -265q0 -258 -148 -402
q-130 -127 -324 -127q-118 0 -168 49q-34 33 -44 94zM964 1137q-171 0 -277 -182q-81 -139 -81 -304q0 -209 205 -209q186 0 286 173q39 68 65 168q16 61 16 110q0 244 -214 244z" />
    <glyph glyph-name="A" unicode="A" horiz-adv-x="1358" 
d="M0 0l588 1544h184l586 -1544h-156l-153 412h-756l-156 -412h-137zM340 535h661l-327 878z" />
    <glyph glyph-name="B" unicode="B" horiz-adv-x="1386" 
d="M154 0v1544h591q474 0 474 -369q0 -150 -76 -240q-44 -52 -121 -95q125 -40 190 -109q93 -100 93 -284q0 -447 -562 -447h-589zM297 125h426q426 0 426 325q0 314 -391 314h-461v-639zM297 889h405q363 0 363 266q0 150 -92 210q-81 54 -250 54h-426v-530z" />
    <glyph glyph-name="C" unicode="C" horiz-adv-x="1464" 
d="M1368 1128l-143 -38q-42 153 -120 238q-117 128 -329 128q-266 0 -403 -211q-119 -182 -119 -491q0 -297 126 -473q138 -191 389 -191q246 0 375 171q76 101 103 261l148 -22q-113 -537 -631 -537q-270 0 -442 162q-224 211 -224 633q0 388 182 607q180 216 494 216
q495 0 594 -453z" />
    <glyph glyph-name="D" unicode="D" horiz-adv-x="1462" 
d="M154 0v1544h464q746 0 746 -761q0 -783 -746 -783h-464zM297 129h332q304 0 452 187q129 162 129 462q0 637 -581 637h-332v-1286z" />
    <glyph glyph-name="E" unicode="E" horiz-adv-x="1305" 
d="M154 0v1544h1036v-129h-893v-563h848v-129h-848v-594h926v-129h-1069z" />
    <glyph glyph-name="F" unicode="F" horiz-adv-x="1247" 
d="M154 0v1544h1040v-129h-897v-549h809v-129h-809v-737h-143z" />
    <glyph glyph-name="G" unicode="G" horiz-adv-x="1481" 
d="M1362 1159l-143 -39q-53 170 -161 255q-104 81 -288 81q-260 0 -397 -211q-119 -182 -119 -491q0 -303 124 -475q135 -189 384 -189q194 0 322 94q139 103 139 273v170h-250v127h393v-754h-92l-41 164q-187 -201 -473 -201q-270 0 -441 162q-221 210 -221 632
q0 389 182 608q180 216 495 216q478 0 587 -422z" />
    <glyph glyph-name="H" unicode="H" horiz-adv-x="1487" 
d="M154 0v1544h143v-659h893v659h143v-1544h-143v756h-893v-756h-143z" />
    <glyph glyph-name="I" unicode="I" horiz-adv-x="451" 
d="M154 0v1544h143v-1544h-143z" />
    <glyph glyph-name="J" unicode="J" horiz-adv-x="1143" 
d="M61 430l140 19q33 -361 323 -361q332 0 332 373v1083h143v-1073q0 -261 -134 -392q-119 -116 -330 -116q-228 0 -355 149q-98 116 -119 318z" />
    <glyph glyph-name="K" unicode="K" horiz-adv-x="1360" 
d="M154 0v1544h143v-770l795 770h174l-607 -598l701 -946h-184l-619 844l-260 -250v-594h-143z" />
    <glyph glyph-name="L" unicode="L" horiz-adv-x="1190" 
d="M154 0v1544h143v-1415h852v-129h-995z" />
    <glyph glyph-name="M" unicode="M" horiz-adv-x="1817" 
d="M154 0v1544h249l496 -1390l531 1390h233v-1544h-139v1421l-541 -1421h-182l-508 1436v-1436h-139z" />
    <glyph glyph-name="N" unicode="N" horiz-adv-x="1473" 
d="M154 0v1544h190l832 -1360v1360h143v-1544h-189l-833 1362v-1362h-143z" />
    <glyph glyph-name="O" unicode="O" horiz-adv-x="1608" 
d="M809 1581q323 0 509 -211q191 -216 191 -598q0 -381 -191 -597q-187 -212 -514 -212q-294 0 -478 173q-228 216 -228 636q0 383 190 598q188 211 521 211zM799 1454q-256 0 -406 -200q-139 -184 -139 -482q0 -297 139 -483q150 -199 409 -199q236 0 383 164
q169 188 169 518q0 299 -140 482q-151 200 -415 200z" />
    <glyph glyph-name="P" unicode="P" horiz-adv-x="1305" 
d="M154 0v1544h622q223 0 347 -123q120 -119 120 -333q0 -213 -134 -336q-137 -125 -374 -125h-438v-627h-143zM297 750h451q171 0 264 104q80 89 80 238q0 178 -118 265q-84 62 -220 62h-457v-669z" />
    <glyph glyph-name="Q" unicode="Q" horiz-adv-x="1608" 
d="M1272 -236l-162 259q-145 -60 -306 -60q-328 0 -516 212q-190 216 -190 597q0 382 190 598q187 211 515 211q329 0 515 -211q191 -216 191 -598q0 -466 -284 -682l159 -254zM1036 141l-184 295l113 72l182 -293q207 194 207 556q0 299 -140 483q-150 200 -411 200
q-260 0 -410 -200q-139 -185 -139 -482t139 -483q150 -199 407 -199q125 0 236 51z" />
    <glyph glyph-name="R" unicode="R" horiz-adv-x="1382" 
d="M154 0v1544h626q242 0 367 -117q121 -113 121 -321q0 -159 -89 -281q-72 -100 -202 -147l336 -678h-168l-309 651q-16 -2 -27 -2h-15h-16h-481v-649h-143zM297 774h467q352 0 352 331q0 314 -352 314h-467v-645z" />
    <glyph glyph-name="S" unicode="S" horiz-adv-x="1339" 
d="M61 410l142 34q43 -153 105 -222q115 -130 352 -130q427 0 427 296q0 130 -78 203q-72 68 -223 97l-262 51q-418 82 -418 420q0 188 131 300q142 122 404 122q269 0 412 -117q112 -92 164 -272l-134 -43q-50 142 -126 209q-109 98 -316 98q-194 0 -295 -81
q-92 -73 -92 -208q0 -119 73 -188q73 -68 226 -98l299 -58q393 -76 393 -425q0 -197 -134 -308q-151 -127 -445 -127q-278 0 -428 128q-121 103 -177 319z" />
    <glyph glyph-name="T" unicode="T" horiz-adv-x="1368" 
d="M612 0v1415h-561v129h1266v-129h-561v-1415h-144z" />
    <glyph glyph-name="U" unicode="U" horiz-adv-x="1440" 
d="M143 1544h144v-952q0 -271 119 -393q105 -109 316 -109q209 0 314 109q117 122 117 393v952h143v-964q0 -617 -572 -617q-581 0 -581 617v964z" />
    <glyph glyph-name="V" unicode="V" horiz-adv-x="1276" 
d="M547 0l-547 1544h152l491 -1415l490 1415h143l-553 -1544h-176z" />
    <glyph glyph-name="W" unicode="W" horiz-adv-x="1907" 
d="M387 0l-387 1544h152l344 -1440l366 1440h172l359 -1429l364 1429h150l-408 -1544h-196l-355 1356l-366 -1356h-195z" />
    <glyph glyph-name="X" unicode="X" horiz-adv-x="1221" 
d="M0 0l532 797l-495 747h164l411 -631l418 631h148l-492 -735l535 -809h-162l-455 692l-457 -692h-147z" />
    <glyph glyph-name="Y" unicode="Y" horiz-adv-x="1223" 
d="M539 0v592l-539 952h158l458 -815l455 815h152l-541 -952v-592h-143z" />
    <glyph glyph-name="Z" unicode="Z" horiz-adv-x="1253" 
d="M76 0v131l932 1284h-902v129h1061v-131l-931 -1284h948v-129h-1108z" />
    <glyph glyph-name="bracketleft" unicode="[" horiz-adv-x="604" 
d="M154 -393v1937h383v-106h-242v-1725h242v-106h-383z" />
    <glyph glyph-name="backslash" unicode="\" horiz-adv-x="481" 
d="M362 0l-362 1544h119l362 -1544h-119z" />
    <glyph glyph-name="bracketright" unicode="]" horiz-adv-x="604" 
d="M68 -393v106h241v1725h-241v106h383v-1937h-383z" />
    <glyph glyph-name="asciicircum" unicode="^" horiz-adv-x="1188" 
d="M123 797l414 747h114l414 -747h-131l-340 626l-340 -626h-131z" />
    <glyph glyph-name="underscore" unicode="_" horiz-adv-x="1024" 
d="M0 -266v123h1024v-123h-1024z" />
    <glyph glyph-name="grave" unicode="`" horiz-adv-x="811" 
d="M438 1272l-194 272h153l164 -272h-123z" />
    <glyph glyph-name="a" unicode="a" horiz-adv-x="1020" 
d="M782 686v88q0 234 -262 234q-142 0 -215 -71q-50 -48 -82 -142l-117 30q89 293 422 293q203 0 301 -99q84 -85 84 -237v-598q0 -75 29 -184h-129q-1 2 -3 11q-1 3 -4 11q-15 39 -15 132q-91 -114 -184 -157q-71 -34 -205 -34q-140 0 -229 77q-99 86 -99 233
q0 178 115 270q84 68 247 92zM782 573l-350 -55q-223 -35 -223 -239q0 -203 215 -203q128 0 222 62q136 90 136 257v178z" />
    <glyph glyph-name="b" unicode="b" horiz-adv-x="1159" 
d="M264 152v-152h-131v1544h131v-639q130 213 377 213q211 0 327 -160q109 -150 109 -405q0 -264 -112 -418q-124 -172 -359 -172q-118 0 -203 50q-74 43 -139 139zM610 1004q-175 0 -270 -151q-80 -126 -80 -325q0 -192 78 -311q90 -139 258 -139q342 0 342 458
q0 468 -328 468z" />
    <glyph glyph-name="c" unicode="c" horiz-adv-x="1047" 
d="M981 793l-131 -39q-31 120 -85 176q-73 76 -210 76q-168 0 -256 -137q-78 -120 -78 -328q0 -212 75 -327q88 -136 262 -136q172 0 250 124q37 57 58 148l127 -37q-103 -350 -431 -350q-214 0 -339 136q-141 153 -141 442q0 259 116 411q125 166 362 166q341 0 421 -325z
" />
    <glyph glyph-name="d" unicode="d" horiz-adv-x="1159" 
d="M895 926v618h131v-1544h-131v170q-129 -207 -375 -207q-191 0 -306 129q-132 147 -132 430q0 265 112 422q123 174 349 174q221 0 352 -192zM556 1004q-156 0 -243 -114q-92 -120 -92 -352q0 -460 328 -460q160 0 253 122q97 127 97 347q0 195 -78 315q-93 142 -265 142z
" />
    <glyph glyph-name="e" unicode="e" horiz-adv-x="1116" 
d="M1040 518h-819q6 -183 72 -292q89 -148 272 -148q161 0 249 100q43 49 83 156l123 -45q-37 -114 -109 -190q-127 -136 -344 -136q-211 0 -339 134q-146 154 -146 440q0 255 124 412q133 169 371 169q230 0 355 -149q110 -133 110 -348v-21v-22v-14v-14q0 -18 -2 -32z
M223 621h682q-1 154 -63 250q-89 139 -268 139q-187 0 -283 -157q-59 -97 -68 -232z" />
    <glyph glyph-name="f" unicode="f" horiz-adv-x="592" 
d="M205 0v973h-168v108h168v187q0 297 271 297q52 0 91 -6q9 -2 43 -6l6 -1l-12 -112q-66 8 -105 8q-86 0 -124 -48q-39 -48 -39 -151v-168h256v-108h-256v-973h-131z" />
    <glyph glyph-name="g" unicode="g" horiz-adv-x="1159" 
d="M119 -166l114 45q32 -90 94 -133q79 -55 234 -55q139 0 212 45q52 33 81 81q41 69 41 214v162q-130 -211 -380 -211q-209 0 -324 148q-109 140 -109 394q0 266 112 421q124 173 354 173q224 0 347 -190v153h131v-1034q0 -270 -129 -379q-108 -92 -336 -92
q-361 0 -442 258zM552 1004q-153 0 -239 -112q-92 -120 -92 -352q0 -444 329 -444q159 0 252 115q97 121 97 341q0 223 -102 346q-88 106 -245 106z" />
    <glyph glyph-name="h" unicode="h" horiz-adv-x="1130" 
d="M133 0v1544h131v-647q61 101 129 153q90 68 244 68q172 0 267 -101q93 -98 93 -265v-752h-131v717q0 284 -261 284q-165 0 -261 -151q-80 -128 -80 -309v-541h-131z" />
    <glyph glyph-name="i" unicode="i" horiz-adv-x="418" 
d="M143 0v1081h131v-1081h-131zM143 1335v209h131v-209h-131z" />
    <glyph glyph-name="j" unicode="j" horiz-adv-x="430" 
d="M-117 -403l17 112q59 -14 117 -14q80 0 109 36q30 38 30 117v1233h131v-1269q0 -236 -228 -236h-15q-82 0 -161 21zM156 1337v207h131v-207h-131z" />
    <glyph glyph-name="k" unicode="k" horiz-adv-x="1001" 
d="M133 0v1544h131v-932l502 469h168l-404 -379l465 -702h-161l-400 612l-170 -161v-451h-131z" />
    <glyph glyph-name="l" unicode="l" horiz-adv-x="418" 
d="M143 0v1544h131v-1544h-131z" />
    <glyph glyph-name="m" unicode="m" horiz-adv-x="1751" 
d="M133 0v1081h131v-188q61 106 118 152q91 73 232 73q230 0 308 -225q57 104 122 153q94 72 237 72t232 -80q105 -95 105 -276v-762h-131v721q0 280 -233 280q-165 0 -254 -177q-60 -118 -60 -283v-541h-131v717q0 284 -232 284q-148 0 -237 -148q-76 -126 -76 -312v-541
h-131z" />
    <glyph glyph-name="n" unicode="n" horiz-adv-x="1130" 
d="M133 0v1081h131v-188q61 105 125 153q97 72 247 72q170 0 268 -102q93 -98 93 -264v-752h-131v717q0 284 -261 284q-165 0 -261 -151q-80 -128 -80 -309v-541h-131z" />
    <glyph glyph-name="o" unicode="o" horiz-adv-x="1139" 
d="M573 1118q234 0 364 -164q120 -154 120 -413q0 -260 -120 -413q-130 -165 -366 -165q-217 0 -344 135q-145 154 -145 443q0 261 119 413q130 164 372 164zM566 1006q-192 0 -282 -161q-63 -113 -63 -309q0 -203 79 -324q91 -136 268 -136q168 0 262 125q88 116 88 345
q0 203 -81 323q-92 137 -271 137z" />
    <glyph glyph-name="p" unicode="p" horiz-adv-x="1159" 
d="M133 -393v1474h131v-174q129 211 376 211q211 0 328 -158q109 -147 109 -403q0 -265 -112 -420q-124 -174 -355 -174q-219 0 -346 191v-547h-131zM606 1004q-173 0 -267 -149q-79 -127 -79 -325q0 -192 77 -312q90 -140 257 -140q145 0 232 90q112 116 112 370
q0 466 -332 466z" />
    <glyph glyph-name="q" unicode="q" horiz-adv-x="1159" 
d="M895 -393v565q-129 -209 -378 -209q-209 0 -326 158q-109 147 -109 403q0 266 112 421q125 173 354 173q218 0 347 -190v153h131v-1474h-131zM552 1004q-153 0 -239 -112q-92 -120 -92 -352q0 -462 328 -462q160 0 253 122q97 128 97 350q0 226 -105 351
q-87 103 -242 103z" />
    <glyph glyph-name="r" unicode="r" horiz-adv-x="651" 
d="M133 0v1081h131v-190q55 106 126 158q61 45 155 45q57 0 106 -13l-14 -114q-35 12 -90 12q-130 0 -200 -94q-83 -111 -83 -330v-555h-131z" />
    <glyph glyph-name="s" unicode="s" horiz-adv-x="989" 
d="M47 297l121 31q34 -119 82 -171q78 -83 237 -83q132 0 208 51q75 52 75 149q0 84 -48 131q-45 44 -142 64l-191 39q-301 62 -301 303q0 142 113 228q104 79 280 79q330 0 414 -293l-117 -32q-39 119 -119 172q-68 45 -188 45q-254 0 -254 -193q0 -79 48 -124
q49 -45 163 -68l207 -41q270 -54 270 -308q0 -153 -122 -238q-107 -75 -291 -75q-208 0 -321 103q-81 73 -124 231z" />
    <glyph glyph-name="t" unicode="t" horiz-adv-x="639" 
d="M205 973h-148v108h148v308h131v-308h235v-108h-235v-721q0 -87 33 -122q28 -30 102 -30q59 0 111 9l10 -117q-109 -12 -170 -12q-217 0 -217 237v756z" />
    <glyph glyph-name="u" unicode="u" horiz-adv-x="1130" 
d="M133 1081h131v-716q0 -129 58 -202q67 -85 200 -85q167 0 263 153q81 128 81 308v542h131v-1081h-131v190q-60 -106 -126 -154q-98 -73 -250 -73q-130 0 -220 64q-137 97 -137 303v751z" />
    <glyph glyph-name="v" unicode="v" horiz-adv-x="954" 
d="M377 0l-377 1081h137l342 -987l346 987h129l-381 -1081h-196z" />
    <glyph glyph-name="w" unicode="w" horiz-adv-x="1497" 
d="M307 0l-307 1081h139l269 -997l262 997h166l262 -997l270 997h129l-307 -1081h-193l-247 954l-248 -954h-195z" />
    <glyph glyph-name="x" unicode="x" horiz-adv-x="866" 
d="M0 0l360 557l-337 524h147l264 -415l266 415h138l-336 -516l364 -565h-147l-291 459l-295 -459h-133z" />
    <glyph glyph-name="y" unicode="y" horiz-adv-x="989" 
d="M63 -399l25 110q68 -18 119 -18q77 0 121 43q32 32 59 100l66 170l-453 1075h141l377 -901l340 901h131l-489 -1296q-79 -209 -264 -209h-12q-80 0 -161 25z" />
    <glyph glyph-name="z" unicode="z" horiz-adv-x="922" 
d="M61 0v106l631 867h-604v108h750v-106l-633 -866h655v-109h-799z" />
    <glyph glyph-name="braceleft" unicode="{" horiz-adv-x="895" 
d="M147 522v107q89 15 127 37q78 45 78 157v492q0 142 80 196q51 33 156 33h160v-106h-125q-83 0 -113 -52q-21 -37 -21 -131v-462q0 -190 -165 -218q165 -25 165 -217v-462q0 -108 31 -145q31 -38 103 -38h125v-106h-160q-115 0 -170 44q-66 53 -66 185v492q0 126 -101 167
q-38 16 -104 27z" />
    <glyph glyph-name="bar" unicode="|" horiz-adv-x="481" 
d="M215 0v1544h117v-1544h-117z" />
    <glyph glyph-name="braceright" unicode="}" horiz-adv-x="895" 
d="M150 -393v106h124q89 0 116 59q18 38 18 124v462q0 191 165 217q-165 27 -165 218v462q0 108 -31 145q-32 38 -103 38h-124v106h159q131 0 185 -58q51 -55 51 -171v-492q0 -116 84 -160q37 -20 121 -34v-107q-102 -18 -142 -46q-63 -44 -63 -148v-492q0 -143 -80 -195
q-51 -34 -156 -34h-159z" />
    <glyph glyph-name="asciitilde" unicode="~" horiz-adv-x="1417" 
d="M229 457l-106 24q33 197 103 294q75 104 208 104q137 0 268 -138l95 -100q75 -79 119 -98q24 -11 75 -11q102 0 151 121q27 67 46 189l106 -25q-61 -397 -305 -397q-155 0 -301 160l-61 67q-65 71 -97 92q-43 29 -100 29q-105 0 -156 -131q-24 -63 -45 -180z" />
    <glyph glyph-name="currency" unicode="&#xa4;" horiz-adv-x="1212" 
d="M168 244l-92 92l112 113q-112 140 -112 325q0 181 112 326l-112 112l92 93l113 -113q145 113 325 113t326 -113l112 113l93 -93l-113 -112q113 -145 113 -326q0 -180 -113 -325l113 -113l-93 -92l-112 112q-141 -112 -326 -112q-180 0 -325 112zM599 1186
q-160 0 -278 -121q-118 -123 -118 -291t118 -291q118 -121 284 -121q150 0 263 100q142 125 142 312q0 193 -149 319q-111 93 -262 93z" />
    <glyph glyph-name="section" unicode="&#xa7;" horiz-adv-x="1090" 
d="M92 76l121 43q46 -99 105 -149q88 -74 234 -74q298 0 298 200q0 152 -223 211l-219 58q-182 48 -255 129q-59 66 -59 177q0 207 244 306q-127 41 -185 104q-61 66 -61 175q0 138 101 220q111 89 310 89q230 0 347 -115q64 -63 100 -176l-121 -39q-42 107 -98 155
q-79 66 -227 66q-133 0 -206 -47q-79 -51 -79 -150q0 -85 69 -132q44 -28 158 -58l236 -61q191 -49 259 -151q38 -56 38 -155q0 -203 -244 -301q132 -48 190 -116q60 -69 60 -188q0 -156 -133 -242q-110 -72 -300 -72q-351 0 -460 293zM569 449q104 11 188 72q93 67 93 172
q0 91 -70 143q-49 36 -147 61l-121 31q-101 -10 -177 -59q-112 -72 -112 -183q0 -157 217 -207z" />
    <glyph glyph-name="dieresis" unicode="&#xa8;" horiz-adv-x="811" 
d="M170 1303v209h137v-209h-137zM502 1303v209h137v-209h-137z" />
    <glyph glyph-name="degree" unicode="&#xb0;" horiz-adv-x="877" 
d="M441 1565q164 0 267 -127q76 -93 76 -220q0 -141 -101 -242q-99 -99 -245 -99q-129 0 -226 82q-120 102 -120 262q0 144 101 243q102 101 248 101zM435 1468q-95 0 -164 -71q-70 -72 -70 -176q0 -105 70 -177q69 -71 166 -71q93 0 167 69q72 67 72 182q0 117 -88 190
q-65 54 -153 54z" />
    <glyph glyph-name="plusminus" unicode="&#xb1;" horiz-adv-x="1194" 
d="M51 0v115h486v497h-486v111h486v498h118v-498h486v-111h-486v-497h486v-115h-1090z" />
    <glyph glyph-name="periodcentered" unicode="&#xb7;" 
d="M914 824h221v-211h-221v211z" />
    <glyph glyph-name="periodcentered" unicode="&#x30fb;" 
d="M914 824h221v-211h-221v211z" />
    <glyph glyph-name="multiply" unicode="&#xd7;" horiz-adv-x="1194" 
d="M248 264l-84 78l356 389l-356 389l84 78l350 -383l350 383l84 -78l-356 -389l356 -389l-84 -78l-350 383z" />
    <glyph glyph-name="divide" unicode="&#xf7;" horiz-adv-x="1194" 
d="M514 240v217h166v-217h-166zM51 674v114h1090v-114h-1090zM514 1006v217h166v-217h-166z" />
    <glyph glyph-name="caron" unicode="&#x2c7;" horiz-adv-x="811" 
d="M334 1272l-238 272h133l177 -180l176 180h133l-238 -272h-143z" />
    <glyph glyph-name="uni02C9" unicode="&#x2c9;" horiz-adv-x="811" 
d="M131 1344v112h548v-112h-548z" />
    <glyph glyph-name="emdash" unicode="&#x2014;" 
d="M0 518v129h2048v-129h-2048z" />
    <glyph glyph-name="uni2016" unicode="&#x2016;" 
d="M924 7h-84v1436h84v-1436zM1197 10h-84v1437h84v-1437z" />
    <glyph glyph-name="quoteleft" unicode="&#x2018;" horiz-adv-x="465" 
d="M143 971v227q0 133 54 224q38 65 114 141l62 -64q-66 -68 -94 -117q-35 -60 -35 -137v-24h78v-250h-179z" />
    <glyph glyph-name="quoteright" unicode="&#x2019;" horiz-adv-x="465" 
d="M154 952l-62 64q129 132 129 254v24h-78v250h179v-227q0 -129 -52 -218q-42 -74 -116 -147z" />
    <glyph glyph-name="quotedblleft" unicode="&#x201c;" horiz-adv-x="829" 
d="M143 971v227q0 133 54 224q38 65 114 141l62 -64q-66 -68 -94 -117q-35 -60 -35 -137v-24h78v-250h-179zM508 971v227q0 131 51 220q41 70 117 145l61 -64q-70 -75 -94 -117q-35 -62 -35 -137v-24h78v-250h-178z" />
    <glyph glyph-name="quotedblright" unicode="&#x201d;" horiz-adv-x="829" 
d="M154 952l-62 64q129 132 129 254v24h-78v250h179v-227q0 -129 -52 -218q-42 -74 -116 -147zM518 952l-61 64q129 134 129 254v24h-78v250h178v-227q0 -133 -53 -222q-40 -68 -115 -143z" />
    <glyph glyph-name="ellipsis" unicode="&#x2026;" horiz-adv-x="1926" 
d="M399 741q43 0 75 -23q53 -37 53 -105q0 -55 -36 -90q-37 -36 -92 -36q-54 0 -90 36t-36 91t38 93q35 34 88 34zM1525 741q43 0 75 -23q53 -37 53 -105q0 -55 -36 -90q-37 -36 -92 -36q-53 0 -90 36q-36 36 -36 91t38 93q36 34 88 34zM963 741q43 0 75 -23q53 -37 53 -105
q0 -55 -36 -90q-37 -36 -92 -36q-54 0 -90 36t-36 91t38 93q35 34 88 34z" />
    <glyph glyph-name="ellipsis" unicode="&#x22ef;" horiz-adv-x="1926" 
d="M399 741q43 0 75 -23q53 -37 53 -105q0 -55 -36 -90q-37 -36 -92 -36q-54 0 -90 36t-36 91t38 93q35 34 88 34zM1525 741q43 0 75 -23q53 -37 53 -105q0 -55 -36 -90q-37 -36 -92 -36q-53 0 -90 36q-36 36 -36 91t38 93q36 34 88 34zM963 741q43 0 75 -23q53 -37 53 -105
q0 -55 -36 -90q-37 -36 -92 -36q-54 0 -90 36t-36 91t38 93q35 34 88 34z" />
    <glyph glyph-name="perthousand" unicode="&#x2030;" horiz-adv-x="2679" 
d="M514 -37l703 1534h122l-702 -1534h-123zM1437 883q339 0 339 -459q0 -461 -344 -461q-340 0 -340 459q0 228 81 344q83 117 264 117zM1427 782q-217 0 -217 -361q0 -358 222 -358q225 0 225 368q0 351 -230 351zM2260 883q339 0 339 -459q0 -461 -344 -461
q-340 0 -340 459q0 228 81 344q83 117 264 117zM2251 782q-217 0 -217 -358q0 -361 221 -361q225 0 225 367q0 352 -229 352zM427 1497q339 0 339 -459q0 -460 -344 -460q-340 0 -340 457q0 228 82 344q83 118 263 118zM420 1397q-219 0 -219 -359q0 -360 221 -360
q225 0 225 364q0 355 -227 355z" />
    <glyph glyph-name="minute" unicode="&#x2032;" horiz-adv-x="630" 
d="M480 1378l-145 -523h-117l110 523h152z" />
    <glyph glyph-name="second" unicode="&#x2033;" horiz-adv-x="903" 
d="M480 1378l-145 -523h-117l110 523h152zM753 1378l-145 -523h-117l110 523h152z" />
    <glyph glyph-name="uni203B" unicode="&#x203b;" 
d="M1081 778l778 -778l-57 -56l-778 778l-777 -778l-57 56l778 778l-778 778l57 57l777 -778l778 778l57 -57zM1631 911q58 0 97 -44q35 -39 35 -90q0 -59 -45 -99q-38 -35 -89 -35q-60 0 -100 45q-34 37 -34 90q0 59 44 99q37 34 92 34zM423 911q57 0 97 -44q34 -38 34 -90
q0 -60 -44 -99q-39 -35 -90 -35q-59 0 -99 45q-35 38 -35 90q0 58 45 99q37 34 92 34zM1027 1515q58 0 97 -44q34 -37 34 -89q0 -61 -44 -100q-38 -35 -89 -35q-60 0 -100 45q-35 38 -35 91q0 57 45 98q37 34 92 34zM1027 309q57 0 97 -44q34 -38 34 -90q0 -60 -44 -100
q-38 -34 -89 -34q-60 0 -100 44q-35 39 -35 91q0 57 45 99q37 34 92 34z" />
    <glyph glyph-name="uni2103" unicode="&#x2103;" 
d="M1828 1085h-154q-34 126 -86 202q-115 169 -380 169q-239 0 -378 -183q-71 -94 -105 -257q-24 -112 -24 -232q0 -218 75 -400q57 -142 192 -221q110 -65 248 -65q364 0 473 424h153q-37 -206 -144 -338q-180 -223 -484 -223q-332 0 -515 253q-89 122 -131 311
q-27 126 -27 258q0 241 90 447q77 178 240 275q151 90 343 90q224 0 388 -111q175 -120 226 -399zM392 1595q89 0 151 -69q54 -60 54 -139q0 -93 -69 -156q-59 -53 -140 -53q-94 0 -155 69q-54 59 -54 141q0 90 69 154q59 53 144 53zM386 1511q-54 0 -91 -41
q-32 -36 -32 -84q0 -57 41 -94q35 -32 84 -32q56 0 93 41q32 36 32 86q0 54 -42 92q-34 32 -85 32z" />
    <glyph glyph-name="afii61352" unicode="&#x2116;" horiz-adv-x="2491" 
d="M1978 1283q171 0 278 -132q80 -97 80 -230q0 -147 -105 -252q-104 -104 -256 -104q-135 0 -235 85q-126 107 -126 274q0 150 105 254q107 105 259 105zM1972 1156q-89 0 -153 -66q-66 -68 -66 -166q0 -99 66 -167q64 -66 155 -66q87 0 156 64q68 64 68 172q0 110 -83 179
q-60 50 -143 50zM154 0v1544h190l832 -1360v1360h143v-1544h-189l-833 1362v-1362h-143zM1614 220v112h722v-112h-722z" />
    <glyph glyph-name="uni2160" unicode="&#x2160;" horiz-adv-x="569" 
d="M377 1452v-1452h-152v1452h152z" />
    <glyph glyph-name="uni2161" unicode="&#x2161;" horiz-adv-x="979" 
d="M786 1452v-1452h-152v1452h152zM377 1452v-1452h-152v1452h152z" />
    <glyph glyph-name="uni2162" unicode="&#x2162;" horiz-adv-x="1389" 
d="M1196 1452v-1452h-152v1452h152zM787 1452v-1452h-152v1452h152zM377 1452v-1452h-152v1452h152z" />
    <glyph glyph-name="uni2163" unicode="&#x2163;" horiz-adv-x="1799" 
d="M1222 0h-177l-522 1452h161l454 -1308l428 1308h159zM377 1452v-1452h-152v1452h152z" />
    <glyph glyph-name="uni2164" unicode="&#x2164;" horiz-adv-x="1366" 
d="M790 0h-177l-522 1452h161l454 -1308l428 1308h159z" />
    <glyph glyph-name="uni2165" unicode="&#x2165;" horiz-adv-x="1799" 
d="M806 0h-177l-522 1452h161l454 -1308l428 1308h159zM1454 1452h152v-1452h-152v1452z" />
    <glyph glyph-name="uni2166" unicode="&#x2166;" horiz-adv-x="2208" 
d="M806 0h-177l-522 1452h161l454 -1308l428 1308h159zM1454 1452h152v-1452h-152v1452zM1864 1452h152v-1452h-152v1452z" />
    <glyph glyph-name="uni2167" unicode="&#x2167;" horiz-adv-x="2618" 
d="M806 0h-177l-522 1452h161l454 -1308l428 1308h159zM1454 1452h152v-1452h-152v1452zM1864 1452h152v-1452h-152v1452zM2273 1452h152v-1452h-152v1452z" />
    <glyph glyph-name="uni2168" unicode="&#x2168;" horiz-adv-x="1836" 
d="M1245 745l515 -745h-186l-417 640l-422 -640h-181l515 745l-482 707h181l394 -602l397 602h177zM377 1452v-1452h-152v1452h152z" />
    <glyph glyph-name="uni2169" unicode="&#x2169;" horiz-adv-x="1366" 
d="M775 745l515 -745h-186l-417 640l-422 -640h-181l515 745l-482 707h181l394 -602l396 602h178z" />
    <glyph glyph-name="uni216A" unicode="&#x216a;" horiz-adv-x="1836" 
d="M620 745l-491 707h178l396 -602l394 602h181l-482 -707l515 -745h-181l-422 640l-417 -640h-186zM1488 1452h152v-1452h-152v1452z" />
    <glyph glyph-name="uni216B" unicode="&#x216b;" horiz-adv-x="2151" 
d="M545 745l-491 707h178l396 -602l394 602h181l-482 -707l515 -745h-181l-422 640l-417 -640h-186zM1413 1452h152v-1452h-152v1452zM1820 1454h152v-1452h-152v1452z" />
    <glyph glyph-name="arrowleft" unicode="&#x2190;" 
d="M509 573l214 -214l-87 -87l-363 362l363 363l87 -87l-214 -214h1266v-123h-1266z" />
    <glyph glyph-name="arrowup" unicode="&#x2191;" 
d="M1086 1266v-1266h-123v1266l-214 -214l-87 87l362 363l363 -363l-87 -87z" />
    <glyph glyph-name="arrowright" unicode="&#x2192;" 
d="M273 575v123h1266l-214 214l87 87l363 -362l-363 -363l-87 87l214 214h-1266z" />
    <glyph glyph-name="arrowdown" unicode="&#x2193;" 
d="M1086 236l214 214l87 -87l-363 -363l-362 363l87 87l214 -214v1266h123v-1266z" />
    <glyph glyph-name="element" unicode="&#x2208;" horiz-adv-x="1741" 
d="M1468 484h-1034q10 -177 103 -263q89 -83 280 -83h651v-138h-626q-196 0 -291 40q-117 50 -196 173q-82 127 -82 349q0 328 220 473q83 55 208 67q44 4 141 4h626v-138h-651q-192 -1 -280 -83q-93 -86 -103 -264h1034v-137z" />
    <glyph glyph-name="product" unicode="&#x220f;" horiz-adv-x="1665" 
d="M39 1504v52h1587v-52q-88 -3 -129 -23q-39 -19 -54 -58q-13 -36 -13 -124v-1221q0 -132 46 -169q41 -31 150 -35v-52h-626v52q87 3 128 23q40 18 55 58q14 37 14 123v1367h-728v-1367q0 -132 46 -169q41 -31 150 -35v-52h-626v52q88 3 129 23q40 19 54 58q14 36 14 123
v1221q0 133 -47 170q-41 31 -150 35z" />
    <glyph glyph-name="summation" unicode="&#x2211;" horiz-adv-x="1457" 
d="M1261 1542l14 -326h-44q-35 132 -82 174q-64 58 -221 58h-535l552 -726l-594 -687h699q125 1 168 17q74 27 116 124q6 15 26 63q4 9 11 27h51q-55 -206 -88 -465q-67 19 -164 19h-981h-35h-18q-30 0 -101 -7l706 820l-706 924q116 -15 231 -15h995z" />
    <glyph glyph-name="radical" unicode="&#x221a;" horiz-adv-x="1563" 
d="M637 -6l-379 788h-230v137h379l310 -629l706 1517l105 -51l-827 -1762h-64z" />
    <glyph glyph-name="proportional" unicode="&#x221d;" horiz-adv-x="1460" 
d="M731 620q172 228 377 228q9 0 27 -1v-137q-11 1 -14 1q-136 0 -280 -167q108 -117 182 -149q49 -22 112 -22v-138q-215 -1 -404 231q-41 -50 -62 -73q-143 -157 -326 -157q-134 0 -218 91q-74 81 -74 212q0 150 97 234q86 75 203 75q198 0 380 -228zM624 543
q-41 38 -66 62q-116 106 -212 106q-77 0 -122 -48q-40 -42 -40 -121q0 -89 51 -133q43 -36 99 -36q126 0 267 147z" />
    <glyph glyph-name="infinity" unicode="&#x221e;" horiz-adv-x="1456" 
d="M728 609q105 94 147 125q124 94 246 94q119 0 206 -89q80 -82 80 -198q0 -132 -101 -218q-81 -69 -185 -69q-122 0 -246 94q-41 31 -147 125q-106 -93 -148 -125q-123 -94 -245 -94q-120 0 -206 88q-80 83 -80 199q0 132 101 217q82 70 185 70q122 0 245 -94
q43 -32 148 -125zM801 541l18 -18q30 -31 73 -63q137 -102 228 -102q78 0 131 58q50 55 50 124q0 81 -64 138q-50 44 -118 44q-121 0 -277 -142q-15 -13 -29 -27l-7 -7l-2 -2l-1 -1l-1 -1zM655 541l-12 12q-173 169 -306 169q-79 0 -131 -57q-51 -55 -51 -124q0 -80 64 -137
q49 -44 117 -44q82 0 192 76q71 49 115 93l7 7q2 2 2 3q1 0 2 1z" />
    <glyph glyph-name="angle" unicode="&#x2220;" horiz-adv-x="1567" 
d="M1104 934l65 -75l-787 -764h1049v-95h-1294z" />
    <glyph glyph-name="uni2225" unicode="&#x2225;" horiz-adv-x="997" 
d="M724 0h-137v1369h137v-1369zM410 1369v-1369h-137v1369h137z" />
    <glyph glyph-name="logicaland" unicode="&#x2227;" horiz-adv-x="1423" 
d="M785 1148l502 -1148h-179l-396 916l-396 -916h-179l502 1148h146z" />
    <glyph glyph-name="logicalor" unicode="&#x2228;" horiz-adv-x="1423" 
d="M785 0h-146l-502 1148h179l396 -915l396 915h179z" />
    <glyph glyph-name="intersection" unicode="&#x2229;" horiz-adv-x="1228" 
d="M1105 0h-143v557q-2 195 -9 253q-18 163 -126 243q-96 72 -213 72q-118 0 -214 -71q-101 -76 -123 -233q-12 -83 -12 -264v-557h-143v551q0 227 12 310q28 195 185 304q125 86 295 86q169 0 294 -86q157 -109 185 -304q12 -83 12 -310v-551z" />
    <glyph glyph-name="union" unicode="&#x222a;" horiz-adv-x="1229" 
d="M1106 1251v-551q0 -226 -12 -310q-28 -195 -186 -304q-125 -86 -294 -86t-294 86q-158 109 -186 304q-12 83 -12 310v551h135v-557q2 -193 12 -261q22 -156 127 -231q98 -71 218 -71t218 71q113 81 130 241q9 86 9 251v557h135z" />
    <glyph glyph-name="integral" unicode="&#x222b;" horiz-adv-x="1264" 
d="M975 1814q91 0 163 -43q57 -35 57 -91q0 -38 -31 -60q-24 -16 -54 -16q-55 0 -97 71q-33 55 -58 73q-16 12 -49 12q-88 0 -112 -123q-13 -70 -58 -682q-63 -858 -99 -1003q-35 -141 -105 -208q-89 -87 -236 -87q-96 0 -170 43q-58 34 -58 91q0 41 31 65q24 19 54 19
q51 0 93 -78q30 -54 60 -74q18 -12 51 -12q89 0 112 123q9 48 38 567q39 691 105 1049q41 221 141 298q87 66 222 66z" />
    <glyph glyph-name="uni222E" unicode="&#x222e;" horiz-adv-x="1264" 
d="M752 1158q40 -14 76 -35q99 -57 155 -155q57 -98 57 -212q0 -163 -109 -284q-97 -108 -245 -134l-2 -32q-25 -289 -59 -399q-78 -250 -329 -250q-96 0 -170 43q-58 34 -58 91q0 41 31 65q24 19 54 19q51 0 94 -78q29 -54 59 -74q18 -12 51 -12q89 0 112 123q10 48 28 379
l7 134q-53 14 -101 41q-99 58 -155 156q-57 98 -57 212q0 163 109 284q108 119 269 138q35 281 82 414q79 222 316 222q97 0 171 -43q57 -34 57 -91q0 -38 -31 -60q-24 -16 -54 -16q-55 0 -97 71q-32 55 -57 73q-17 12 -50 12q-61 0 -87 -47q-25 -45 -32 -129l-25 -294
l-5 -66zM744 1055l-4 -50l-4 -50l-26 -339l-7 -88l-8 -88q46 12 83 34q76 44 119 119q44 76 44 163q0 125 -84 217q-48 54 -113 82zM511 448l8 119q4 64 41 509q-58 -10 -107 -38q-76 -44 -119 -119q-44 -76 -44 -163q0 -125 84 -218q57 -63 137 -90z" />
    <glyph glyph-name="therefore" unicode="&#x2234;" horiz-adv-x="1907" 
d="M956 1226q51 0 86 -33q38 -36 38 -93q0 -55 -36 -91q-37 -37 -90 -37q-54 0 -92 37q-36 35 -36 90q0 77 60 110q29 17 70 17zM403 254q51 0 86 -34q38 -38 38 -93t-36 -91t-90 -36q-55 0 -92 36q-36 35 -36 90q0 75 60 111q30 17 70 17zM1509 254q50 0 86 -34
q38 -38 38 -93t-36 -91q-37 -36 -90 -36q-54 0 -92 36q-36 35 -36 90q0 75 60 111q29 17 70 17z" />
    <glyph glyph-name="uni2235" unicode="&#x2235;" horiz-adv-x="1907" 
d="M956 254q51 0 88 -37q36 -36 36 -90q0 -57 -38 -94q-34 -33 -87 -33q-45 0 -77 21q-52 36 -52 107q0 55 36 89q39 37 94 37zM403 1224q51 0 88 -36q36 -36 36 -91t-38 -93q-35 -34 -88 -34q-43 0 -75 23q-53 37 -53 104q0 56 36 91q38 36 94 36zM1508 1224q52 0 89 -36
q36 -36 36 -91t-38 -93q-35 -34 -87 -34q-44 0 -76 23q-53 37 -53 105q0 55 36 90q39 36 93 36z" />
    <glyph glyph-name="uni2236" unicode="&#x2236;" horiz-adv-x="1074" 
d="M540 1226q51 0 86 -33q38 -36 38 -93q0 -55 -36 -91q-37 -37 -90 -37q-54 0 -92 37q-36 35 -36 90q0 77 60 110q30 17 70 17zM540 254q51 0 86 -34q38 -38 38 -93t-36 -91t-90 -36q-55 0 -92 36q-36 35 -36 90q0 75 60 111q30 17 70 17z" />
    <glyph glyph-name="uni2237" unicode="&#x2237;" horiz-adv-x="1790" 
d="M403 254q51 0 86 -34q38 -38 38 -93t-36 -91t-90 -36q-55 0 -92 36q-36 35 -36 90q0 75 60 111q30 17 70 17zM1392 254q51 0 86 -34q38 -38 38 -93t-36 -91t-90 -36q-55 0 -92 36q-36 35 -36 90q0 75 61 111q29 17 69 17zM402 1226q52 0 87 -34q38 -38 38 -93
q0 -54 -36 -91q-36 -36 -90 -36q-55 0 -92 36q-36 36 -36 90q0 75 60 111q29 17 69 17zM1391 1226q52 0 87 -34q38 -38 38 -93q0 -54 -36 -91q-36 -36 -90 -36t-92 36q-36 35 -36 90q0 75 61 111q28 17 68 17z" />
    <glyph glyph-name="uni223D" unicode="&#x223d;" horiz-adv-x="1322" 
d="M218 674q58 -66 87 -87q57 -44 129 -44q43 0 203 50q185 57 255 57q175 0 294 -172l-89 -70q-64 75 -98 99q-41 30 -104 30q-41 0 -101 -17q-15 -4 -129 -38q-120 -37 -144 -42q-43 -10 -89 -10q-200 0 -295 176z" />
    <glyph glyph-name="approxequal" unicode="&#x2248;" horiz-adv-x="1322" 
d="M1104 616l82 -68q-96 -176 -295 -176q-52 0 -104 13q-15 3 -130 39q-124 37 -143 42q-47 13 -87 13q-63 0 -104 -30q-34 -24 -97 -99l-89 70q118 172 293 172q71 0 255 -57q161 -50 204 -50q72 0 129 44q29 21 86 87zM1104 896l82 -68q-96 -176 -295 -176q-52 0 -104 13
q-15 3 -130 39q-124 37 -143 42q-47 13 -86 13q-64 0 -105 -30q-33 -23 -97 -99l-89 69q118 173 293 173q71 0 255 -57q160 -50 204 -50q73 0 129 44q29 22 86 87z" />
    <glyph glyph-name="uni224C" unicode="&#x224c;" horiz-adv-x="1124" 
d="M806 774q75 1 120 32q46 32 46 86q0 56 -42 94q-33 30 -76 30q-73 0 -159 -64q-38 -29 -111 -99q-178 -172 -321 -172q-97 0 -171 67q-69 63 -69 158q0 142 144 194q63 23 151 24v-97q-76 -1 -121 -32q-46 -32 -46 -86q0 -55 40 -92q31 -28 72 -28q92 0 205 98
q28 25 96 90q154 147 289 147q99 0 176 -69q71 -63 71 -159q0 -143 -144 -195q-62 -23 -151 -24zM1100 611v-113h-1077v113h1077zM1100 331v-113h-1077v113h1077z" />
    <glyph glyph-name="notequal" unicode="&#x2260;" horiz-adv-x="1194" 
d="M205 147l162 287h-316v115h379l207 364h-586v115h649l162 287h125l-162 -287h316v-115h-379l-207 -364h586v-115h-649l-162 -287h-125z" />
    <glyph glyph-name="equivalence" unicode="&#x2261;" horiz-adv-x="1235" 
d="M137 778v113h962v-113h-962zM137 611h962v-113h-962v113zM137 331h962v-113h-962v113z" />
    <glyph glyph-name="lessequal" unicode="&#x2264;" horiz-adv-x="1194" 
d="M51 0v115h1090v-115h-1090zM1141 201l-1090 473v114l1090 474v-123l-944 -408l944 -407v-123z" />
    <glyph glyph-name="greaterequal" unicode="&#x2265;" horiz-adv-x="1194" 
d="M51 0v115h1090v-115h-1090zM51 201v123l944 407l-944 408v123l1090 -474v-114z" />
    <glyph glyph-name="uni226E" unicode="&#x226e;" horiz-adv-x="1129" 
d="M410 387l-273 150v118l502 274l107 252l98 -42l-54 -128l203 111v-144l-282 -153l-157 -373l439 -239v-144l-488 267l-130 -307l-99 41zM459 504l101 239l-270 -147z" />
    <glyph glyph-name="uni226F" unicode="&#x226f;" horiz-adv-x="1129" 
d="M490 262l-115 -273l-99 41l63 150l-202 -111v144l281 153l158 373l-439 239v144l488 -266l121 285l98 -42l-125 -295l274 -149v-118zM569 448l271 148l-170 92z" />
    <glyph glyph-name="uni2299" unicode="&#x2299;" horiz-adv-x="1951" 
d="M976 829q53 0 90 -41q32 -35 32 -82q0 -56 -41 -92q-35 -32 -83 -32q-55 0 -91 41q-32 35 -32 84q0 53 41 90q35 32 84 32zM987 1412q179 0 339 -95q164 -97 257 -258q94 -163 94 -353q0 -189 -94 -353t-257 -258q-163 -95 -351 -95t-351 95q-164 94 -257 258
q-94 165 -94 359q0 304 233 518q197 182 481 182zM965 1279q-244 0 -416 -190q-147 -163 -147 -383q0 -255 189 -426q164 -147 383 -147q255 0 426 189q147 164 147 389q0 247 -190 420q-162 148 -392 148z" />
    <glyph glyph-name="perpendicular" unicode="&#x22a5;" horiz-adv-x="1611" 
d="M738 1338h137v-1201h600v-137h-1338v137h601v1201z" />
    <glyph glyph-name="uni2312" unicode="&#x2312;" horiz-adv-x="1955" 
d="M1554 273q1 19 1 28q0 116 -63 241q-99 196 -304 275q-98 37 -204 37q-171 0 -314 -93q-215 -141 -256 -393q-7 -45 -7 -95h-134q0 209 115 386q125 192 339 275q122 47 254 47q207 0 381 -113q192 -124 273 -337q47 -122 46 -258h-127z" />
    <glyph glyph-name="uni2460" unicode="&#x2460;" 
d="M1098 1195v-1030h-101v771h-239v67q129 1 189 45q62 45 74 147h77zM1036 1714q256 0 485 -135q234 -138 367 -367q134 -231 134 -501t-134 -503q-134 -232 -367 -367q-234 -135 -502 -135q-269 0 -502 135q-234 135 -368 367q-134 235 -134 510q0 433 333 737
q283 259 688 259zM1003 1603q-228 0 -432 -120q-208 -123 -326 -327q-120 -206 -120 -446t120 -448q119 -207 326 -326q207 -120 447 -120q239 0 447 120t327 326q119 209 119 455q0 386 -296 656q-252 230 -612 230z" />
    <glyph glyph-name="uni2461" unicode="&#x2461;" 
d="M1304 255v-88h-654v26q0 138 68 233q46 63 116 111q60 42 145 91q125 73 168 125q54 65 54 156q0 96 -55 150q-54 53 -151 53q-217 0 -217 -249h-106q1 140 66 227q88 117 261 117q134 0 217 -73q93 -81 93 -219q0 -125 -82 -216q-56 -63 -191 -143q-129 -76 -163 -103
q-102 -80 -120 -198h551zM1036 1714q256 0 485 -135q234 -138 367 -367q134 -231 134 -501t-134 -503q-134 -232 -367 -367q-234 -135 -502 -135q-269 0 -502 135q-234 135 -368 367q-134 235 -134 510q0 433 333 737q283 259 688 259zM1003 1604q-227 0 -432 -121
q-208 -123 -326 -327q-120 -205 -120 -445t120 -447q120 -208 326 -328q207 -119 447 -119t447 119q208 120 327 328t119 453q0 386 -296 656q-253 231 -612 231z" />
    <glyph glyph-name="uni2462" unicode="&#x2462;" 
d="M930 658v78q42 -2 63 -2q100 0 158 52q60 55 60 141q0 84 -61 135q-57 47 -146 47q-131 0 -186 -99q-26 -47 -26 -123v-12h-99q2 125 59 204q85 118 253 118q126 0 208 -66q96 -76 96 -203q0 -144 -145 -223q178 -71 178 -251q0 -140 -97 -230q-94 -89 -242 -89
q-185 0 -279 131q-56 78 -57 197h102q1 -95 47 -155q64 -85 191 -85q109 0 176 71q56 61 56 151q0 112 -80 169q-62 45 -178 45q-23 0 -51 -1zM1036 1714q256 0 485 -135q234 -138 367 -367q134 -231 134 -501t-134 -503q-134 -232 -367 -367q-234 -135 -502 -135
q-269 0 -502 135q-234 135 -368 367q-134 235 -134 510q0 433 333 737q283 259 688 259zM1003 1604q-227 0 -432 -121q-208 -123 -326 -327q-120 -206 -120 -446t120 -447q119 -207 326 -327q208 -120 447 -120q238 0 447 120q208 120 327 327q119 208 119 454
q0 386 -296 656q-253 231 -612 231z" />
    <glyph glyph-name="uni2463" unicode="&#x2463;" 
d="M1091 422h-453v82l463 682h85v-682h144v-82h-144v-255h-95v255zM1091 504v227q1 216 4 310l-16 -24l-45 -68q-76 -116 -95 -146l-200 -299h352zM1036 1714q256 0 485 -135q234 -138 367 -367q134 -231 134 -501t-134 -503q-134 -232 -367 -367q-234 -135 -502 -135
q-269 0 -502 135q-234 135 -368 367q-134 235 -134 510q0 433 333 737q283 259 688 259zM1003 1603q-228 0 -431 -120q-208 -123 -327 -327q-120 -206 -120 -446q0 -239 120 -447q120 -207 327 -327t446 -120t447 120t327 327q119 208 119 454q0 386 -296 656
q-252 230 -612 230z" />
    <glyph glyph-name="uni2464" unicode="&#x2464;" 
d="M867 1089l-49 -321q89 61 204 61q150 0 238 -94q86 -92 86 -242q0 -155 -91 -250q-93 -97 -247 -97q-174 0 -264 117q-55 71 -68 169h101q10 -80 54 -129q63 -69 174 -69q114 0 178 69q65 71 65 186q0 111 -62 181q-64 71 -177 71q-138 0 -211 -104h-88l78 550h499v-98
h-420zM1048 1714q256 0 485 -135q234 -138 367 -367q134 -231 134 -501t-134 -503q-134 -232 -367 -367q-234 -135 -502 -135q-269 0 -502 135q-234 135 -368 367q-134 235 -134 510q0 433 333 737q283 259 688 259zM1015 1603q-228 0 -432 -120q-208 -123 -326 -327
q-120 -206 -120 -446t120 -447q119 -207 326 -327q208 -120 447 -120t447 120t327 327q119 208 119 454q0 386 -296 656q-252 230 -612 230z" />
    <glyph glyph-name="uni2465" unicode="&#x2465;" 
d="M1337 927h-101q-9 71 -44 113q-53 63 -147 63q-149 0 -217 -152q-55 -125 -55 -276q0 -11 1 -33q98 161 272 161q136 0 224 -91q87 -90 87 -239q0 -140 -80 -233q-95 -111 -250 -111q-161 0 -254 120q-99 128 -99 378q0 257 94 411q44 72 121 114q71 39 157 39
q146 0 231 -106q49 -61 60 -158zM1027 715q-107 0 -172 -84q-52 -67 -52 -165q0 -97 52 -165q65 -84 175 -84q96 0 156 65q63 68 63 183q0 116 -63 185q-59 65 -159 65zM1036 1714q256 0 485 -135q234 -138 367 -367q134 -231 134 -501t-134 -503q-134 -232 -367 -367
q-234 -135 -502 -135q-269 0 -502 135q-234 135 -368 367q-134 235 -134 510q0 433 333 737q283 259 688 259zM1003 1604q-227 0 -432 -121q-208 -123 -326 -327q-120 -206 -120 -446t120 -447q119 -207 326 -327q208 -120 447 -120q238 0 447 120q208 120 327 327
q119 208 119 454q0 386 -296 656q-253 231 -612 231z" />
    <glyph glyph-name="uni2466" unicode="&#x2466;" 
d="M1368 1185v-89q-137 -141 -248 -390q-121 -274 -152 -541h-111q90 552 401 922h-540v98h650zM1036 1714q256 0 485 -135q234 -138 367 -367q134 -231 134 -501t-134 -503q-134 -232 -367 -367q-234 -135 -502 -135q-269 0 -502 135q-234 135 -368 367q-134 235 -134 510
q0 433 333 737q283 259 688 259zM1003 1603q-228 0 -432 -120q-208 -123 -326 -327q-120 -206 -120 -446t120 -447q119 -208 326 -327q208 -120 447 -120t447 120t327 327q119 208 119 454q0 386 -296 656q-252 230 -612 230z" />
    <glyph glyph-name="uni2467" unicode="&#x2467;" 
d="M1178 711q185 -79 185 -271q0 -136 -99 -223q-95 -84 -245 -84t-245 84q-98 86 -98 223q0 192 184 271q-142 73 -142 215q0 120 87 195q85 74 214 74t214 -74q87 -75 87 -196q0 -141 -142 -214zM1016 1107q-83 0 -141 -50q-59 -52 -59 -131q0 -78 59 -130q57 -50 144 -50
t144 50q59 52 59 130q0 80 -59 131q-59 50 -147 50zM1016 666q-104 0 -173 -67q-64 -62 -64 -156q0 -93 64 -155q68 -67 176 -67t176 67q65 64 65 155q0 94 -65 156q-70 67 -179 67zM1036 1714q256 0 485 -135q234 -138 367 -367q134 -231 134 -501t-134 -503
q-134 -232 -367 -367q-234 -135 -502 -135q-269 0 -502 135q-234 135 -368 367q-134 235 -134 510q0 433 333 737q283 259 688 259zM1003 1604q-227 0 -432 -121q-208 -123 -326 -327q-120 -206 -120 -446t120 -447q119 -207 326 -327q208 -120 447 -120q238 0 447 120
q208 120 327 327q119 208 119 454q0 386 -296 656q-253 231 -612 231z" />
    <glyph glyph-name="uni2468" unicode="&#x2468;" 
d="M710 401h102q8 -70 43 -112q53 -63 147 -63q149 0 217 152q55 122 55 283v26q-98 -161 -273 -161q-136 0 -223 91q-88 91 -88 239q0 139 81 233q94 110 250 110q161 0 253 -119q99 -128 99 -378q0 -259 -94 -411q-94 -153 -278 -153q-145 0 -231 105q-50 62 -60 158z
M1014 1111q-94 0 -153 -64q-63 -69 -63 -185q0 -115 63 -183q59 -65 156 -65q113 0 175 84q53 70 53 164q0 96 -53 166q-63 83 -178 83zM1036 1714q256 0 485 -135q234 -138 367 -367q134 -231 134 -501t-134 -503q-134 -232 -367 -367q-234 -135 -502 -135q-269 0 -502 135
q-234 135 -368 367q-134 235 -134 510q0 433 333 737q283 259 688 259zM1003 1604q-227 0 -432 -121q-208 -123 -326 -327q-120 -206 -120 -446t120 -447q119 -207 326 -327q208 -120 447 -120q238 0 447 120q208 120 327 327q119 208 119 454q0 386 -296 656
q-253 231 -612 231z" />
    <glyph glyph-name="uni2469" unicode="&#x2469;" 
d="M1279 1188q116 0 201 -78q131 -119 131 -453q0 -530 -338 -530q-337 0 -337 527q0 248 68 376q85 158 275 158zM1270 1100q-231 0 -231 -443q0 -216 53 -328q55 -114 182 -114t181 114q53 112 53 324q0 224 -53 333q-56 114 -185 114zM766 1196v-1030h-101v771h-239v67
q129 1 189 45q62 45 74 147h77zM1036 1714q256 0 485 -135q234 -138 367 -367q134 -231 134 -501t-134 -503q-134 -232 -367 -367q-234 -135 -502 -135q-269 0 -502 135q-234 135 -368 367q-134 235 -134 510q0 433 333 737q283 259 688 259zM1003 1604q-227 0 -432 -121
q-208 -123 -326 -327q-120 -206 -120 -446t120 -447q119 -207 326 -327q208 -120 447 -120q238 0 447 120q208 120 327 327q119 208 119 454q0 386 -296 656q-253 231 -612 231z" />
    <glyph glyph-name="uni2474" unicode="&#x2474;" 
d="M1098 1195v-1030h-101v771h-239v67q129 1 189 45q62 45 74 147h77zM347 1416h61q-211 -344 -211 -723q0 -377 211 -722h-61q-89 117 -156 280q-92 224 -92 442q0 235 107 478q62 142 141 245zM1701 -29h-62q212 335 212 722q0 386 -212 723h62q90 -118 157 -281
q91 -223 91 -442q0 -235 -107 -478q-62 -141 -141 -244z" />
    <glyph glyph-name="uni2475" unicode="&#x2475;" 
d="M1305 255v-88h-654q-1 20 -1 30q0 133 69 229q36 50 90 92t170 110q124 72 169 125q53 63 53 156q0 96 -55 150q-54 53 -151 53q-216 0 -217 -249h-106q1 140 67 227q87 117 260 117q134 0 217 -73q93 -81 93 -219q0 -125 -81 -216q-57 -63 -192 -143q-128 -76 -162 -103
q-102 -80 -121 -198h552zM347 1416h61q-211 -344 -211 -723q0 -377 211 -722h-61q-89 117 -156 280q-92 224 -92 442q0 235 107 478q62 142 141 245zM1701 -29h-62q212 335 212 722q0 386 -212 723h62q90 -118 157 -281q91 -223 91 -442q0 -235 -107 -478
q-62 -141 -141 -244z" />
    <glyph glyph-name="uni2476" unicode="&#x2476;" 
d="M930 658v78q42 -2 63 -2q100 0 158 52q60 54 60 141q0 84 -61 135q-57 47 -145 47q-132 0 -187 -99q-26 -47 -26 -124v-11h-99q2 125 59 204q85 118 254 118q125 0 208 -66q95 -76 95 -203q0 -144 -144 -223q177 -71 177 -251q0 -140 -97 -230q-94 -89 -242 -89
q-184 0 -279 131q-56 78 -57 197h102q2 -95 47 -155q64 -85 191 -85q109 0 176 71q56 60 56 151q0 214 -257 214q-24 0 -52 -1zM347 1416h61q-211 -344 -211 -723q0 -377 211 -722h-61q-89 117 -156 280q-92 224 -92 442q0 235 107 478q62 142 141 245zM1701 -29h-62
q212 335 212 722q0 386 -212 723h62q90 -118 157 -281q91 -223 91 -442q0 -235 -107 -478q-62 -141 -141 -244z" />
    <glyph glyph-name="uni2477" unicode="&#x2477;" 
d="M1091 422h-453v82l463 682h85v-682h144v-82h-144v-255h-95v255zM1091 504v227q1 216 4 310l-16 -24l-45 -68q-76 -116 -95 -146l-200 -299h352zM347 1416h61q-211 -344 -211 -723q0 -377 211 -722h-61q-89 117 -156 280q-92 224 -92 442q0 235 107 478q62 142 141 245z
M1701 -29h-62q212 335 212 722q0 386 -212 723h62q90 -118 157 -281q91 -223 91 -442q0 -235 -107 -478q-62 -141 -141 -244z" />
    <glyph glyph-name="uni2478" unicode="&#x2478;" 
d="M866 1089l-48 -321q89 61 204 61q150 0 238 -94q86 -92 86 -242q0 -154 -91 -250q-94 -97 -248 -97q-174 0 -264 117q-54 71 -67 169h100q11 -80 55 -129q63 -69 174 -69q113 0 177 69q66 71 66 186q0 111 -63 181q-63 71 -176 71q-138 0 -211 -104h-89l79 550h499v-98
h-421zM347 1416h61q-211 -344 -211 -723q0 -377 211 -722h-61q-89 117 -156 280q-92 224 -92 442q0 235 107 478q62 142 141 245zM1701 -29h-62q212 335 212 722q0 386 -212 723h62q90 -118 157 -281q91 -223 91 -442q0 -235 -107 -478q-62 -141 -141 -244z" />
    <glyph glyph-name="uni2479" unicode="&#x2479;" 
d="M1337 927h-101q-8 71 -44 113q-53 63 -146 63q-211 0 -261 -296q-11 -69 -11 -165q98 161 273 161q135 0 223 -91q87 -90 87 -239q0 -140 -80 -233q-95 -111 -250 -111q-161 0 -254 120q-98 127 -98 378q0 259 93 411q95 153 278 153q146 0 231 -106q50 -61 60 -158z
M1027 715q-107 0 -172 -84q-52 -68 -52 -165t52 -165q65 -84 175 -84q96 0 156 65q63 68 63 183q0 117 -63 185q-59 65 -159 65zM347 1416h61q-211 -344 -211 -723q0 -377 211 -722h-61q-89 117 -156 280q-92 224 -92 442q0 235 107 478q62 142 141 245zM1701 -29h-62
q212 335 212 722q0 386 -212 723h62q90 -118 157 -281q91 -223 91 -442q0 -235 -107 -478q-62 -141 -141 -244z" />
    <glyph glyph-name="uni247A" unicode="&#x247a;" 
d="M1368 1185v-89q-137 -141 -247 -390q-122 -274 -153 -541h-111q90 552 402 922h-541v98h650zM347 1416h61q-211 -344 -211 -723q0 -377 211 -722h-61q-89 117 -156 280q-92 224 -92 442q0 235 107 478q62 142 141 245zM1701 -29h-62q212 335 212 722q0 386 -212 723h62
q90 -118 157 -281q91 -223 91 -442q0 -235 -107 -478q-62 -141 -141 -244z" />
    <glyph glyph-name="uni247B" unicode="&#x247b;" 
d="M1178 711q185 -79 185 -271q0 -137 -99 -223q-95 -84 -245 -84t-244 84q-99 86 -99 223q0 192 184 271q-142 73 -142 215q0 120 87 195q86 74 214 74q129 0 215 -74q87 -76 87 -195q0 -142 -143 -215zM1017 1107q-84 0 -142 -50q-59 -52 -59 -131q0 -78 59 -130
q57 -50 144 -50q88 0 144 50q60 52 60 130q0 79 -60 131q-58 50 -146 50zM1016 666q-104 0 -173 -67q-64 -63 -64 -156q0 -92 64 -155q69 -67 176 -67q108 0 176 67q65 63 65 155q0 94 -65 156q-70 67 -179 67zM347 1416h61q-211 -344 -211 -723q0 -377 211 -722h-61
q-89 117 -156 280q-92 224 -92 442q0 235 107 478q62 142 141 245zM1701 -29h-62q212 335 212 722q0 386 -212 723h62q90 -118 157 -281q91 -223 91 -442q0 -235 -107 -478q-62 -141 -141 -244z" />
    <glyph glyph-name="uni247C" unicode="&#x247c;" 
d="M711 401h101q8 -70 44 -112q52 -63 145 -63q185 0 249 237q25 92 24 224q-97 -161 -272 -161q-137 0 -224 91q-87 90 -87 239q0 140 80 233q95 110 250 110q161 0 254 -119q98 -128 98 -379q0 -258 -93 -410q-95 -153 -279 -153q-145 0 -230 105q-50 62 -60 158z
M1014 1111q-93 0 -153 -64q-62 -68 -62 -185q0 -116 62 -183q60 -65 157 -65q110 0 174 84q53 68 53 164q0 97 -53 166q-63 83 -178 83zM347 1416h61q-211 -344 -211 -723q0 -377 211 -722h-61q-89 117 -156 280q-92 224 -92 442q0 235 107 478q62 142 141 245zM1701 -29
h-62q212 335 212 722q0 386 -212 723h62q90 -118 157 -281q91 -223 91 -442q0 -235 -107 -478q-62 -141 -141 -244z" />
    <glyph glyph-name="uni247D" unicode="&#x247d;" 
d="M1279 1188q116 0 202 -78q130 -119 130 -453q0 -530 -337 -530q-338 0 -338 527q0 247 69 376q84 158 274 158zM1270 1100q-231 0 -231 -443q0 -215 54 -328q54 -114 181 -114t181 114q53 111 53 324q0 225 -53 333q-56 114 -185 114zM766 1196v-1030h-101v771h-239v67
q129 1 189 45q62 45 74 147h77zM347 1416h61q-211 -344 -211 -723q0 -377 211 -722h-61q-89 117 -156 280q-92 224 -92 442q0 235 107 478q62 142 141 245zM1701 -29h-62q212 335 212 722q0 386 -212 723h62q90 -118 157 -281q91 -223 91 -442q0 -235 -107 -478
q-62 -141 -141 -244z" />
    <glyph glyph-name="uni247E" unicode="&#x247e;" 
d="M1343 1199v-1030h-101v771h-239v67q129 1 189 45q62 45 74 147h77zM816 1196v-1030h-101v771h-239v67q129 1 189 45q62 45 74 147h77zM347 1416h61q-211 -344 -211 -723q0 -377 211 -722h-61q-89 117 -156 280q-92 224 -92 442q0 235 107 478q62 142 141 245zM1701 -29
h-62q212 335 212 722q0 386 -212 723h62q90 -118 157 -281q91 -223 91 -442q0 -235 -107 -478q-62 -141 -141 -244z" />
    <glyph glyph-name="uni247F" unicode="&#x247f;" 
d="M761 1194v-1030h-101v771h-239v67q129 1 189 45q62 45 74 147h77zM1578 254v-88h-654q-1 20 -1 30q0 133 69 228q45 64 115 112q61 41 145 91q125 73 169 125q53 64 53 156q0 96 -55 150q-54 53 -151 53q-217 0 -217 -249h-106q1 140 67 227q87 117 260 117
q134 0 217 -73q93 -81 93 -219q0 -125 -81 -216q-56 -62 -192 -143q-127 -75 -162 -103q-102 -81 -121 -198h552zM347 1416h61q-211 -344 -211 -723q0 -377 211 -722h-61q-89 117 -156 280q-92 224 -92 442q0 235 107 478q62 142 141 245zM1701 -29h-62q212 335 212 722
q0 386 -212 723h62q90 -118 157 -281q91 -223 91 -442q0 -235 -107 -478q-62 -141 -141 -244z" />
    <glyph glyph-name="uni2480" unicode="&#x2480;" 
d="M816 1196v-1030h-101v771h-239v67q129 1 189 45q62 45 74 147h77zM1190 650v79q30 -2 54 -2q111 0 168 52q60 54 60 140q0 84 -61 135q-56 47 -146 47q-131 0 -186 -98q-26 -48 -26 -124v-11h-99q2 124 59 203q84 118 253 118q126 0 208 -66q96 -76 96 -202
q0 -144 -145 -224q178 -71 178 -250q0 -140 -97 -231q-94 -88 -243 -88q-184 0 -278 131q-56 77 -57 196h102q1 -95 47 -155q63 -84 190 -84q110 0 176 71q57 60 57 150q0 113 -80 170q-63 45 -168 45q-21 0 -62 -2zM347 1416h61q-211 -344 -211 -723q0 -377 211 -722h-61
q-89 117 -156 280q-92 224 -92 442q0 235 107 478q62 142 141 245zM1701 -29h-62q212 335 212 722q0 386 -212 723h62q90 -118 157 -281q91 -223 91 -442q0 -235 -107 -478q-62 -141 -141 -244z" />
    <glyph glyph-name="uni2481" unicode="&#x2481;" 
d="M799 1196v-1030h-101v771h-239v67q129 1 189 45q62 45 74 147h77zM1337 424h-453v82l463 682h85v-682h144v-82h-144v-255h-95v255zM1350 506v227q1 211 4 311q-13 -22 -60 -93q-67 -102 -96 -145l-199 -300h351zM347 1416h61q-211 -344 -211 -723q0 -377 211 -722h-61
q-89 117 -156 280q-92 224 -92 442q0 235 107 478q62 142 141 245zM1701 -29h-62q212 335 212 722q0 386 -212 723h62q90 -118 157 -281q91 -223 91 -442q0 -235 -107 -478q-62 -141 -141 -244z" />
    <glyph glyph-name="uni2482" unicode="&#x2482;" 
d="M816 1196v-1030h-101v771h-239v67q129 1 189 45q62 45 74 147h77zM1134 1082l-49 -321q89 61 204 61q150 0 238 -94q86 -92 86 -242q0 -154 -91 -250q-94 -97 -247 -97q-174 0 -265 117q-54 71 -67 169h100q11 -80 55 -129q63 -69 174 -69q113 0 177 69q66 71 66 186
q0 111 -63 181q-63 71 -176 71q-139 0 -211 -104h-89l79 550h499v-98h-420zM347 1416h61q-211 -344 -211 -723q0 -377 211 -722h-61q-89 117 -156 280q-92 224 -92 442q0 235 107 478q62 142 141 245zM1701 -29h-62q212 335 212 722q0 386 -212 723h62q90 -118 157 -281
q91 -223 91 -442q0 -235 -107 -478q-62 -141 -141 -244z" />
    <glyph glyph-name="uni2483" unicode="&#x2483;" 
d="M789 1196v-1030h-101v771h-239v67q129 1 189 45q62 45 74 147h77zM1569 926h-102q-8 71 -44 113q-53 63 -146 63q-184 0 -248 -237q-24 -88 -24 -224q98 161 273 161q135 0 223 -91q87 -90 87 -239q0 -140 -80 -233q-94 -110 -250 -110q-162 0 -254 119q-98 128 -98 378
q0 259 93 411q95 153 278 153q146 0 231 -105q50 -62 61 -159zM1258 714q-107 0 -172 -84q-52 -68 -52 -165q0 -96 52 -165q65 -83 176 -83q96 0 156 64q62 68 62 183q0 117 -62 185q-60 65 -160 65zM347 1416h61q-211 -344 -211 -723q0 -377 211 -722h-61q-89 117 -156 280
q-92 224 -92 442q0 235 107 478q62 142 141 245zM1701 -29h-62q212 335 212 722q0 386 -212 723h62q90 -118 157 -281q91 -223 91 -442q0 -235 -107 -478q-62 -141 -141 -244z" />
    <glyph glyph-name="uni2484" unicode="&#x2484;" 
d="M816 1196v-1030h-101v771h-239v67q129 1 189 45q62 45 74 147h77zM1604 1187v-89q-138 -144 -248 -390q-121 -274 -152 -541h-111q89 548 402 922h-541v98h650zM347 1416h61q-211 -344 -211 -723q0 -377 211 -722h-61q-89 117 -156 280q-92 224 -92 442q0 235 107 478
q62 142 141 245zM1701 -29h-62q212 335 212 722q0 386 -212 723h62q90 -118 157 -281q91 -223 91 -442q0 -235 -107 -478q-62 -141 -141 -244z" />
    <glyph glyph-name="uni2485" unicode="&#x2485;" 
d="M783 1196v-1030h-101v771h-239v67q129 1 189 45q62 45 74 147h77zM1395 710q184 -79 184 -272q0 -137 -98 -223q-95 -83 -245 -83t-245 83q-98 86 -98 224q0 192 184 271q-142 73 -142 214q0 120 87 195q85 74 214 74t214 -74q87 -75 87 -195q0 -141 -142 -214z
M1233 1105q-85 0 -141 -50q-59 -51 -59 -130t59 -131q57 -50 144 -50q86 0 144 50q59 52 59 130q0 80 -59 131q-58 50 -147 50zM1232 664q-104 0 -172 -67q-64 -62 -64 -155t64 -156q68 -66 176 -66t176 66q64 63 64 155q0 95 -64 156q-70 67 -180 67zM347 1416h61
q-211 -344 -211 -723q0 -377 211 -722h-61q-89 117 -156 280q-92 224 -92 442q0 235 107 478q62 142 141 245zM1701 -29h-62q212 335 212 722q0 386 -212 723h62q90 -118 157 -281q91 -223 91 -442q0 -235 -107 -478q-62 -141 -141 -244z" />
    <glyph glyph-name="uni2486" unicode="&#x2486;" 
d="M790 1196v-1030h-101v771h-239v67q129 1 189 45q62 45 74 147h77zM919 393h101q9 -72 44 -113q53 -63 146 -63q148 0 217 152q55 120 55 309q-98 -161 -272 -161q-136 0 -224 91q-87 90 -87 239q0 140 80 233q95 110 250 110q162 0 254 -119q98 -128 98 -379
q0 -259 -93 -410q-95 -153 -279 -153q-145 0 -230 105q-51 63 -60 159zM1222 1102q-93 0 -153 -64q-62 -68 -62 -185q0 -115 62 -183q60 -65 157 -65q113 0 175 84q53 72 53 164q0 95 -53 166q-63 83 -179 83zM347 1416h61q-211 -344 -211 -723q0 -377 211 -722h-61
q-89 117 -156 280q-92 224 -92 442q0 235 107 478q62 142 141 245zM1701 -29h-62q212 335 212 722q0 386 -212 723h62q90 -118 157 -281q91 -223 91 -442q0 -235 -107 -478q-62 -141 -141 -244z" />
    <glyph glyph-name="uni2487" unicode="&#x2487;" 
d="M1423 1192q116 0 201 -78q130 -118 130 -453q0 -243 -68 -372q-40 -76 -117 -120q-67 -38 -152 -38q-338 0 -338 527q0 247 69 376q84 158 275 158zM1413 1104q-231 0 -231 -443q0 -442 235 -442q127 0 181 114q53 111 53 325q0 225 -53 332q-56 114 -185 114zM1031 255
v-88h-654q-1 24 -1 36q0 126 69 223q45 62 116 111q61 42 144 91q124 72 169 125q53 63 53 155q0 99 -54 151q-55 53 -151 53q-215 0 -218 -249h-106q2 140 67 227q88 117 261 117q134 0 217 -73q92 -81 92 -219q0 -126 -81 -216q-56 -63 -192 -143q-127 -75 -162 -103
q-101 -80 -120 -198h551zM347 1416h61q-211 -344 -211 -723q0 -377 211 -722h-61q-89 117 -156 280q-92 224 -92 442q0 235 107 478q62 142 141 245zM1701 -29h-62q212 335 212 722q0 386 -212 723h62q90 -118 157 -281q91 -223 91 -442q0 -235 -107 -478
q-62 -141 -141 -244z" />
    <glyph glyph-name="uni2488" unicode="&#x2488;" 
d="M1099 1195v-1030h-101v771h-239v67q129 1 189 45q62 45 73 147h78zM1339 325v-159h-132v159h132z" />
    <glyph glyph-name="uni2489" unicode="&#x2489;" 
d="M1305 255v-88h-654q-1 21 -1 32q0 130 69 227q45 62 116 111q60 42 144 91q124 72 169 125q53 63 53 156q0 96 -54 150q-55 53 -151 53q-217 0 -218 -249h-106q1 140 67 227q87 117 260 117q134 0 217 -73q93 -81 93 -219q0 -125 -81 -216q-57 -63 -192 -143
q-124 -73 -164 -103.5t-69 -71.5q-38 -54 -50 -126h552zM1526 325v-159h-133v159h133z" />
    <glyph glyph-name="uni248A" unicode="&#x248a;" 
d="M929 658v78q43 -2 63 -2q101 0 159 52q60 55 60 141q0 84 -61 135q-57 47 -146 47q-94 0 -152 -55q-60 -58 -60 -157v-10v-12h-99q2 125 59 204q85 118 253 118q126 0 208 -66q96 -76 96 -203q0 -144 -145 -223q178 -71 178 -251q0 -139 -97 -230q-94 -89 -242 -89
q-185 0 -279 131q-56 78 -57 197h102q1 -95 47 -155q63 -85 191 -85q109 0 176 71q56 61 56 151q0 112 -80 169q-62 45 -178 45q-24 0 -52 -1zM1511 325v-160h-133v160h133z" />
    <glyph glyph-name="uni248B" unicode="&#x248b;" 
d="M1092 422h-453v82l463 682h85v-682h144v-82h-144v-255h-95v255zM1092 504v227q1 216 4 310l-16 -24l-45 -68q-76 -116 -95 -146l-200 -299h352zM1473 325v-160h-132v160h132z" />
    <glyph glyph-name="uni248C" unicode="&#x248c;" 
d="M866 1089l-48 -321q89 61 204 61q150 0 238 -94q85 -91 85 -242q0 -155 -91 -250q-93 -97 -247 -97q-174 0 -264 117q-54 71 -67 169h100q10 -80 55 -129q63 -69 173 -69q114 0 178 69q65 70 65 186q0 112 -62 181q-63 71 -176 71q-138 0 -212 -104h-88l79 550h498v-98
h-420zM1511 326v-160h-133v160h133z" />
    <glyph glyph-name="uni248D" unicode="&#x248d;" 
d="M1338 927h-101q-9 71 -44 113q-54 63 -148 63q-148 0 -216 -152q-55 -123 -55 -283v-26q99 161 273 161q136 0 223 -91q87 -90 87 -239q0 -141 -80 -233q-95 -111 -249 -111q-161 0 -254 120q-99 128 -99 378q0 258 94 411q44 72 120 114q72 39 157 39q147 0 232 -106
q49 -61 60 -158zM1027 715q-107 0 -171 -84q-53 -68 -53 -165q0 -96 53 -165q65 -84 175 -84q96 0 156 65q62 68 62 183q0 118 -62 185q-60 65 -160 65zM1511 325v-160h-132v160h132z" />
    <glyph glyph-name="uni248E" unicode="&#x248e;" 
d="M1368 1185v-89q-137 -141 -248 -390q-121 -274 -152 -541h-111q90 552 402 922h-541v98h650zM1404 325v-160h-133v160h133z" />
    <glyph glyph-name="uni248F" unicode="&#x248f;" 
d="M1178 711q185 -79 185 -271q0 -136 -99 -223q-95 -84 -245 -84t-245 84q-98 86 -98 223q0 192 184 271q-142 73 -142 215q0 120 87 195q85 74 214 74t214 -74q87 -75 87 -196q0 -141 -142 -214zM1016 1107q-83 0 -141 -50q-59 -52 -59 -131q0 -78 59 -130q57 -50 144 -50
t144 50q59 52 59 130q0 80 -59 131q-59 50 -147 50zM1016 666q-104 0 -173 -67q-64 -63 -64 -156q0 -92 64 -155q68 -67 176 -67t176 67q65 63 65 155q0 94 -65 156q-70 67 -179 67zM1511 325v-160h-133v160h133z" />
    <glyph glyph-name="uni2490" unicode="&#x2490;" 
d="M711 401h101q9 -70 44 -112q53 -63 145 -63q185 0 249 237q24 86 24 224q-97 -161 -272 -161q-136 0 -224 91q-87 90 -87 239q0 140 80 233q95 110 250 110q162 0 254 -119q98 -127 98 -379q0 -259 -93 -410q-94 -153 -279 -153q-145 0 -230 105q-50 62 -60 158z
M1014 1111q-93 0 -152 -64q-63 -68 -63 -185q0 -115 63 -183q59 -65 156 -65q113 0 175 84q53 71 53 164q0 95 -53 166q-63 83 -179 83zM1492 325v-160h-132v160h132z" />
    <glyph glyph-name="uni2491" unicode="&#x2491;" 
d="M1278 1188q116 0 201 -78q132 -120 132 -453q0 -530 -339 -530q-186 0 -269 158q-67 127 -67 368q0 253 67 377q86 158 275 158zM1268 1100q-55 0 -103.5 -31t-73.5 -83q-52 -108 -52 -329q0 -220 52 -328q55 -114 181 -114q236 0 236 439q0 219 -55 332
q-55 114 -185 114zM767 1196v-1030h-101v771h-239v67q129 1 189 45q62 45 73 147h78zM1726 325v-160h-133v160h133z" />
    <glyph glyph-name="uni2492" unicode="&#x2492;" 
d="M1343 1199v-1030h-101v771h-239v67q129 1 189 45q62 45 73 147h78zM816 1196v-1030h-101v771h-239v67q129 1 189 45q62 45 73 147h78zM1568 325v-160h-132v160h132z" />
    <glyph glyph-name="uni2493" unicode="&#x2493;" 
d="M761 1194v-1030h-101v771h-239v67q129 1 189 45q62 45 73 147h78zM1572 254v-88h-654q0 134 40 213q37 73 120 138q54 43 170 110q128 74 171 125q55 67 55 156q0 94 -56 150q-54 53 -152 53q-220 0 -220 -249h-107q2 140 67 227q88 117 264 117q134 0 217 -73
q95 -83 95 -218q0 -124 -83 -217q-54 -60 -194 -143q-124 -73 -163 -103q-102 -79 -121 -198h551zM1743 325v-160h-132v160h132z" />
    <glyph glyph-name="uni2494" unicode="&#x2494;" 
d="M816 1196v-1030h-101v771h-239v67q129 1 189 45q62 45 73 147h78zM1185 650v79q29 -2 54 -2q110 0 169 52q63 56 63 140q0 83 -63 135q-55 47 -145 47q-103 0 -152 -54q-27 -31 -48 -79l-13 -29l3 -65q0 -2 -6 -6h-99q2 124 59 203q84 118 257 118q126 0 208 -66
q97 -77 97 -202q0 -141 -150 -224q183 -73 183 -250q0 -139 -98 -231q-94 -88 -244 -88q-187 0 -281 131q-56 77 -57 196h102q2 -95 47 -155q63 -84 193 -84q108 0 175 71q60 62 60 151q0 109 -83 169q-62 45 -169 45q-22 0 -62 -2zM1736 326v-160h-133v160h133z" />
    <glyph glyph-name="uni2495" unicode="&#x2495;" 
d="M800 1196v-1030h-101v771h-239v67q129 1 189 45q62 45 73 147h78zM1338 424h-454v82l464 682h85v-682h143v-82h-143v-255h-95v255zM1351 506v227q1 211 4 311q-13 -22 -60 -93q-67 -102 -96 -145l-200 -300h352zM1698 324v-160h-132v160h132z" />
    <glyph glyph-name="uni2496" unicode="&#x2496;" 
d="M816 1196v-1030h-101v771h-239v67q129 1 189 45q62 45 73 147h78zM1128 1082l-49 -321q89 61 207 61q150 0 239 -94q87 -92 87 -242q0 -153 -92 -250q-94 -97 -248 -97q-178 0 -267 117q-55 71 -68 169h101q10 -80 54 -129q63 -69 175 -69q115 0 178 69q69 75 69 186
q0 106 -66 181q-62 71 -177 71q-140 0 -212 -104h-88l78 550h499v-98h-420zM1762 324v-160h-132v160h132z" />
    <glyph glyph-name="uni2497" unicode="&#x2497;" 
d="M789 1196v-1030h-101v771h-239v67q129 1 189 45q62 45 73 147h78zM1563 926h-102q-8 71 -43 113q-54 63 -147 63q-184 0 -248 -237q-24 -89 -24 -224q98 161 276 161q137 0 224 -91q89 -93 89 -238q0 -138 -82 -234q-94 -110 -250 -110q-162 0 -254 119q-97 126 -97 379
q0 261 92 410q95 153 276 153q144 0 229 -106q50 -61 61 -158zM1255 714q-106 0 -171 -84q-51 -66 -51 -165q0 -98 51 -165q65 -83 175 -83q99 0 156 64q65 74 65 184q0 112 -65 184q-57 65 -160 65zM1730 324v-159h-132v159h132z" />
    <glyph glyph-name="uni2498" unicode="&#x2498;" 
d="M816 1196v-1030h-101v771h-239v67q129 1 189 45q62 45 73 147h78zM1598 1187v-89q-138 -144 -248 -390q-121 -274 -152 -541h-111q89 548 402 922h-541v98h650zM1646 324v-159h-133v159h133z" />
    <glyph glyph-name="uni2499" unicode="&#x2499;" 
d="M784 1196v-1030h-101v771h-239v67q129 1 189 45q62 45 73 147h78zM1390 710q190 -82 190 -272q0 -134 -101 -223q-94 -83 -245 -83q-150 0 -245 83q-96 85 -96 227q0 192 179 268q-137 70 -137 214q0 123 85 195q87 74 214 74q130 0 214 -74q89 -77 89 -195
q0 -138 -147 -214zM1231 1105q-84 0 -141 -50t-57 -130q0 -81 57 -131q58 -50 144 -50q87 0 144 50q61 54 61 131q0 78 -61 130q-57 50 -147 50zM1231 664q-104 0 -173 -67q-62 -60 -62 -155t62 -156q68 -66 176 -66q109 0 176 66t67 155q0 93 -67 156q-69 67 -179 67z
M1747 328v-160h-132v160h132z" />
    <glyph glyph-name="uni249A" unicode="&#x249a;" 
d="M790 1196v-1030h-101v771h-239v67q129 1 189 45q62 45 73 147h78zM913 393h101q23 -176 191 -176q153 0 218 152q59 136 59 245q0 21 -6 64q-98 -161 -271 -161q-136 0 -223 91q-83 87 -83 240q0 142 78 232q95 110 250 110q162 0 253 -119q101 -131 101 -378
q0 -254 -97 -411q-95 -153 -280 -153q-146 0 -231 105q-51 63 -60 159zM1220 1102q-93 0 -153 -64q-60 -66 -60 -185q0 -118 60 -183t156 -65q114 0 175 84q55 74 55 164q0 93 -55 166q-62 83 -178 83zM1738 324v-160h-133v160h133z" />
    <glyph glyph-name="uni249B" unicode="&#x249b;" 
d="M1422 1192q116 0 201 -78q131 -119 131 -453q0 -530 -337 -530q-338 0 -338 527q0 248 69 376q84 158 274 158zM1413 1104q-231 0 -231 -443q0 -215 53 -328q55 -114 182 -114q234 0 234 439q0 223 -53 332q-56 114 -185 114zM1031 255v-88h-654q-1 21 -1 32
q0 131 69 227q45 62 116 111q60 42 144 91q125 73 169 125q53 64 53 156q0 96 -54 150q-55 53 -152 53q-214 0 -217 -249h-106q1 140 67 227q87 117 260 117q134 0 217 -73q93 -81 93 -219q0 -125 -81 -216q-56 -63 -192 -143q-123 -73 -164 -103.5t-69 -71.5
q-38 -54 -50 -126h552zM1926 327v-159h-132v159h132z" />
    <glyph glyph-name="filledbox" unicode="&#x25a0;" horiz-adv-x="1707" 
d="M1434 1161v-1161h-1161v1161h1161z" />
    <glyph glyph-name="H22073" unicode="&#x25a1;" horiz-adv-x="1707" 
d="M273 0v1161h1161v-1161h-1161zM1318 116v929h-929v-929h929z" />
    <glyph glyph-name="triagup" unicode="&#x25b2;" horiz-adv-x="1434" 
d="M1298 0h-1161l580 1161z" />
    <glyph glyph-name="uni25B3" unicode="&#x25b3;" horiz-adv-x="1434" 
d="M717 1161l581 -1161h-1161zM331 116h773l-387 773z" />
    <glyph glyph-name="uni25C6" unicode="&#x25c6;" horiz-adv-x="1434" 
d="M1298 580l-581 -580l-580 580l580 581z" />
    <glyph glyph-name="uni25C7" unicode="&#x25c7;" 
d="M1022 1642l922 -922l-922 -922l-922 922zM218 720l804 -804l804 804l-804 804z" />
    <glyph glyph-name="circle" unicode="&#x25cb;" horiz-adv-x="1707" 
d="M864 1161q246 0 421 -192q149 -165 149 -388q0 -259 -192 -432q-165 -149 -388 -149q-259 0 -432 192q-149 165 -149 393q0 251 192 427q164 149 399 149zM846 1024q-188 0 -322 -147q-114 -126 -114 -296q0 -198 147 -330q126 -114 297 -114q197 0 329 147
q114 126 114 300q0 192 -147 326q-125 114 -304 114z" />
    <glyph glyph-name="uni25CE" unicode="&#x25ce;" 
d="M1026 1324q103 0 224 -45q173 -65 277 -220q103 -153 103 -330q0 -263 -186 -449q-164 -166 -423 -166q-125 0 -225 42q-167 70 -275 224q-43 60 -78 171q-29 89 -29 159q0 256 189 445q82 82 193 124q121 45 230 45zM1019 1248q-134 0 -261 -74q-118 -69 -192 -194
q-70 -118 -70 -257q0 -135 72 -267q69 -126 190 -198q118 -70 261 -70q221 0 383 165q75 75 111 168q39 98 39 192q0 135 -74 269q-68 123 -192 194q-126 72 -267 72zM1034 1634q371 0 646 -278q122 -123 190 -292q70 -171 70 -352q0 -237 -120 -450q-123 -219 -336 -340
q-219 -124 -454 -124q-385 0 -666 283q-129 129 -193 295q-63 163 -63 333q0 252 122 467t334 336q213 122 470 122zM1016 1552q-205 0 -408 -116q-197 -112 -304 -304q-110 -196 -110 -414t110 -414q110 -195 302 -308q188 -110 419 -110q218 0 411 110q192 110 306 308
q112 195 112 410q0 221 -114 422q-111 196 -304 306t-420 110z" />
    <glyph glyph-name="H18533" unicode="&#x25cf;" horiz-adv-x="1707" 
d="M864 1161q246 0 421 -192q149 -165 149 -388q0 -259 -192 -432q-165 -149 -388 -149q-259 0 -432 192q-149 165 -149 393q0 251 192 427q164 149 399 149z" />
    <glyph glyph-name="uni2605" unicode="&#x2605;" horiz-adv-x="1641" 
d="M820 1486l162 -486h523l-423 -307l162 -496l-424 307l-423 -307l162 496l-422 307h522z" />
    <glyph glyph-name="uni2606" unicode="&#x2606;" 
d="M1022 1652l220 -668h696l-564 -408l218 -668l-570 408l-572 -410l218 668l-564 410h698zM862 894h-490l396 -290l-158 -478l412 300l412 -298l-160 480l398 286h-492l-158 476z" />
    <glyph glyph-name="female" unicode="&#x2640;" horiz-adv-x="1501" 
d="M799 628v-199h330v-88h-330v-341h-98v341h-334v88h334v199q-101 10 -189 61q-111 65 -175 175t-64 239q0 212 158 354q136 123 319 123q212 0 354 -158q123 -136 123 -319q0 -184 -123 -320q-124 -137 -305 -155zM743 1480q-160 0 -274 -125q-97 -108 -97 -253
q0 -168 125 -281q108 -97 253 -97q168 0 281 125q97 108 97 256q0 163 -125 278q-107 97 -260 97z" />
    <glyph glyph-name="male" unicode="&#x2642;" horiz-adv-x="1841" 
d="M1336 1133q-3 1 -7 2q-60 14 -158 56q-22 10 -67 43q-22 16 -22 33q0 26 28 26q13 0 40 -6q85 -19 166 -19q119 0 186 21q32 10 47 10q19 0 19 -20q0 -9 -10 -46q-21 -76 -21 -191q0 -82 18 -169q6 -29 6 -40q0 -28 -25 -28t-52 53q-59 113 -80 204l-283 -284
q107 -134 107 -301q0 -197 -140 -337t-337 -140q-198 0 -338 140t-140 338q0 197 140 337q139 140 337 140q171 0 301 -107zM746 856q-151 0 -263 -111q-111 -110 -111 -267t111 -267q111 -111 268 -111q156 0 267 111t111 266q0 160 -111 268q-113 111 -272 111z" />
    <glyph glyph-name="uni3000" unicode="&#x3000;" 
 />
    <glyph glyph-name="uni3001" unicode="&#x3001;" 
d="M279 302q181 -186 303 -344l-134 -106q-92 148 -273 355z" />
    <glyph glyph-name="uni3002" unicode="&#x3002;" 
d="M378 324q106 0 192 -96q49 -55 49 -165q0 -106 -88 -181q-60 -53 -144 -53q-134 0 -205 88q-54 66 -54 157q0 129 93 200q67 50 157 50zM374 239q-75 0 -127 -58q-32 -36 -32 -105q0 -59 30 -97q33 -42 58 -53q30 -14 72 -14q78 0 130 59q35 39 35 97q0 89 -61 135
q-48 36 -105 36z" />
    <glyph glyph-name="uni3003" unicode="&#x3003;" 
d="M994 1123l-264 -762l-120 16l217 767zM1215 1139l165 -24l-270 -765l-116 14z" />
    <glyph glyph-name="uni3005" unicode="&#x3005;" 
d="M899 1382l104 -33q40 -13 40 -27q0 -16 -43 -29l-89 -226h649l48 30l93 -86q32 -30 32 -39q0 -25 -55 -40q-105 -225 -201 -380q-67 -107 -174 -251l298 -198l-93 -101q-483 329 -772 418l57 116q267 -97 403 -173q143 185 227 331q63 112 122 264h-679l-50 -98
q-153 -304 -425 -507l-102 69q116 91 197 179q211 231 413 781z" />
    <glyph glyph-name="uni3008" unicode="&#x3008;" 
d="M1920 1582l-432 -864l424 -876l-136 -66l-452 944l468 932z" />
    <glyph glyph-name="uni3009" unicode="&#x3009;" 
d="M266 1670l458 -952l-466 -934l-140 70l438 864l-422 888z" />
    <glyph glyph-name="uni300A" unicode="&#x300a;" 
d="M1470 1664l122 -64l-414 -886l402 -888l-128 -56l-428 948zM1846 1652l126 -62l-410 -872l396 -886l-126 -60l-426 946z" />
    <glyph glyph-name="uni300B" unicode="&#x300b;" 
d="M594 1668l430 -948l-440 -942l-128 64l410 884l-398 882zM216 1668l432 -950l-438 -932l-128 62l404 874l-396 884z" />
    <glyph glyph-name="uni300C" unicode="&#x300c;" 
d="M1918 1628v-168h-436v-1306h-174v1474h610z" />
    <glyph glyph-name="uni300D" unicode="&#x300d;" 
d="M748 1278v-1474h-614v174h436v1300h178z" />
    <glyph glyph-name="uni300E" unicode="&#x300e;" 
d="M1936 1650v-400h-284v-1228h-410v1628h694zM1382 1522v-1368h138v1230h290v138h-428z" />
    <glyph glyph-name="uni300F" unicode="&#x300f;" 
d="M798 1418v-1630h-694v394h286v1236h408zM522 1288v-1234h-292v-138h430v1372h-138z" />
    <glyph glyph-name="uni3010" unicode="&#x3010;" 
d="M1900 1644v-74q-158 -149 -220 -250q-176 -281 -176 -604q0 -199 72 -390q39 -102 103 -208q58 -94 223 -246v-74h-638v1846h636z" />
    <glyph glyph-name="uni3011" unicode="&#x3011;" 
d="M784 1636v-1832h-644v68q167 160 230 269q158 272 158 573q0 212 -74 402q-39 100 -100 198q-57 93 -214 254v68h644z" />
    <glyph glyph-name="uni3013" unicode="&#x3013;" 
d="M1944 1388v-310h-1844v310h1844zM1944 366v-312h-1844v312h1844z" />
    <glyph glyph-name="uni3014" unicode="&#x3014;" 
d="M1864 1664l74 -148l-440 -226v-1152l422 -210l-74 -156l-520 264v1362z" />
    <glyph glyph-name="uni3015" unicode="&#x3015;" 
d="M204 1662l512 -264v-1352l-522 -274l-74 152l430 226v1146l-422 220z" />
    <glyph glyph-name="uni3016" unicode="&#x3016;" 
d="M1208 1634h714q26 0 26 -19q0 -14 -23 -33l-42 -35q-71 -59 -142 -192q-134 -249 -134 -613q0 -374 118 -621q44 -92 133 -183l61 -63q27 -28 27 -48q0 -23 -27 -23h-711v1830zM1286 -127h513q-90 107 -135 199q-127 263 -127 673q0 475 211 771l35 49l-497 1v-1693z" />
    <glyph glyph-name="uni3017" unicode="&#x3017;" 
d="M838 -205h-705q-26 0 -26 20q0 13 24 33l41 35q71 61 140 191q131 249 131 627q0 371 -113 606q-59 120 -133 197l-61 63q-26 27 -26 48q0 24 26 24h702v-1844zM761 1570h-506q138 -200 178 -313q79 -218 79 -572q0 -473 -207 -771l-34 -49l490 -1v1706z" />
    <glyph glyph-name="uni3220" unicode="&#x3220;" 
d="M1535 1522l77 65l54 -68q160 -201 214 -361q62 -182 62 -426q0 -220 -68 -414q-66 -190 -162 -290l-42 -44l-58 -65l-84 61l74 65q62 54 122 171q65 129 92 304q18 119 18 210q0 197 -37 346q-21 86 -64 171q-49 96 -87 147l-61 81zM514 1502l-58 -51q-32 -29 -90 -112
q-78 -115 -124 -314q-21 -89 -21 -292q0 -143 31 -288q40 -189 127 -290l89 -103l57 -51l-77 -77l-56 53q-124 117 -188 276q-95 236 -95 499q0 226 60 400q61 177 179 323l41 51l38 51zM412 677v123q86 -11 161 -11h838q73 0 128 5l66 6v-123q-19 1 -27 2q-4 0 -22 1
q-14 2 -17 2l-57 3q-57 3 -73 3h-832q-9 0 -56 -3l-47 -3z" />
    <glyph glyph-name="uni3221" unicode="&#x3221;" 
d="M1535 1523l77 64l54 -67q158 -197 214 -361q62 -183 62 -426q0 -216 -68 -414q-32 -90 -81 -176q-47 -81 -81 -115l-42 -43l-58 -65l-84 61l74 65q114 100 177 313q55 184 55 372q0 197 -37 346q-21 86 -64 171q-49 96 -87 147l-61 81zM514 1503l-58 -51
q-32 -28 -90 -112q-78 -111 -124 -315q-21 -88 -21 -291q0 -141 32 -288q40 -189 126 -290l89 -104l57 -50l-77 -78l-56 54q-125 121 -188 276q-95 235 -95 499q0 225 60 400q30 89 75 166q59 103 104 157l41 50l38 52zM380 387q76 -11 161 -11h942h3q107 4 109 5l54 6v-129
l-20 2q-6 1 -7 1q-22 3 -27 3l-60 2l-51 3h-942l-59 -3l-46 -2l-57 -6v129zM551 1069v123q86 -11 161 -11h568q72 0 128 5l66 6v-123q-19 1 -27 2q-4 0 -22 1q-14 2 -17 2l-57 3q-57 3 -73 3h-562q-9 0 -56 -3l-47 -3z" />
    <glyph glyph-name="uni3222" unicode="&#x3222;" 
d="M1523 1519l77 65l54 -67q156 -194 214 -362q62 -181 62 -426q0 -211 -64 -402q-67 -199 -166 -302l-42 -44l-58 -64l-84 61l74 65q114 100 177 313q55 184 55 372q0 196 -37 345q-21 86 -64 171q-49 96 -87 147l-61 81zM502 1499l-58 -50q-31 -27 -90 -113
q-78 -114 -124 -314q-21 -88 -21 -292q0 -140 32 -287q40 -189 126 -290l89 -104l57 -50l-77 -78l-56 53q-122 115 -188 278q-95 233 -95 497q0 223 60 400q29 87 75 166q61 103 104 157l41 51l38 51zM558 691v123q48 -6 63 -6l47 -2l51 -3h545l71 3l58 2l65 6v-123l-10 1
l-55 5l-58 2l-72 3h-540h-1l-54 -3l-47 -2zM418 329q42 -6 57 -6l47 -2l57 -3h862l51 3l60 2l55 6v-128q-6 0 -45 4l-10 1l-60 3l-48 3h-2h-862q-11 0 -58 -3l-47 -3l-57 -5v128zM511 1086v123q39 -5 63 -6l47 -3q47 -3 52 -3h649q14 0 71 3l57 3l65 6v-123q-8 0 -38 3
l-27 2l-57 3q-57 3 -73 3h-643q-9 0 -56 -3l-47 -3z" />
    <glyph glyph-name="uni3223" unicode="&#x3223;" 
d="M457 163q12 70 12 155v768q0 20 -3 58q-2 26 -2 31v2l-5 54q33 -5 54 -5l49 -1l51 -3h836l46 3l49 1l59 5q-4 -36 -5 -51l-2 -43l-3 -53v-747l3 -55l2 -49l7 -47h-132q1 6 2 17q4 34 5 51l3 40h-911q2 -69 6 -101l4 -31zM572 385l911 2v746h-261v-418q0 -39 11 -50
q18 -18 61 -17q5 1 12 1q21 0 37 -1h5h3q21 0 35 2l43 5l-2 -6q-12 -33 -17 -45q-6 -13 -7 -21l-6 -36q-10 1 -15 1q-2 1 -10 2q-4 1 -5 1l-81 4q-94 4 -125 23q-18 12 -31 41q-12 29 -12 53v463h-162v-22q-1 -287 -19 -355q-33 -124 -194 -236l-36 -25l-3 3l-9 11
q-13 16 -17 21q-11 14 -23 22l-43 30q96 23 158 87q49 50 63 104q15 58 15 147v213h-276v-750zM1527 1519l77 65l54 -67q156 -194 214 -362q62 -181 62 -426q0 -211 -64 -402q-67 -199 -166 -302l-42 -44l-58 -64l-84 61l74 65q114 100 177 313q55 184 55 372q0 196 -37 345
q-21 86 -64 171q-49 96 -87 147l-61 81zM506 1499l-58 -50q-31 -27 -90 -113q-78 -114 -124 -314q-21 -88 -21 -292q0 -140 32 -287q40 -189 126 -290l89 -104l57 -50l-77 -78l-56 53q-122 115 -188 278q-95 233 -95 497q0 223 60 400q29 87 75 166q61 103 104 157l41 51
l38 51z" />
    <glyph glyph-name="uni3224" unicode="&#x3224;" 
d="M454 331q86 -14 167 -14h175l63 433l-159 -7q-40 -7 -47 -7l-48 -3l-44 -7v115l136 -4l168 7l38 298h-264q-54 0 -112 -6l-49 -5v119q30 -4 49 -5l49 -3l60 -4h3h760h1l62 4l51 3l44 5v-119h-7q-25 3 -32 4q-60 7 -119 7h-381l-41 -294q114 7 205 12q92 5 119 8l94 10
l-17 -138l-34 -422l69 -1l21 -1q52 0 110 9l47 6v-125q-18 1 -30 3q-17 1 -22 2q-6 0 -12 1q-72 8 -114 8h-792q-12 0 -47 -3l-71 -6l-49 -5v125zM905 317l338 1l34 452l-307 -14zM1527 1519l77 65l54 -67q156 -194 214 -362q62 -181 62 -426q0 -211 -64 -402
q-67 -199 -166 -302l-42 -44l-58 -64l-84 61l74 65q114 100 177 313q55 184 55 372q0 196 -37 345q-21 86 -64 171q-49 96 -87 147l-61 81zM506 1499l-58 -50q-16 -14 -84 -105q-69 -92 -113 -257q-41 -153 -41 -276q0 -469 161 -658l89 -104l57 -50l-77 -78l-56 53
q-122 115 -188 278q-95 233 -95 497q0 223 60 400q29 87 75 166q61 103 104 157l41 51l38 51z" />
    <glyph glyph-name="uni3225" unicode="&#x3225;" 
d="M1531 1523l77 64l54 -67q158 -197 214 -361q62 -183 62 -426q0 -216 -68 -414q-32 -90 -81 -176q-47 -81 -81 -115l-42 -43l-58 -65l-84 61l74 65q114 100 177 313q55 184 55 372q0 197 -37 346q-21 86 -64 171q-49 96 -87 147l-61 81zM510 1503l-58 -51
q-32 -28 -90 -112q-78 -111 -124 -315q-21 -88 -21 -291q0 -141 32 -288q40 -189 126 -290l89 -104l57 -50l-77 -78l-56 54q-125 121 -188 276q-95 235 -95 499q0 225 60 400q30 89 75 166q59 103 104 157l41 50l38 52zM771 746l123 -56q31 -14 31 -19q0 -3 -19 -10
q-30 -13 -53 -44q-14 -19 -44 -65q-49 -76 -121 -163q-101 -121 -179 -183l-29 -23l-20 14q-39 27 -58 37l-39 19q94 54 139 97q95 90 162 189q76 112 94 167zM393 861l-1 129q50 -13 128 -13h999q51 0 76 5l40 8l1 -129q-32 6 -38 7l-40 3l-39 5h-1001h-1l-46 -5l-44 -4z
M776 1351l4 3q24 18 25 19l38 33l22 18q31 -33 75 -75l10 -10q120 -118 150 -154l42 -50l-4 -4q-19 -17 -20 -18l-42 -33l-27 -24q-87 134 -213 243zM1629 263q-16 -4 -22 -7l-47 -37l-29 -22q-63 102 -125 174q-140 164 -252 254l-42 34q51 35 70 54l18 17l7 -7l22 -20
l23 -21l7 -7q186 -172 321 -348z" />
    <glyph glyph-name="uni3226" unicode="&#x3226;" 
d="M913 951l513 116q96 21 150 41l60 22l25 -123q-94 -8 -212 -34l-536 -121v-451q0 -70 18 -87q27 -25 161 -29q233 -9 319 9q125 27 134 158l6 92q42 -44 90 -63l42 -17l-2 -7q-47 -146 -87 -193q-73 -82 -318 -82q-322 0 -401 37q-52 25 -63 76q-4 15 -4 109v429
l-315 -60q-65 -13 -138 -40l-37 -14l-31 117q60 0 183 24l338 65v365v1l-3 56l-2 38l-6 57l141 -17q23 -3 21 -10q-2 -8 -12 -16q-18 -17 -25 -34q-9 -26 -9 -104v-310zM1523 1523l77 64l54 -67q136 -169 193 -306q83 -199 83 -481q0 -216 -68 -414q-32 -90 -81 -176
q-47 -81 -81 -115l-42 -43l-58 -65l-84 61l74 65q114 100 177 313q55 184 55 372q0 197 -37 346q-21 86 -64 171q-49 96 -87 147l-61 81zM502 1503l-58 -51q-47 -41 -101 -129q-63 -101 -101 -250q-36 -138 -36 -279q0 -449 161 -638l89 -104l57 -50l-77 -78l-56 54
q-125 121 -188 276q-95 235 -95 499q0 225 60 400q30 89 75 166q59 103 104 157l41 50l38 52z" />
    <glyph glyph-name="uni3227" unicode="&#x3227;" 
d="M359 278q83 57 132 118q181 227 245 523l22 101q10 46 10 47l3 39l133 -33q11 -3 12 -9q0 -5 -12 -14q-18 -12 -25 -33q-7 -18 -24 -91q-104 -428 -348 -677l-43 -44l-4 4q-34 29 -69 50zM1554 202q-211 263 -317 538q-86 221 -124 514l-11 85l118 2q2 -67 18 -169l9 -59
q32 -209 176 -482q53 -101 123 -189q79 -100 114 -131l39 -35l-6 -2q-66 -26 -95 -44zM1524 1519l77 65l54 -67q156 -194 214 -362q62 -181 62 -426q0 -211 -64 -402q-67 -199 -166 -302l-42 -44l-58 -64l-84 61l74 65q114 100 177 313q55 184 55 372q0 196 -37 345
q-21 86 -64 171q-49 96 -87 147l-61 81zM503 1499l-58 -50q-31 -27 -90 -113q-78 -114 -124 -314q-21 -88 -21 -292q0 -140 32 -287q40 -189 126 -290l89 -104l57 -50l-77 -78l-56 53q-122 115 -188 278q-95 233 -95 497q0 223 60 400q29 87 75 166q61 103 104 157l41 51
l38 51z" />
    <glyph glyph-name="uni3228" unicode="&#x3228;" 
d="M831 945l-58 -3l-115 -7l-76 -2l-27 -2q-55 -5 -78 -8l-44 -6v119l15 -1l42 -1l40 -1q36 -2 37 -2q7 0 134 5l134 5v247l-3 58l-2 40l-6 58l142 -17q24 -3 22 -10q-2 -6 -17 -21q-18 -18 -22 -35q-8 -36 -8 -104v-208l27 1q276 13 348 21l43 5q-22 -161 -32 -310
l-10 -148l-14 -148q-6 -58 -8 -89q-5 -72 25 -86q46 -23 129 -19q58 3 85 22q56 38 61 152l5 106q50 -39 94 -50l35 -9l-3 -16l-10 -44l-8 -39q-22 -103 -46 -147q-46 -81 -200 -81h-4q-176 6 -207 16q-35 12 -52 40q-15 25 -15 96q0 18 7 73q8 63 12 123l14 222l12 145
l3 84q-70 -5 -119 -7l-88 -4l-84 -5l-1 -12l-4 -39q-19 -191 -48 -287q-45 -147 -180 -277q-59 -57 -174 -137l-40 -28q-29 38 -71 65l-43 27q176 64 286 184q89 96 124 220q24 84 35 208zM1526 1516l77 65l54 -67q156 -194 214 -362q62 -181 62 -426q0 -211 -64 -402
q-67 -199 -166 -302l-42 -44l-58 -64l-84 61l74 64q63 54 121 170q67 134 93 304q18 122 18 212q0 196 -37 345q-21 86 -64 171q-49 96 -87 147l-61 81zM505 1496l-58 -51q-32 -29 -90 -112q-78 -114 -124 -312q-21 -90 -21 -294q0 -139 32 -288q39 -189 126 -290l89 -103
l57 -51l-77 -77l-56 53q-122 115 -188 278q-95 233 -95 497q0 223 60 400q29 87 75 166q61 103 104 157l41 51l38 51z" />
    <glyph glyph-name="uni3229" unicode="&#x3229;" 
d="M1073 921h466q22 0 55 3l54 5l44 4v-125h-7q-33 4 -37 4q-4 1 -9 1q-2 0 -17 2q-55 6 -83 6h-466v-557q0 -63 9 -133l5 -40h-137q10 64 11 86l2 41l2 43v3v557h-428q-6 0 -48 -3l-70 -5l-46 -5v125q31 -3 46 -4l70 -5q42 -3 48 -3h428v353l-3 59l-2 41l-6 59l145 -18
q23 -3 22 -9q0 -5 -13 -16q-15 -12 -22 -22q-9 -13 -11 -69l-2 -56v-322zM1543 1536l77 65l54 -67q156 -194 214 -362q62 -182 62 -426q0 -211 -64 -402q-67 -199 -166 -302l-42 -44l-58 -64l-84 61l74 65q114 100 177 313q55 184 55 372q0 197 -37 345q-21 86 -64 171
q-49 96 -87 147l-61 81zM522 1516l-58 -51q-33 -30 -90 -112q-79 -115 -124 -314q-21 -89 -21 -293q0 -138 32 -287q39 -190 126 -290l89 -103l57 -50l-77 -78l-56 53q-122 115 -188 278q-95 233 -95 497q0 223 60 400q29 88 75 166q61 103 104 157l41 51l38 51z" />
    <glyph glyph-name="uniFF01" unicode="&#xff01;" 
d="M258 0v250h179v-250h-179zM289 512l-26 748v284h169v-284l-26 -748h-117z" />
    <glyph glyph-name="uniFF02" unicode="&#xff02;" 
d="M796 952l-36 428v164h169v-164l-34 -428h-99zM1157 952l-37 428v164h170v-164l-35 -428h-98z" />
    <glyph glyph-name="uniFF03" unicode="&#xff03;" 
d="M573 0l90 389h-219v117h246l105 450h-218v117h244l90 387h115l-90 -387h336l90 387h115l-91 -387h215v-117h-241l-105 -450h213v-117h-239l-90 -389h-115l90 389h-336l-90 -389h-115zM805 506h336l104 450h-336z" />
    <glyph glyph-name="uniFF04" unicode="&#xff04;" 
d="M965 -190v155q-239 13 -371 135q-109 102 -159 308l135 32q42 -159 110 -235q99 -109 285 -123v647l-94 19q-401 82 -401 411q0 208 161 324q124 88 334 98v121h115v-125q217 -19 333 -127q94 -88 142 -254l-127 -45q-57 163 -143 233q-76 62 -205 80v-620l121 -25
q381 -79 381 -420q0 -212 -151 -325q-127 -94 -351 -109v-155h-115zM1080 82q354 29 354 302q0 135 -80 211q-68 65 -217 99l-57 13v-625zM965 866v602q-160 -8 -251 -76q-105 -78 -105 -222q0 -233 301 -293z" />
    <glyph glyph-name="uniFF05" unicode="&#xff05;" 
d="M609 -37l703 1534h123l-703 -1534h-123zM1581 883q339 0 339 -459q0 -461 -344 -461q-340 0 -340 459q0 228 81 344q83 117 264 117zM1574 782q-219 0 -219 -358q0 -361 221 -361q225 0 225 366q0 353 -227 353zM473 1497q339 0 339 -459q0 -460 -344 -460
q-340 0 -340 457q0 228 82 344q83 118 263 118zM466 1397q-219 0 -219 -359q0 -360 221 -360q225 0 225 364q0 355 -227 355z" />
    <glyph glyph-name="uniFF06" unicode="&#xff06;" 
d="M781 895q-73 82 -107 133q-65 98 -65 206q0 164 123 254q101 73 268 73q192 0 295 -112q76 -81 76 -203q0 -161 -151 -270q-86 -61 -237 -120l418 -489q107 139 205 325l107 -55q-100 -203 -234 -365l236 -272h-183l-147 174q-235 -211 -482 -211q-189 0 -324 102
q-167 127 -167 342q0 177 103 301q89 107 266 187zM1311 262l-457 545q-155 -71 -230 -161q-81 -98 -81 -235q0 -144 104 -240q103 -95 257 -95q218 0 407 186zM908 940q156 58 238 120q100 78 100 186q0 104 -90 166q-70 48 -166 48q-111 0 -181 -62q-67 -60 -67 -159
q0 -65 35 -127q31 -54 98 -133z" />
    <glyph glyph-name="uniFF07" unicode="&#xff07;" 
d="M976 952l-37 428v164h170v-164l-34 -428h-99z" />
    <glyph glyph-name="uniFF08" unicode="&#xff08;" 
d="M1717 -387q-313 411 -313 966q0 552 313 963l103 -55q-267 -415 -267 -912q0 -349 138 -665q53 -123 129 -242z" />
    <glyph glyph-name="uniFF09" unicode="&#xff09;" 
d="M343 -387l-103 55q266 422 266 918q0 481 -266 901l103 55q313 -412 313 -962q0 -555 -313 -967z" />
    <glyph glyph-name="uniFF0A" unicode="&#xff0a;" 
d="M961 741l8 310l-266 -160l-57 100l266 152l-266 151l57 101l266 -160l-8 309h125l-8 -309l266 160l57 -101l-266 -151l266 -152l-57 -100l-266 160l8 -310h-125z" />
    <glyph glyph-name="uniFF0B" unicode="&#xff0b;" 
d="M964 178v498h-486v110h486v498h118v-498h486v-110h-486v-498h-118z" />
    <glyph glyph-name="uniFF0C" unicode="&#xff0c;" 
d="M269 -369l-66 64q133 142 133 280v25h-78v250h179v-240q0 -207 -168 -379z" />
    <glyph glyph-name="uniFF0D" unicode="&#xff0d;" 
d="M756 469v143h536v-143h-536z" />
    <glyph glyph-name="uniFF0E" unicode="&#xff0e;" 
d="M258 0v250h179v-250h-179z" />
    <glyph glyph-name="uniFF0F" unicode="&#xff0f;" 
d="M784 0l362 1544h119l-362 -1544h-119z" />
    <glyph glyph-name="uniFF10" unicode="&#xff10;" 
d="M1027 1544q512 0 512 -790q0 -791 -517 -791q-513 0 -513 791q0 790 518 790zM1020 1425q-366 0 -366 -671q0 -672 370 -672q180 0 276 163q94 159 94 518q0 662 -374 662z" />
    <glyph glyph-name="uniFF11" unicode="&#xff11;" 
d="M1050 0v1354q-180 -138 -352 -238l-57 98q229 140 401 293h139v-1507h-131z" />
    <glyph glyph-name="uniFF12" unicode="&#xff12;" 
d="M532 0v63q0 216 214 407q77 68 228 168q196 129 263 199q117 124 117 283q0 142 -87 223q-90 84 -242 84q-170 0 -264 -113q-58 -70 -96 -208l-129 29q109 409 497 409q234 0 361 -135q105 -112 105 -295q0 -205 -157 -358q-73 -71 -212 -164q-199 -133 -266 -189
q-163 -136 -180 -278h831v-125h-983z" />
    <glyph glyph-name="uniFF13" unicode="&#xff13;" 
d="M518 387l135 21q36 -328 352 -328q164 0 260 69q113 81 113 240q0 205 -165 280q-93 42 -253 44v123q161 7 268 78q121 80 121 239q0 137 -85 209q-81 70 -239 70q-281 0 -343 -295l-131 20q70 387 485 387q233 0 354 -115q103 -98 103 -268q0 -180 -122 -282
q-69 -58 -181 -99q169 -23 257 -131q76 -92 76 -249q0 -190 -116 -306q-131 -131 -395 -131q-237 0 -361 116q-109 101 -133 308z" />
    <glyph glyph-name="uniFF14" unicode="&#xff14;" 
d="M1211 0v338h-700v117l702 1052h131v-1052h172v-117h-170v-338h-135zM652 455h557v854z" />
    <glyph glyph-name="uniFF15" unicode="&#xff15;" 
d="M557 289l131 35q71 -246 327 -246q351 0 351 419q0 162 -78 270q-84 116 -261 116q-111 0 -195 -45q-58 -32 -115 -103l-121 17l123 755h744v-123h-646l-77 -487q73 53 132 74q83 30 189 30q174 0 294 -101q157 -131 157 -401q0 -248 -129 -391q-131 -145 -366 -145
q-372 0 -460 326z" />
    <glyph glyph-name="uniFF16" unicode="&#xff16;" 
d="M1489 1284l-120 -55q-89 201 -309 201q-227 0 -325 -234q-66 -156 -81 -455q56 108 160 169t242 61q181 0 302 -96q160 -129 160 -405q0 -212 -115 -348q-136 -159 -385 -159q-277 0 -401 202q-109 177 -109 535q0 417 150 637q140 207 407 207q316 0 424 -260zM1034 852
q-172 0 -271 -120q-87 -107 -87 -276q0 -162 84 -266q93 -116 256 -116q149 0 244 89q113 107 113 309q0 181 -87 279q-89 101 -252 101z" />
    <glyph glyph-name="uniFF17" unicode="&#xff17;" 
d="M767 0q96 448 243 770q129 284 368 612h-809v125h948v-141q-240 -334 -360 -597q-144 -313 -238 -769h-152z" />
    <glyph glyph-name="uniFF18" unicode="&#xff18;" 
d="M759 782q-221 115 -221 355q0 202 146 313q126 94 347 94q263 0 390 -151q87 -103 87 -262q0 -235 -221 -349q275 -109 275 -387q0 -190 -132 -306q-144 -126 -405 -126q-241 0 -383 105q-158 117 -158 332q0 276 275 382zM1015 723q-191 0 -294 -94q-93 -84 -93 -230
q0 -147 92 -231q103 -94 301 -94q183 0 286 78q111 85 111 248q0 161 -115 248q-99 75 -288 75zM1020 1438q-171 0 -262 -89q-81 -79 -81 -215q0 -137 80 -216q92 -89 267 -89q157 0 248 74q97 79 97 232q0 136 -81 214q-91 89 -268 89z" />
    <glyph glyph-name="uniFF19" unicode="&#xff19;" 
d="M568 201l116 59q81 -178 311 -178q229 0 326 231q67 160 76 453q-54 -104 -149 -163q-109 -66 -250 -66q-243 0 -367 159q-98 126 -98 337q0 232 133 372q131 139 368 139q309 0 428 -259q81 -175 81 -476q0 -419 -147 -638q-139 -208 -402 -208q-318 0 -426 238z
M1026 1434q-160 0 -255 -109q-93 -107 -93 -290q0 -179 86 -279q87 -101 245 -101q168 0 269 112q95 106 95 292q0 183 -111 289q-89 86 -236 86z" />
    <glyph glyph-name="uniFF1A" unicode="&#xff1a;" 
d="M258 0v250h179v-250h-179zM258 831v250h179v-250h-179z" />
    <glyph glyph-name="uniFF1B" unicode="&#xff1b;" 
d="M269 -369l-66 64q133 142 133 280v25h-78v250h179v-240q0 -207 -168 -379zM258 831v250h179v-250h-179z" />
    <glyph glyph-name="uniFF1C" unicode="&#xff1c;" 
d="M1568 178l-1090 496v114l1090 496v-123l-944 -430l944 -430v-123z" />
    <glyph glyph-name="uniFF1D" unicode="&#xff1d;" 
d="M478 434v115h1090v-115h-1090zM478 913v115h1090v-115h-1090z" />
    <glyph glyph-name="uniFF1E" unicode="&#xff1e;" 
d="M478 178v123l944 430l-944 430v123l1090 -496v-114z" />
    <glyph glyph-name="uniFF1F" unicode="&#xff1f;" 
d="M368 0v250h178v-250h-178zM390 506v153q0 87 50 138q26 27 77 60l29 19q133 88 172 130q78 86 78 200q0 262 -296 262q-163 0 -247 -100q-46 -54 -76 -158l-127 21q86 350 471 350q235 0 345 -140q69 -87 69 -226q0 -238 -301 -428q-65 -41 -83 -67q-27 -38 -27 -102
v-112h-134z" />
    <glyph glyph-name="uniFF20" unicode="&#xff20;" 
d="M1183 475q-120 -143 -317 -143q-154 0 -238 92q-80 86 -80 239q0 214 128 386q146 196 374 196q182 0 264 -149l24 118h129l-131 -587q-20 -89 -20 -112q0 -73 102 -73q123 0 209 86q119 119 119 336q0 307 -279 497q-184 126 -445 126q-302 0 -507 -195
q-213 -202 -213 -527q0 -388 284 -585q176 -123 482 -123q203 0 363 66l41 -105q-163 -71 -406 -71q-259 0 -425 73q-217 95 -339 294q-121 197 -121 456q0 300 190 530q244 297 662 297q326 0 556 -183q148 -118 225 -288q53 -118 53 -265q0 -258 -148 -402
q-130 -127 -324 -127q-118 0 -168 49q-34 33 -44 94zM1047 1137q-171 0 -277 -182q-81 -139 -81 -304q0 -209 205 -209q186 0 286 173q39 68 65 168q16 61 16 110q0 244 -214 244z" />
    <glyph glyph-name="uniFF21" unicode="&#xff21;" 
d="M345 0l588 1544h184l586 -1544h-156l-153 412h-756l-156 -412h-137zM685 535h661l-327 878z" />
    <glyph glyph-name="uniFF22" unicode="&#xff22;" 
d="M485 0v1544h591q474 0 474 -369q0 -150 -76 -240q-44 -52 -121 -95q125 -40 190 -109q93 -100 93 -284q0 -447 -562 -447h-589zM628 125h426q426 0 426 325q0 314 -391 314h-461v-639zM628 889h405q363 0 363 266q0 150 -92 210q-81 54 -250 54h-426v-530z" />
    <glyph glyph-name="uniFF23" unicode="&#xff23;" 
d="M1660 1128l-143 -38q-42 153 -120 238q-117 128 -329 128q-266 0 -403 -211q-119 -182 -119 -491q0 -297 126 -473q138 -191 389 -191q246 0 375 171q76 101 103 261l148 -22q-113 -537 -631 -537q-270 0 -442 162q-224 211 -224 633q0 388 182 607q180 216 494 216
q495 0 594 -453z" />
    <glyph glyph-name="uniFF24" unicode="&#xff24;" 
d="M447 0v1544h464q746 0 746 -761q0 -783 -746 -783h-464zM590 129h332q304 0 452 187q129 162 129 462q0 637 -581 637h-332v-1286z" />
    <glyph glyph-name="uniFF25" unicode="&#xff25;" 
d="M526 0v1544h1036v-129h-893v-563h848v-129h-848v-594h926v-129h-1069z" />
    <glyph glyph-name="uniFF26" unicode="&#xff26;" 
d="M555 0v1544h1040v-129h-897v-549h809v-129h-809v-737h-143z" />
    <glyph glyph-name="uniFF27" unicode="&#xff27;" 
d="M1646 1159l-143 -39q-53 170 -161 255q-104 81 -288 81q-260 0 -397 -211q-119 -182 -119 -491q0 -303 124 -475q135 -189 384 -189q194 0 322 94q139 103 139 273v170h-250v127h393v-754h-92l-41 164q-187 -201 -473 -201q-270 0 -441 162q-221 210 -221 632
q0 389 182 608q180 216 495 216q478 0 587 -422z" />
    <glyph glyph-name="uniFF28" unicode="&#xff28;" 
d="M435 0v1544h143v-659h893v659h143v-1544h-143v756h-893v-756h-143z" />
    <glyph glyph-name="uniFF29" unicode="&#xff29;" 
d="M953 0v1544h143v-1544h-143z" />
    <glyph glyph-name="uniFF2A" unicode="&#xff2a;" 
d="M514 430l140 19q33 -361 323 -361q332 0 332 373v1083h143v-1073q0 -261 -134 -392q-119 -116 -330 -116q-228 0 -355 149q-98 116 -119 318z" />
    <glyph glyph-name="uniFF2B" unicode="&#xff2b;" 
d="M498 0v1544h143v-770l795 770h174l-607 -598l701 -946h-184l-619 844l-260 -250v-594h-143z" />
    <glyph glyph-name="uniFF2C" unicode="&#xff2c;" 
d="M583 0v1544h143v-1415h852v-129h-995z" />
    <glyph glyph-name="uniFF2D" unicode="&#xff2d;" 
d="M270 0v1544h249l496 -1390l531 1390h233v-1544h-139v1421l-541 -1421h-182l-508 1436v-1436h-139z" />
    <glyph glyph-name="uniFF2E" unicode="&#xff2e;" 
d="M442 0v1544h190l832 -1360v1360h143v-1544h-189l-833 1362v-1362h-143z" />
    <glyph glyph-name="uniFF2F" unicode="&#xff2f;" 
d="M1029 1581q323 0 509 -211q191 -216 191 -598q0 -381 -191 -597q-187 -212 -514 -212q-294 0 -478 173q-228 216 -228 636q0 383 190 598q188 211 521 211zM1019 1454q-256 0 -406 -200q-139 -184 -139 -482q0 -297 139 -483q150 -199 409 -199q236 0 383 164
q169 188 169 518q0 299 -140 482q-151 200 -415 200z" />
    <glyph glyph-name="uniFF30" unicode="&#xff30;" 
d="M526 0v1544h622q223 0 347 -123q120 -119 120 -333q0 -213 -134 -336q-137 -125 -374 -125h-438v-627h-143zM669 750h451q171 0 264 104q80 89 80 238q0 178 -118 265q-84 62 -220 62h-457v-669z" />
    <glyph glyph-name="uniFF31" unicode="&#xff31;" 
d="M1492 -236l-162 259q-145 -60 -306 -60q-328 0 -516 212q-190 216 -190 597q0 382 190 598q187 211 515 211q329 0 515 -211q191 -216 191 -598q0 -466 -284 -682l159 -254zM1256 141l-184 295l113 72l182 -293q207 194 207 556q0 299 -140 483q-150 200 -411 200
q-260 0 -410 -200q-139 -185 -139 -482t139 -483q150 -199 407 -199q125 0 236 51z" />
    <glyph glyph-name="uniFF32" unicode="&#xff32;" 
d="M487 0v1544h626q242 0 367 -117q121 -113 121 -321q0 -159 -89 -281q-72 -100 -202 -147l336 -678h-168l-309 651q-16 -2 -27 -2h-15h-16h-481v-649h-143zM630 774h467q352 0 352 331q0 314 -352 314h-467v-645z" />
    <glyph glyph-name="uniFF33" unicode="&#xff33;" 
d="M416 410l142 34q43 -153 105 -222q115 -130 352 -130q427 0 427 296q0 130 -78 203q-72 68 -223 97l-262 51q-418 82 -418 420q0 188 131 300q142 122 404 122q269 0 412 -117q112 -92 164 -272l-134 -43q-50 142 -126 209q-109 98 -316 98q-194 0 -295 -81
q-92 -73 -92 -208q0 -119 73 -188q73 -68 226 -98l299 -58q393 -76 393 -425q0 -197 -134 -308q-151 -127 -445 -127q-278 0 -428 128q-121 103 -177 319z" />
    <glyph glyph-name="uniFF34" unicode="&#xff34;" 
d="M952 0v1415h-561v129h1266v-129h-561v-1415h-144z" />
    <glyph glyph-name="uniFF35" unicode="&#xff35;" 
d="M447 1544h144v-952q0 -271 119 -393q105 -109 316 -109q209 0 314 109q117 122 117 393v952h143v-964q0 -617 -572 -617q-581 0 -581 617v964z" />
    <glyph glyph-name="uniFF36" unicode="&#xff36;" 
d="M933 0l-547 1544h152l491 -1415l490 1415h143l-553 -1544h-176z" />
    <glyph glyph-name="uniFF37" unicode="&#xff37;" 
d="M458 0l-387 1544h152l344 -1440l366 1440h172l359 -1429l364 1429h150l-408 -1544h-196l-355 1356l-366 -1356h-195z" />
    <glyph glyph-name="uniFF38" unicode="&#xff38;" 
d="M414 0l532 797l-495 747h164l411 -631l418 631h148l-492 -735l535 -809h-162l-455 692l-457 -692h-147z" />
    <glyph glyph-name="uniFF39" unicode="&#xff39;" 
d="M951 0v592l-539 952h158l458 -815l455 815h152l-541 -952v-592h-143z" />
    <glyph glyph-name="uniFF3A" unicode="&#xff3a;" 
d="M474 0v131l932 1284h-902v129h1061v-131l-931 -1284h948v-129h-1108z" />
    <glyph glyph-name="uniFF3B" unicode="&#xff3b;" 
d="M1401 -393v1937h383v-106h-242v-1725h242v-106h-383z" />
    <glyph glyph-name="uniFF3C" unicode="&#xff3c;" 
d="M1146 0l-362 1544h119l362 -1544h-119z" />
    <glyph glyph-name="uniFF3D" unicode="&#xff3d;" 
d="M259 -393v106h241v1725h-241v106h383v-1937h-383z" />
    <glyph glyph-name="uniFF3E" unicode="&#xff3e;" 
d="M1325 1405h-125l-176 205l-176 -205h-125l211 303h179z" />
    <glyph glyph-name="uniFF3F" unicode="&#xff3f;" 
d="M0 -148h2048v-98h-2048v98z" />
    <glyph glyph-name="uniFF40" unicode="&#xff40;" 
d="M1242 1403h-121l-329 305h196z" />
    <glyph glyph-name="uniFF41" unicode="&#xff41;" 
d="M1296 686v88q0 234 -262 234q-142 0 -215 -71q-50 -48 -82 -142l-117 30q89 293 422 293q203 0 301 -99q84 -85 84 -237v-598q0 -75 29 -184h-129q-1 2 -3 11q-1 3 -4 11q-15 39 -15 132q-91 -114 -184 -157q-71 -34 -205 -34q-140 0 -229 77q-99 86 -99 233
q0 178 115 270q84 68 247 92zM1296 573l-350 -55q-223 -35 -223 -239q0 -203 215 -203q128 0 222 62q136 90 136 257v178z" />
    <glyph glyph-name="uniFF42" unicode="&#xff42;" 
d="M709 152v-152h-131v1544h131v-639q130 213 377 213q211 0 327 -160q109 -150 109 -405q0 -264 -112 -418q-124 -172 -359 -172q-118 0 -203 50q-74 43 -139 139zM1055 1004q-175 0 -270 -151q-80 -126 -80 -325q0 -192 78 -311q90 -139 258 -139q342 0 342 458
q0 468 -328 468z" />
    <glyph glyph-name="uniFF43" unicode="&#xff43;" 
d="M1482 793l-131 -39q-31 120 -85 176q-73 76 -210 76q-168 0 -256 -137q-78 -120 -78 -328q0 -212 75 -327q88 -136 262 -136q172 0 250 124q37 57 58 148l127 -37q-103 -350 -431 -350q-214 0 -339 136q-141 153 -141 442q0 259 116 411q125 166 362 166q341 0 421 -325z
" />
    <glyph glyph-name="uniFF44" unicode="&#xff44;" 
d="M1340 926v618h131v-1544h-131v170q-129 -207 -375 -207q-191 0 -306 129q-132 147 -132 430q0 265 112 422q123 174 349 174q221 0 352 -192zM1001 1004q-156 0 -243 -114q-92 -120 -92 -352q0 -460 328 -460q160 0 253 122q97 127 97 347q0 195 -78 315
q-93 142 -265 142z" />
    <glyph glyph-name="uniFF45" unicode="&#xff45;" 
d="M1506 518h-819q6 -183 72 -292q89 -148 272 -148q161 0 249 100q43 49 83 156l123 -45q-37 -114 -109 -190q-127 -136 -344 -136q-211 0 -339 134q-146 154 -146 440q0 255 124 412q133 169 371 169q230 0 355 -149q110 -133 110 -348v-21v-22v-14v-14q0 -18 -2 -32z
M689 621h682q-1 154 -63 250q-89 139 -268 139q-187 0 -283 -157q-59 -97 -68 -232z" />
    <glyph glyph-name="uniFF46" unicode="&#xff46;" 
d="M933 0v973h-168v108h168v187q0 297 271 297q52 0 91 -6q9 -2 43 -6l6 -1l-12 -112q-66 8 -105 8q-86 0 -124 -48q-39 -48 -39 -151v-168h256v-108h-256v-973h-131z" />
    <glyph glyph-name="uniFF47" unicode="&#xff47;" 
d="M564 -166l114 45q32 -90 94 -133q79 -55 234 -55q139 0 212 45q52 33 81 81q41 69 41 214v162q-130 -211 -380 -211q-209 0 -324 148q-109 140 -109 394q0 266 112 421q124 173 354 173q224 0 347 -190v153h131v-1034q0 -270 -129 -379q-108 -92 -336 -92
q-361 0 -442 258zM997 1004q-153 0 -239 -112q-92 -120 -92 -352q0 -444 329 -444q159 0 252 115q97 121 97 341q0 223 -102 346q-88 106 -245 106z" />
    <glyph glyph-name="uniFF48" unicode="&#xff48;" 
d="M592 0v1544h131v-647q61 101 129 153q90 68 244 68q172 0 267 -101q93 -98 93 -265v-752h-131v717q0 284 -261 284q-165 0 -261 -151q-80 -128 -80 -309v-541h-131z" />
    <glyph glyph-name="uniFF49" unicode="&#xff49;" 
d="M958 0v1081h131v-1081h-131zM958 1335v209h131v-209h-131z" />
    <glyph glyph-name="uniFF4A" unicode="&#xff4a;" 
d="M692 -403l17 112q59 -14 117 -14q80 0 109 36q30 38 30 117v1233h131v-1269q0 -236 -228 -236h-15q-82 0 -161 21zM965 1337v207h131v-207h-131z" />
    <glyph glyph-name="uniFF4B" unicode="&#xff4b;" 
d="M657 0v1544h131v-932l502 469h168l-404 -379l465 -702h-161l-400 612l-170 -161v-451h-131z" />
    <glyph glyph-name="uniFF4C" unicode="&#xff4c;" 
d="M958 0v1544h131v-1544h-131z" />
    <glyph glyph-name="uniFF4D" unicode="&#xff4d;" 
d="M282 0v1081h131v-188q61 106 118 152q91 73 232 73q230 0 308 -225q57 104 122 153q94 72 237 72t232 -80q105 -95 105 -276v-762h-131v721q0 280 -233 280q-165 0 -254 -177q-60 -118 -60 -283v-541h-131v717q0 284 -232 284q-148 0 -237 -148q-76 -126 -76 -312v-541
h-131z" />
    <glyph glyph-name="uniFF4E" unicode="&#xff4e;" 
d="M592 0v1081h131v-188q61 105 125 153q97 72 247 72q170 0 268 -102q93 -98 93 -264v-752h-131v717q0 284 -261 284q-165 0 -261 -151q-80 -128 -80 -309v-541h-131z" />
    <glyph glyph-name="uniFF4F" unicode="&#xff4f;" 
d="M1028 1118q234 0 364 -164q120 -154 120 -413q0 -260 -120 -413q-130 -165 -366 -165q-217 0 -344 135q-145 154 -145 443q0 261 119 413q130 164 372 164zM1021 1006q-192 0 -282 -161q-63 -113 -63 -309q0 -203 79 -324q91 -136 268 -136q168 0 262 125q88 116 88 345
q0 203 -81 323q-92 137 -271 137z" />
    <glyph glyph-name="uniFF50" unicode="&#xff50;" 
d="M578 -393v1474h131v-174q129 211 376 211q211 0 328 -158q109 -147 109 -403q0 -265 -112 -420q-124 -174 -355 -174q-219 0 -346 191v-547h-131zM1051 1004q-173 0 -267 -149q-79 -127 -79 -325q0 -192 77 -312q90 -140 257 -140q145 0 232 90q112 116 112 370
q0 466 -332 466z" />
    <glyph glyph-name="uniFF51" unicode="&#xff51;" 
d="M1340 -393v565q-129 -209 -378 -209q-209 0 -326 158q-109 147 -109 403q0 266 112 421q125 173 354 173q218 0 347 -190v153h131v-1474h-131zM997 1004q-153 0 -239 -112q-92 -120 -92 -352q0 -462 328 -462q160 0 253 122q97 128 97 350q0 226 -105 351
q-87 103 -242 103z" />
    <glyph glyph-name="uniFF52" unicode="&#xff52;" 
d="M831 0v1081h131v-190q55 106 126 158q61 45 155 45q57 0 106 -13l-14 -114q-35 12 -90 12q-130 0 -200 -94q-83 -111 -83 -330v-555h-131z" />
    <glyph glyph-name="uniFF53" unicode="&#xff53;" 
d="M577 297l121 31q34 -119 82 -171q78 -83 237 -83q132 0 208 51q75 52 75 149q0 84 -48 131q-45 44 -142 64l-191 39q-301 62 -301 303q0 142 113 228q104 79 280 79q330 0 414 -293l-117 -32q-39 119 -119 172q-68 45 -188 45q-254 0 -254 -193q0 -79 48 -124
q49 -45 163 -68l207 -41q270 -54 270 -308q0 -153 -122 -238q-107 -75 -291 -75q-208 0 -321 103q-81 73 -124 231z" />
    <glyph glyph-name="uniFF54" unicode="&#xff54;" 
d="M910 973h-148v108h148v308h131v-308h235v-108h-235v-721q0 -87 33 -122q28 -30 102 -30q59 0 111 9l10 -117q-109 -12 -170 -12q-217 0 -217 237v756z" />
    <glyph glyph-name="uniFF55" unicode="&#xff55;" 
d="M592 1081h131v-716q0 -129 58 -202q67 -85 200 -85q167 0 263 153q81 128 81 308v542h131v-1081h-131v190q-60 -106 -126 -154q-98 -73 -250 -73q-130 0 -220 64q-137 97 -137 303v751z" />
    <glyph glyph-name="uniFF56" unicode="&#xff56;" 
d="M924 0l-377 1081h137l342 -987l346 987h129l-381 -1081h-196z" />
    <glyph glyph-name="uniFF57" unicode="&#xff57;" 
d="M583 0l-307 1081h139l269 -997l262 997h166l262 -997l270 997h129l-307 -1081h-193l-247 954l-248 -954h-195z" />
    <glyph glyph-name="uniFF58" unicode="&#xff58;" 
d="M591 0l360 557l-337 524h147l264 -415l266 415h138l-336 -516l364 -565h-147l-291 459l-295 -459h-133z" />
    <glyph glyph-name="uniFF59" unicode="&#xff59;" 
d="M592 -399l25 110q68 -18 119 -18q77 0 121 43q32 32 59 100l66 170l-453 1075h141l377 -901l340 901h131l-489 -1296q-79 -209 -264 -209h-12q-80 0 -161 25z" />
    <glyph glyph-name="uniFF5A" unicode="&#xff5a;" 
d="M624 0v106l631 867h-604v108h750v-106l-633 -866h655v-109h-799z" />
    <glyph glyph-name="uniFF5B" unicode="&#xff5b;" 
d="M1315 590v107q89 15 127 38q78 45 78 156v492q0 143 80 196q51 33 156 33h160v-106h-125q-83 0 -113 -51q-21 -38 -21 -132v-462q0 -190 -165 -218q165 -24 165 -217v-462q0 -108 31 -145q31 -38 103 -38h125v-106h-160q-115 0 -170 44q-66 53 -66 185v492
q0 126 -101 168q-38 15 -104 26z" />
    <glyph glyph-name="uniFF5C" unicode="&#xff5c;" 
d="M999 0v1544h117v-1544h-117z" />
    <glyph glyph-name="uniFF5D" unicode="&#xff5d;" 
d="M129 -325v106h124q89 0 116 59q18 38 18 124v462q0 191 165 217q-165 28 -165 218v462q0 108 -31 145q-32 38 -103 38h-124v106h159q131 0 185 -58q51 -55 51 -171v-492q0 -115 84 -160q37 -20 121 -34v-107q-102 -17 -142 -46q-63 -44 -63 -148v-492q0 -142 -80 -195
q-51 -34 -156 -34h-159z" />
    <glyph glyph-name="uniFF5E" unicode="&#xff5e;" 
d="M141 714q50 89 126 154q142 121 291 121q112 0 339 -103q282 -129 374 -159q113 -37 175 -37q131 0 248 101q46 40 116 137l91 -57q-48 -87 -123 -150q-162 -135 -348 -135q-83 0 -219 52q-95 37 -427 186q-135 61 -225 61q-172 0 -334 -225z" />
    <glyph glyph-name="uniFFE0" unicode="&#xffe0;" 
d="M1227 1138q260 -79 318 -347h-145q-56 161 -207 219l-241 -901q54 -9 96 -9q175 0 283 119q56 62 86 164h142q-31 -144 -104 -234q-142 -174 -398 -174q-64 0 -137 13l-42 -155l-92 25l41 155q-101 36 -170 104q-167 160 -167 450q0 198 88 353q58 104 164 164
q140 79 314 79q38 0 77 -5l40 150l93 -25zM1100 1033q-22 3 -45 3q-194 0 -306 -123t-112 -345q0 -311 225 -424z" />
    <glyph glyph-name="uniFFE1" unicode="&#xffe1;" 
d="M442 809h175q-89 184 -89 335q0 164 130 286q70 66 190 101q95 28 199 28q175 0 311 -76q141 -79 187 -260q15 -60 15 -150h-133q-3 125 -52 207q-93 152 -329 152q-207 0 -303 -112q-74 -88 -74 -197q0 -104 46 -201q24 -50 60 -113h351v-109h-313q35 -110 35 -211
q0 -168 -125 -312q67 24 120 24q120 0 310 -55q53 -15 118 -15q128 0 262 77l75 -102q-183 -110 -348 -110q-69 0 -135 19l-173 51q-46 14 -117 14q-137 0 -295 -83l-66 104q102 55 155 124q96 123 96 264q0 88 -53 211h-230v109z" />
    <glyph glyph-name="uniFFE5" unicode="&#xffe5;" 
d="M381 1556h171l472 -763l473 763h171l-562 -894v-91h270v-98h-270v-129h270v-98h-270v-246h-160v246h-270v98h270v129h-270v98h270v91z" />
  </font>
</defs>
</svg>
