<?xml version="1.0" standalone="no"?>
<!DOCTYPE svg PUBLIC "-//W3C//DTD SVG 1.1//EN" "http://www.w3.org/Graphics/SVG/1.1/DTD/svg11.dtd" >
<svg xmlns="http://www.w3.org/2000/svg" xmlns:xlink="http://www.w3.org/1999/xlink" version="1.1">
<metadata>
Created by FontForge 20170731 at Wed Mar 20 11:32:48 2019
 By Aleksey,,,
</metadata>
<defs>
<font id="BMWTypeGlobal-Regular" horiz-adv-x="2048" vert-adv-y="2048" >
  <font-face 
    font-family="BMWTypeGlobal-Regular"
    font-weight="400"
    font-stretch="normal"
    units-per-em="2048"
    panose-1="2 0 5 3 0 0 0 0 0 0"
    ascent="1638"
    descent="-410"
    x-height="1081"
    cap-height="1544"
    bbox="-121 -424 2683 1814"
    underline-thickness="50"
    underline-position="-200"
    unicode-range="U+0020-FFE5"
  />
<missing-glyph horiz-adv-x="485" vert-adv-y="2457" 
d="M49 0v1544h387v-1544h-387zM387 49v1446h-289v-1446h289z" />
    <glyph glyph-name=".notdef" horiz-adv-x="485" vert-adv-y="2457" 
d="M49 0v1544h387v-1544h-387zM387 49v1446h-289v-1446h289z" />
    <glyph glyph-name=".null" horiz-adv-x="0" vert-adv-y="0" 
 />
    <glyph glyph-name="nonmarkingreturn" horiz-adv-x="682" 
 />
    <glyph glyph-name="space" unicode=" " horiz-adv-x="485" vert-adv-y="2457" 
 />
    <glyph glyph-name="exclam" unicode="!" horiz-adv-x="608" vert-adv-y="2457" 
d="M188 0v276h230v-276h-230zM221 518l-28 723v303h223v-303l-29 -723h-166z" />
    <glyph glyph-name="quotedbl" unicode="&#x22;" horiz-adv-x="938" vert-adv-y="2457" 
d="M197 905l-50 457v182h230v-182l-47 -457h-133zM610 905l-49 457v182h230v-182l-50 -457h-131z" />
    <glyph glyph-name="numbersign" unicode="#" horiz-adv-x="1446" vert-adv-y="2457" 
d="M236 0l94 383h-217v154h254l94 389h-215v153h252l94 381h153l-92 -381h310l94 381h153l-92 -381h213v-153h-250l-94 -389h211v-154h-248l-94 -383h-156l95 383h-310l-94 -383h-155zM522 537h309l95 389h-310z" />
    <glyph glyph-name="dollar" unicode="$" horiz-adv-x="1372" vert-adv-y="2457" 
d="M629 -190v157q-250 16 -385 136q-110 97 -166 305l184 45q37 -136 101 -205q93 -102 266 -121v580l-103 20q-206 40 -314 160q-93 102 -93 259q0 210 161 326q131 94 349 107v123h131v-123q235 -23 358 -143q90 -88 135 -240l-174 -61q-51 142 -121 203q-74 65 -198 81
v-555l125 -24q195 -38 286 -133q105 -110 105 -294q0 -212 -150 -329q-129 -101 -366 -117v-157h-131zM760 127q317 29 317 271q0 217 -260 272l-57 12v-555zM629 891v530q-318 -22 -318 -263q0 -211 273 -259z" />
    <glyph glyph-name="percent" unicode="%" horiz-adv-x="2017" vert-adv-y="2457" 
d="M549 -37l743 1534h172l-743 -1534h-172zM1583 885q359 0 359 -466q0 -456 -364 -456q-359 0 -359 463q0 459 364 459zM1576 748q-187 0 -187 -324t191 -324q192 0 192 322q0 326 -196 326zM437 1497q362 0 362 -467q0 -218 -89 -334q-93 -121 -274 -121q-362 0 -362 461
t363 461zM432 1360q-186 0 -186 -324q0 -323 189 -323q194 0 194 320q0 327 -197 327z" />
    <glyph glyph-name="ampersand" unicode="&#x26;" horiz-adv-x="1415" vert-adv-y="2457" 
d="M418 889q-97 114 -125 169q-41 81 -41 163q0 167 130 262q108 78 281 78q205 0 317 -123q77 -86 77 -208q0 -152 -131 -258q-83 -68 -232 -132l365 -432q79 96 194 299l144 -80q-96 -189 -234 -344l240 -283h-242l-131 156q-229 -193 -466 -193q-194 0 -330 105
q-166 128 -166 346q0 175 103 299q84 99 247 176zM928 279l-408 485q-139 -66 -203 -147q-61 -79 -61 -198q0 -126 94 -212q90 -82 224 -82q189 0 354 154zM588 952q110 44 178 89q117 79 117 191q0 89 -80 143q-63 42 -154 42q-99 0 -156 -52q-57 -51 -57 -137
q0 -124 149 -273l1 -1z" />
    <glyph glyph-name="quotesingle" unicode="'" horiz-adv-x="520" vert-adv-y="2457" 
d="M195 905l-50 457v182h230v-182l-49 -457h-131z" />
    <glyph glyph-name="parenleft" unicode="(" horiz-adv-x="604" vert-adv-y="2457" 
d="M424 -399q-344 403 -344 977q0 569 344 976l133 -81q-102 -147 -170 -330q-104 -280 -104 -564q0 -348 141 -660q59 -130 133 -234z" />
    <glyph glyph-name="parenright" unicode=")" horiz-adv-x="604" vert-adv-y="2457" 
d="M180 -399l-133 84q112 162 185 366q92 256 92 533q0 291 -114 581q-67 169 -163 308l133 81q344 -406 344 -974t-344 -979z" />
    <glyph glyph-name="asterisk" unicode="*" horiz-adv-x="1008" vert-adv-y="2457" 
d="M430 725l6 295l-254 -154l-71 123l256 146l-256 143l71 125l254 -154l-6 295h148l-7 -295l254 154l72 -125l-256 -143l256 -146l-72 -123l-254 154l7 -295h-148z" />
    <glyph glyph-name="plus" unicode="+" horiz-adv-x="1227" vert-adv-y="2457" 
d="M526 178v471h-460v164h460v471h174v-471h461v-164h-461v-471h-174z" />
    <glyph glyph-name="comma" unicode="," horiz-adv-x="520" vert-adv-y="2457" 
d="M180 -395l-82 82q70 73 99 123q47 78 47 163v27h-103v281h238v-267q0 -229 -199 -409z" />
    <glyph glyph-name="hyphen" unicode="-" horiz-adv-x="838" vert-adv-y="2457" 
d="M115 440v203h606v-203h-606z" />
    <glyph glyph-name="period" unicode="." horiz-adv-x="520" vert-adv-y="2457" 
d="M141 0v281h238v-281h-238z" />
    <glyph glyph-name="slash" unicode="/" horiz-adv-x="545" vert-adv-y="2457" 
d="M0 0l381 1544h164l-381 -1544h-164z" />
    <glyph glyph-name="zero" unicode="0" horiz-adv-x="1227" vert-adv-y="2457" 
d="M616 1544q531 0 531 -791q0 -790 -536 -790q-531 0 -531 790q0 791 536 791zM609 1382q-324 0 -324 -628q0 -629 328 -629q160 0 244 147q85 148 85 491q0 619 -333 619z" />
    <glyph glyph-name="one" unicode="1" horiz-adv-x="1227" vert-adv-y="2457" 
d="M629 0v1282q-153 -120 -338 -219l-80 145q253 143 432 299h181v-1507h-195z" />
    <glyph glyph-name="two" unicode="2" horiz-adv-x="1227" vert-adv-y="2457" 
d="M99 0v78q0 197 185 380q61 60 122 104q7 5 168 113q143 96 206 160q120 123 120 271q0 125 -76 201q-75 75 -210 75q-259 0 -326 -315l-191 35q44 179 134 284q138 158 397 158q283 0 410 -188q69 -102 69 -254q0 -218 -183 -384q-75 -69 -313 -229q-137 -92 -200 -159
q-71 -76 -93 -158h801v-172h-1020z" />
    <glyph glyph-name="three" unicode="3" horiz-adv-x="1227" vert-adv-y="2457" 
d="M85 416l192 22q29 -313 327 -313q146 0 231 64q98 74 98 215q0 181 -148 246q-87 38 -242 40v164q365 16 365 283q0 107 -57 170q-75 82 -232 82q-264 0 -313 -281l-189 27q76 409 512 409q251 0 377 -123q107 -104 107 -270q0 -267 -297 -375q323 -48 323 -366
q0 -191 -123 -314q-134 -133 -411 -133q-259 0 -393 135q-113 114 -127 318z" />
    <glyph glyph-name="four" unicode="4" horiz-adv-x="1227" vert-adv-y="2457" 
d="M783 0v334h-699v168l687 1005h202v-1018h170v-155h-170v-334h-190zM267 489h514v762z" />
    <glyph glyph-name="five" unicode="5" horiz-adv-x="1227" vert-adv-y="2457" 
d="M97 311l187 56q59 -244 308 -244q167 0 247 125q59 93 59 245q0 181 -94 277q-80 82 -211 82q-186 0 -289 -147l-160 24l131 778h779v-168h-635l-74 -434q118 101 301 101q180 0 304 -104q153 -128 153 -393q0 -253 -132 -397q-137 -149 -380 -149q-191 0 -312 81
q-79 52 -123 127q-31 53 -59 140z" />
    <glyph glyph-name="six" unicode="6" horiz-adv-x="1227" vert-adv-y="2457" 
d="M1105 1264l-180 -66q-71 188 -272 188q-163 0 -253 -138q-91 -141 -108 -466q119 199 384 199q206 0 329 -123q129 -129 129 -372q0 -236 -133 -375q-141 -148 -383 -148q-320 0 -449 250q-90 173 -90 488q0 447 174 661q148 182 410 182q341 0 442 -280zM622 825
q-153 0 -242 -106q-80 -97 -80 -253q0 -153 79 -249q85 -104 235 -104q130 0 215 81q102 98 102 280q0 164 -80 258q-80 93 -229 93z" />
    <glyph glyph-name="seven" unicode="7" horiz-adv-x="1227" vert-adv-y="2457" 
d="M322 0q76 381 222 692q135 289 396 639h-802v176h993v-196q-240 -315 -368 -592q-143 -306 -228 -719h-213z" />
    <glyph glyph-name="eight" unicode="8" horiz-adv-x="1227" vert-adv-y="2457" 
d="M319 782q-215 113 -215 345q0 184 124 295q136 122 384 122q250 0 386 -122q124 -111 124 -295q0 -232 -215 -345q264 -111 264 -380q0 -136 -78 -244q-139 -195 -482 -195q-246 0 -393 108q-163 119 -163 337q0 265 264 374zM605 705q-163 0 -255 -84q-86 -78 -86 -210
q0 -133 85 -210q91 -84 264 -84q156 0 247 69q103 78 103 226q0 147 -108 227q-89 66 -250 66zM605 1393q-146 0 -227 -78q-75 -71 -75 -195q0 -125 75 -196q81 -78 233 -78q148 0 233 72q80 69 80 206q0 133 -92 206q-80 63 -227 63z" />
    <glyph glyph-name="nine" unicode="9" horiz-adv-x="1227" vert-adv-y="2457" 
d="M128 227l174 72q68 -178 272 -178q132 0 217 89q127 131 144 517q-122 -203 -380 -203q-210 0 -333 127q-129 134 -129 370q0 235 131 374q141 149 389 149q302 0 435 -231q100 -173 100 -511q0 -438 -170 -655q-144 -184 -403 -184q-353 0 -447 264zM608 1395
q-143 0 -229 -99q-83 -98 -83 -263t79 -258q81 -95 225 -95q148 0 239 100q85 94 85 267t-101 271q-80 77 -215 77z" />
    <glyph glyph-name="colon" unicode=":" horiz-adv-x="520" vert-adv-y="2457" 
d="M141 0v281h238v-281h-238zM141 801v280h238v-280h-238z" />
    <glyph glyph-name="semicolon" unicode=";" horiz-adv-x="520" vert-adv-y="2457" 
d="M180 -395l-82 82q70 73 99 123q47 78 47 163v27h-103v281h238v-267q0 -229 -199 -409zM141 801v280h238v-280h-238z" />
    <glyph glyph-name="less" unicode="&#x3c;" horiz-adv-x="1227" vert-adv-y="2457" 
d="M1161 178l-1095 469v168l1095 469v-174l-878 -379l878 -379v-174z" />
    <glyph glyph-name="equal" unicode="=" horiz-adv-x="1227" vert-adv-y="2457" 
d="M66 412v168h1095v-168h-1095zM66 883v168h1095v-168h-1095z" />
    <glyph glyph-name="greater" unicode="&#x3e;" horiz-adv-x="1227" vert-adv-y="2457" 
d="M66 178v174l878 379l-878 379v174l1095 -469v-168z" />
    <glyph glyph-name="question" unicode="?" horiz-adv-x="1116" vert-adv-y="2457" 
d="M389 0v276h229v-276h-229zM410 502v143q0 95 40 134l4 4q3 4 4 4q1 1 2 3q10 13 29 26q7 5 15 13q18 17 116 79q101 65 142 123q49 69 49 159q0 235 -266 235q-181 0 -253 -127q-28 -51 -46 -131l-187 27q77 387 496 387q231 0 354 -114q107 -100 107 -270
q0 -180 -142 -311q-58 -53 -134 -100q-29 -18 -64 -47q-26 -20 -53 -52q-23 -27 -23 -85v-100h-190z" />
    <glyph glyph-name="at" unicode="@" horiz-adv-x="1909" vert-adv-y="2457" 
d="M1096 477q-123 -147 -313 -147q-153 0 -237 92q-79 87 -79 235q0 215 137 390q148 188 357 188q179 0 253 -133l23 102h172l-129 -569q-14 -62 -14 -95q0 -81 99 -81q147 0 231 129q71 109 71 276q0 233 -170 398q-209 202 -536 202q-317 0 -517 -194t-200 -506
q0 -380 280 -566q174 -116 461 -116q208 0 377 59l43 -129q-189 -65 -422 -65q-291 0 -485 103q-146 78 -244 208q-158 210 -158 507q0 314 189 540q244 292 680 292q370 0 622 -229q228 -208 228 -511q0 -235 -129 -380q-132 -149 -363 -149q-194 0 -227 149zM973 1098
q-129 0 -220 -120q-52 -70 -79 -169q-23 -81 -23 -145q0 -197 182 -197q163 0 253 160q71 126 71 259q0 212 -184 212z" />
    <glyph glyph-name="A" unicode="A" horiz-adv-x="1427" vert-adv-y="2457" 
d="M0 0l582 1544h264l581 -1544h-221l-137 379h-731l-139 -379h-199zM406 557h598l-297 815z" />
    <glyph glyph-name="B" unicode="B" horiz-adv-x="1442" vert-adv-y="2457" 
d="M152 0v1544h645q487 0 487 -378q0 -227 -197 -332q117 -40 180 -107q91 -99 91 -274q0 -453 -588 -453h-618zM356 172h402q381 0 381 282q0 176 -131 241q-76 38 -228 38h-424v-561zM356 905h389q322 0 322 235q0 133 -91 188q-74 44 -216 44h-404v-467z" />
    <glyph glyph-name="C" unicode="C" horiz-adv-x="1505" vert-adv-y="2457" 
d="M1415 1110l-209 -51q-39 137 -99 210q-110 134 -317 134q-239 0 -365 -189q-112 -168 -112 -462q0 -282 119 -442q126 -169 355 -169q166 0 282 93q121 96 156 315l213 -31q-52 -238 -168 -366q-173 -189 -488 -189q-282 0 -458 163q-228 210 -228 632q0 387 185 605
t515 218q501 0 619 -471z" />
    <glyph glyph-name="D" unicode="D" horiz-adv-x="1499" vert-adv-y="2457" 
d="M152 0v1544h487q383 0 573 -189q191 -191 191 -587q0 -376 -191 -572t-573 -196h-487zM360 178h289q277 0 414 171q121 150 121 429q0 588 -531 588h-293v-1188z" />
    <glyph glyph-name="E" unicode="E" horiz-adv-x="1337" vert-adv-y="2457" 
d="M152 0v1544h1073v-184h-865v-481h820v-185h-820v-510h900v-184h-1108z" />
    <glyph glyph-name="F" unicode="F" horiz-adv-x="1274" vert-adv-y="2457" 
d="M152 0v1544h1071v-184h-863v-475h775v-185h-775v-700h-208z" />
    <glyph glyph-name="G" unicode="G" horiz-adv-x="1528" vert-adv-y="2457" 
d="M1411 1139l-203 -52q-38 120 -88 181q-111 135 -332 135q-233 0 -360 -189q-115 -169 -115 -461q0 -280 119 -442q124 -168 354 -168q180 0 296 86q126 92 126 244v133h-250v172h457v-778h-135l-39 162q-172 -199 -469 -199q-275 0 -449 161q-227 210 -227 633
q0 386 187 606q187 218 518 218q490 0 610 -442z" />
    <glyph glyph-name="H" unicode="H" horiz-adv-x="1528" vert-adv-y="2457" 
d="M152 0v1544h208v-633h807v633h209v-1544h-209v723h-807v-723h-208z" />
    <glyph glyph-name="I" unicode="I" horiz-adv-x="510" vert-adv-y="2457" 
d="M152 0v1544h208v-1544h-208z" />
    <glyph glyph-name="J" unicode="J" horiz-adv-x="1178" vert-adv-y="2457" 
d="M55 444l201 23q34 -332 284 -332q289 0 289 354v1055h209v-1050q0 -531 -488 -531q-450 0 -495 481z" />
    <glyph glyph-name="K" unicode="K" horiz-adv-x="1407" vert-adv-y="2457" 
d="M152 0v1544h208v-715l717 715h256l-594 -596l676 -948h-270l-553 799l-232 -232v-567h-208z" />
    <glyph glyph-name="L" unicode="L" horiz-adv-x="1229" vert-adv-y="2457" 
d="M152 0v1544h208v-1360h830v-184h-1038z" />
    <glyph glyph-name="M" unicode="M" horiz-adv-x="1855" vert-adv-y="2457" 
d="M152 0v1544h319l453 -1321l471 1321h309v-1544h-199v1341l-481 -1341h-213l-461 1341v-1341h-198z" />
    <glyph glyph-name="N" unicode="N" horiz-adv-x="1511" vert-adv-y="2457" 
d="M152 0v1544h241l764 -1261v1261h203v-1544h-242l-764 1264v-1264h-202z" />
    <glyph glyph-name="O" unicode="O" horiz-adv-x="1636" vert-adv-y="2457" 
d="M823 1581q332 0 524 -213q193 -215 193 -596q0 -380 -193 -595q-193 -214 -529 -214q-302 0 -490 174q-232 216 -232 636q0 380 193 595q192 213 534 213zM813 1407q-236 0 -373 -182q-127 -170 -127 -453q0 -282 127 -453q137 -182 375 -182q219 0 353 150
q155 173 155 485q0 283 -128 453q-138 182 -382 182z" />
    <glyph glyph-name="P" unicode="P" horiz-adv-x="1358" vert-adv-y="2457" 
d="M152 0v1544h657q262 0 390 -157q97 -119 97 -315q0 -215 -143 -343q-143 -127 -385 -127h-412v-602h-204zM356 774h414q138 0 222 76q93 83 93 226q0 159 -103 236q-79 60 -206 60h-420v-598z" />
    <glyph glyph-name="Q" unicode="Q" horiz-adv-x="1636" vert-adv-y="2457" 
d="M1264 -250l-164 260q-133 -47 -283 -47q-335 0 -528 214q-193 215 -193 596q0 380 193 595q192 213 528 213q338 0 530 -213q193 -215 193 -596q0 -460 -287 -680l158 -248zM999 170l-180 285l146 96l182 -287q176 180 176 507q0 283 -128 454q-137 182 -378 182
q-240 0 -377 -182q-127 -170 -127 -453q0 -282 127 -453q137 -182 376 -182q94 0 183 33z" />
    <glyph glyph-name="R" unicode="R" horiz-adv-x="1434" vert-adv-y="2457" 
d="M152 0v1544h665q277 0 403 -149q95 -112 95 -302q0 -153 -81 -267q-73 -105 -202 -156l334 -670h-240l-301 635q-10 -2 -23 -2h-13h-13h-420v-633h-204zM356 805h420q322 0 322 287q0 280 -322 280h-420v-567z" />
    <glyph glyph-name="S" unicode="S" horiz-adv-x="1391" vert-adv-y="2457" 
d="M59 420l205 51q37 -144 102 -214q110 -118 333 -118q185 0 284 72q92 69 92 195q0 123 -76 183q-67 54 -206 79l-244 45q-449 83 -449 432q0 199 152 317q153 119 423 119q327 0 475 -163q82 -90 126 -236l-195 -64q-45 131 -116 196q-103 93 -296 93q-172 0 -264 -68
q-90 -66 -90 -184q0 -200 285 -252l279 -51q224 -41 325 -151q94 -104 94 -279q0 -210 -145 -329q-158 -130 -461 -130q-277 0 -433 119q-141 108 -200 338z" />
    <glyph glyph-name="T" unicode="T" horiz-adv-x="1391" vert-adv-y="2457" 
d="M590 0v1360h-547v184h1303v-184h-547v-1360h-209z" />
    <glyph glyph-name="U" unicode="U" horiz-adv-x="1485" vert-adv-y="2457" 
d="M139 1544h209v-956q0 -238 108 -348q96 -97 288 -97q391 0 391 445v956h208v-956q0 -286 -129 -441q-153 -184 -469 -184q-606 0 -606 625v956z" />
    <glyph glyph-name="V" unicode="V" horiz-adv-x="1343" vert-adv-y="2457" 
d="M541 0l-541 1544h219l457 -1349l454 1349h213l-544 -1544h-258z" />
    <glyph glyph-name="W" unicode="W" horiz-adv-x="1946" vert-adv-y="2457" 
d="M375 0l-375 1544h221l303 -1335l334 1335h227l324 -1335l320 1335h217l-398 -1544h-254l-325 1278l-340 -1278h-254z" />
    <glyph glyph-name="X" unicode="X" horiz-adv-x="1300" vert-adv-y="2457" 
d="M0 0l537 795l-498 749h233l381 -581l387 581h217l-493 -737l536 -807h-237l-418 639l-422 -639h-223z" />
    <glyph glyph-name="Y" unicode="Y" horiz-adv-x="1292" vert-adv-y="2457" 
d="M541 0v602l-541 942h225l430 -758l422 758h215l-540 -942v-602h-211z" />
    <glyph glyph-name="Z" unicode="Z" horiz-adv-x="1296" vert-adv-y="2457" 
d="M74 0v180l901 1180h-871v184h1108v-180l-901 -1180h918v-184h-1155z" />
    <glyph glyph-name="bracketleft" unicode="[" horiz-adv-x="655" vert-adv-y="2457" 
d="M152 -393v1937h440v-145h-250v-1647h250v-145h-440z" />
    <glyph glyph-name="backslash" unicode="\" horiz-adv-x="545" vert-adv-y="2457" 
d="M381 0l-381 1544h164l381 -1544h-164z" />
    <glyph glyph-name="bracketright" unicode="]" horiz-adv-x="655" vert-adv-y="2457" 
d="M66 -393v145h247v1647h-247v145h438v-1937h-438z" />
    <glyph glyph-name="asciicircum" unicode="^" horiz-adv-x="1245" vert-adv-y="2457" 
d="M119 797l418 747h172l417 -747h-190l-313 571l-314 -571h-190z" />
    <glyph glyph-name="underscore" unicode="_" horiz-adv-x="1024" vert-adv-y="2457" 
d="M0 -266v123h1024v-123h-1024z" />
    <glyph glyph-name="grave" unicode="`" horiz-adv-x="856" vert-adv-y="2457" 
d="M455 1272l-234 272h221l189 -272h-176z" />
    <glyph glyph-name="a" unicode="a" horiz-adv-x="1077" vert-adv-y="2457" 
d="M778 690v74q0 205 -237 205q-141 0 -207 -82q-31 -39 -53 -103l-172 45q82 289 441 289q419 0 419 -350v-567q0 -95 35 -201h-185q-21 62 -22 139q-75 -94 -160 -135q-83 -41 -214 -41q-153 0 -248 78q-103 85 -103 239q0 183 123 275q83 61 251 86zM778 549l-291 -45
q-129 -20 -184 -84q-41 -47 -41 -134q0 -85 55 -131q51 -44 140 -44q114 0 201 56q120 79 120 222v160z" />
    <glyph glyph-name="b" unicode="b" horiz-adv-x="1214" vert-adv-y="2457" 
d="M322 145l-5 -145h-186v1544h195v-622q120 196 361 196q210 0 328 -149q120 -152 120 -412q0 -263 -111 -417q-127 -177 -364 -177q-218 0 -338 182zM629 961q-149 0 -234 -130q-76 -115 -76 -301q0 -179 73 -288q83 -123 233 -123q117 0 193 69q114 104 114 351
q0 422 -303 422z" />
    <glyph glyph-name="c" unicode="c" horiz-adv-x="1094" vert-adv-y="2457" 
d="M1032 780l-188 -49q-30 112 -82 164q-64 66 -184 66q-145 0 -225 -119q-74 -109 -74 -302q0 -192 71 -298q78 -119 230 -119q222 0 278 250l186 -49q-103 -361 -462 -361q-230 0 -360 137q-142 149 -142 438q0 257 122 410q134 170 383 170q362 0 447 -338z" />
    <glyph glyph-name="d" unicode="d" horiz-adv-x="1212" vert-adv-y="2457" 
d="M887 940v604h194v-1544h-184l-4 160q-122 -197 -365 -197q-188 0 -304 120q-144 148 -144 437q0 263 109 420q124 178 355 178q216 0 343 -178zM584 961q-142 0 -221 -105q-82 -111 -82 -317q0 -420 302 -420q138 0 221 106q89 116 89 320q0 183 -72 292
q-82 124 -237 124z" />
    <glyph glyph-name="e" unicode="e" horiz-adv-x="1151" vert-adv-y="2457" 
d="M1079 496h-800q7 -127 40 -205q73 -170 279 -170q219 0 287 211l172 -64q-104 -305 -468 -305q-225 0 -358 135q-151 153 -151 440q0 259 125 413q136 167 385 167q266 0 392 -174q97 -132 97 -352v-96zM281 641h602q-16 328 -293 328q-271 0 -309 -328z" />
    <glyph glyph-name="f" unicode="f" horiz-adv-x="637" vert-adv-y="2457" 
d="M193 0v928h-158v153h158v168q0 142 69 226q74 90 230 90q72 0 172 -17l-15 -159q-66 8 -105 8q-157 0 -157 -180v-136h248v-153h-248v-928h-194z" />
    <glyph glyph-name="g" unicode="g" horiz-adv-x="1214" vert-adv-y="2457" 
d="M129 -215l156 96q44 -71 105 -103q74 -38 196 -38q172 0 248 92q55 67 55 236v122q-123 -194 -363 -194q-210 0 -326 137q-120 141 -120 401q0 262 109 412q124 172 361 172q227 0 341 -184l4 147h188v-1038q0 -467 -491 -467q-253 0 -380 105q-57 47 -83 104zM579 961
q-154 0 -233 -120q-65 -100 -65 -295q0 -392 300 -392q148 0 231 105q81 103 81 307q0 202 -94 307q-80 88 -220 88z" />
    <glyph glyph-name="h" unicode="h" horiz-adv-x="1182" vert-adv-y="2457" 
d="M131 0v1544h195v-626q123 200 366 200q178 0 274 -109q85 -98 85 -259v-750h-195v698q0 260 -228 260q-145 0 -228 -128q-74 -115 -74 -285v-545h-195z" />
    <glyph glyph-name="i" unicode="i" horiz-adv-x="477" vert-adv-y="2457" 
d="M141 0v1081h195v-1081h-195zM141 1315v229h195v-229h-195z" />
    <glyph glyph-name="j" unicode="j" horiz-adv-x="489" vert-adv-y="2457" 
d="M-121 -401l21 159q56 -14 118 -14q78 0 108 38q28 35 28 107v1192h194v-1231q0 -274 -264 -274h-16q-101 0 -189 23zM154 1317v227h194v-227h-194z" />
    <glyph glyph-name="k" unicode="k" horiz-adv-x="1071" vert-adv-y="2457" 
d="M131 0v1544h195v-895l456 432h234l-393 -370l450 -711h-227l-365 580l-155 -146v-434h-195z" />
    <glyph glyph-name="l" unicode="l" horiz-adv-x="477" vert-adv-y="2457" 
d="M141 0v1544h195v-1544h-195z" />
    <glyph glyph-name="m" unicode="m" horiz-adv-x="1796" vert-adv-y="2457" 
d="M131 0v1081h191l2 -172q108 209 338 209q237 0 307 -217q109 217 354 217q167 0 259 -104q83 -95 83 -256v-758h-195v698q0 260 -203 260q-128 0 -204 -128q-68 -115 -68 -285v-545h-194v698q0 132 -60 201q-52 59 -143 59q-128 0 -204 -128q-68 -115 -68 -285v-545h-195
z" />
    <glyph glyph-name="n" unicode="n" horiz-adv-x="1184" vert-adv-y="2457" 
d="M131 0v1081h191l4 -176q121 213 365 213q179 0 277 -109q85 -96 85 -259v-750h-195v698q0 260 -228 260q-145 0 -229 -128q-75 -115 -75 -285v-545h-195z" />
    <glyph glyph-name="o" unicode="o" horiz-adv-x="1192" vert-adv-y="2457" 
d="M600 1118q248 0 386 -166q126 -152 126 -411q0 -258 -126 -411q-138 -167 -389 -167q-230 0 -366 138q-151 155 -151 440q0 259 125 411q138 166 395 166zM589 961q-151 0 -235 -121q-75 -110 -75 -299q0 -192 75 -300q84 -120 242 -120q148 0 233 108q84 106 84 318
q0 213 -101 325q-80 89 -223 89z" />
    <glyph glyph-name="p" unicode="p" horiz-adv-x="1214" vert-adv-y="2457" 
d="M131 -393v1474h186l5 -161q124 198 367 198q229 0 351 -179q95 -141 95 -385q0 -258 -111 -413q-127 -178 -360 -178q-214 0 -338 178v-534h-195zM628 961q-150 0 -234 -129q-75 -115 -75 -300q0 -179 73 -289q81 -122 232 -122q115 0 192 69q116 103 116 356
q0 415 -304 415z" />
    <glyph glyph-name="q" unicode="q" horiz-adv-x="1214" vert-adv-y="2457" 
d="M889 -393v549q-125 -193 -363 -193q-207 0 -326 148q-120 149 -120 411q0 266 109 419q126 177 359 177q221 0 343 -184l4 147h188v-1474h-194zM581 961q-139 0 -218 -105q-82 -109 -82 -316q0 -199 72 -304q77 -115 228 -115q140 0 223 106q89 115 89 322q0 211 -95 320
q-81 92 -217 92z" />
    <glyph glyph-name="r" unicode="r" horiz-adv-x="711" vert-adv-y="2457" 
d="M131 0v1081h188l7 -190q90 203 274 203q57 0 111 -13l-19 -166q-43 13 -98 13q-139 0 -207 -109q-61 -98 -61 -272v-547h-195z" />
    <glyph glyph-name="s" unicode="s" horiz-adv-x="1053" vert-adv-y="2457" 
d="M45 287l182 49q22 -99 72 -149q73 -74 219 -74q250 0 250 172q0 131 -180 166l-176 34q-328 63 -328 315q0 155 129 242q113 76 302 76q349 0 443 -282l-174 -56q-35 101 -105 149q-62 42 -177 42q-226 0 -226 -163q0 -65 43 -103q43 -37 146 -58l215 -43
q289 -58 289 -315q0 -145 -111 -232q-120 -94 -334 -94q-392 0 -479 324z" />
    <glyph glyph-name="t" unicode="t" horiz-adv-x="694" vert-adv-y="2457" 
d="M199 928h-144v153h144v308h194v-308h234v-153h-234v-639q0 -94 40 -125q25 -19 88 -19q37 0 114 9l14 -158q-91 -16 -203 -16q-247 0 -247 268v680z" />
    <glyph glyph-name="u" unicode="u" horiz-adv-x="1182" vert-adv-y="2457" 
d="M131 1081h195v-710q0 -246 225 -246q146 0 229 127q76 115 76 283v546h195v-1081h-189l-6 178q-56 -99 -127 -151q-88 -64 -231 -64q-146 0 -241 74q-126 98 -126 297v747z" />
    <glyph glyph-name="v" unicode="v" horiz-adv-x="1014" vert-adv-y="2457" 
d="M381 0l-381 1081h205l305 -917l307 917h197l-383 -1081h-250z" />
    <glyph glyph-name="w" unicode="w" horiz-adv-x="1559" vert-adv-y="2457" 
d="M309 0l-309 1081h203l235 -927l238 927h217l235 -927l240 927h191l-310 -1081h-248l-221 879l-221 -879h-250z" />
    <glyph glyph-name="x" unicode="x" horiz-adv-x="969" vert-adv-y="2457" 
d="M0 0l379 555l-354 526h215l247 -376l252 376h201l-352 -516l381 -565h-217l-273 414l-276 -414h-203z" />
    <glyph glyph-name="y" unicode="y" horiz-adv-x="1063" vert-adv-y="2457" 
d="M74 -395l32 157q66 -22 128 -22q71 0 112 34q38 33 64 99l49 127l-459 1081h209l344 -848l313 848h197l-477 -1265q-40 -106 -92 -158q-82 -82 -224 -82h-11q-85 0 -185 29z" />
    <glyph glyph-name="z" unicode="z" horiz-adv-x="975" vert-adv-y="2457" 
d="M59 0v145l611 783h-582v153h807v-145l-614 -782h637v-154h-859z" />
    <glyph glyph-name="braceleft" unicode="{" horiz-adv-x="895" vert-adv-y="2457" 
d="M117 500v151q99 14 139 38q72 43 72 136v465q0 153 82 213q57 41 163 41h205v-145h-131q-81 0 -112 -50q-21 -34 -21 -114v-444q0 -141 -94 -190q-34 -17 -92 -26q186 -25 186 -217v-442q0 -94 31 -129t102 -35h131v-145h-205q-245 0 -245 254v463q0 117 -113 155
q-28 10 -98 21z" />
    <glyph glyph-name="bar" unicode="|" horiz-adv-x="489" vert-adv-y="2457" 
d="M184 0v1544h162v-1544h-162z" />
    <glyph glyph-name="braceright" unicode="}" horiz-adv-x="895" vert-adv-y="2457" 
d="M119 -393v145h129q89 0 116 55q17 34 17 109v442q0 191 188 217q-188 28 -188 216v444q0 91 -29 125q-33 39 -104 39h-129v145h205q245 0 245 -254v-465q0 -105 95 -147q39 -18 116 -27v-151q-82 -10 -123 -30q-88 -44 -88 -146v-463q0 -254 -245 -254h-205z" />
    <glyph glyph-name="asciitilde" unicode="~" horiz-adv-x="1468" vert-adv-y="2457" 
d="M672 584q-4 2 -17 16l-6 7l-5 5q-3 4 -12 13q-3 3 -4 3q-6 5 -7 7q-4 1 -11 10q-14 19 -59 50q-41 28 -93 28q-88 0 -135 -102q-28 -61 -51 -181l-149 39q71 402 338 402q118 0 231 -84q69 -51 99 -83q46 -49 61 -59q47 -43 74 -59q37 -21 82 -21q98 0 145 112
q26 62 43 169l152 -39q-72 -401 -335 -401q-177 0 -341 168z" />
    <glyph glyph-name="currency" unicode="&#xa4;" horiz-adv-x="1286" vert-adv-y="2457" 
d="M211 231l-109 109l117 117q-106 142 -106 317q0 176 106 318l-117 116l109 109l117 -117q142 105 314 105q174 0 316 -105l115 117l111 -109l-117 -116q107 -143 107 -318q0 -174 -107 -317l117 -117l-109 -109l-117 117q-144 -104 -315 -104t-315 104zM636 1149
q-145 0 -251 -110t-106 -265t106 -265t258 -110q144 0 251 104q112 108 112 275q0 173 -131 286q-100 85 -239 85z" />
    <glyph glyph-name="section" unicode="&#xa7;" horiz-adv-x="1137" vert-adv-y="2457" 
d="M74 90l180 60q44 -101 107 -151q78 -62 214 -62q261 0 261 176q0 135 -205 186l-203 51q-184 46 -266 123q-76 73 -76 189q0 195 219 292q-108 40 -161 101q-58 67 -58 179q0 167 135 256q114 75 317 75q237 0 362 -113q70 -63 110 -178l-174 -64q-32 85 -83 133
q-77 72 -220 72q-252 0 -252 -174q0 -69 54 -107q42 -30 142 -55l256 -65q187 -47 257 -144q44 -62 44 -160q0 -196 -221 -292q119 -48 174 -116t55 -184q0 -167 -141 -258q-120 -77 -333 -77q-385 0 -494 307zM618 479q84 10 145 53q85 59 85 148q0 138 -197 184l-143 33
q-94 -11 -161 -62q-73 -55 -73 -143q0 -73 48 -115t151 -65z" />
    <glyph glyph-name="dieresis" unicode="&#xa8;" horiz-adv-x="856" vert-adv-y="2457" 
d="M139 1295v229h183v-229h-183zM535 1295v229h182v-229h-182z" />
    <glyph glyph-name="degree" unicode="&#xb0;" horiz-adv-x="881" vert-adv-y="2457" 
d="M443 1565q146 0 251 -105t105 -254t-105 -252q-106 -104 -254 -104q-132 0 -233 86q-125 105 -125 270q0 149 104 254q105 105 257 105zM435 1434q-99 0 -163 -85q-47 -60 -47 -145q0 -91 64 -159q62 -66 151 -66q85 0 149 61q68 67 68 169q0 105 -81 174q-60 51 -141 51
z" />
    <glyph glyph-name="plusminus" unicode="&#xb1;" horiz-adv-x="1227" vert-adv-y="2457" 
d="M66 0v164h460v444h-460v164h460v471h174v-471h461v-164h-461v-444h461v-164h-1095z" />
    <glyph glyph-name="periodcentered" unicode="&#xb7;" vert-adv-y="2457" 
d="M1146 910l68 -72v-218l-70 -66h-222l-66 66v220l70 70h220z" />
    <glyph glyph-name="periodcentered" unicode="&#x30fb;" vert-adv-y="2457" 
d="M1146 910l68 -72v-218l-70 -66h-222l-66 66v220l70 70h220z" />
    <glyph glyph-name="multiply" unicode="&#xd7;" horiz-adv-x="1227" vert-adv-y="2457" 
d="M285 246l-123 112l340 373l-340 373l123 113l329 -363l332 363l123 -113l-340 -373l340 -373l-123 -112l-332 362z" />
    <glyph glyph-name="divide" unicode="&#xf7;" horiz-adv-x="1227" vert-adv-y="2457" 
d="M506 209v246h215v-246h-215zM66 647v168h1095v-168h-1095zM506 1008v245h215v-245h-215z" />
    <glyph glyph-name="caron" unicode="&#x2c7;" horiz-adv-x="856" vert-adv-y="2457" 
d="M328 1272l-248 272h184l164 -160l164 160h184l-248 -272h-200z" />
    <glyph glyph-name="uni02C9" unicode="&#x2c9;" horiz-adv-x="856" vert-adv-y="2457" 
d="M150 1327v146h555v-146h-555z" />
    <glyph glyph-name="emdash" unicode="&#x2014;" vert-adv-y="2457" 
d="M0 500v166h2048v-166h-2048z" />
    <glyph glyph-name="uni2016" unicode="&#x2016;" horiz-adv-x="645" vert-adv-y="2457" 
d="M137 0v1413h135v-1413h-135zM373 0v1413h135v-1413h-135z" />
    <glyph glyph-name="quoteleft" unicode="&#x2018;" horiz-adv-x="520" vert-adv-y="2457" 
d="M141 911v256q0 141 68 251q39 64 129 145l78 -84q-67 -64 -99 -114q-41 -65 -41 -146v-27h103v-281h-238z" />
    <glyph glyph-name="quoteright" unicode="&#x2019;" horiz-adv-x="520" vert-adv-y="2457" 
d="M180 893l-76 84q71 71 98 117q42 68 42 143v27h-103v280h238v-256q0 -114 -41 -200q-47 -98 -158 -195z" />
    <glyph glyph-name="quotedblleft" unicode="&#x201c;" horiz-adv-x="938" vert-adv-y="2457" 
d="M141 911v256q0 141 68 251q39 64 129 145l78 -84q-67 -64 -99 -114q-41 -65 -41 -146v-27h103v-281h-238zM559 911v256q0 142 69 251q43 68 130 145l76 -84q-68 -65 -100 -117q-40 -64 -40 -143v-27h103v-281h-238z" />
    <glyph glyph-name="quotedblright" unicode="&#x201d;" horiz-adv-x="938" vert-adv-y="2457" 
d="M180 893l-76 84q71 71 98 117q42 68 42 143v27h-103v280h238v-256q0 -114 -41 -200q-47 -98 -158 -195zM600 893l-78 84q72 73 101 118q39 63 39 142v27h-103v280h238v-256q0 -142 -67 -248q-42 -68 -130 -147z" />
    <glyph glyph-name="ellipsis" unicode="&#x2026;" horiz-adv-x="1926" vert-adv-y="2457" 
d="M399 741q43 0 75 -23q53 -37 53 -105q0 -55 -36 -90q-37 -36 -92 -36q-54 0 -90 36t-36 91t38 93q35 34 88 34zM1525 741q43 0 75 -23q53 -37 53 -105q0 -55 -36 -90q-37 -36 -92 -36q-53 0 -90 36q-36 36 -36 91t38 93q36 34 88 34zM963 741q43 0 75 -23q53 -37 53 -105
q0 -55 -36 -90q-37 -36 -92 -36q-54 0 -90 36t-36 91t38 93q35 34 88 34z" />
    <glyph glyph-name="ellipsis" unicode="&#x22ef;" horiz-adv-x="1926" vert-adv-y="2457" 
d="M399 741q43 0 75 -23q53 -37 53 -105q0 -55 -36 -90q-37 -36 -92 -36q-54 0 -90 36t-36 91t38 93q35 34 88 34zM1525 741q43 0 75 -23q53 -37 53 -105q0 -55 -36 -90q-37 -36 -92 -36q-53 0 -90 36q-36 36 -36 91t38 93q36 34 88 34zM963 741q43 0 75 -23q53 -37 53 -105
q0 -55 -36 -90q-37 -36 -92 -36q-54 0 -90 36t-36 91t38 93q35 34 88 34z" />
    <glyph glyph-name="perthousand" unicode="&#x2030;" horiz-adv-x="2757" vert-adv-y="2457" 
d="M496 -37l745 1534h170l-743 -1534h-172zM1486 885q188 0 277 -142q72 -115 72 -324q0 -456 -359 -456q-352 0 -352 464q0 257 112 373q83 85 250 85zM1475 752q-185 0 -185 -326q0 -328 188 -328q189 0 189 326q0 328 -192 328zM2331 885q352 0 352 -465
q0 -457 -357 -457q-352 0 -352 463q0 459 357 459zM2324 752q-184 0 -184 -326q0 -328 188 -328q189 0 189 326q0 328 -193 328zM431 1497q353 0 353 -469q0 -252 -116 -368q-85 -85 -240 -85q-354 0 -354 461t357 461zM423 1364q-179 0 -179 -333q0 -152 41 -236
q42 -84 143 -84q93 0 141 76q47 74 47 255q0 185 -60 265q-43 57 -133 57z" />
    <glyph glyph-name="minute" unicode="&#x2032;" horiz-adv-x="630" vert-adv-y="2457" 
d="M453 1378l-145 -523h-117l110 523h152z" />
    <glyph glyph-name="second" unicode="&#x2033;" horiz-adv-x="903" vert-adv-y="2457" 
d="M453 1378l-145 -523h-117l110 523h152zM726 1378l-145 -523h-117l110 523h152z" />
    <glyph glyph-name="uni203B" unicode="&#x203b;" horiz-adv-x="1711" vert-adv-y="2457" 
d="M855 842l651 651l96 -96l-651 -650l651 -651l-96 -96l-651 651l-650 -651l-96 96l651 651l-651 650l96 96zM449 866q51 0 87 -40q31 -33 31 -80q0 -54 -40 -89q-34 -31 -80 -31q-53 0 -89 40q-31 33 -31 81q0 52 40 88q34 31 82 31zM1265 866q51 0 87 -40q31 -34 31 -80
q0 -53 -40 -89q-34 -31 -80 -31q-53 0 -89 40q-31 34 -31 81q0 52 40 88q34 31 82 31zM858 458q51 0 87 -40q31 -34 31 -80q0 -54 -40 -89q-34 -31 -80 -31q-54 0 -89 40q-31 34 -31 81q0 52 40 88q33 31 82 31zM858 1274q51 0 87 -40q31 -34 31 -80q0 -54 -40 -89
q-34 -31 -80 -31q-53 0 -89 40q-31 34 -31 81q0 52 40 88q34 31 82 31z" />
    <glyph glyph-name="uni2103" unicode="&#x2103;" horiz-adv-x="2092" vert-adv-y="2457" 
d="M366 1518q126 0 213 -96q75 -83 75 -197q0 -132 -96 -218q-83 -75 -197 -75q-132 0 -219 96q-74 82 -74 199q0 129 96 216q83 75 202 75zM357 1448q-87 0 -151 -71q-58 -65 -58 -152q0 -101 74 -168q61 -55 139 -55q84 0 145 61q68 67 68 163q0 99 -74 167
q-60 55 -143 55zM1969 1030h-196q-30 154 -107 226q-102 93 -295 93q-218 0 -336 -154q-134 -175 -134 -462q0 -277 130 -446q128 -166 356 -166q143 0 248 72q124 86 168 352h196q-68 -592 -610 -592q-292 0 -462 175q-216 222 -216 601q0 373 208 603q169 186 474 186
q486 0 576 -488z" />
    <glyph glyph-name="afii61352" unicode="&#x2116;" horiz-adv-x="2549" vert-adv-y="2457" 
d="M2026 1298q152 0 262 -109q109 -110 109 -265t-109 -263q-111 -108 -265 -108q-138 0 -243 89q-130 110 -130 282q0 155 109 265q108 109 267 109zM2018 1137q-91 0 -151 -79q-44 -57 -44 -136q0 -85 60 -149q58 -61 140 -61q79 0 138 57q64 62 64 158q0 98 -76 162
q-56 48 -131 48zM1650 184v184h747v-184h-747zM152 0v1544h241l764 -1261v1261h203v-1544h-242l-764 1264v-1264h-202z" />
    <glyph glyph-name="uni2160" unicode="&#x2160;" horiz-adv-x="569" vert-adv-y="2457" 
d="M398 1493v-1493h-193v1493h193z" />
    <glyph glyph-name="uni2161" unicode="&#x2161;" horiz-adv-x="979" vert-adv-y="2457" 
d="M807 1493v-1493h-193v1493h193zM398 1493v-1493h-193v1493h193z" />
    <glyph glyph-name="uni2162" unicode="&#x2162;" horiz-adv-x="1389" vert-adv-y="2457" 
d="M1217 1493v-1493h-193v1493h193zM808 1493v-1493h-193v1493h193zM398 1493v-1493h-193v1493h193z" />
    <glyph glyph-name="uni2163" unicode="&#x2163;" horiz-adv-x="1799" vert-adv-y="2457" 
d="M1237 0h-206l-537 1493h205l439 -1265l413 1265h203zM398 1493v-1493h-193v1493h193z" />
    <glyph glyph-name="uni2164" unicode="&#x2164;" horiz-adv-x="1366" vert-adv-y="2457" 
d="M803 0h-206l-536 1493h205l439 -1265l413 1265h203z" />
    <glyph glyph-name="uni2165" unicode="&#x2165;" horiz-adv-x="1799" vert-adv-y="2457" 
d="M820 0h-206l-536 1493h205l439 -1265l413 1265h203zM1434 1493h193v-1493h-193v1493z" />
    <glyph glyph-name="uni2166" unicode="&#x2166;" horiz-adv-x="2208" vert-adv-y="2457" 
d="M820 0h-206l-536 1493h205l439 -1265l413 1265h203zM1434 1493h193v-1493h-193v1493zM1844 1493h193v-1493h-193v1493z" />
    <glyph glyph-name="uni2167" unicode="&#x2167;" horiz-adv-x="2618" vert-adv-y="2457" 
d="M820 0h-206l-536 1493h205l439 -1265l413 1265h203zM1434 1493h193v-1493h-193v1493zM1844 1493h193v-1493h-193v1493zM2253 1493h193v-1493h-193v1493z" />
    <glyph glyph-name="uni2168" unicode="&#x2168;" horiz-adv-x="1836" vert-adv-y="2457" 
d="M1271 766l529 -766h-236l-406 623l-412 -623h-230l529 766l-496 727h231l383 -586l385 586h227zM398 1493v-1493h-193v1493h193z" />
    <glyph glyph-name="uni2169" unicode="&#x2169;" horiz-adv-x="1366" vert-adv-y="2457" 
d="M800 766l529 -766h-236l-406 623l-411 -623h-231l529 766l-496 727h231l383 -586l385 586h228z" />
    <glyph glyph-name="uni216A" unicode="&#x216a;" horiz-adv-x="1836" vert-adv-y="2457" 
d="M825 766l529 -766h-236l-406 623l-411 -623h-231l529 766l-496 727h231l383 -586l385 586h228zM1472 1493h193v-1493h-193v1493z" />
    <glyph glyph-name="uni216B" unicode="&#x216b;" horiz-adv-x="2246" vert-adv-y="2457" 
d="M825 766l529 -766h-236l-406 623l-411 -623h-231l529 766l-496 727h231l383 -586l385 586h228zM1472 1493h193v-1493h-193v1493zM1881 1493h193v-1493h-193v1493z" />
    <glyph glyph-name="arrowleft" unicode="&#x2190;" vert-adv-y="2457" 
d="M509 573l214 -214l-87 -87l-363 362l363 363l87 -87l-214 -214h1266v-123h-1266z" />
    <glyph glyph-name="arrowup" unicode="&#x2191;" vert-adv-y="2457" 
d="M1086 1266v-1266h-123v1266l-214 -214l-87 87l362 363l363 -363l-87 -87z" />
    <glyph glyph-name="arrowright" unicode="&#x2192;" vert-adv-y="2457" 
d="M273 575v123h1266l-214 214l87 87l363 -362l-363 -363l-87 87l214 214h-1266z" />
    <glyph glyph-name="arrowdown" unicode="&#x2193;" vert-adv-y="2457" 
d="M1086 236l214 214l87 -87l-363 -363l-362 363l87 87l214 -214v1266h123v-1266z" />
    <glyph glyph-name="element" unicode="&#x2208;" horiz-adv-x="1741" vert-adv-y="2457" 
d="M1468 484h-1034q10 -177 103 -263q89 -83 280 -83h651v-138h-626q-196 0 -291 40q-117 50 -196 173q-82 127 -82 349q0 328 220 473q83 55 208 67q44 4 141 4h626v-138h-651q-192 -1 -280 -83q-93 -86 -103 -264h1034v-137z" />
    <glyph glyph-name="product" unicode="&#x220f;" horiz-adv-x="1665" vert-adv-y="2457" 
d="M39 1504v52h1587v-52q-88 -3 -129 -23q-39 -19 -54 -58q-13 -36 -13 -124v-1221q0 -132 46 -169q41 -31 150 -35v-52h-626v52q87 3 128 23q40 18 55 58q14 37 14 123v1367h-728v-1367q0 -132 46 -169q41 -31 150 -35v-52h-626v52q88 3 129 23q40 19 54 58q14 36 14 123
v1221q0 133 -47 170q-41 31 -150 35z" />
    <glyph glyph-name="summation" unicode="&#x2211;" horiz-adv-x="1457" vert-adv-y="2457" 
d="M1261 1542l14 -326h-44q-35 132 -82 174q-64 58 -221 58h-535l552 -726l-594 -687h699q125 1 168 17q74 27 116 124q6 15 26 63q4 9 11 27h51q-55 -206 -88 -465q-67 19 -164 19h-981h-35h-18q-30 0 -101 -7l706 820l-706 924q116 -15 231 -15h995z" />
    <glyph glyph-name="radical" unicode="&#x221a;" horiz-adv-x="1563" vert-adv-y="2457" 
d="M637 -6l-379 788h-230v137h379l310 -629l706 1517l105 -51l-827 -1762h-64z" />
    <glyph glyph-name="proportional" unicode="&#x221d;" horiz-adv-x="1460" vert-adv-y="2457" 
d="M731 620q172 228 377 228q9 0 27 -1v-137q-11 1 -14 1q-136 0 -280 -167q108 -117 182 -149q49 -22 112 -22v-138q-215 -1 -404 231q-41 -50 -62 -73q-143 -157 -326 -157q-134 0 -218 91q-74 81 -74 212q0 150 97 234q86 75 203 75q198 0 380 -228zM624 543
q-41 38 -66 62q-116 106 -212 106q-77 0 -122 -48q-40 -42 -40 -121q0 -89 51 -133q43 -36 99 -36q126 0 267 147z" />
    <glyph glyph-name="infinity" unicode="&#x221e;" horiz-adv-x="1456" vert-adv-y="2457" 
d="M728 609q105 94 147 125q124 94 246 94q119 0 206 -89q80 -82 80 -198q0 -132 -101 -218q-81 -69 -185 -69q-122 0 -246 94q-41 31 -147 125q-106 -93 -148 -125q-123 -94 -245 -94q-120 0 -206 88q-80 83 -80 199q0 132 101 217q82 70 185 70q122 0 245 -94
q43 -32 148 -125zM801 541l18 -18q30 -31 73 -63q137 -102 228 -102q78 0 131 58q50 55 50 124q0 81 -64 138q-50 44 -118 44q-121 0 -277 -142q-15 -13 -29 -27l-7 -7l-2 -2l-1 -1l-1 -1zM655 541l-12 12q-173 169 -306 169q-79 0 -131 -57q-51 -55 -51 -124q0 -80 64 -137
q49 -44 117 -44q82 0 192 76q71 49 115 93l7 7q2 2 2 3q1 0 2 1z" />
    <glyph glyph-name="angle" unicode="&#x2220;" horiz-adv-x="1567" vert-adv-y="2457" 
d="M1104 934l65 -75l-787 -764h1049v-95h-1294z" />
    <glyph glyph-name="uni2225" unicode="&#x2225;" horiz-adv-x="997" vert-adv-y="2457" 
d="M724 0h-137v1369h137v-1369zM410 1369v-1369h-137v1369h137z" />
    <glyph glyph-name="logicaland" unicode="&#x2227;" horiz-adv-x="1423" vert-adv-y="2457" 
d="M785 1148l502 -1148h-179l-396 916l-396 -916h-179l502 1148h146z" />
    <glyph glyph-name="logicalor" unicode="&#x2228;" horiz-adv-x="1423" vert-adv-y="2457" 
d="M785 0h-146l-502 1148h179l396 -915l396 915h179z" />
    <glyph glyph-name="intersection" unicode="&#x2229;" horiz-adv-x="1228" vert-adv-y="2457" 
d="M1105 0h-143v557q-2 195 -9 253q-18 163 -126 243q-96 72 -213 72q-118 0 -214 -71q-101 -76 -123 -233q-12 -83 -12 -264v-557h-143v551q0 227 12 310q28 195 185 304q125 86 295 86q169 0 294 -86q157 -109 185 -304q12 -83 12 -310v-551z" />
    <glyph glyph-name="union" unicode="&#x222a;" horiz-adv-x="1229" vert-adv-y="2457" 
d="M1106 1251v-551q0 -226 -12 -310q-28 -195 -186 -304q-125 -86 -294 -86t-294 86q-158 109 -186 304q-12 83 -12 310v551h135v-557q2 -193 12 -261q22 -156 127 -231q98 -71 218 -71t218 71q113 81 130 241q9 86 9 251v557h135z" />
    <glyph glyph-name="integral" unicode="&#x222b;" horiz-adv-x="1264" vert-adv-y="2457" 
d="M975 1814q91 0 163 -43q57 -35 57 -91q0 -38 -31 -60q-24 -16 -54 -16q-55 0 -97 71q-33 55 -58 73q-16 12 -49 12q-88 0 -112 -123q-13 -70 -58 -682q-63 -858 -99 -1003q-35 -141 -105 -208q-89 -87 -236 -87q-96 0 -170 43q-58 34 -58 91q0 41 31 65q24 19 54 19
q51 0 93 -78q30 -54 60 -74q18 -12 51 -12q89 0 112 123q9 48 38 567q39 691 105 1049q41 221 141 298q87 66 222 66z" />
    <glyph glyph-name="uni222E" unicode="&#x222e;" horiz-adv-x="1264" vert-adv-y="2457" 
d="M752 1158q40 -14 76 -35q99 -57 155 -155q57 -98 57 -212q0 -163 -109 -284q-97 -108 -245 -134l-2 -32q-25 -289 -59 -399q-78 -250 -329 -250q-96 0 -170 43q-58 34 -58 91q0 41 31 65q24 19 54 19q51 0 94 -78q29 -54 59 -74q18 -12 51 -12q89 0 112 123q10 48 28 379
l7 134q-53 14 -101 41q-99 58 -155 156q-57 98 -57 212q0 163 109 284q108 119 269 138q35 281 82 414q79 222 316 222q97 0 171 -43q57 -34 57 -91q0 -38 -31 -60q-24 -16 -54 -16q-55 0 -97 71q-32 55 -57 73q-17 12 -50 12q-61 0 -87 -47q-25 -45 -32 -129l-25 -294
l-5 -66zM744 1055l-4 -50l-4 -50l-26 -339l-7 -88l-8 -88q46 12 83 34q76 44 119 119q44 76 44 163q0 125 -84 217q-48 54 -113 82zM511 448l8 119q4 64 41 509q-58 -10 -107 -38q-76 -44 -119 -119q-44 -76 -44 -163q0 -125 84 -218q57 -63 137 -90z" />
    <glyph glyph-name="therefore" unicode="&#x2234;" horiz-adv-x="1907" vert-adv-y="2457" 
d="M956 1226q51 0 86 -33q38 -36 38 -93q0 -55 -36 -91q-37 -37 -90 -37q-54 0 -92 37q-36 35 -36 90q0 77 60 110q29 17 70 17zM403 254q51 0 86 -34q38 -38 38 -93t-36 -91t-90 -36q-55 0 -92 36q-36 35 -36 90q0 75 60 111q30 17 70 17zM1509 254q50 0 86 -34
q38 -38 38 -93t-36 -91q-37 -36 -90 -36q-54 0 -92 36q-36 35 -36 90q0 75 60 111q29 17 70 17z" />
    <glyph glyph-name="uni2235" unicode="&#x2235;" horiz-adv-x="1907" vert-adv-y="2457" 
d="M956 254q51 0 88 -37q36 -36 36 -90q0 -57 -38 -94q-34 -33 -87 -33q-45 0 -77 21q-52 36 -52 107q0 55 36 89q39 37 94 37zM403 1224q51 0 88 -36q36 -36 36 -91t-38 -93q-35 -34 -88 -34q-43 0 -75 23q-53 37 -53 104q0 56 36 91q38 36 94 36zM1508 1224q52 0 89 -36
q36 -36 36 -91t-38 -93q-35 -34 -87 -34q-44 0 -76 23q-53 37 -53 105q0 55 36 90q39 36 93 36z" />
    <glyph glyph-name="uni2236" unicode="&#x2236;" horiz-adv-x="1074" vert-adv-y="2457" 
d="M540 1226q51 0 86 -33q38 -36 38 -93q0 -55 -36 -91q-37 -37 -90 -37q-54 0 -92 37q-36 35 -36 90q0 77 60 110q30 17 70 17zM540 254q51 0 86 -34q38 -38 38 -93t-36 -91t-90 -36q-55 0 -92 36q-36 35 -36 90q0 75 60 111q30 17 70 17z" />
    <glyph glyph-name="uni2237" unicode="&#x2237;" horiz-adv-x="1790" vert-adv-y="2457" 
d="M403 254q51 0 86 -34q38 -38 38 -93t-36 -91t-90 -36q-55 0 -92 36q-36 35 -36 90q0 75 60 111q30 17 70 17zM1392 254q51 0 86 -34q38 -38 38 -93t-36 -91t-90 -36q-55 0 -92 36q-36 35 -36 90q0 75 61 111q29 17 69 17zM402 1226q52 0 87 -34q38 -38 38 -93
q0 -54 -36 -91q-36 -36 -90 -36q-55 0 -92 36q-36 36 -36 90q0 75 60 111q29 17 69 17zM1391 1226q52 0 87 -34q38 -38 38 -93q0 -54 -36 -91q-36 -36 -90 -36t-92 36q-36 35 -36 90q0 75 61 111q28 17 68 17z" />
    <glyph glyph-name="uni223D" unicode="&#x223d;" horiz-adv-x="1322" vert-adv-y="2457" 
d="M218 674q58 -66 87 -87q57 -44 129 -44q43 0 203 50q185 57 255 57q175 0 294 -172l-89 -70q-64 75 -98 99q-41 30 -104 30q-41 0 -101 -17q-15 -4 -129 -38q-120 -37 -144 -42q-43 -10 -89 -10q-200 0 -295 176z" />
    <glyph glyph-name="approxequal" unicode="&#x2248;" horiz-adv-x="1322" vert-adv-y="2457" 
d="M1104 616l82 -68q-96 -176 -295 -176q-52 0 -104 13q-15 3 -130 39q-124 37 -143 42q-47 13 -87 13q-63 0 -104 -30q-34 -24 -97 -99l-89 70q118 172 293 172q71 0 255 -57q161 -50 204 -50q72 0 129 44q29 21 86 87zM1104 896l82 -68q-96 -176 -295 -176q-52 0 -104 13
q-15 3 -130 39q-124 37 -143 42q-47 13 -86 13q-64 0 -105 -30q-33 -23 -97 -99l-89 69q118 173 293 173q71 0 255 -57q160 -50 204 -50q73 0 129 44q29 22 86 87z" />
    <glyph glyph-name="uni224C" unicode="&#x224c;" horiz-adv-x="1124" vert-adv-y="2457" 
d="M806 774q75 1 120 32q46 32 46 86q0 56 -42 94q-33 30 -76 30q-73 0 -159 -64q-38 -29 -111 -99q-178 -172 -321 -172q-97 0 -171 67q-69 63 -69 158q0 142 144 194q63 23 151 24v-97q-76 -1 -121 -32q-46 -32 -46 -86q0 -55 40 -92q31 -28 72 -28q92 0 205 98
q28 25 96 90q154 147 289 147q99 0 176 -69q71 -63 71 -159q0 -143 -144 -195q-62 -23 -151 -24zM1100 611v-113h-1077v113h1077zM1100 331v-113h-1077v113h1077z" />
    <glyph glyph-name="notequal" unicode="&#x2260;" horiz-adv-x="1227" vert-adv-y="2457" 
d="M207 147l145 265h-286v166h374l172 307h-546v166h634l146 264h174l-146 -264h287v-166h-375l-172 -307h547v-166h-635l-145 -265h-174z" />
    <glyph glyph-name="equivalence" unicode="&#x2261;" horiz-adv-x="1235" vert-adv-y="2457" 
d="M137 778v113h962v-113h-962zM137 611h962v-113h-962v113zM137 331h962v-113h-962v113z" />
    <glyph glyph-name="lessequal" unicode="&#x2264;" horiz-adv-x="1227" vert-adv-y="2457" 
d="M66 0v168h1095v-168h-1095zM1161 262l-1095 426v168l1095 426v-172l-878 -338l878 -336v-174z" />
    <glyph glyph-name="greaterequal" unicode="&#x2265;" horiz-adv-x="1227" vert-adv-y="2457" 
d="M66 0v168h1095v-168h-1095zM66 262v174l878 336l-878 338v172l1095 -426v-168z" />
    <glyph glyph-name="uni226E" unicode="&#x226e;" horiz-adv-x="1129" vert-adv-y="2457" 
d="M410 387l-273 150v118l502 274l107 252l98 -42l-54 -128l203 111v-144l-282 -153l-157 -373l439 -239v-144l-488 267l-130 -307l-99 41zM459 504l101 239l-270 -147z" />
    <glyph glyph-name="uni226F" unicode="&#x226f;" horiz-adv-x="1129" vert-adv-y="2457" 
d="M490 262l-115 -273l-99 41l63 150l-202 -111v144l281 153l158 373l-439 239v144l488 -266l121 285l98 -42l-125 -295l274 -149v-118zM569 448l271 148l-170 92z" />
    <glyph glyph-name="uni2299" unicode="&#x2299;" horiz-adv-x="1951" vert-adv-y="2457" 
d="M987 1412q179 0 339 -95q164 -97 257 -258q94 -163 94 -353q0 -189 -94 -353t-257 -258q-163 -95 -351 -95t-351 95q-164 94 -257 258q-94 165 -94 359q0 304 233 518q197 182 481 182zM965 1279q-244 0 -416 -190q-147 -163 -147 -383q0 -255 189 -426
q164 -147 383 -147q255 0 426 189q147 164 147 389q0 247 -190 420q-162 148 -392 148zM976 829q53 0 90 -41q32 -35 32 -82q0 -56 -41 -92q-35 -32 -83 -32q-55 0 -91 41q-32 35 -32 84q0 53 41 90q35 32 84 32z" />
    <glyph glyph-name="perpendicular" unicode="&#x22a5;" horiz-adv-x="1611" vert-adv-y="2457" 
d="M738 1338h137v-1201h600v-137h-1338v137h601v1201z" />
    <glyph glyph-name="uni2312" unicode="&#x2312;" horiz-adv-x="1955" vert-adv-y="2457" 
d="M1554 273q1 19 1 28q0 116 -63 241q-99 196 -304 275q-98 37 -204 37q-171 0 -314 -93q-215 -141 -256 -393q-7 -45 -7 -95h-134q0 209 115 386q125 192 339 275q122 47 254 47q207 0 381 -113q192 -124 273 -337q47 -122 46 -258h-127z" />
    <glyph glyph-name="uni2460" unicode="&#x2460;" vert-adv-y="2457" 
d="M983 901h-229v92q156 22 197 56q44 36 75 150h86v-1035h-129v737zM1008 1590q-224 0 -424 -118q-205 -121 -322 -322q-118 -203 -118 -439t118 -441q118 -204 322 -322t439 -118q236 0 441 118q205 119 322 322q117 205 117 447q0 380 -291 646q-249 227 -604 227z
M1041 1714q256 0 485 -135q234 -138 367 -367q134 -231 134 -501t-134 -503q-134 -232 -367 -367q-234 -135 -502 -135q-269 0 -502 135q-234 135 -368 367q-134 235 -134 510q0 433 333 737q283 259 688 259z" />
    <glyph glyph-name="uni2461" unicode="&#x2461;" vert-adv-y="2457" 
d="M1325 292v-128h-689q9 161 56 244q61 106 234 204l135 76q78 51 107 94q33 50 33 110q0 87 -62 142q-57 52 -142 52q-125 0 -178 -100q-26 -48 -31 -146h-129q8 359 343 359q144 0 234 -81q96 -87 96 -223q0 -193 -218 -311l-146 -80q-113 -69 -149 -117q-28 -38 -38 -95
h544zM1008 1590q-224 0 -425 -119q-205 -121 -321 -321q-118 -203 -118 -440t118 -441q117 -203 321 -321q205 -118 440 -118t440 118t321 321q118 205 118 447q0 381 -291 647q-249 227 -603 227zM1041 1714q256 0 485 -135q234 -138 367 -367q134 -231 134 -501t-134 -503
q-134 -232 -367 -367q-234 -135 -502 -135q-269 0 -502 135q-234 135 -368 367q-134 235 -134 510q0 433 333 737q283 259 688 259z" />
    <glyph glyph-name="uni2462" unicode="&#x2462;" vert-adv-y="2457" 
d="M926 639v109q120 0 171 21q83 35 83 141q0 88 -54 134q-50 42 -129 42q-127 0 -174 -92q-21 -42 -23 -130h-128q3 133 53 210q83 125 271 125q144 0 230 -74q85 -73 85 -211q0 -157 -145 -214q74 -26 112 -64q63 -64 63 -183q0 -150 -100 -239q-94 -84 -249 -84
q-217 0 -297 150q-37 68 -45 184h129q12 -220 218 -220q103 0 159 59q54 56 54 149q0 98 -64 147q-53 41 -120 41l-96 -1h-4zM1008 1590q-224 0 -425 -119q-205 -121 -321 -321q-118 -203 -118 -440q0 -236 118 -440q117 -204 321 -322t440 -118q235 0 440 118t321 322
q118 205 118 447q0 380 -291 646q-249 227 -603 227zM1041 1714q256 0 485 -135q234 -138 367 -367q134 -231 134 -501t-134 -503q-134 -232 -367 -367q-234 -135 -502 -135q-269 0 -502 135q-234 135 -368 367q-134 235 -134 510q0 433 333 737q283 259 688 259z" />
    <glyph glyph-name="uni2463" unicode="&#x2463;" vert-adv-y="2457" 
d="M1065 412h-436v135l469 651h96v-671h153v-115h-153v-248h-129v248zM1065 527v452l-324 -452h324zM1008 1589q-224 0 -425 -118q-204 -121 -321 -322q-118 -203 -118 -439t118 -440q118 -205 321 -322q204 -118 440 -118t440 118q205 118 322 322q118 206 118 447
q0 379 -292 645q-248 227 -603 227zM1041 1714q256 0 485 -135q234 -138 367 -367q134 -231 134 -501t-134 -503q-134 -232 -367 -367q-234 -135 -502 -135q-269 0 -502 135q-234 135 -368 367q-134 235 -134 510q0 433 333 737q283 259 688 259z" />
    <glyph glyph-name="uni2464" unicode="&#x2464;" vert-adv-y="2457" 
d="M1319 1199v-128h-431l-40 -288q87 62 193 62q142 0 236 -92q97 -96 97 -253q0 -150 -88 -253q-99 -117 -267 -117q-186 0 -281 123q-40 53 -62 164h129q43 -173 211 -173q113 0 173 71q54 65 54 168q0 116 -64 185q-59 63 -162 63q-110 0 -191 -96h-117l77 564h533z
M1008 1590q-222 0 -425 -120q-206 -122 -321 -320q-118 -202 -118 -440q0 -237 118 -441q117 -204 321 -321q204 -118 440 -118q235 0 440 118t321 321q118 205 118 448q0 381 -291 645q-252 228 -603 228zM1041 1714q256 0 485 -135q234 -138 367 -367q134 -231 134 -501
t-134 -503q-134 -232 -367 -367q-234 -135 -502 -135q-269 0 -502 135q-234 135 -368 367q-134 235 -134 510q0 433 333 737q283 259 688 259z" />
    <glyph glyph-name="uni2465" unicode="&#x2465;" vert-adv-y="2457" 
d="M1340 928h-128q-13 64 -48 102q-49 55 -127 55q-137 0 -197 -160q-32 -85 -33 -233q84 115 237 115q134 0 219 -82q98 -94 98 -246q0 -141 -85 -239q-94 -110 -253 -110q-347 0 -347 504q0 272 94 417q96 148 276 148q148 0 233 -113q46 -60 61 -158zM1026 693
q-97 0 -157 -65q-54 -60 -54 -152q0 -98 56 -162q61 -70 154 -70q99 0 158 76q47 61 47 151q0 89 -44 149q-52 73 -160 73zM1008 1590q-224 0 -425 -119q-205 -121 -321 -321q-118 -203 -118 -440q0 -236 118 -440q117 -204 321 -322t440 -118q235 0 440 118t321 322
q118 205 118 447q0 380 -291 646q-249 227 -603 227zM1041 1714q256 0 485 -135q234 -138 367 -367q134 -231 134 -501t-134 -503q-134 -232 -367 -367q-234 -135 -502 -135q-269 0 -502 135q-234 135 -368 367q-134 235 -134 510q0 433 333 737q283 259 688 259z" />
    <glyph glyph-name="uni2466" unicode="&#x2466;" vert-adv-y="2457" 
d="M1392 1199v-109q-171 -237 -255 -412q-114 -238 -165 -514h-137q63 258 136 420q93 205 288 487h-559v128h692zM1008 1590q-222 0 -425 -120q-206 -122 -321 -320q-118 -202 -118 -440q0 -237 118 -441q117 -204 321 -321q204 -118 440 -118q235 0 440 118t321 321
q118 205 118 448q0 381 -291 645q-252 228 -603 228zM1041 1714q256 0 485 -135q234 -138 367 -367q134 -231 134 -501t-134 -503q-134 -232 -367 -367q-234 -135 -502 -135q-269 0 -502 135q-234 135 -368 367q-134 235 -134 510q0 433 333 737q283 259 688 259z" />
    <glyph glyph-name="uni2467" unicode="&#x2467;" vert-adv-y="2457" 
d="M1191 708q178 -86 178 -258q0 -131 -86 -220q-96 -100 -262 -100q-165 0 -262 100q-85 88 -85 222q0 171 177 256q-68 43 -93 72q-48 57 -48 143q0 121 88 200q85 76 223 76t223 -76q88 -78 88 -202q0 -93 -56 -150q-25 -25 -85 -63zM1019 1085q-81 0 -129 -45
q-49 -45 -49 -119q0 -72 49 -118q48 -44 131 -44q84 0 132 44q48 45 48 118q0 76 -48 119q-50 45 -134 45zM1018 652q-90 0 -151 -55q-62 -56 -62 -150q0 -93 62 -149q60 -54 154 -54q95 0 154 54q63 57 63 149q0 95 -63 150q-62 55 -157 55zM1008 1590q-224 0 -425 -119
q-205 -121 -321 -321q-118 -203 -118 -440q0 -236 118 -440q117 -204 321 -322t440 -118q235 0 440 118t321 322q118 205 118 447q0 380 -291 646q-249 227 -603 227zM1041 1714q256 0 485 -135q234 -138 367 -367q134 -231 134 -501t-134 -503q-134 -232 -367 -367
q-234 -135 -502 -135q-269 0 -502 135q-234 135 -368 367q-134 235 -134 510q0 433 333 737q283 259 688 259z" />
    <glyph glyph-name="uni2468" unicode="&#x2468;" vert-adv-y="2457" 
d="M713 400h129q33 -156 174 -156q138 0 198 160q32 84 33 233q-98 -116 -237 -116q-134 0 -220 83q-98 94 -98 245q0 141 85 240q95 110 255 110q348 0 348 -506q0 -270 -94 -415q-97 -148 -278 -148q-148 0 -233 112q-46 60 -62 158zM1026 1086q-96 0 -155 -76
q-48 -62 -48 -152q0 -86 44 -149q52 -74 158 -74q100 0 161 68q54 60 54 150q0 98 -56 163q-62 70 -158 70zM1008 1590q-224 0 -425 -119q-205 -121 -321 -321q-118 -203 -118 -440q0 -236 118 -440q117 -204 321 -322t440 -118q235 0 440 118t321 322q118 205 118 447
q0 380 -291 646q-249 227 -603 227zM1041 1714q256 0 485 -135q234 -138 367 -367q134 -231 134 -501t-134 -503q-134 -232 -367 -367q-234 -135 -502 -135q-269 0 -502 135q-234 135 -368 367q-134 235 -134 510q0 433 333 737q283 259 688 259z" />
    <glyph glyph-name="uni2469" unicode="&#x2469;" vert-adv-y="2457" 
d="M1278 1199q148 0 232 -114q101 -136 101 -420q0 -285 -101 -421q-84 -114 -237 -114t-237 114q-101 136 -101 417q0 538 343 538zM1270 1085q-204 0 -204 -423q0 -426 207 -426t207 423q0 426 -210 426zM648 901h-229v92q82 11 121 20q83 20 117 90q17 35 34 96h86v-1035
h-129v737zM1009 1590q-224 0 -425 -118q-205 -121 -322 -322q-118 -203 -118 -439t118 -441q118 -204 322 -322q205 -118 440 -118q236 0 441 118q204 118 321 322q119 206 119 447q0 379 -292 646q-249 227 -604 227zM1041 1714q256 0 485 -135q234 -138 367 -367
q134 -231 134 -501t-134 -503q-134 -232 -367 -367q-234 -135 -502 -135q-269 0 -502 135q-234 135 -368 367q-134 235 -134 510q0 433 333 737q283 259 688 259z" />
    <glyph glyph-name="uni2474" unicode="&#x2474;" vert-adv-y="2457" 
d="M986 897h-229v92q155 22 197 56t76 150h85v-1035h-129v737zM335 1416h85q-210 -343 -210 -723q0 -378 210 -722h-85q-90 119 -156 276q-94 227 -94 446q0 237 110 483q61 135 140 240zM1712 -29h-85q210 337 210 722q0 384 -210 723h85q91 -119 156 -276q94 -226 94 -447
q0 -238 -109 -482q-61 -136 -141 -240z" />
    <glyph glyph-name="uni2475" unicode="&#x2475;" vert-adv-y="2457" 
d="M1351 289v-128h-689q9 161 56 244q61 107 234 204l135 77q78 51 106 94q33 50 33 110q0 87 -62 142q-58 52 -141 52q-196 0 -209 -247h-129q8 359 342 359q145 0 234 -81q96 -87 96 -223q0 -193 -217 -311l-146 -79q-113 -69 -149 -118q-28 -38 -38 -95h544zM335 1416h85
q-210 -343 -210 -723q0 -378 210 -722h-85q-90 119 -156 276q-94 227 -94 446q0 237 110 483q61 135 140 240zM1712 -29h-85q210 337 210 722q0 384 -210 723h85q91 -119 156 -276q94 -226 94 -447q0 -238 -109 -482q-61 -136 -141 -240z" />
    <glyph glyph-name="uni2476" unicode="&#x2476;" vert-adv-y="2457" 
d="M925 638v110q122 1 170 21q84 34 84 140q0 88 -55 135q-49 42 -128 42q-127 0 -174 -92q-22 -43 -23 -130h-128q6 334 324 334q145 0 229 -73q86 -75 86 -212q0 -157 -145 -214q75 -26 112 -64q64 -64 64 -183q0 -148 -100 -238q-94 -84 -250 -84q-320 0 -342 334h129
q10 -220 219 -220q104 0 159 58q54 58 54 150q0 99 -65 147q-55 41 -115 41l-102 -2h-3zM335 1416h85q-210 -343 -210 -723q0 -378 210 -722h-85q-90 119 -156 276q-94 227 -94 446q0 237 110 483q61 135 140 240zM1712 -29h-85q210 337 210 722q0 384 -210 723h85
q91 -119 156 -276q94 -226 94 -447q0 -238 -109 -482q-61 -136 -141 -240z" />
    <glyph glyph-name="uni2477" unicode="&#x2477;" vert-adv-y="2457" 
d="M1063 410h-437v135l470 651h96v-671h153v-115h-153v-249h-129v249zM1063 525v452l-324 -452h324zM335 1416h85q-210 -343 -210 -723q0 -378 210 -722h-85q-90 119 -156 276q-94 227 -94 446q0 237 110 483q61 135 140 240zM1712 -29h-85q210 337 210 722q0 384 -210 723
h85q91 -119 156 -276q94 -226 94 -447q0 -238 -109 -482q-61 -136 -141 -240z" />
    <glyph glyph-name="uni2478" unicode="&#x2478;" vert-adv-y="2457" 
d="M1319 1200v-127h-431l-40 -288q86 62 192 62q143 0 237 -92q97 -95 97 -253q0 -150 -87 -253q-99 -117 -268 -117q-186 0 -281 123q-40 54 -62 164h129q43 -173 211 -173q114 0 174 72q53 63 53 168q0 116 -64 184q-59 63 -162 63q-111 0 -191 -96h-117l77 563h533z
M335 1416h85q-210 -343 -210 -723q0 -378 210 -722h-85q-90 119 -156 276q-94 227 -94 446q0 237 110 483q61 135 140 240zM1712 -29h-85q210 337 210 722q0 384 -210 723h85q91 -119 156 -276q94 -226 94 -447q0 -238 -109 -482q-61 -136 -141 -240z" />
    <glyph glyph-name="uni2479" unicode="&#x2479;" vert-adv-y="2457" 
d="M1343 926h-129q-32 156 -173 156q-139 0 -199 -160q-31 -83 -33 -233q83 116 238 116q134 0 219 -82q98 -94 98 -247q0 -140 -85 -238q-94 -110 -253 -110q-348 0 -348 503q0 272 94 418q95 147 277 147q147 0 232 -112q48 -62 62 -158zM1029 691q-97 0 -157 -66
q-55 -59 -55 -151q0 -98 56 -162q62 -70 154 -70q100 0 159 76q47 60 47 150t-43 150q-53 73 -161 73zM335 1416h85q-210 -343 -210 -723q0 -378 210 -722h-85q-90 119 -156 276q-94 227 -94 446q0 237 110 483q61 135 140 240zM1712 -29h-85q210 337 210 722
q0 384 -210 723h85q91 -119 156 -276q94 -226 94 -447q0 -238 -109 -482q-61 -136 -141 -240z" />
    <glyph glyph-name="uni247A" unicode="&#x247a;" vert-adv-y="2457" 
d="M1352 1198v-108q-174 -242 -256 -412q-116 -243 -164 -515h-137q62 259 136 421q91 204 288 487h-559v127h692zM335 1416h85q-210 -343 -210 -723q0 -378 210 -722h-85q-90 119 -156 276q-94 227 -94 446q0 237 110 483q61 135 140 240zM1712 -29h-85q210 337 210 722
q0 384 -210 723h85q91 -119 156 -276q94 -226 94 -447q0 -238 -109 -482q-61 -136 -141 -240z" />
    <glyph glyph-name="uni247B" unicode="&#x247b;" vert-adv-y="2457" 
d="M1191 711q177 -88 177 -258q0 -132 -85 -220q-97 -101 -262 -101q-166 0 -263 101q-85 88 -85 220q0 171 178 258q-69 43 -93 71q-48 56 -48 143q0 122 88 200q84 76 223 76q138 0 223 -76q88 -78 88 -200q0 -94 -56 -152q-25 -25 -85 -62zM1018 1087q-81 0 -129 -44
q-48 -45 -48 -119t48 -118q49 -45 132 -45t131 45q49 45 49 118q0 74 -49 119q-48 44 -134 44zM1018 653q-92 0 -151 -53q-63 -58 -63 -150t63 -150q60 -54 154 -54t154 54q62 57 62 149q0 95 -62 151q-61 53 -157 53zM335 1416h85q-210 -343 -210 -723q0 -378 210 -722h-85
q-90 119 -156 276q-94 227 -94 446q0 237 110 483q61 135 140 240zM1712 -29h-85q210 337 210 722q0 384 -210 723h85q91 -119 156 -276q94 -226 94 -447q0 -238 -109 -482q-61 -136 -141 -240z" />
    <glyph glyph-name="uni247C" unicode="&#x247c;" vert-adv-y="2457" 
d="M714 401h128q32 -156 173 -156q139 0 199 159q32 84 33 233q-97 -115 -237 -115q-135 0 -220 82q-98 95 -98 246q0 141 85 240q94 109 254 109q349 0 349 -506q0 -269 -94 -414q-96 -148 -279 -148q-147 0 -232 112q-47 61 -61 158zM1026 1087q-96 0 -156 -77
q-47 -61 -47 -152q0 -86 44 -149q51 -73 157 -73q101 0 162 68q54 60 54 149q0 100 -57 163q-63 71 -157 71zM335 1416h85q-210 -343 -210 -723q0 -378 210 -722h-85q-90 119 -156 276q-94 227 -94 446q0 237 110 483q61 135 140 240zM1712 -29h-85q210 337 210 722
q0 384 -210 723h85q91 -119 156 -276q94 -226 94 -447q0 -238 -109 -482q-61 -136 -141 -240z" />
    <glyph glyph-name="uni247D" unicode="&#x247d;" vert-adv-y="2457" 
d="M1296 1196q149 0 233 -113q101 -137 101 -421q0 -534 -339 -534q-338 0 -338 530q0 538 343 538zM1288 1082q-204 0 -204 -422q0 -426 207 -426q208 0 208 422q0 426 -211 426zM693 898h-229v92q156 22 197 56q44 35 75 150h86v-1035h-129v737zM335 1418h85
q-210 -343 -210 -723q0 -378 210 -723h-85q-90 119 -156 277q-94 227 -94 446q0 237 110 483q61 135 140 240zM1712 -29h-85q210 337 210 722q0 384 -210 723h85q91 -119 156 -276q94 -226 94 -447q0 -238 -109 -482q-61 -136 -141 -240z" />
    <glyph glyph-name="uni247E" unicode="&#x247e;" vert-adv-y="2457" 
d="M801 901h-229v92q156 22 197 56q42 34 76 150h85v-1035h-129v737zM1276 901h-229v92q156 22 197 56q44 35 75 150h86v-1035h-129v737zM335 1416h85q-210 -343 -210 -723q0 -378 210 -722h-85q-90 119 -156 276q-94 227 -94 446q0 237 110 483q61 135 140 240zM1712 -29
h-85q210 337 210 722q0 384 -210 723h85q91 -119 156 -276q94 -226 94 -447q0 -238 -109 -482q-61 -136 -141 -240z" />
    <glyph glyph-name="uni247F" unicode="&#x247f;" vert-adv-y="2457" 
d="M1572 293v-128h-689q9 161 57 244q60 106 233 204l136 77q77 51 106 93q33 50 33 110q0 88 -62 143q-58 52 -142 52q-125 0 -178 -101q-25 -48 -31 -146h-128q8 359 342 359q144 0 234 -81q96 -87 96 -223q0 -193 -218 -311l-146 -79q-113 -69 -149 -118q-28 -38 -38 -95
h544zM641 902h-229v92q156 22 197 56q45 36 75 150h86v-1035h-129v737zM335 1416h85q-210 -343 -210 -723q0 -378 210 -722h-85q-90 119 -156 276q-94 227 -94 446q0 237 110 483q61 135 140 240zM1712 -29h-85q210 337 210 722q0 384 -210 723h85q91 -119 156 -276
q94 -226 94 -447q0 -238 -109 -482q-61 -136 -141 -240z" />
    <glyph glyph-name="uni2480" unicode="&#x2480;" vert-adv-y="2457" 
d="M1183 640v110q122 1 170 20q84 35 84 141q0 88 -55 135q-50 42 -128 42q-127 0 -174 -92q-21 -44 -23 -130h-128q2 131 53 210q82 124 271 124q144 0 229 -74q86 -74 86 -211q0 -157 -145 -214q75 -26 112 -64q64 -64 64 -183q0 -149 -100 -238q-96 -85 -251 -85
q-316 0 -341 335h129q10 -221 217 -221q104 0 161 59q54 57 54 150q0 99 -65 147q-56 41 -114 41l-103 -2h-3zM664 902h-229v92q156 22 197 56q44 35 75 150h86v-1035h-129v737zM335 1416h85q-210 -343 -210 -723q0 -378 210 -722h-85q-90 119 -156 276q-94 227 -94 446
q0 237 110 483q61 135 140 240zM1712 -29h-85q210 337 210 722q0 384 -210 723h85q91 -119 156 -276q94 -226 94 -447q0 -238 -109 -482q-61 -136 -141 -240z" />
    <glyph glyph-name="uni2481" unicode="&#x2481;" vert-adv-y="2457" 
d="M1307 409h-437v135l470 651h96v-671h153v-115h-153v-249h-129v249zM1307 524v452l-324 -452h324zM667 897h-229v92q156 22 197 56q42 34 75 150h86v-1035h-129v737zM335 1416h85q-210 -343 -210 -723q0 -378 210 -722h-85q-90 119 -156 276q-94 227 -94 446
q0 237 110 483q61 135 140 240zM1712 -29h-85q210 337 210 722q0 384 -210 723h85q91 -119 156 -276q94 -226 94 -447q0 -238 -109 -482q-61 -136 -141 -240z" />
    <glyph glyph-name="uni2482" unicode="&#x2482;" vert-adv-y="2457" 
d="M1563 1195v-127h-431l-40 -288q86 62 192 62q143 0 237 -92q96 -95 96 -254q0 -150 -87 -252q-99 -117 -268 -117q-186 0 -280 123q-39 51 -63 164h130q43 -173 210 -173q113 0 174 72q53 63 53 167q0 117 -64 185q-59 63 -161 63q-110 0 -192 -96h-117l78 563h533z
M663 897h-229v92q155 22 197 56q43 35 75 150h86v-1035h-129v737zM335 1416h85q-210 -343 -210 -723q0 -378 210 -722h-85q-90 119 -156 276q-94 227 -94 446q0 237 110 483q61 135 140 240zM1712 -29h-85q210 337 210 722q0 384 -210 723h85q91 -119 156 -276
q94 -226 94 -447q0 -238 -109 -482q-61 -136 -141 -240z" />
    <glyph glyph-name="uni2483" unicode="&#x2483;" vert-adv-y="2457" 
d="M1583 924h-128q-33 156 -173 156q-139 0 -199 -160q-32 -85 -33 -233q83 116 238 116q133 0 219 -82q98 -94 98 -246q0 -140 -85 -239q-94 -110 -254 -110q-347 0 -347 504q0 273 93 417q96 147 278 147q147 0 232 -112q46 -61 61 -158zM1269 689q-97 0 -157 -66
q-54 -58 -54 -151q0 -99 56 -162q61 -70 154 -70q100 0 159 76q47 61 47 151q0 88 -44 149q-53 73 -161 73zM650 896h-229v92q156 22 197 56q44 36 75 150h86v-1035h-129v737zM335 1416h85q-210 -343 -210 -723q0 -378 210 -722h-85q-90 119 -156 276q-94 227 -94 446
q0 237 110 483q61 135 140 240zM1712 -29h-85q210 337 210 722q0 384 -210 723h85q91 -119 156 -276q94 -226 94 -447q0 -238 -109 -482q-61 -136 -141 -240z" />
    <glyph glyph-name="uni2484" unicode="&#x2484;" vert-adv-y="2457" 
d="M1598 1195v-108q-174 -242 -256 -412q-114 -239 -164 -515h-137q64 262 136 421q87 195 288 487h-559v127h692zM671 897h-229v92q156 22 197 56q44 36 75 150h86v-1035h-129v737zM335 1416h85q-210 -343 -210 -723q0 -378 210 -722h-85q-90 119 -156 276q-94 227 -94 446
q0 237 110 483q61 135 140 240zM1712 -29h-85q210 337 210 722q0 384 -210 723h85q91 -119 156 -276q94 -226 94 -447q0 -238 -109 -482q-61 -136 -141 -240z" />
    <glyph glyph-name="uni2485" unicode="&#x2485;" vert-adv-y="2457" 
d="M1444 705q177 -87 177 -257q0 -133 -85 -221q-96 -100 -262 -100t-262 100q-86 88 -86 221q0 172 178 257q-67 41 -93 72q-47 55 -47 143q0 121 88 200q84 75 222 75q139 0 223 -75q88 -79 88 -201q0 -94 -56 -152q-26 -26 -85 -62zM1272 1081q-81 0 -128 -44
q-49 -46 -49 -119t49 -118q48 -45 130 -45q83 0 131 45q49 45 49 118q0 74 -49 119q-47 44 -133 44zM1270 635q-91 0 -150 -54q-63 -57 -63 -149t63 -150q58 -53 153 -53q96 0 155 53q62 57 62 149q0 95 -62 150q-61 54 -158 54zM680 897h-229v92q156 22 197 56
q44 35 75 150h86v-1035h-129v737zM335 1416h85q-210 -343 -210 -723q0 -378 210 -722h-85q-90 119 -156 276q-94 227 -94 446q0 237 110 483q61 135 140 240zM1712 -29h-85q210 337 210 722q0 384 -210 723h85q91 -119 156 -276q94 -226 94 -447q0 -238 -109 -482
q-61 -136 -141 -240z" />
    <glyph glyph-name="uni2486" unicode="&#x2486;" vert-adv-y="2457" 
d="M949 396h129q32 -156 173 -156q139 0 199 159q32 86 33 233q-96 -115 -237 -115q-134 0 -220 82q-98 94 -98 247q0 141 85 239q93 109 253 109q349 0 349 -505q0 -271 -94 -415q-96 -148 -278 -148q-147 0 -232 112q-46 61 -62 158zM1261 1082q-96 0 -155 -77
q-47 -60 -47 -152q0 -87 43 -148q52 -74 158 -74q100 0 161 68q54 60 54 149q0 100 -56 163q-64 71 -158 71zM667 896h-229v92q156 22 197 56q42 34 75 150h86v-1035h-129v737zM335 1416h85q-210 -343 -210 -723q0 -378 210 -722h-85q-90 119 -156 276q-94 227 -94 446
q0 237 110 483q61 135 140 240zM1712 -29h-85q210 337 210 722q0 384 -210 723h85q91 -119 156 -276q94 -226 94 -447q0 -238 -109 -482q-61 -136 -141 -240z" />
    <glyph glyph-name="uni2487" unicode="&#x2487;" vert-adv-y="2457" 
d="M1444 1195q149 0 233 -113q101 -137 101 -421q0 -534 -339 -534q-154 0 -237 113q-102 139 -102 418q0 537 344 537zM1436 1081q-205 0 -205 -422q0 -426 208 -426t208 422q0 426 -211 426zM1028 288v-128h-688q9 161 56 244q60 106 234 205l135 76q78 51 106 94
q34 51 34 111q0 85 -63 141q-57 52 -141 52q-126 0 -179 -101q-25 -48 -31 -145h-128q8 358 342 358q145 0 234 -80q97 -89 97 -222q0 -194 -218 -313l-146 -79q-114 -69 -149 -118q-29 -38 -38 -95h543zM335 1416h85q-210 -343 -210 -723q0 -378 210 -722h-85
q-90 119 -156 276q-94 227 -94 446q0 237 110 483q61 135 140 240zM1712 -29h-85q210 337 210 722q0 384 -210 723h85q91 -119 156 -276q94 -226 94 -447q0 -238 -109 -482q-61 -136 -141 -240z" />
    <glyph glyph-name="uni2488" unicode="&#x2488;" vert-adv-y="2457" 
d="M1002 903h-229v92q156 22 197 56q44 36 75 150h86v-1035h-129v737zM1353 325v-159h-160v159h160z" />
    <glyph glyph-name="uni2489" unicode="&#x2489;" vert-adv-y="2457" 
d="M1307 288v-128h-689q9 161 56 244q60 106 234 204l135 77q78 50 107 93q33 50 33 111q0 86 -62 141q-58 52 -142 52q-196 0 -209 -246h-129q11 359 342 359q145 0 235 -81q96 -87 96 -222q0 -193 -218 -312l-146 -80q-113 -68 -149 -117q-28 -37 -38 -95h544zM1531 319
v-159h-160v159h160z" />
    <glyph glyph-name="uni248A" unicode="&#x248a;" vert-adv-y="2457" 
d="M905 632v109q121 0 171 21q83 35 83 140q0 89 -54 135q-50 42 -129 42q-127 0 -173 -92q-23 -44 -23 -130h-129q7 335 325 335q143 0 229 -74q85 -73 85 -211q0 -157 -144 -215q74 -25 112 -63q64 -66 64 -184q0 -148 -101 -238q-94 -84 -249 -84q-218 0 -298 150
q-36 68 -45 184h129q14 -220 218 -220q106 0 161 59q54 57 54 149q0 98 -65 147q-53 41 -120 41l-97 -1h-4zM1505 316v-159h-160v159h160z" />
    <glyph glyph-name="uni248B" unicode="&#x248b;" vert-adv-y="2457" 
d="M1071 409h-436v135l469 651h96v-671h153v-115h-153v-249h-129v249zM1071 524v452l-324 -452h324zM1491 319v-159h-160v159h160z" />
    <glyph glyph-name="uni248C" unicode="&#x248c;" vert-adv-y="2457" 
d="M1284 1194v-128h-431l-41 -288q86 62 192 62q144 0 237 -92q97 -96 97 -252q0 -151 -88 -254q-98 -117 -267 -117q-186 0 -281 124q-39 51 -62 164h129q43 -174 211 -174q113 0 173 72q54 64 54 168q0 115 -64 184q-59 63 -162 63q-111 0 -191 -96h-117l77 564h534z
M1503 319v-160h-160v160h160z" />
    <glyph glyph-name="uni248D" unicode="&#x248d;" vert-adv-y="2457" 
d="M1308 923h-129q-32 157 -174 157q-138 0 -198 -160q-32 -86 -33 -233q85 116 239 116q131 0 218 -83q98 -94 98 -246q0 -140 -85 -239q-94 -110 -254 -110q-347 0 -347 503q0 273 94 418q96 148 276 148q148 0 233 -113q47 -61 62 -158zM993 689q-95 0 -157 -67
q-54 -58 -54 -151q0 -98 56 -162q61 -70 154 -70q100 0 159 76q47 61 47 151q0 89 -44 149q-53 74 -161 74zM1520 319v-160h-160v160h160z" />
    <glyph glyph-name="uni248E" unicode="&#x248e;" vert-adv-y="2457" 
d="M1395 1195v-109q-172 -236 -256 -412q-111 -233 -165 -514h-136q62 258 136 421q90 199 288 486h-559v128h692zM1421 319v-159h-160v159h160z" />
    <glyph glyph-name="uni248F" unicode="&#x248f;" vert-adv-y="2457" 
d="M1148 703q178 -86 178 -257q0 -132 -85 -221q-97 -100 -263 -100q-165 0 -262 100q-85 89 -85 221q0 171 177 257q-68 43 -93 72q-48 57 -48 143q0 121 88 200q85 76 223 76t223 -76q88 -79 88 -199q0 -95 -57 -153q-24 -26 -84 -63zM975 1080q-80 0 -128 -45
q-49 -45 -49 -118t49 -119q48 -44 131 -44t131 44q49 46 49 118q0 74 -49 119t-134 45zM975 647q-89 0 -150 -55q-63 -56 -63 -149t63 -150q59 -54 153 -54q95 0 155 54q62 56 62 149q0 95 -62 150q-63 55 -158 55zM1513 319v-160h-160v160h160z" />
    <glyph glyph-name="uni2490" unicode="&#x2490;" vert-adv-y="2457" 
d="M671 396h129q33 -156 174 -156q137 0 198 160q32 85 32 233q-94 -116 -236 -116q-134 0 -220 82q-98 95 -98 246q0 141 85 240q95 110 254 110q348 0 348 -505q0 -273 -94 -416q-96 -148 -278 -148q-147 0 -232 112q-46 61 -62 158zM984 1082q-96 0 -156 -77
q-47 -60 -47 -151q0 -87 44 -149q51 -74 157 -74q101 0 162 68q53 59 53 149q0 102 -55 164q-64 70 -158 70zM1499 319v-159h-160v159h160z" />
    <glyph glyph-name="uni2491" unicode="&#x2491;" vert-adv-y="2457" 
d="M590 896h-229v92q83 12 121 21q82 19 117 89q18 36 34 96h86v-1035h-129v737zM1737 319v-159h-160v159h160zM1216 1195q149 0 233 -114q103 -139 103 -421q0 -280 -103 -421q-83 -113 -237 -113q-337 0 -337 530q0 294 99 425q86 114 242 114zM1208 1081
q-202 0 -202 -422q0 -223 54 -330q50 -97 152 -97q209 0 209 423q0 426 -213 426z" />
    <glyph glyph-name="uni2492" unicode="&#x2492;" vert-adv-y="2457" 
d="M749 897h-229v92q156 22 197 56q44 36 75 150h86v-1035h-129v737zM1578 319v-159h-160v159h160zM1205 897h-230v92q157 22 198 56q44 36 75 150h86v-1035h-129v737z" />
    <glyph glyph-name="uni2493" unicode="&#x2493;" vert-adv-y="2457" 
d="M1516 288v-128h-689q10 162 56 244q60 106 234 204l135 77q146 90 146 206q0 82 -66 139q-59 52 -142 52q-201 0 -211 -246h-129q5 148 55 224q88 135 289 135q146 0 236 -81q99 -89 99 -220q0 -192 -224 -314l-146 -80q-114 -69 -149 -117q-29 -39 -38 -95h544zM573 897
h-229v92q83 12 121 20q82 19 117 90q18 37 34 96h86v-1035h-129v737zM1752 319v-159h-160v159h160z" />
    <glyph glyph-name="uni2494" unicode="&#x2494;" vert-adv-y="2457" 
d="M1092 635v109q123 0 173 21q87 36 87 139q0 88 -56 136q-49 42 -131 42q-129 0 -176 -92q-21 -42 -22 -130h-129q7 335 328 335q145 0 230 -74q87 -76 87 -210q0 -156 -151 -216q76 -26 114 -64q67 -66 67 -183q0 -147 -102 -238q-94 -84 -251 -84q-219 0 -299 150
q-36 68 -45 184h129q12 -220 221 -220q102 0 158 58q58 60 58 150q0 95 -68 147q-53 41 -119 41l-99 -1h-4zM582 896h-229v92q83 12 121 21q82 19 117 89q18 36 34 96h86v-1035h-129v737zM1743 319v-159h-160v159h160z" />
    <glyph glyph-name="uni2495" unicode="&#x2495;" vert-adv-y="2457" 
d="M1257 409h-437v135l470 651h96v-671h153v-115h-153v-249h-129v249zM1257 524v452l-324 -452h324zM618 897h-229v92q83 12 121 20q82 19 117 90q18 37 34 96h86v-1035h-129v737zM1709 319v-159h-160v159h160z" />
    <glyph glyph-name="uni2496" unicode="&#x2496;" vert-adv-y="2457" 
d="M1487 1195v-128h-431l-41 -288q88 62 195 62q143 0 237 -92q99 -97 99 -251q0 -150 -89 -255q-99 -117 -268 -117q-189 0 -284 124q-40 53 -62 164h129q43 -174 213 -174q114 0 174 72q56 66 56 168q0 113 -66 184q-59 63 -163 63q-113 0 -193 -96h-117l77 564h534z
M596 896h-229v92q83 12 121 21q82 19 117 89q18 36 34 96h86v-1035h-129v737zM1731 319v-159h-160v159h160z" />
    <glyph glyph-name="uni2497" unicode="&#x2497;" vert-adv-y="2457" 
d="M1500 924h-129q-12 63 -47 102q-50 55 -127 55q-137 0 -197 -160q-33 -87 -33 -234q82 116 239 116q134 0 220 -82q100 -95 100 -245q0 -139 -87 -240q-94 -110 -253 -110q-345 0 -345 502q0 200 39 311q48 135 144 201q81 55 183 55q146 0 232 -113q46 -61 61 -158z
M1189 689q-96 0 -157 -66q-52 -57 -52 -150q0 -101 54 -163q62 -70 154 -70q100 0 158 76q49 63 49 151q0 85 -45 149q-52 73 -161 73zM589 896h-229v92q83 12 121 21q82 19 117 89q18 36 34 96h86v-1035h-129v737zM1737 319v-159h-159v159h159z" />
    <glyph glyph-name="uni2498" unicode="&#x2498;" vert-adv-y="2457" 
d="M1567 1195v-109q-173 -240 -256 -412q-114 -239 -164 -514h-137q64 261 136 421q88 195 288 486h-559v128h692zM671 897h-229v92q83 12 121 20q82 19 117 90q18 36 34 96h86v-1035h-129v737zM1656 319v-159h-160v159h160z" />
    <glyph glyph-name="uni2499" unicode="&#x2499;" vert-adv-y="2457" 
d="M1347 704q184 -90 184 -256q0 -131 -88 -222q-95 -100 -262 -100q-164 0 -262 100q-83 85 -83 227q0 168 171 251q-62 38 -90 72q-45 56 -45 140q0 126 86 203q86 76 223 76q138 0 222 -76q90 -81 90 -194q0 -98 -59 -159q-20 -20 -87 -62zM1178 1081q-79 0 -128 -45
q-47 -42 -47 -119q0 -75 47 -118q50 -45 131 -45q82 0 131 45q50 47 50 118q0 73 -50 119q-49 45 -134 45zM1178 647q-90 0 -150 -54q-61 -54 -61 -150q0 -94 61 -149q60 -54 153 -54q96 0 154 54q65 59 65 149q0 92 -65 150q-59 54 -157 54zM576 896h-229v92q83 12 121 21
q82 19 117 89q18 36 34 96h86v-1035h-129v737zM1751 319v-159h-160v159h160z" />
    <glyph glyph-name="uni249A" unicode="&#x249a;" vert-adv-y="2457" 
d="M857 396h128q32 -156 174 -156q138 0 199 160q31 83 32 233q-95 -116 -234 -116q-133 0 -219 82q-96 93 -96 249q0 141 83 237q96 110 254 110q350 0 350 -509q0 -265 -97 -412q-98 -148 -280 -148q-148 0 -233 112q-46 61 -61 158zM1173 1082q-96 0 -156 -77
q-45 -58 -45 -152q0 -90 42 -148q54 -74 158 -74q101 0 161 68q55 61 55 150q0 97 -58 163q-61 70 -157 70zM580 896h-229v92q83 12 121 21q82 19 117 89q18 36 34 96h86v-1035h-129v737zM1746 319v-159h-160v159h160z" />
    <glyph glyph-name="uni249B" unicode="&#x249b;" vert-adv-y="2457" 
d="M1921 319v-159h-159v159h159zM1340 1195q148 0 233 -114q101 -136 101 -421q0 -534 -339 -534q-153 0 -237 113q-101 137 -101 418q0 538 343 538zM1332 1081q-204 0 -204 -422q0 -427 207 -427q208 0 208 423q0 426 -211 426zM917 288v-128h-689q8 159 56 244
q60 106 234 204l135 77q78 50 107 93q33 51 33 111q0 86 -62 141q-58 52 -142 52q-196 0 -209 -246h-129q10 359 342 359q144 0 234 -81q97 -87 97 -222q0 -193 -218 -312l-146 -80q-113 -68 -149 -117q-28 -37 -38 -95h544z" />
    <glyph glyph-name="filledbox" unicode="&#x25a0;" horiz-adv-x="1707" vert-adv-y="2457" 
d="M1434 1161v-1161h-1161v1161h1161z" />
    <glyph glyph-name="H22073" unicode="&#x25a1;" horiz-adv-x="1707" vert-adv-y="2457" 
d="M273 0v1161h1161v-1161h-1161zM1318 116v929h-929v-929h929z" />
    <glyph glyph-name="triagup" unicode="&#x25b2;" horiz-adv-x="1434" vert-adv-y="2457" 
d="M1298 0h-1161l580 1161z" />
    <glyph glyph-name="uni25B3" unicode="&#x25b3;" horiz-adv-x="1434" vert-adv-y="2457" 
d="M717 1161l581 -1161h-1161zM331 116h773l-387 773z" />
    <glyph glyph-name="uni25C6" unicode="&#x25c6;" horiz-adv-x="1434" vert-adv-y="2457" 
d="M1298 580l-581 -580l-580 580l580 581z" />
    <glyph glyph-name="uni25C7" unicode="&#x25c7;" vert-adv-y="2457" 
d="M1022 1642l922 -922l-922 -922l-922 922zM218 720l804 -804l804 804l-804 804z" />
    <glyph glyph-name="circle" unicode="&#x25cb;" horiz-adv-x="1707" vert-adv-y="2457" 
d="M864 1161q246 0 421 -192q149 -165 149 -388q0 -259 -192 -432q-165 -149 -388 -149q-259 0 -432 192q-149 165 -149 393q0 251 192 427q164 149 399 149zM846 1024q-188 0 -322 -147q-114 -126 -114 -296q0 -198 147 -330q126 -114 297 -114q197 0 329 147
q114 126 114 300q0 192 -147 326q-125 114 -304 114z" />
    <glyph glyph-name="uni25CE" unicode="&#x25ce;" vert-adv-y="2457" 
d="M1034 1634q371 0 646 -278q122 -123 190 -292q70 -171 70 -352q0 -237 -120 -450q-123 -219 -336 -340q-219 -124 -454 -124q-385 0 -666 283q-129 129 -193 295q-63 163 -63 333q0 252 122 467t334 336q213 122 470 122zM1016 1552q-205 0 -408 -116
q-197 -112 -304 -304q-110 -196 -110 -414t110 -414q110 -195 302 -308q188 -110 419 -110q218 0 411 110q192 110 306 308q112 195 112 410q0 221 -114 422q-111 196 -304 306t-420 110zM1026 1324q103 0 224 -45q173 -65 277 -220q103 -153 103 -330q0 -263 -186 -449
q-164 -166 -423 -166q-125 0 -225 42q-167 70 -275 224q-43 60 -78 171q-29 89 -29 159q0 256 189 445q82 82 193 124q121 45 230 45zM1019 1248q-134 0 -261 -74q-118 -69 -192 -194q-70 -118 -70 -257q0 -135 72 -267q69 -126 190 -198q118 -70 261 -70q221 0 383 165
q75 75 111 168q39 98 39 192q0 135 -74 269q-68 123 -192 194q-126 72 -267 72z" />
    <glyph glyph-name="H18533" unicode="&#x25cf;" horiz-adv-x="1707" vert-adv-y="2457" 
d="M864 1161q246 0 421 -192q149 -165 149 -388q0 -259 -192 -432q-165 -149 -388 -149q-259 0 -432 192q-149 165 -149 393q0 251 192 427q164 149 399 149z" />
    <glyph glyph-name="uni2605" unicode="&#x2605;" horiz-adv-x="1641" vert-adv-y="2457" 
d="M820 1486l162 -486h523l-423 -307l162 -496l-424 307l-423 -307l162 496l-422 307h522z" />
    <glyph glyph-name="uni2606" unicode="&#x2606;" vert-adv-y="2457" 
d="M1022 1652l220 -668h696l-564 -408l218 -668l-570 408l-572 -410l218 668l-564 410h698zM862 894h-490l396 -290l-158 -478l412 300l412 -298l-160 480l398 286h-492l-158 476z" />
    <glyph glyph-name="female" unicode="&#x2640;" horiz-adv-x="1501" vert-adv-y="2457" 
d="M799 628v-199h330v-88h-330v-341h-98v341h-334v88h334v199q-101 10 -189 61q-111 65 -175 175t-64 239q0 212 158 354q136 123 319 123q212 0 354 -158q123 -136 123 -319q0 -184 -123 -320q-124 -137 -305 -155zM743 1480q-160 0 -274 -125q-97 -108 -97 -253
q0 -168 125 -281q108 -97 253 -97q168 0 281 125q97 108 97 256q0 163 -125 278q-107 97 -260 97z" />
    <glyph glyph-name="male" unicode="&#x2642;" horiz-adv-x="1841" vert-adv-y="2457" 
d="M1336 1133q-3 1 -7 2q-60 14 -158 56q-22 10 -67 43q-22 16 -22 33q0 26 28 26q13 0 40 -6q85 -19 166 -19q119 0 186 21q32 10 47 10q19 0 19 -20q0 -9 -10 -46q-21 -76 -21 -191q0 -82 18 -169q6 -29 6 -40q0 -28 -25 -28t-52 53q-59 113 -80 204l-283 -284
q107 -134 107 -301q0 -197 -140 -337t-337 -140q-198 0 -338 140t-140 338q0 197 140 337q139 140 337 140q171 0 301 -107zM746 856q-151 0 -263 -111q-111 -110 -111 -267t111 -267q111 -111 268 -111q156 0 267 111t111 266q0 160 -111 268q-113 111 -272 111z" />
    <glyph glyph-name="uni3000" unicode="&#x3000;" vert-adv-y="2457" 
 />
    <glyph glyph-name="uni3001" unicode="&#x3001;" vert-adv-y="2457" 
d="M280 330q197 -202 330 -376l-168 -132q-79 130 -156 222q-72 87 -140 164z" />
    <glyph glyph-name="uni3002" unicode="&#x3002;" vert-adv-y="2457" 
d="M378 344q117 0 208 -103q54 -61 54 -178q0 -115 -95 -197q-67 -58 -160 -58q-141 0 -218 95q-59 73 -59 171q0 139 101 216q72 54 169 54zM374 218q-66 0 -111 -50q-27 -30 -27 -92q0 -53 26 -85q30 -38 51 -47q27 -12 64 -12q67 0 113 52q30 34 30 85q0 78 -53 118
q-41 31 -93 31z" />
    <glyph glyph-name="uni3003" unicode="&#x3003;" vert-adv-y="2457" 
d="M1022 1140l-278 -802l-160 22l228 806zM1200 1162l208 -30l-284 -804l-156 18z" />
    <glyph glyph-name="uni3005" unicode="&#x3005;" vert-adv-y="2457" 
d="M1454 1084l28 18l130 -128q-67 -95 -162 -220q-66 -90 -136 -176q-71 -86 -142 -178q46 -38 102 -81q42 -33 90 -73l-118 -146q-184 158 -302 243q-110 79 -270 177l94 134q151 -88 264 -160q164 209 314 428h-542q-159 -233 -246 -333q-64 -74 -230 -223
q-68 81 -146 136q233 193 366 384q167 240 290 518l194 -70q-60 -128 -128 -250h550z" />
    <glyph glyph-name="uni3008" unicode="&#x3008;" vert-adv-y="2457" 
d="M1920 1582l-432 -864l424 -876l-136 -66l-452 944l468 932z" />
    <glyph glyph-name="uni3009" unicode="&#x3009;" vert-adv-y="2457" 
d="M266 1670l458 -952l-466 -934l-140 70l438 864l-422 888z" />
    <glyph glyph-name="uni300A" unicode="&#x300a;" vert-adv-y="2457" 
d="M1470 1664l122 -64l-414 -886l402 -888l-128 -56l-428 948zM1846 1652l126 -62l-410 -872l396 -886l-126 -60l-426 946z" />
    <glyph glyph-name="uni300B" unicode="&#x300b;" vert-adv-y="2457" 
d="M594 1668l430 -948l-440 -942l-128 64l410 884l-398 882zM216 1668l432 -950l-438 -932l-128 62l404 874l-396 884z" />
    <glyph glyph-name="uni300C" unicode="&#x300c;" vert-adv-y="2457" 
d="M1918 1628v-168h-436v-1306h-174v1474h610z" />
    <glyph glyph-name="uni300D" unicode="&#x300d;" vert-adv-y="2457" 
d="M748 1278v-1474h-614v174h436v1300h178z" />
    <glyph glyph-name="uni300E" unicode="&#x300e;" vert-adv-y="2457" 
d="M1936 1650v-400h-284v-1228h-410v1628h694zM1382 1522v-1368h138v1230h290v138h-428z" />
    <glyph glyph-name="uni300F" unicode="&#x300f;" vert-adv-y="2457" 
d="M798 1418v-1630h-694v394h286v1236h408zM522 1288v-1234h-292v-138h430v1372h-138z" />
    <glyph glyph-name="uni3010" unicode="&#x3010;" vert-adv-y="2457" 
d="M1900 1644v-74q-158 -149 -220 -250q-176 -281 -176 -604q0 -199 72 -390q39 -102 103 -208q58 -94 223 -246v-74h-638v1846h636z" />
    <glyph glyph-name="uni3011" unicode="&#x3011;" vert-adv-y="2457" 
d="M784 1636v-1832h-644v68q167 160 230 269q158 272 158 573q0 212 -74 402q-39 100 -100 198q-57 93 -214 254v68h644z" />
    <glyph glyph-name="uni3013" unicode="&#x3013;" vert-adv-y="2457" 
d="M1944 1388v-310h-1844v310h1844zM1944 366v-312h-1844v312h1844z" />
    <glyph glyph-name="uni3014" unicode="&#x3014;" vert-adv-y="2457" 
d="M1864 1664l74 -148l-440 -226v-1152l422 -210l-74 -156l-520 264v1362z" />
    <glyph glyph-name="uni3015" unicode="&#x3015;" vert-adv-y="2457" 
d="M204 1662l512 -264v-1352l-522 -274l-74 152l430 226v1146l-422 220z" />
    <glyph glyph-name="uni3016" unicode="&#x3016;" vert-adv-y="2457" 
d="M1534 1270h-329v-1174h329q-39 42 -71 93q-144 228 -144 494q0 290 164 525q22 31 51 62zM1757 0h-648v1365h648q-85 -64 -149 -143q-192 -237 -192 -539q0 -342 236 -590q46 -48 105 -93z" />
    <glyph glyph-name="uni3017" unicode="&#x3017;" vert-adv-y="2457" 
d="M514 1270q39 -42 71 -93q144 -228 144 -494q0 -291 -164 -524q-23 -32 -51 -63h329v1174h-329zM290 0q341 271 341 683q0 411 -341 682h648v-1365h-648z" />
    <glyph glyph-name="uni3220" unicode="&#x3220;" vert-adv-y="2457" 
d="M397 1595q-163 -394 -163 -876q0 -255 51 -503q33 -158 110 -370h-143q-17 36 -64 169q-120 334 -120 711q0 463 186 869h143zM348 800q39 -2 59 -3q44 -3 60 -3h1101q17 0 63 3q20 1 62 3q-7 -54 -7 -80q0 -27 7 -81q-44 2 -65 3q-50 3 -66 3h-1092q-16 0 -63 -3
q-20 -1 -59 -3q6 54 6 80q0 27 -6 81zM1650 -154q164 395 164 876q0 255 -51 502q-33 158 -111 371h143q17 -35 65 -170q119 -333 119 -711q0 -464 -185 -868h-144z" />
    <glyph glyph-name="uni3221" unicode="&#x3221;" vert-adv-y="2457" 
d="M397 1595q-163 -394 -163 -876q0 -255 51 -503q33 -158 110 -370h-143q-17 36 -64 169q-120 334 -120 711q0 463 186 869h143zM377 194q7 56 7 85q0 28 -7 84q88 -1 132 -3q78 -2 98 -2h866q65 0 210 6q-4 -57 -4 -86q0 -28 4 -84q-172 6 -213 6h-863q-27 0 -109 -3
q-40 -1 -121 -3zM528 1080q3 46 3 71q0 31 -7 95q197 -5 236 -5h624q15 0 66 2q26 2 77 3q-6 -57 -6 -86q0 -27 5 -79q-43 1 -64 2q-74 3 -92 3h-659q-21 0 -89 -3q-31 -1 -94 -3zM1650 -154q164 395 164 876q0 255 -51 502q-33 158 -111 371h143q17 -35 65 -170
q119 -333 119 -711q0 -464 -185 -868h-144z" />
    <glyph glyph-name="uni3222" unicode="&#x3222;" vert-adv-y="2457" 
d="M397 1595q-163 -394 -163 -876q0 -255 51 -503q33 -158 110 -370h-143q-17 36 -64 169q-120 334 -120 711q0 463 186 869h143zM400 113q6 55 6 82q0 28 -6 82q71 -4 132 -4h981q63 0 143 4q-6 -54 -6 -81t7 -83q-120 4 -162 4h-956q-45 0 -139 -4zM465 1327q79 -4 128 -4
h845q77 0 149 4q-7 -52 -7 -78q0 -27 8 -81q-102 4 -141 4h-856q-42 0 -126 -5q5 53 5 80t-5 80zM563 656q6 56 6 83q0 26 -4 76q72 -5 118 -5h683q59 0 129 5q-6 -55 -6 -83q0 -25 5 -76q-69 5 -118 5h-699q-43 0 -114 -5zM1650 -154q164 395 164 876q0 255 -51 502
q-33 158 -111 371h143q17 -35 65 -170q119 -333 119 -711q0 -464 -185 -868h-144z" />
    <glyph glyph-name="uni3223" unicode="&#x3223;" vert-adv-y="2457" 
d="M397 1595q-163 -394 -163 -876q0 -255 51 -503q33 -158 110 -370h-143q-17 36 -64 169q-120 334 -120 711q0 463 186 869h143zM401 31q7 65 7 237v929q0 69 -11 207q95 -8 129 -8l150 2h678q119 0 302 11q-10 -81 -10 -214v-916q0 -10 6 -111q2 -42 3 -126q-51 4 -78 4
q-28 0 -86 -4q6 77 6 120v52h-940v-75q0 -58 3 -108q-53 4 -80 4q-26 0 -79 -4zM557 340h940v921h-271v-570q0 -46 63 -46q81 0 202 40q-40 -50 -49 -83q-10 -32 -10 -102q-78 -6 -137 -6q-132 0 -182 47q-21 21 -21 116v604l-160 -1q2 -78 2 -127q0 -360 -78 -512
q-45 -88 -163 -194q-56 75 -137 89zM557 1260l-1 -712q114 35 160 118q51 93 64 221q14 139 20 373h-243zM1650 -154q164 395 164 876q0 255 -51 502q-33 158 -111 371h143q17 -35 65 -170q119 -333 119 -711q0 -464 -185 -868h-144z" />
    <glyph glyph-name="uni3224" unicode="&#x3224;" vert-adv-y="2457" 
d="M397 1595q-163 -394 -163 -876q0 -255 51 -503q33 -158 110 -370h-143q-17 36 -64 169q-120 334 -120 711q0 463 186 869h143zM1032 1210l-41 -317h330q78 0 142 10q-11 -62 -18 -145l-46 -531l107 -1q70 -1 152 10q-3 -53 -3 -79t3 -78q-62 3 -181 3h-882
q-125 0 -219 -7q5 53 5 79q0 27 -5 80q108 -8 188 -8h185l78 534h-160q-71 0 -158 -6q7 49 7 74q0 24 -7 73q115 -8 200 -8h140l41 317h-241q-113 0 -216 -10q7 52 7 78q0 28 -8 84q160 -5 235 -5h771q81 0 182 9q-7 -57 -7 -85q0 -26 5 -77q-132 6 -194 6h-392zM896 227
h363l43 533h-335zM1650 -154q164 395 164 876q0 255 -51 502q-33 158 -111 371h143q17 -35 65 -170q119 -333 119 -711q0 -464 -185 -868h-144z" />
    <glyph glyph-name="uni3225" unicode="&#x3225;" vert-adv-y="2457" 
d="M397 1595q-163 -394 -163 -876q0 -255 51 -503q33 -158 110 -370h-143q-17 36 -64 169q-120 334 -120 711q0 463 186 869h143zM393 89q117 83 265 303q143 212 178 357q82 -63 172 -104q-29 -22 -51 -58q-105 -175 -274 -417q-72 -103 -137 -178q-41 42 -66 57
q-26 18 -87 40zM354 875q7 62 7 92q0 24 -4 71q110 -9 317 -9h750q132 0 276 12q-2 -43 -2 -66q0 -32 5 -99q-113 10 -265 10h-781q-157 0 -303 -11zM880 1393q78 20 149 55q53 -160 137 -335q-86 -13 -165 -45q-35 151 -121 325zM1059 655q72 24 134 78q29 -49 214 -317
q178 -260 210 -300q-57 -24 -82 -41q-28 -19 -76 -70q-93 226 -400 650zM1650 -154q164 395 164 876q0 255 -51 502q-33 158 -111 371h143q17 -35 65 -170q119 -333 119 -711q0 -464 -185 -868h-144z" />
    <glyph glyph-name="uni3226" unicode="&#x3226;" vert-adv-y="2457" 
d="M397 1595q-163 -394 -163 -876q0 -255 51 -503q33 -158 110 -370h-143q-17 36 -64 169q-120 334 -120 711q0 463 186 869h143zM972 874q351 76 705 164q5 -87 36 -165q-374 -66 -741 -146v-487q0 -53 12 -64q20 -17 48 -17h336q73 0 89 14q47 42 54 235q47 -47 84 -64
q26 -12 87 -30l-6 -24q-52 -199 -91 -235q-45 -41 -117 -41h-476q-95 0 -139 22q-35 18 -35 69l1 584q-215 -54 -448 -122q-12 97 -42 187q190 18 490 90v486q0 4 -7 97q110 -24 209 -34q-49 -54 -49 -115v-404zM1650 -154q164 395 164 876q0 255 -51 502q-33 158 -111 371
h143q17 -35 65 -170q119 -333 119 -711q0 -464 -185 -868h-144z" />
    <glyph glyph-name="uni3227" unicode="&#x3227;" vert-adv-y="2457" 
d="M397 1595q-163 -394 -163 -876q0 -255 51 -503q33 -158 110 -370h-143q-17 36 -64 169q-120 334 -120 711q0 463 186 869h143zM346 143q131 92 201 185q94 124 162 307q36 99 50 219q38 334 38 359q0 3 -3 60q-1 28 -1 84q88 -23 146 -23h53q-25 -34 -32 -61
q-8 -27 -39 -346q-29 -308 -160 -537q-76 -136 -222 -323q-62 54 -193 76zM1053 1373q83 -25 137 -25h28q-17 -50 -17 -96q0 -122 18 -299q20 -197 111 -381q93 -187 282 -302q35 -21 97 -52q-104 -27 -175 -128q-236 198 -334 402q-137 288 -147 881zM1650 -154
q164 395 164 876q0 255 -51 502q-33 158 -111 371h143q17 -35 65 -170q119 -333 119 -711q0 -464 -185 -868h-144z" />
    <glyph glyph-name="uni3228" unicode="&#x3228;" vert-adv-y="2457" 
d="M397 1595q-163 -394 -163 -876q0 -255 51 -503q33 -158 110 -370h-143q-17 36 -64 169q-120 334 -120 711q0 463 186 869h143zM363 108q148 62 218 118q157 125 214 368q24 101 47 317h-253l-164 -6q3 51 3 75q0 26 -3 77q152 -7 164 -7h262q4 167 4 244q0 61 -2 169
q96 -20 195 -23q-30 -70 -38 -155q-10 -103 -17 -235h194q31 0 171 7l-71 -777q-2 -24 -2 -92q0 -26 12 -33q26 -15 91 -15q83 0 108 45q22 38 29 181q92 -69 175 -86q-34 -125 -67 -192q-44 -88 -162 -88q-222 0 -274 18q-69 24 -69 95q0 8 9 122l52 676h-202
q-34 -261 -49 -341q-36 -184 -117 -301q-77 -111 -310 -292q-39 51 -62 71q-25 24 -86 60zM1650 -154q164 395 164 876q0 255 -51 502q-33 158 -111 371h143q17 -35 65 -170q119 -333 119 -711q0 -464 -185 -868h-144z" />
    <glyph glyph-name="uni3229" unicode="&#x3229;" vert-adv-y="2457" 
d="M397 1595q-163 -394 -163 -876q0 -255 51 -503q33 -158 110 -370h-143q-17 36 -64 169q-120 334 -120 711q0 463 186 869h143zM319 721q3 54 3 82q0 27 -3 81q46 -2 70 -4q52 -3 71 -3h483v466q0 5 -7 116q74 -16 135 -16q21 0 67 1q-48 -64 -48 -125v-442h510l108 7
q-6 -52 -6 -79q0 -28 7 -84q-37 2 -56 4q-41 3 -56 3h-507v-644q0 -9 3 -44q2 -19 3 -59q-53 4 -80 4q-26 0 -79 -4q2 40 3 59q3 39 3 50v638h-483q-23 0 -141 -7zM1650 -154q164 395 164 876q0 255 -51 502q-33 158 -111 371h143q17 -35 65 -170q119 -333 119 -711
q0 -464 -185 -868h-144z" />
    <glyph glyph-name="uniFF01" unicode="&#xff01;" vert-adv-y="2457" 
d="M223 0v276h230v-276h-230zM256 518l-28 723v303h223v-303l-29 -723h-166z" />
    <glyph glyph-name="uniFF02" unicode="&#xff02;" vert-adv-y="2457" 
d="M752 905l-50 457v182h230v-182l-47 -457h-133zM1165 905l-49 457v182h230v-182l-50 -457h-131z" />
    <glyph glyph-name="uniFF03" unicode="&#xff03;" vert-adv-y="2457" 
d="M537 0l94 383h-217v154h254l94 389h-215v153h252l94 381h153l-92 -381h310l94 381h153l-92 -381h213v-153h-250l-94 -389h211v-154h-248l-94 -383h-156l95 383h-310l-94 -383h-155zM823 537h309l95 389h-310z" />
    <glyph glyph-name="uniFF04" unicode="&#xff04;" vert-adv-y="2457" 
d="M967 -190v157q-250 16 -385 136q-110 97 -166 305l184 45q37 -136 101 -205q93 -102 266 -121v580l-103 20q-206 40 -314 160q-93 102 -93 259q0 210 161 326q131 94 349 107v123h131v-123q235 -23 358 -143q90 -88 135 -240l-174 -61q-51 142 -121 203q-74 65 -198 81
v-555l125 -24q195 -38 286 -133q105 -110 105 -294q0 -212 -150 -329q-129 -101 -366 -117v-157h-131zM1098 127q317 29 317 271q0 217 -260 272l-57 12v-555zM967 891v530q-318 -22 -318 -263q0 -211 273 -259z" />
    <glyph glyph-name="uniFF05" unicode="&#xff05;" vert-adv-y="2457" 
d="M564 -37l743 1534h172l-743 -1534h-172zM1544 885q359 0 359 -466q0 -456 -364 -456q-359 0 -359 463q0 459 364 459zM1537 748q-187 0 -187 -324t191 -324q192 0 192 322q0 326 -196 326zM507 1497q362 0 362 -467q0 -218 -89 -334q-93 -121 -274 -121q-362 0 -362 461
t363 461zM502 1360q-186 0 -186 -324q0 -323 189 -323q194 0 194 320q0 327 -197 327z" />
    <glyph glyph-name="uniFF06" unicode="&#xff06;" vert-adv-y="2457" 
d="M734 889q-97 114 -125 169q-41 81 -41 163q0 167 130 262q108 78 281 78q205 0 317 -123q77 -86 77 -208q0 -152 -131 -258q-83 -68 -232 -132l365 -432q79 96 194 299l144 -80q-96 -189 -234 -344l240 -283h-242l-131 156q-229 -193 -466 -193q-194 0 -330 105
q-166 128 -166 346q0 175 103 299q84 99 247 176zM1244 279l-408 485q-139 -66 -203 -147q-61 -79 -61 -198q0 -126 94 -212q90 -82 224 -82q189 0 354 154zM904 952q93 37 154 74q141 86 141 206q0 89 -80 143q-63 42 -154 42q-99 0 -156 -52q-57 -51 -57 -137
q0 -124 149 -273l1 -1z" />
    <glyph glyph-name="uniFF07" unicode="&#xff07;" vert-adv-y="2457" 
d="M959 905l-50 457v182h230v-182l-49 -457h-131z" />
    <glyph glyph-name="uniFF08" unicode="&#xff08;" vert-adv-y="2457" 
d="M1714 -399q-344 403 -344 977q0 569 344 976l133 -81q-102 -147 -170 -330q-104 -280 -104 -564q0 -348 141 -660q59 -130 133 -234z" />
    <glyph glyph-name="uniFF09" unicode="&#xff09;" vert-adv-y="2457" 
d="M322 -399l-133 84q112 162 185 366q92 256 92 533q0 291 -114 581q-67 169 -163 308l133 81q344 -406 344 -974t-344 -979z" />
    <glyph glyph-name="uniFF0A" unicode="&#xff0a;" vert-adv-y="2457" 
d="M950 725l6 295l-254 -154l-71 123l256 146l-256 143l71 125l254 -154l-6 295h148l-7 -295l254 154l72 -125l-256 -143l256 -146l-72 -123l-254 154l7 -295h-148z" />
    <glyph glyph-name="uniFF0B" unicode="&#xff0b;" vert-adv-y="2457" 
d="M937 178v471h-460v164h460v471h174v-471h461v-164h-461v-471h-174z" />
    <glyph glyph-name="uniFF0C" unicode="&#xff0c;" vert-adv-y="2457" 
d="M262 -395l-82 82q70 73 99 123q47 78 47 163v27h-103v281h238v-267q0 -229 -199 -409z" />
    <glyph glyph-name="uniFF0D" unicode="&#xff0d;" vert-adv-y="2457" 
d="M720 440v203h606v-203h-606z" />
    <glyph glyph-name="uniFF0E" unicode="&#xff0e;" vert-adv-y="2457" 
d="M223 0v281h238v-281h-238z" />
    <glyph glyph-name="uniFF0F" unicode="&#xff0f;" vert-adv-y="2457" 
d="M751 0l381 1544h164l-381 -1544h-164z" />
    <glyph glyph-name="uniFF10" unicode="&#xff10;" vert-adv-y="2457" 
d="M1027 1544q531 0 531 -791q0 -790 -536 -790q-531 0 -531 790q0 791 536 791zM1020 1382q-324 0 -324 -628q0 -629 328 -629q160 0 244 147q85 148 85 491q0 619 -333 619z" />
    <glyph glyph-name="uniFF11" unicode="&#xff11;" vert-adv-y="2457" 
d="M1004 0v1282q-153 -120 -338 -219l-80 145q253 143 432 299h181v-1507h-195z" />
    <glyph glyph-name="uniFF12" unicode="&#xff12;" vert-adv-y="2457" 
d="M509 0v78q0 197 185 380q61 60 122 104q7 5 168 113q143 96 206 160q120 123 120 271q0 125 -76 201q-75 75 -210 75q-259 0 -326 -315l-191 35q44 179 134 284q138 158 397 158q283 0 410 -188q69 -102 69 -254q0 -218 -183 -384q-75 -69 -313 -229q-137 -92 -200 -159
q-71 -76 -93 -158h801v-172h-1020z" />
    <glyph glyph-name="uniFF13" unicode="&#xff13;" vert-adv-y="2457" 
d="M496 416l192 22q29 -313 327 -313q146 0 231 64q98 74 98 215q0 181 -148 246q-87 38 -242 40v164q365 16 365 283q0 107 -57 170q-75 82 -232 82q-264 0 -313 -281l-189 27q76 409 512 409q251 0 377 -123q107 -104 107 -270q0 -267 -297 -375q323 -48 323 -366
q0 -191 -123 -314q-134 -133 -411 -133q-259 0 -393 135q-113 114 -127 318z" />
    <glyph glyph-name="uniFF14" unicode="&#xff14;" vert-adv-y="2457" 
d="M1194 0v334h-699v168l687 1005h202v-1018h170v-155h-170v-334h-190zM678 489h514v762z" />
    <glyph glyph-name="uniFF15" unicode="&#xff15;" vert-adv-y="2457" 
d="M507 311l187 56q59 -244 308 -244q167 0 247 125q59 93 59 245q0 181 -94 277q-80 82 -211 82q-186 0 -289 -147l-160 24l131 778h779v-168h-635l-74 -434q118 101 301 101q180 0 304 -104q153 -128 153 -393q0 -253 -132 -397q-137 -149 -380 -149q-191 0 -312 81
q-79 52 -123 127q-31 53 -59 140z" />
    <glyph glyph-name="uniFF16" unicode="&#xff16;" vert-adv-y="2457" 
d="M1515 1264l-180 -66q-71 188 -272 188q-163 0 -253 -138q-91 -141 -108 -466q119 199 384 199q206 0 329 -123q129 -129 129 -372q0 -236 -133 -375q-141 -148 -383 -148q-320 0 -449 250q-90 173 -90 488q0 447 174 661q148 182 410 182q341 0 442 -280zM1032 825
q-153 0 -242 -106q-80 -97 -80 -253q0 -153 79 -249q85 -104 235 -104q130 0 215 81q102 98 102 280q0 164 -80 258q-80 93 -229 93z" />
    <glyph glyph-name="uniFF17" unicode="&#xff17;" vert-adv-y="2457" 
d="M733 0q76 381 222 692q135 289 396 639h-802v176h993v-196q-240 -315 -368 -592q-143 -306 -228 -719h-213z" />
    <glyph glyph-name="uniFF18" unicode="&#xff18;" vert-adv-y="2457" 
d="M730 782q-215 113 -215 345q0 184 124 295q136 122 384 122q250 0 386 -122q124 -111 124 -295q0 -232 -215 -345q264 -111 264 -380q0 -136 -78 -244q-139 -195 -482 -195q-246 0 -393 108q-163 119 -163 337q0 265 264 374zM1016 705q-163 0 -255 -84q-86 -78 -86 -210
q0 -133 85 -210q91 -84 264 -84q156 0 247 69q103 78 103 226q0 147 -108 227q-89 66 -250 66zM1016 1393q-146 0 -227 -78q-75 -71 -75 -195q0 -125 75 -196q81 -78 233 -78q148 0 233 72q80 69 80 206q0 133 -92 206q-80 63 -227 63z" />
    <glyph glyph-name="uniFF19" unicode="&#xff19;" vert-adv-y="2457" 
d="M539 227l174 72q68 -178 272 -178q132 0 217 89q127 131 144 517q-122 -203 -380 -203q-210 0 -333 127q-129 134 -129 370q0 235 131 374q141 149 389 149q302 0 435 -231q100 -173 100 -511q0 -438 -170 -655q-144 -184 -403 -184q-353 0 -447 264zM1019 1395
q-143 0 -229 -99q-83 -98 -83 -263t79 -258q81 -95 225 -95q148 0 239 100q85 94 85 267t-101 271q-80 77 -215 77z" />
    <glyph glyph-name="uniFF1A" unicode="&#xff1a;" vert-adv-y="2457" 
d="M223 0v281h238v-281h-238zM223 801v280h238v-280h-238z" />
    <glyph glyph-name="uniFF1B" unicode="&#xff1b;" vert-adv-y="2457" 
d="M262 -395l-82 82q70 73 99 123q47 78 47 163v27h-103v281h238v-267q0 -229 -199 -409zM223 801v280h238v-280h-238z" />
    <glyph glyph-name="uniFF1C" unicode="&#xff1c;" vert-adv-y="2457" 
d="M1572 178l-1095 469v168l1095 469v-174l-878 -379l878 -379v-174z" />
    <glyph glyph-name="uniFF1D" unicode="&#xff1d;" vert-adv-y="2457" 
d="M477 412v168h1095v-168h-1095zM477 883v168h1095v-168h-1095z" />
    <glyph glyph-name="uniFF1E" unicode="&#xff1e;" vert-adv-y="2457" 
d="M477 178v174l878 379l-878 379v174l1095 -469v-168z" />
    <glyph glyph-name="uniFF1F" unicode="&#xff1f;" vert-adv-y="2457" 
d="M381 0v276h229v-276h-229zM402 502v143q0 95 40 134l4 4q3 4 4 4q1 1 2 3q10 13 29 26q7 5 15 13q18 17 116 79q101 65 142 123q49 69 49 159q0 235 -266 235q-181 0 -253 -127q-28 -51 -46 -131l-187 27q77 387 496 387q231 0 354 -114q107 -100 107 -270
q0 -180 -142 -311q-58 -53 -134 -100q-29 -18 -64 -47q-26 -20 -53 -52q-23 -27 -23 -85v-100h-190z" />
    <glyph glyph-name="uniFF20" unicode="&#xff20;" vert-adv-y="2457" 
d="M1166 477q-123 -147 -313 -147q-153 0 -237 92q-79 87 -79 235q0 215 137 390q148 188 357 188q179 0 253 -133l23 102h172l-129 -569q-14 -62 -14 -95q0 -81 99 -81q147 0 231 129q71 109 71 276q0 233 -170 398q-209 202 -536 202q-317 0 -517 -194t-200 -506
q0 -380 280 -566q174 -116 461 -116q208 0 377 59l43 -129q-189 -65 -422 -65q-291 0 -485 103q-146 78 -244 208q-158 210 -158 507q0 314 189 540q244 292 680 292q370 0 622 -229q228 -208 228 -511q0 -235 -129 -380q-132 -149 -363 -149q-194 0 -227 149zM1043 1098
q-129 0 -220 -120q-52 -70 -79 -169q-23 -81 -23 -145q0 -197 182 -197q163 0 253 160q71 126 71 259q0 212 -184 212z" />
    <glyph glyph-name="uniFF21" unicode="&#xff21;" vert-adv-y="2457" 
d="M310 0l582 1544h264l581 -1544h-221l-137 379h-731l-139 -379h-199zM716 557h598l-297 815z" />
    <glyph glyph-name="uniFF22" unicode="&#xff22;" vert-adv-y="2457" 
d="M455 0v1544h645q487 0 487 -378q0 -227 -197 -332q117 -40 180 -107q91 -99 91 -274q0 -453 -588 -453h-618zM659 172h402q381 0 381 282q0 176 -131 241q-76 38 -228 38h-424v-561zM659 905h389q322 0 322 235q0 133 -91 188q-74 44 -216 44h-404v-467z" />
    <glyph glyph-name="uniFF23" unicode="&#xff23;" vert-adv-y="2457" 
d="M1687 1110l-209 -51q-39 137 -99 210q-110 134 -317 134q-239 0 -365 -189q-112 -168 -112 -462q0 -282 119 -442q126 -169 355 -169q166 0 282 93q121 96 156 315l213 -31q-52 -238 -168 -366q-173 -189 -488 -189q-282 0 -458 163q-228 210 -228 632q0 387 185 605
t515 218q501 0 619 -471z" />
    <glyph glyph-name="uniFF24" unicode="&#xff24;" vert-adv-y="2457" 
d="M427 0v1544h487q383 0 573 -189q191 -191 191 -587q0 -376 -191 -572t-573 -196h-487zM635 178h289q277 0 414 171q121 150 121 429q0 588 -531 588h-293v-1188z" />
    <glyph glyph-name="uniFF25" unicode="&#xff25;" vert-adv-y="2457" 
d="M507 0v1544h1073v-184h-865v-481h820v-185h-820v-510h900v-184h-1108z" />
    <glyph glyph-name="uniFF26" unicode="&#xff26;" vert-adv-y="2457" 
d="M539 0v1544h1071v-184h-863v-475h775v-185h-775v-700h-208z" />
    <glyph glyph-name="uniFF27" unicode="&#xff27;" vert-adv-y="2457" 
d="M1671 1139l-203 -52q-38 120 -88 181q-111 135 -332 135q-233 0 -360 -189q-115 -169 -115 -461q0 -280 119 -442q124 -168 354 -168q180 0 296 86q126 92 126 244v133h-250v172h457v-778h-135l-39 162q-172 -199 -469 -199q-275 0 -449 161q-227 210 -227 633
q0 386 187 606q187 218 518 218q490 0 610 -442z" />
    <glyph glyph-name="uniFF28" unicode="&#xff28;" vert-adv-y="2457" 
d="M412 0v1544h208v-633h807v633h209v-1544h-209v723h-807v-723h-208z" />
    <glyph glyph-name="uniFF29" unicode="&#xff29;" vert-adv-y="2457" 
d="M921 0v1544h208v-1544h-208z" />
    <glyph glyph-name="uniFF2A" unicode="&#xff2a;" vert-adv-y="2457" 
d="M490 444l201 23q34 -332 284 -332q289 0 289 354v1055h209v-1050q0 -531 -488 -531q-450 0 -495 481z" />
    <glyph glyph-name="uniFF2B" unicode="&#xff2b;" vert-adv-y="2457" 
d="M473 0v1544h208v-715l717 715h256l-594 -596l676 -948h-270l-553 799l-232 -232v-567h-208z" />
    <glyph glyph-name="uniFF2C" unicode="&#xff2c;" vert-adv-y="2457" 
d="M561 0v1544h208v-1360h830v-184h-1038z" />
    <glyph glyph-name="uniFF2D" unicode="&#xff2d;" vert-adv-y="2457" 
d="M248 0v1544h319l453 -1321l471 1321h309v-1544h-199v1341l-481 -1341h-213l-461 1341v-1341h-198z" />
    <glyph glyph-name="uniFF2E" unicode="&#xff2e;" vert-adv-y="2457" 
d="M421 0v1544h241l764 -1261v1261h203v-1544h-242l-764 1264v-1264h-202z" />
    <glyph glyph-name="uniFF2F" unicode="&#xff2f;" vert-adv-y="2457" 
d="M1029 1581q332 0 524 -213q193 -215 193 -596q0 -380 -193 -595q-193 -214 -529 -214q-302 0 -490 174q-232 216 -232 636q0 380 193 595q192 213 534 213zM1019 1407q-236 0 -373 -182q-127 -170 -127 -453q0 -282 127 -453q137 -182 375 -182q219 0 353 150
q155 173 155 485q0 283 -128 453q-138 182 -382 182z" />
    <glyph glyph-name="uniFF30" unicode="&#xff30;" vert-adv-y="2457" 
d="M497 0v1544h657q262 0 390 -157q97 -119 97 -315q0 -215 -143 -343q-143 -127 -385 -127h-412v-602h-204zM701 774h414q138 0 222 76q93 83 93 226q0 159 -103 236q-79 60 -206 60h-420v-598z" />
    <glyph glyph-name="uniFF31" unicode="&#xff31;" vert-adv-y="2457" 
d="M1470 -250l-164 260q-133 -47 -283 -47q-335 0 -528 214q-193 215 -193 596q0 380 193 595q192 213 528 213q338 0 530 -213q193 -215 193 -596q0 -460 -287 -680l158 -248zM1205 170l-180 285l146 96l182 -287q176 180 176 507q0 283 -128 454q-137 182 -378 182
q-240 0 -377 -182q-127 -170 -127 -453q0 -282 127 -453q137 -182 376 -182q94 0 183 33z" />
    <glyph glyph-name="uniFF32" unicode="&#xff32;" vert-adv-y="2457" 
d="M459 0v1544h665q277 0 403 -149q95 -112 95 -302q0 -153 -81 -267q-73 -105 -202 -156l334 -670h-240l-301 635q-10 -2 -23 -2h-13h-13h-420v-633h-204zM663 805h420q322 0 322 287q0 280 -322 280h-420v-567z" />
    <glyph glyph-name="uniFF33" unicode="&#xff33;" vert-adv-y="2457" 
d="M387 420l205 51q37 -144 102 -214q110 -118 333 -118q185 0 284 72q92 69 92 195q0 123 -76 183q-67 54 -206 79l-244 45q-449 83 -449 432q0 199 152 317q153 119 423 119q327 0 475 -163q82 -90 126 -236l-195 -64q-45 131 -116 196q-103 93 -296 93q-172 0 -264 -68
q-90 -66 -90 -184q0 -200 285 -252l279 -51q224 -41 325 -151q94 -104 94 -279q0 -210 -145 -329q-158 -130 -461 -130q-277 0 -433 119q-141 108 -200 338z" />
    <glyph glyph-name="uniFF34" unicode="&#xff34;" vert-adv-y="2457" 
d="M919 0v1360h-547v184h1303v-184h-547v-1360h-209z" />
    <glyph glyph-name="uniFF35" unicode="&#xff35;" vert-adv-y="2457" 
d="M421 1544h209v-956q0 -238 108 -348q96 -97 288 -97q391 0 391 445v956h208v-956q0 -286 -129 -441q-153 -184 -469 -184q-606 0 -606 625v956z" />
    <glyph glyph-name="uniFF36" unicode="&#xff36;" vert-adv-y="2457" 
d="M894 0l-541 1544h219l457 -1349l454 1349h213l-544 -1544h-258z" />
    <glyph glyph-name="uniFF37" unicode="&#xff37;" vert-adv-y="2457" 
d="M464 0l-353 1544h208l285 -1335l314 1335h213l305 -1335l300 1335h204l-374 -1544h-239l-305 1278l-320 -1278h-238z" />
    <glyph glyph-name="uniFF38" unicode="&#xff38;" vert-adv-y="2457" 
d="M374 0l537 795l-498 749h233l381 -581l387 581h217l-493 -737l536 -807h-237l-418 639l-422 -639h-223z" />
    <glyph glyph-name="uniFF39" unicode="&#xff39;" vert-adv-y="2457" 
d="M919 0v602l-541 942h225l430 -758l422 758h215l-540 -942v-602h-211z" />
    <glyph glyph-name="uniFF3A" unicode="&#xff3a;" vert-adv-y="2457" 
d="M450 0v180l901 1180h-871v184h1108v-180l-901 -1180h918v-184h-1155z" />
    <glyph glyph-name="uniFF3B" unicode="&#xff3b;" vert-adv-y="2457" 
d="M1368 -393v1937h440v-145h-250v-1647h250v-145h-440z" />
    <glyph glyph-name="uniFF3C" unicode="&#xff3c;" vert-adv-y="2457" 
d="M1132 0l-381 1544h164l381 -1544h-164z" />
    <glyph glyph-name="uniFF3D" unicode="&#xff3d;" vert-adv-y="2457" 
d="M237 -393v145h247v1647h-247v145h438v-1937h-438z" />
    <glyph glyph-name="uniFF3E" unicode="&#xff3e;" vert-adv-y="2457" 
d="M1150 1718l276 -240h-186l-218 162l-218 -162h-176l252 240h270z" />
    <glyph glyph-name="uniFF3F" unicode="&#xff3f;" vert-adv-y="2457" 
d="M2046 -204v-100h-2046v100h2046z" />
    <glyph glyph-name="uniFF40" unicode="&#xff40;" vert-adv-y="2457" 
d="M880 1724l394 -166l-30 -96l-430 114l-52 48l32 100h86z" />
    <glyph glyph-name="uniFF41" unicode="&#xff41;" vert-adv-y="2457" 
d="M1263 690v74q0 205 -237 205q-141 0 -207 -82q-31 -39 -53 -103l-172 45q82 289 441 289q419 0 419 -350v-567q0 -95 35 -201h-185q-21 62 -22 139q-75 -94 -160 -135q-83 -41 -214 -41q-153 0 -248 78q-103 85 -103 239q0 183 123 275q83 61 251 86zM1263 549l-291 -45
q-129 -20 -184 -84q-41 -47 -41 -134q0 -85 55 -131q51 -44 140 -44q114 0 201 56q120 79 120 222v160z" />
    <glyph glyph-name="uniFF42" unicode="&#xff42;" vert-adv-y="2457" 
d="M739 145l-5 -145h-186v1544h195v-622q120 196 361 196q210 0 328 -149q120 -152 120 -412q0 -263 -111 -417q-127 -177 -364 -177q-218 0 -338 182zM1046 961q-149 0 -234 -130q-76 -115 -76 -301q0 -179 73 -288q83 -123 233 -123q117 0 193 69q114 104 114 351
q0 422 -303 422z" />
    <glyph glyph-name="uniFF43" unicode="&#xff43;" vert-adv-y="2457" 
d="M1509 780l-188 -49q-30 112 -82 164q-64 66 -184 66q-145 0 -225 -119q-74 -109 -74 -302q0 -192 71 -298q78 -119 230 -119q222 0 278 250l186 -49q-103 -361 -462 -361q-230 0 -360 137q-142 149 -142 438q0 257 122 410q134 170 383 170q362 0 447 -338z" />
    <glyph glyph-name="uniFF44" unicode="&#xff44;" vert-adv-y="2457" 
d="M1305 940v604h194v-1544h-184l-4 160q-122 -197 -365 -197q-188 0 -304 120q-144 148 -144 437q0 263 109 420q124 178 355 178q216 0 343 -178zM1002 961q-142 0 -221 -105q-82 -111 -82 -317q0 -420 302 -420q138 0 221 106q89 116 89 320q0 183 -72 292
q-82 124 -237 124z" />
    <glyph glyph-name="uniFF45" unicode="&#xff45;" vert-adv-y="2457" 
d="M1528 496h-800q7 -127 40 -205q73 -170 279 -170q219 0 287 211l172 -64q-104 -305 -468 -305q-225 0 -358 135q-151 153 -151 440q0 259 125 413q136 167 385 167q266 0 392 -174q97 -132 97 -352v-96zM730 641h602q-16 328 -293 328q-271 0 -309 -328z" />
    <glyph glyph-name="uniFF46" unicode="&#xff46;" vert-adv-y="2457" 
d="M899 0v928h-158v153h158v168q0 142 69 226q74 90 230 90q72 0 172 -17l-15 -159q-66 8 -105 8q-157 0 -157 -180v-136h248v-153h-248v-928h-194z" />
    <glyph glyph-name="uniFF47" unicode="&#xff47;" vert-adv-y="2457" 
d="M546 -215l156 96q44 -71 105 -103q74 -38 196 -38q172 0 248 92q55 67 55 236v122q-123 -194 -363 -194q-210 0 -326 137q-120 141 -120 401q0 262 109 412q124 172 361 172q227 0 341 -184l4 147h188v-1038q0 -467 -491 -467q-253 0 -380 105q-57 47 -83 104zM996 961
q-154 0 -233 -120q-65 -100 -65 -295q0 -392 300 -392q148 0 231 105q81 103 81 307q0 202 -94 307q-80 88 -220 88z" />
    <glyph glyph-name="uniFF48" unicode="&#xff48;" vert-adv-y="2457" 
d="M564 0v1544h195v-626q123 200 366 200q178 0 274 -109q85 -98 85 -259v-750h-195v698q0 260 -228 260q-145 0 -228 -128q-74 -115 -74 -285v-545h-195z" />
    <glyph glyph-name="uniFF49" unicode="&#xff49;" vert-adv-y="2457" 
d="M927 0v1081h195v-1081h-195zM927 1315v229h195v-229h-195z" />
    <glyph glyph-name="uniFF4A" unicode="&#xff4a;" vert-adv-y="2457" 
d="M659 -401l21 159q56 -14 118 -14q78 0 108 38q28 35 28 107v1192h194v-1231q0 -274 -264 -274h-16q-101 0 -189 23zM934 1317v227h194v-227h-194z" />
    <glyph glyph-name="uniFF4B" unicode="&#xff4b;" vert-adv-y="2457" 
d="M620 0v1544h195v-895l456 432h234l-393 -370l450 -711h-227l-365 580l-155 -146v-434h-195z" />
    <glyph glyph-name="uniFF4C" unicode="&#xff4c;" vert-adv-y="2457" 
d="M927 0v1544h195v-1544h-195z" />
    <glyph glyph-name="uniFF4D" unicode="&#xff4d;" vert-adv-y="2457" 
d="M257 0v1081h191l2 -172q108 209 338 209q237 0 307 -217q109 217 354 217q167 0 259 -104q83 -95 83 -256v-758h-195v698q0 260 -203 260q-128 0 -204 -128q-68 -115 -68 -285v-545h-194v698q0 132 -60 201q-52 59 -143 59q-128 0 -204 -128q-68 -115 -68 -285v-545h-195
z" />
    <glyph glyph-name="uniFF4E" unicode="&#xff4e;" vert-adv-y="2457" 
d="M563 0v1081h191l4 -176q121 213 365 213q179 0 277 -109q85 -96 85 -259v-750h-195v698q0 260 -228 260q-145 0 -229 -128q-75 -115 -75 -285v-545h-195z" />
    <glyph glyph-name="uniFF4F" unicode="&#xff4f;" vert-adv-y="2457" 
d="M1028 1118q248 0 386 -166q126 -152 126 -411q0 -258 -126 -411q-138 -167 -389 -167q-230 0 -366 138q-151 155 -151 440q0 259 125 411q138 166 395 166zM1017 961q-151 0 -235 -121q-75 -110 -75 -299q0 -192 75 -300q84 -120 242 -120q148 0 233 108q84 106 84 318
q0 213 -101 325q-80 89 -223 89z" />
    <glyph glyph-name="uniFF50" unicode="&#xff50;" vert-adv-y="2457" 
d="M548 -393v1474h186l5 -161q124 198 367 198q229 0 351 -179q95 -141 95 -385q0 -258 -111 -413q-127 -178 -360 -178q-214 0 -338 178v-534h-195zM1045 961q-150 0 -234 -129q-75 -115 -75 -300q0 -179 73 -289q81 -122 232 -122q115 0 192 69q116 103 116 356
q0 415 -304 415z" />
    <glyph glyph-name="uniFF51" unicode="&#xff51;" vert-adv-y="2457" 
d="M1306 -393v549q-125 -193 -363 -193q-207 0 -326 148q-120 149 -120 411q0 266 109 419q126 177 359 177q221 0 343 -184l4 147h188v-1474h-194zM998 961q-139 0 -218 -105q-82 -109 -82 -316q0 -199 72 -304q77 -115 228 -115q140 0 223 106q89 115 89 322
q0 211 -95 320q-81 92 -217 92z" />
    <glyph glyph-name="uniFF52" unicode="&#xff52;" vert-adv-y="2457" 
d="M800 0v1081h188l7 -190q90 203 274 203q57 0 111 -13l-19 -166q-43 13 -98 13q-139 0 -207 -109q-61 -98 -61 -272v-547h-195z" />
    <glyph glyph-name="uniFF53" unicode="&#xff53;" vert-adv-y="2457" 
d="M543 287l182 49q22 -99 72 -149q73 -74 219 -74q250 0 250 172q0 131 -180 166l-176 34q-328 63 -328 315q0 155 129 242q113 76 302 76q349 0 443 -282l-174 -56q-35 101 -105 149q-62 42 -177 42q-226 0 -226 -163q0 -65 43 -103q43 -37 146 -58l215 -43
q289 -58 289 -315q0 -145 -111 -232q-120 -94 -334 -94q-392 0 -479 324z" />
    <glyph glyph-name="uniFF54" unicode="&#xff54;" vert-adv-y="2457" 
d="M876 928h-144v153h144v308h194v-308h234v-153h-234v-639q0 -94 40 -125q25 -19 88 -19q37 0 114 9l14 -158q-91 -16 -203 -16q-247 0 -247 268v680z" />
    <glyph glyph-name="uniFF55" unicode="&#xff55;" vert-adv-y="2457" 
d="M564 1081h195v-710q0 -246 225 -246q146 0 229 127q76 115 76 283v546h195v-1081h-189l-6 178q-56 -99 -127 -151q-88 -64 -231 -64q-146 0 -241 74q-126 98 -126 297v747z" />
    <glyph glyph-name="uniFF56" unicode="&#xff56;" vert-adv-y="2457" 
d="M898 0l-381 1081h205l305 -917l307 917h197l-383 -1081h-250z" />
    <glyph glyph-name="uniFF57" unicode="&#xff57;" vert-adv-y="2457" 
d="M554 0l-309 1081h203l235 -927l238 927h217l235 -927l240 927h191l-310 -1081h-248l-221 879l-221 -879h-250z" />
    <glyph glyph-name="uniFF58" unicode="&#xff58;" vert-adv-y="2457" 
d="M540 0l379 555l-354 526h215l247 -376l252 376h201l-352 -516l381 -565h-217l-273 414l-276 -414h-203z" />
    <glyph glyph-name="uniFF59" unicode="&#xff59;" vert-adv-y="2457" 
d="M566 -395l32 157q66 -22 128 -22q71 0 112 34q38 33 64 99l49 127l-459 1081h209l344 -848l313 848h197l-477 -1265q-40 -106 -92 -158q-82 -82 -224 -82h-11q-85 0 -185 29z" />
    <glyph glyph-name="uniFF5A" unicode="&#xff5a;" vert-adv-y="2457" 
d="M596 0v145l611 783h-582v153h807v-145l-614 -782h637v-154h-859z" />
    <glyph glyph-name="uniFF5B" unicode="&#xff5b;" vert-adv-y="2457" 
d="M1171 568v151q99 14 139 38q72 43 72 136v465q0 153 82 213q57 41 163 41h205v-145h-131q-81 0 -112 -50q-21 -34 -21 -114v-444q0 -141 -94 -190q-34 -17 -92 -26q186 -25 186 -217v-442q0 -94 31 -129t102 -35h131v-145h-205q-245 0 -245 254v463q0 117 -113 155
q-28 10 -98 21z" />
    <glyph glyph-name="uniFF5C" unicode="&#xff5c;" vert-adv-y="2457" 
d="M964 0v1544h162v-1544h-162z" />
    <glyph glyph-name="uniFF5D" unicode="&#xff5d;" vert-adv-y="2457" 
d="M219 -325v145h129q89 0 116 55q17 34 17 109v442q0 191 188 217q-188 28 -188 216v444q0 91 -29 125q-33 39 -104 39h-129v145h205q245 0 245 -254v-465q0 -105 95 -147q39 -18 116 -27v-151q-82 -10 -123 -30q-88 -44 -88 -146v-463q0 -254 -245 -254h-205z" />
    <glyph glyph-name="uniFF5E" unicode="&#xff5e;" vert-adv-y="2457" 
d="M1900 776q-162 -176 -253 -231q-130 -80 -252 -80q-56 0 -109 13q-71 17 -200 90q-70 40 -144 80q-82 46 -102 57q-109 61 -136 72q-47 20 -93 20q-70 0 -139 -46q-72 -47 -224 -203l-122 116q160 174 250 231q118 74 238 74q75 0 156 -34q70 -30 210 -111
q232 -133 284 -157q62 -30 123 -30t111 25q86 43 276 232z" />
    <glyph glyph-name="uniFFE0" unicode="&#xffe0;" vert-adv-y="2457" 
d="M1318 1216l-56 -166q104 -75 144 -133q27 -40 54 -143h-188q-4 51 -16 77q-11 23 -46 59l-274 -776q83 -21 138 -21q74 0 148 53q36 26 59 62q19 31 47 108l144 -62q-52 -127 -127 -194q-51 -46 -125 -76q-79 -32 -140 -32h-76l-114 28l-60 -174l-126 42l64 184
q-141 115 -182 196q-72 142 -72 276q0 234 150 400q149 166 370 166q44 0 100 -2l62 172zM1088 956q-158 -7 -231 -61q-168 -124 -168 -363q0 -73 17 -149q16 -77 116 -191z" />
    <glyph glyph-name="uniFFE1" unicode="&#xffe1;" vert-adv-y="2457" 
d="M1416 792v-136h-472q20 -68 48 -168q20 -74 20 -115q0 -68 -22 -139q128 -78 182 -92q37 -10 84 -10q57 0 113 35q70 43 137 157l138 -68q-91 -154 -165 -206q-99 -70 -219 -70q-59 0 -115 19q-73 25 -223 117q-119 -116 -209 -135q-43 -9 -83 -9q-113 0 -184 60
q-69 58 -69 147t65 155q68 69 178 69q87 0 230 -73q-1 71 -30 170q-23 79 -50 156h-370v136h324q-75 255 -75 339q0 166 145 262q118 77 282 77q154 0 266 -71q67 -44 105 -104q34 -55 59 -185h-188q-11 103 -46 141q-64 71 -195 71q-110 0 -173 -55q-79 -69 -79 -164
t77 -311h514zM808 192q-106 72 -188 72q-47 0 -76 -32q-23 -25 -23 -53q0 -39 23 -61q29 -28 74 -28q63 0 116 38q17 12 52 44q5 5 8 7l7 7q3 3 4 3l1 1q0 1 1 1z" />
    <glyph glyph-name="uniFFE3" unicode="&#xffe3;" vert-adv-y="2457" 
d="M2046 1742v-88h-2046v88h2046z" />
    <glyph glyph-name="uniFFE5" unicode="&#xffe5;" vert-adv-y="2457" 
d="M570 1434l268 -404h380l256 404h214l-264 -404h324v-148h-422l-166 -252h586v-146h-634v-504h-182v504h-638v146h594l-170 252h-422v148h326l-272 404h222zM936 882l96 -142l92 142h-188z" />
  </font>
</defs>
</svg>
