<?xml version="1.0" standalone="no"?>
<!DOCTYPE svg PUBLIC "-//W3C//DTD SVG 1.1//EN" "http://www.w3.org/Graphics/SVG/1.1/DTD/svg11.dtd" >
<svg xmlns="http://www.w3.org/2000/svg" xmlns:xlink="http://www.w3.org/1999/xlink" version="1.1">
<metadata>
Created by FontForge 20170731 at Fri Jan 18 14:24:39 2019
 By Aleksey,,,
Copyright BMW AG Mu:nchen
</metadata>
<defs>
<font id="BMWMotorrad-Regular" horiz-adv-x="650" >
  <font-face 
    font-family="BMW Motorrad"
    font-weight="400"
    font-stretch="normal"
    units-per-em="1000"
    panose-1="2 11 5 4 2 2 8 2 2 4"
    ascent="754"
    descent="-246"
    x-height="492"
    cap-height="712"
    bbox="-366 -302 1354 1113"
    underline-thickness="50"
    underline-position="-150"
    unicode-range="U+000D-FEFF"
  />
<missing-glyph horiz-adv-x="729" 
d="M78 712h573v-712h-573v712zM557 82v548h-386v-548h386z" />
    <glyph glyph-name="fi" unicode="fi" horiz-adv-x="577" 
d="M509 0h-89v414h-229v-414h-89v414h-94v78h94v75q0 48 18.5 82.5t53 52.5t80.5 18q54 0 91 -18l-21 -71q-28 12 -62 12q-33 0 -52 -20t-19 -59v-72h318v-492zM419.5 586.5q-16.5 16.5 -16.5 40.5t16.5 40.5t39.5 16.5q24 0 40.5 -16.5t16.5 -40.5t-16.5 -40.5t-40.5 -16.5
q-23 0 -39.5 16.5z" />
    <glyph glyph-name="fl" unicode="fl" horiz-adv-x="562" 
d="M191 492h137v-78h-137v-414h-89v414h-94v78h94v75q0 48 18.5 82.5t53 52.5t80.5 18q54 0 91 -18l-21 -71q-28 12 -62 12q-33 0 -52 -20t-19 -59v-72zM404 712h89v-712h-89v712z" />
    <glyph glyph-name=".notdef" horiz-adv-x="729" 
d="M78 712h573v-712h-573v712zM557 82v548h-386v-548h386z" />
    <glyph glyph-name=".null" horiz-adv-x="0" 
 />
    <glyph glyph-name="nonmarkingreturn" horiz-adv-x="333" 
 />
    <glyph glyph-name="NULL" horiz-adv-x="0" 
 />
    <glyph glyph-name="NULL" horiz-adv-x="0" 
 />
    <glyph glyph-name="CR" unicode="&#xd;" horiz-adv-x="308" 
 />
    <glyph glyph-name="space" unicode=" " horiz-adv-x="308" 
 />
    <glyph glyph-name="exclam" unicode="!" horiz-adv-x="288" 
d="M91 712h106l-13 -507h-80zM111 -3.5q-15 8.5 -24 23.5t-9 33t9 33t24 24t33 9t33 -9t24 -24t9 -33t-9 -33t-24 -23.5t-33 -8.5t-33 8.5z" />
    <glyph glyph-name="quotedbl" unicode="&#x22;" horiz-adv-x="445" 
d="M78 712h95l-13 -317h-69zM272 712h95l-13 -317h-69z" />
    <glyph glyph-name="numbersign" unicode="#" horiz-adv-x="646" 
d="M501 428l-29 -144h98l-16 -76h-98l-42 -208h-90l42 208h-148l-42 -208h-89l42 208h-98l15 76h99l29 144h-98l15 76h99l42 208h89l-42 -208h148l42 208h90l-42 -208h98l-16 -76h-98zM411 428h-148l-29 -144h148z" />
    <glyph glyph-name="dollar" unicode="$" 
d="M569.5 95.5q-25.5 -42.5 -79 -71.5t-133.5 -35v-125h-64v125q-67 4 -128.5 27t-110.5 64l50 67q86 -68 189 -75v252h-1q-219 55 -219 211q0 53 25.5 94.5t75 67t119.5 30.5v121h64v-121q61 -4 117.5 -22.5t102.5 -49.5l-44 -71q-83 53 -176 60v-244l6 -1
q89 -22 139.5 -51t71.5 -67.5t21 -92.5q0 -50 -25.5 -92.5zM198 466q29 -30 95 -49v226q-64 -6 -94 -33t-30 -71q0 -43 29 -73zM459.5 110q38.5 30 38.5 82q0 29 -13.5 49t-43.5 35.5t-84 30.5v-234q64 7 102.5 37z" />
    <glyph glyph-name="percent" unicode="%" horiz-adv-x="982" 
d="M32 497q0 69 20 119t58 77t92 27t92 -26.5t58 -77t20 -119.5t-20 -119t-58 -77t-92 -27t-92 27t-58 77t-20 119zM291 497q0 150 -89 150q-44 0 -66 -36.5t-22 -113.5t22 -113.5t66 -36.5t66.5 36.5t22.5 113.5zM266 -15l-61 42l511 699l61 -41zM610 213q0 69 20 119
t58 77t92 27t92 -26.5t58 -77t20 -119.5t-20 -119t-58 -77t-92 -27t-92 27t-58 77t-20 119zM869 213q0 150 -89 150q-44 0 -66 -36.5t-22 -113.5t22 -113.5t66 -36.5t66.5 36.5t22.5 113.5z" />
    <glyph glyph-name="ampersand" unicode="&#x26;" horiz-adv-x="607" 
d="M520 0q-19 52 -50 99q-40 -55 -99.5 -83t-139.5 -28q-64 0 -115 27t-79 72.5t-28 99.5q0 70 36 120t112 89q-49 43 -69.5 82t-20.5 85q0 48 24.5 85.5t68 58.5t98.5 21q52 0 95 -20t68.5 -57t25.5 -86q0 -52 -34.5 -97t-101.5 -83q96 -76 159 -148q19 48 21 112h88
q-2 -47 -15.5 -94.5t-35.5 -91.5q53 -76 87 -163h-95zM209.5 639.5q-22.5 -10.5 -35.5 -30t-13 -46.5q0 -33 19.5 -61.5t66.5 -67.5q58 31 83 60t25 69q0 24 -12.5 44t-34.5 31.5t-49 11.5t-49.5 -10.5zM340.5 93.5q43.5 23.5 79.5 73.5q-39 46 -87 88.5t-110 88.5
q-41 -21 -66.5 -42t-38.5 -47.5t-13 -62.5q0 -32 15.5 -60t45.5 -45t70 -17q61 0 104.5 23.5z" />
    <glyph glyph-name="quotesingle" unicode="'" horiz-adv-x="251" 
d="M78 712h95l-13 -317h-69z" />
    <glyph glyph-name="parenleft" unicode="(" horiz-adv-x="340" 
d="M94 294q0 244 114 458h93q-57 -102 -87 -218t-30 -240t30 -240t87 -219h-93q-114 216 -114 459z" />
    <glyph glyph-name="parenright" unicode=")" horiz-adv-x="340" 
d="M39 -165q57 103 87 219t30 240t-30 240t-87 218h93q113 -212 113 -458q0 -245 -113 -459h-93z" />
    <glyph glyph-name="asterisk" unicode="*" horiz-adv-x="475" 
d="M58 604l145 -47v155h69v-155l145 47l23 -65l-150 -48l94 -130l-53 -43l-93 128l-93 -128l-54 43l94 130l-149 48z" />
    <glyph glyph-name="plus" unicode="+" 
d="M551 316h-183v-182h-86v182h-184v80h184v182h86v-182h183v-80z" />
    <glyph glyph-name="comma" unicode="," horiz-adv-x="199" 
d="M24 -165q37 131 37 261h92q0 -71 -12.5 -138.5t-35.5 -122.5h-81z" />
    <glyph glyph-name="hyphen" unicode="-" horiz-adv-x="369" 
d="M39 321h291v-79h-291v79z" />
    <glyph glyph-name="period" unicode="." horiz-adv-x="203" 
d="M68 -3.5q-15 8.5 -23.5 23.5t-8.5 33t8.5 33t23.5 24t33 9q28 0 47 -19t19 -47q0 -18 -9 -33t-24 -23.5t-33 -8.5t-33 8.5z" />
    <glyph glyph-name="slash" unicode="/" horiz-adv-x="399" 
d="M69 -109l-78 28l339 855l79 -27z" />
    <glyph glyph-name="zero" unicode="0" 
d="M183 32.5q-59 44.5 -89.5 127.5t-30.5 198q0 116 30.5 199t89.5 127t144 44t144 -44t89.5 -127t30.5 -199q0 -115 -30.5 -198t-89.5 -127.5t-144 -44.5t-144 44.5zM451.5 145q41.5 70 41.5 213q0 142 -42 212.5t-124 70.5q-166 0 -166 -283q0 -144 41.5 -213.5
t124.5 -69.5t124.5 70z" />
    <glyph glyph-name="one" unicode="1" 
d="M436 712v-712h-94v599l-199 -101v94l227 120h66z" />
    <glyph glyph-name="two" unicode="2" 
d="M565 84v-84h-469v69l240 231q66 65 98 113t32 96q0 39 -16.5 68.5t-47 45.5t-72.5 16q-58 0 -93 -30.5t-50 -87.5l-93 24q21 88 82.5 135t156.5 47q70 0 122 -28t80 -76.5t28 -109.5q0 -69 -41.5 -133t-121.5 -139l-161 -157h326z" />
    <glyph glyph-name="three" unicode="3" 
d="M531.5 312q32.5 -47 32.5 -110q0 -64 -32 -112.5t-91 -75t-137 -26.5q-67 0 -121 21.5t-91 61.5t-53 94l96 19q17 -54 61.5 -81.5t108.5 -27.5q77 0 119 33.5t42 94.5t-44 94.5t-127 33.5h-79v82h78q42 0 74.5 14.5t51 40.5t18.5 60q0 53 -36.5 82t-103.5 29
q-61 0 -102 -28t-53 -86l-94 18q18 87 82.5 136t167.5 49q69 0 123 -23.5t84 -66.5t30 -101q0 -50 -24 -90t-75 -65q62 -23 94.5 -70z" />
    <glyph glyph-name="four" unicode="4" 
d="M596 192h-100v-192h-93v192h-338v104q145 218 345 416h86v-437h100v-83zM403 275v314q-139 -148 -252 -314h252z" />
    <glyph glyph-name="five" unicode="5" 
d="M453 434q57 -30 91 -83.5t34 -121.5q0 -70 -33 -126t-92.5 -87.5t-136.5 -31.5q-56 0 -104.5 19.5t-82.5 54.5t-48 81l87 22q19 -41 59 -66t88 -25q45 0 82.5 19t60 55t22.5 85q0 41 -22 75.5t-59 55t-80 20.5q-45 0 -83 -22t-60 -58l-85 22l73 390h370v-82h-294
l-41 -207q26 20 59.5 30.5t72.5 10.5q65 0 122 -30z" />
    <glyph glyph-name="six" unicode="6" 
d="M483 431q55 -33 84 -87.5t29 -118.5q0 -69 -32.5 -123.5t-89 -84.5t-125.5 -30q-115 0 -190 80q-84 92 -84 286q0 116 29.5 200t88.5 129.5t147 45.5q183 0 243 -173l-91 -28q-17 58 -54.5 86t-96.5 28q-82 0 -125.5 -68t-47.5 -198q29 43 80.5 66t104.5 23q75 0 130 -33
zM422.5 91.5q35.5 20.5 56.5 55.5t21 77t-21 77t-56 55t-77 20t-77 -20t-55.5 -55t-20.5 -77t20.5 -77t56 -55.5t76.5 -20.5t76.5 20.5z" />
    <glyph glyph-name="seven" unicode="7" 
d="M591 712v-63q-121 -155 -195.5 -320.5t-92.5 -328.5h-95q22 159 89.5 321t175.5 309h-397v82h515z" />
    <glyph glyph-name="eight" unicode="8" 
d="M559.5 301.5q31.5 -46.5 31.5 -103.5q0 -58 -32.5 -106t-92.5 -76t-141 -28t-141 28t-92 76t-32 106q0 57 31.5 103.5t91.5 72.5q-50 26 -75 68t-25 92q0 56 31.5 100t86.5 69t124 25t124.5 -25t87 -69t31.5 -100q0 -51 -25.5 -93t-75.5 -67q61 -26 92.5 -72.5zM250 627
q-33 -16 -51.5 -43t-18.5 -59t18.5 -59t51.5 -43.5t75 -16.5t75.5 16.5t52 43.5t18.5 59t-18.5 59t-51.5 43t-76 16q-42 0 -75 -16zM414 89.5q38 17.5 58 47t20 64.5q0 36 -20.5 65.5t-58 46.5t-88.5 17t-88.5 -17t-57.5 -46.5t-20 -65.5q0 -35 20 -64.5t57.5 -47
t88.5 -17.5t89 17.5z" />
    <glyph glyph-name="nine" unicode="9" 
d="M586 361q0 -116 -29.5 -199.5t-89 -129t-147.5 -45.5q-95 0 -154.5 45t-87.5 128l90 28q18 -58 55.5 -86t96.5 -28q82 0 126 68.5t47 197.5q-29 -43 -80.5 -66t-104.5 -23q-75 0 -130 33t-84 87.5t-29 118.5q0 69 32.5 123.5t89 84.5t125.5 30q59 0 106.5 -20.5
t82.5 -59.5q85 -91 85 -287zM391 359q35 20 56 54.5t21 76.5q0 43 -21 78t-56 55t-77 20q-41 0 -76 -20t-56 -55t-21 -78q0 -42 21 -76.5t56 -54.5t76 -20q42 0 77 20z" />
    <glyph glyph-name="colon" unicode=":" horiz-adv-x="203" 
d="M36 407q0 18 8.5 33t23.5 24t33 9q28 0 47 -19t19 -47q0 -18 -9 -33t-24 -23.5t-33 -8.5t-33 8.5t-23.5 23.5t-8.5 33zM36 53q0 18 8.5 33t23.5 24t33 9q28 0 47 -19t19 -47q0 -18 -9 -33t-24 -23.5t-33 -8.5t-33 8.5t-23.5 23.5t-8.5 33z" />
    <glyph glyph-name="semicolon" unicode=";" horiz-adv-x="214" 
d="M55 361q-19 19 -19 47q0 18 9 33t24 23.5t33 8.5t33 -8.5t23.5 -23.5t8.5 -33t-8.5 -33t-23.5 -24t-33 -9q-28 0 -47 19zM24 -161q37 129 37 260h91q0 -71 -12 -138.5t-35 -121.5h-81z" />
    <glyph glyph-name="less" unicode="&#x3c;" 
d="M416 447l-31 -12q-24 -9 -88 -34.5t-114 -43.5q44 -16 103 -39.5t86 -34.5q9 -4 20.5 -8t23.5 -9l134 -55v-92l-451 191v92l451 192v-92z" />
    <glyph glyph-name="equal" unicode="=" 
d="M99 483h451v-78h-451v78zM99 307h451v-78h-451v78z" />
    <glyph glyph-name="greater" unicode="&#x3e;" 
d="M551 402v-92l-451 -191v92l134 55q12 5 23.5 9t20.5 8q27 11 86 34.5t103 39.5q-50 18 -114 43.5t-88 34.5l-31 12l-134 55v92z" />
    <glyph glyph-name="question" unicode="?" horiz-adv-x="516" 
d="M386 701q52 -27 77.5 -71t25.5 -93q0 -57 -27.5 -101t-80.5 -80q-43 -29 -63 -51t-27 -46.5t-10 -67.5h-85q2 51 11.5 84.5t32 62t66.5 62.5q29 23 47.5 41.5t28.5 41.5t10 52q0 28 -15.5 52t-45 39t-69.5 15q-59 0 -95.5 -26.5t-54.5 -83.5l-88 31q26 84 88 125t146 41
q76 0 128 -27zM209 -3.5q-15 8.5 -24 23.5t-9 33t9 33t24 24t33 9t33 -9t24 -24t9 -33t-9 -33t-24 -23.5t-33 -8.5t-33 8.5z" />
    <glyph glyph-name="at" unicode="@" horiz-adv-x="932" 
d="M297 302q23 35 69 55.5t112 20.5q50 0 102 -16q-1 53 -28.5 80.5t-95.5 27.5q-65 0 -129 -29l-23 65q79 34 159 34q97 0 146 -44.5t49 -129.5v-223q7 -1 23 -1q72 0 107.5 52t35.5 141q0 91 -47 164.5t-129 115.5t-182 42q-104 0 -185.5 -47t-127 -127.5t-45.5 -177.5
t45.5 -177.5t127 -127.5t185.5 -47q52 0 100.5 13.5t89.5 38.5l39 -61q-105 -62 -229 -62t-223 56.5t-154.5 153.5t-55.5 213t55.5 213t154.5 153.5t223 56.5q121 0 220 -51.5t156 -141t57 -200.5q0 -74 -25.5 -132.5t-75.5 -92.5t-120 -34q-39 0 -87 9l-6 49
q-24 -27 -60 -42t-79 -15q-52 0 -90.5 18t-60 51.5t-21.5 78.5q0 42 23 77zM482 311q-66 0 -97.5 -23t-31.5 -62q0 -36 27 -58t74 -22q42 0 70.5 13t55.5 39v97q-46 16 -98 16z" />
    <glyph glyph-name="A" unicode="A" horiz-adv-x="666" 
d="M504 196h-343q-22 -64 -64 -196h-98q65 203 134 381.5t147 330.5h107q143 -279 280 -712h-98q-42 132 -65 196zM474 282q-69 185 -141 339q-74 -154 -141 -339h282z" />
    <glyph glyph-name="B" unicode="B" horiz-adv-x="683" 
d="M603.5 299.5q31.5 -45.5 31.5 -98.5q0 -60 -31 -105.5t-88 -70.5t-134 -25h-304v712h296q72 0 125 -26t81 -69t28 -93q0 -53 -24 -93t-71 -62q59 -24 90.5 -69.5zM172 629v-226h195q44 0 76.5 14.5t49.5 40.5t17 61q0 31 -16 56t-48.5 39.5t-78.5 14.5h-195zM465.5 97.5
q34.5 14.5 53 41.5t18.5 63q0 60 -42 90.5t-113 30.5h-210v-240h211q48 0 82.5 14.5z" />
    <glyph glyph-name="C" unicode="C" horiz-adv-x="716" 
d="M214.5 36q-84.5 48 -133 132.5t-48.5 189.5t48.5 189.5t133 132.5t187.5 48q93 0 168 -34t127 -96l-66 -58q-42 48 -99.5 74t-128.5 26q-77 0 -139 -35.5t-97.5 -100t-35.5 -146.5t35.5 -146.5t97.5 -100t139 -35.5q73 0 131 26.5t99 76.5l65 -61q-52 -62 -127 -96
t-169 -34q-103 0 -187.5 48z" />
    <glyph glyph-name="D" unicode="D" horiz-adv-x="716" 
d="M490 669q91 -43 142 -123.5t51 -189.5t-51 -189.5t-142 -123.5t-209 -43h-203v712h203q118 0 209 -43zM444 117.5q68 33.5 104.5 94.5t36.5 144t-36.5 144t-104.5 94.5t-161 33.5h-111v-544h111q93 0 161 33.5z" />
    <glyph glyph-name="E" unicode="E" horiz-adv-x="603" 
d="M556 84v-84h-478v712h463v-84h-369v-226h353v-82h-353v-236h384z" />
    <glyph glyph-name="F" unicode="F" horiz-adv-x="554" 
d="M172 628v-233h323v-81h-323v-314h-94v712h432v-84h-338z" />
    <glyph glyph-name="G" unicode="G" horiz-adv-x="802" 
d="M770 380v-23q0 -104 -47.5 -188.5t-131.5 -132.5t-188 -48q-103 0 -188 48t-133.5 132.5t-48.5 189.5t48.5 189.5t132.5 132.5t186 48q100 0 182.5 -42.5t138.5 -119.5l-78 -50q-41 60 -103 92t-137 32q-77 0 -139 -36t-97.5 -100t-35.5 -146t35.5 -146.5t97.5 -100
t139 -35.5q68 0 124.5 27.5t93.5 78t48 116.5h-280v82h381z" />
    <glyph glyph-name="H" unicode="H" horiz-adv-x="736" 
d="M658 712v-712h-94v323h-392v-323h-94v712h94v-301h392v301h94z" />
    <glyph glyph-name="I" unicode="I" horiz-adv-x="250" 
d="M78 712h94v-712h-94v712z" />
    <glyph glyph-name="J" unicode="J" horiz-adv-x="494" 
d="M431 258q0 -126 -64 -198t-197 -72q-77 0 -151 33l27 82q32 -13 64 -20t58 -7q89 0 129 47t40 135v370h-247v84h341v-454z" />
    <glyph glyph-name="K" unicode="K" horiz-adv-x="671" 
d="M452.5 328q38.5 -47 67.5 -89q47 -67 82 -123t65 -114v-2h-108q-19 38 -47 82t-74 111q-24 36 -59 78.5t-74 81.5l-133 -130v-223h-94v712h94v-372l379 372h121l-300 -294q42 -43 80.5 -90z" />
    <glyph glyph-name="L" unicode="L" horiz-adv-x="540" 
d="M521 84v-84h-443v712h94v-628h349z" />
    <glyph glyph-name="M" unicode="M" horiz-adv-x="882" 
d="M730 0l-16 590q-24 -65 -56.5 -147.5t-47.5 -117.5l-41 -101l-89 -224h-78l-88 224l-17 41q-32 80 -68 169t-61 157l-16 -591h-94l24 712h131l228 -576l228 576h132l23 -712h-94z" />
    <glyph glyph-name="N" unicode="N" horiz-adv-x="740" 
d="M662 712v-712h-122l-301 487l-69 119v-606h-92v712h126l300 -486q3 -5 7 -12t9 -16q30 -48 51 -87v601h91z" />
    <glyph glyph-name="O" unicode="O" horiz-adv-x="806" 
d="M215 36q-85 48 -133.5 132.5t-48.5 189.5t48.5 189.5t133.5 132.5t188 48q104 0 188.5 -48t133.5 -132.5t49 -189.5t-49 -189.5t-133.5 -132.5t-188.5 -48q-103 0 -188 48zM542.5 111.5q62.5 35.5 98 100t35.5 146.5t-35.5 146t-98 100t-139.5 36q-76 0 -138.5 -36
t-98 -100t-35.5 -146t35.5 -146.5t97.5 -100t139 -35.5t139.5 35.5z" />
    <glyph glyph-name="P" unicode="P" horiz-adv-x="609" 
d="M473 682q56 -30 84 -80.5t28 -110.5t-28 -110t-84 -80t-137 -30h-164v-271h-94v712h258q81 0 137 -30zM418 371.5q34 17.5 51.5 48.5t17.5 71t-17.5 71t-51.5 48.5t-82 17.5h-164v-274h164q48 0 82 17.5z" />
    <glyph glyph-name="Q" unicode="Q" horiz-adv-x="808" 
d="M745.5 211q-28.5 -68 -79.5 -119q51 -76 96 -165v-2h-95q-28 55 -68 115q-43 -25 -92.5 -38.5t-103.5 -13.5q-103 0 -188 48t-133.5 132.5t-48.5 189.5t48.5 189.5t133.5 132.5t188 48q104 0 188.5 -48t133.5 -132.5t49 -189.5q0 -79 -28.5 -147zM166.5 211.5
q35.5 -64.5 97.5 -100t139 -35.5q79 0 144 38q-57 76 -87 110l63 54q40 -43 88 -109q31 37 48 85t17 104q0 82 -35.5 146t-98 100t-139.5 36q-76 0 -138.5 -36t-98 -100t-35.5 -146t35.5 -146.5z" />
    <glyph glyph-name="R" unicode="R" horiz-adv-x="638" 
d="M564 104q31 -52 56 -102v-2h-100q-22 41 -48.5 84.5t-48.5 75.5q-23 33 -44 61.5t-39 49.5h-3h-165v-271h-94v712h259q82 0 138 -30.5t83 -80.5t27 -109q0 -70 -37 -124.5t-109 -79.5q27 -34 68 -93q26 -39 57 -91zM172 354h165q48 0 82 17.5t51 48.5t17 71t-17 71
t-51 48.5t-82 17.5h-165v-274z" />
    <glyph glyph-name="S" unicode="S" horiz-adv-x="588" 
d="M140.5 11.5q-68.5 23.5 -122.5 68.5l50 67q98 -76 214 -76q80 0 130 30.5t50 90.5q0 31 -15 51.5t-49 36.5t-95 32l-47 12q-219 56 -219 211q0 57 29.5 101t87.5 68t139 24q69 0 133 -19.5t115 -53.5l-44 -71q-97 61 -203 61q-82 0 -121 -28t-39 -78q0 -48 35 -79
t116 -51l42 -10q89 -22 139.5 -51t71.5 -67.5t21 -92.5t-29.5 -99t-92 -73t-155.5 -28q-73 0 -141.5 23.5z" />
    <glyph glyph-name="T" unicode="T" horiz-adv-x="615" 
d="M596 630h-242v-630h-94v630h-241v82h577v-82z" />
    <glyph glyph-name="U" unicode="U" horiz-adv-x="697" 
d="M198.5 21q-64.5 33 -100 99t-35.5 162v430h94v-430q0 -105 52 -155.5t140 -50.5q87 0 139 50.5t52 155.5v430h94v-430q0 -96 -35.5 -162t-99.5 -99t-150 -33t-150.5 33z" />
    <glyph glyph-name="V" unicode="V" horiz-adv-x="646" 
d="M647 712q-135 -421 -270 -712h-107q-139 298 -271 712h100q100 -327 225 -614q125 287 225 614h98z" />
    <glyph glyph-name="W" unicode="W" horiz-adv-x="1001" 
d="M987 712q-46 -180 -103 -366t-116 -346h-108l-159 579l-160 -579h-107q-59 157 -115.5 342t-104.5 370h98q38 -151 83.5 -307t89.5 -286l163 593h105l163 -594q44 132 90 288.5t84 305.5h97z" />
    <glyph glyph-name="X" unicode="X" horiz-adv-x="612" 
d="M613 4v-4h-109l-196 290l-205 -290h-103v4l255 360l-241 344v4h108l188 -274l186 274h103v-4l-236 -343z" />
    <glyph glyph-name="Y" unicode="Y" horiz-adv-x="622" 
d="M623 712v-4l-265 -397v-311h-95v312l-264 396v4h109l205 -312l207 312h103z" />
    <glyph glyph-name="Z" unicode="Z" horiz-adv-x="644" 
d="M600 84v-84h-556v67q118 134 231.5 281.5t200.5 279.5h-415v84h533v-65q-203 -310 -420 -563h426z" />
    <glyph glyph-name="bracketleft" unicode="[" horiz-adv-x="357" 
d="M318 674h-151v-761h151v-78h-240v917h240v-78z" />
    <glyph glyph-name="backslash" unicode="\" horiz-adv-x="399" 
d="M70 774l339 -855l-79 -28l-339 856z" />
    <glyph glyph-name="bracketright" unicode="]" horiz-adv-x="357" 
d="M279 752v-917h-240v78h151v761h-151v78h240z" />
    <glyph glyph-name="asciicircum" unicode="^" 
d="M552 407h-96l-103 178q-10 18 -27 52l-28 -52l-103 -178h-96l179 305h95z" />
    <glyph glyph-name="underscore" unicode="_" horiz-adv-x="450" 
d="M-1 -141h452v-63h-452v63z" />
    <glyph glyph-name="grave" unicode="`" horiz-adv-x="500" 
d="M144 718l64 58l150 -171l-54 -44z" />
    <glyph glyph-name="a" unicode="a" horiz-adv-x="528" 
d="M391 0l-7 50q-27 -29 -67 -45t-88 -16q-57 0 -100 20t-66.5 56.5t-23.5 85.5q0 48 25 86t75 60.5t123 22.5q66 0 116 -16q-1 41 -13.5 67.5t-42.5 40.5t-82 14q-30 0 -67 -8t-75 -24l-25 74q89 36 176 36q108 0 163.5 -48.5t55.5 -140.5v-240l8 -75h-85zM140.5 107.5
q13.5 -20.5 39 -31.5t59.5 -11q46 0 78 14.5t61 43.5v106q-49 17 -108 17q-74 0 -108.5 -25t-34.5 -67q0 -26 13.5 -46.5z" />
    <glyph glyph-name="b" unicode="b" horiz-adv-x="600" 
d="M443.5 471.5q58.5 -32.5 93 -91.5t34.5 -134q0 -76 -34.5 -134.5t-93 -91t-128.5 -32.5q-104 0 -163 66l-5 -54h-79v712h89v-269q59 61 158 61q70 0 128.5 -32.5zM391 89.5q40 22.5 63.5 63.5t23.5 93t-23.5 93t-63.5 63.5t-89 22.5q-45 0 -83.5 -20t-61.5 -55v-208
q23 -35 61.5 -55t83.5 -20q49 0 89 22.5z" />
    <glyph glyph-name="c" unicode="c" horiz-adv-x="509" 
d="M161 20.5q-61 32.5 -96.5 91t-35.5 133.5q0 76 34 135t93 91.5t132 32.5q57 0 108.5 -20.5t88.5 -58.5l-58 -59q-24 28 -58 43.5t-73 15.5q-48 0 -88 -22.5t-63 -63.5t-23 -94q0 -52 23.5 -92.5t63 -63t87.5 -22.5q39 0 73 15.5t58 43.5l59 -59q-37 -38 -85.5 -58.5
t-105.5 -20.5q-73 0 -134 32.5z" />
    <glyph glyph-name="d" unicode="d" horiz-adv-x="600" 
d="M532 712v-712h-79l-6 53q-60 -65 -162 -65q-70 0 -129 32.5t-93 91.5t-34 134q0 76 34 134.5t93 91t129 32.5q97 0 157 -60v268h90zM380.5 86.5q37.5 19.5 61.5 54.5v210q-24 35 -61.5 54.5t-83.5 19.5q-49 0 -89 -22.5t-63 -63.5t-23 -93t23 -93t63 -63.5t89 -22.5
q46 0 83.5 19.5z" />
    <glyph glyph-name="e" unicode="e" horiz-adv-x="551" 
d="M511 220h-393q4 -47 25.5 -81.5t58.5 -53.5t86 -19q45 0 85 19t70 54l58 -57q-84 -94 -217 -94q-79 0 -136.5 34t-88 92.5t-30.5 130.5q0 77 31.5 135.5t87.5 91t127 32.5q73 0 127 -33.5t82.5 -90t28.5 -122.5q0 -12 -2 -38zM172 392q-41 -35 -51 -98h298
q-4 41 -23.5 71t-50.5 46t-71 16q-61 0 -102 -35z" />
    <glyph glyph-name="f" unicode="f" horiz-adv-x="336" 
d="M191 492h137v-78h-137v-414h-89v414h-94v78h94v75q0 48 18.5 82.5t53 52.5t80.5 18q54 0 91 -18l-21 -71q-28 12 -62 12q-33 0 -52 -20t-19 -59v-72z" />
    <glyph glyph-name="g" unicode="g" horiz-adv-x="600" 
d="M532 492v-459q0 -75 -31 -131.5t-87.5 -87t-132.5 -30.5q-113 0 -203 53l37 69q37 -21 79.5 -32t84.5 -11q51 0 87 20t54.5 57.5t18.5 87.5v18q-57 -57 -154 -57q-70 0 -129 32.5t-93 91t-34 134.5q0 75 34 133.5t93 91t129 32.5q104 0 163 -66l5 54h79zM378 86.5
q37 18.5 61 51.5l1 216q-24 34 -61.5 52.5t-81.5 18.5q-49 0 -89 -22.5t-63 -63t-23 -92.5q0 -53 23 -93.5t63 -63t89 -22.5q44 0 81 18.5z" />
    <glyph glyph-name="h" unicode="h" horiz-adv-x="563" 
d="M410 480q44 -24 67 -68.5t23 -106.5v-305h-89v297q0 66 -30 97t-88 31q-79 0 -136 -67v-358h-89v712h89v-269q59 61 148 61q61 0 105 -24z" />
    <glyph glyph-name="i" unicode="i" horiz-adv-x="259" 
d="M101.5 586.5q-16.5 16.5 -16.5 40.5t16.5 40.5t39.5 16.5q24 0 40.5 -16.5t16.5 -40.5t-16.5 -40.5t-40.5 -16.5q-23 0 -39.5 16.5zM191 0h-89v414h-94v78h183v-492z" />
    <glyph glyph-name="j" unicode="j" horiz-adv-x="259" 
d="M101.5 586.5q-16.5 16.5 -16.5 40.5t16.5 40.5t39.5 16.5q24 0 40.5 -16.5t16.5 -40.5t-16.5 -40.5t-40.5 -16.5q-23 0 -39.5 16.5zM191 -77q0 -61 -34.5 -97t-97.5 -36q-21 0 -41 4.5t-34 12.5l23 70q19 -9 44 -9q26 0 38.5 13.5t12.5 45.5v487h-94v78h183v-569z" />
    <glyph glyph-name="k" unicode="k" horiz-adv-x="529" 
d="M520 2v-2h-97q-37 71 -86 137q-45 63 -90 111l-90 -82v-166h-89v712h89v-439l239 219h118l-206 -188q48 -51 105 -127q53 -73 107 -175z" />
    <glyph glyph-name="l" unicode="l" horiz-adv-x="225" 
d="M68 712h89v-712h-89v712z" />
    <glyph glyph-name="m" unicode="m" horiz-adv-x="908" 
d="M754.5 480q43.5 -24 66.5 -68.5t23 -106.5v-305h-88v297q0 66 -30 97t-88 31q-43 0 -77 -17t-70 -54q4 -20 4 -49v-305h-89v297q0 128 -118 128q-77 0 -131 -61v-364h-89v491h84l2 -45q60 58 145 58q57 0 99.5 -20.5t66.5 -59.5q39 40 84 60t100 20q62 0 105.5 -24z" />
    <glyph glyph-name="n" unicode="n" horiz-adv-x="558" 
d="M405 480q44 -24 67 -68.5t23 -106.5v-305h-89v297q0 128 -118 128q-77 0 -131 -61v-364h-89v492h81l4 -47q61 59 146 59q62 0 106 -24z" />
    <glyph glyph-name="o" unicode="o" horiz-adv-x="591" 
d="M162 20.5q-61 32.5 -97 91t-36 133.5q0 76 36 135t97 91.5t134 32.5q72 0 133 -32.5t97 -92t36 -134.5t-36 -133.5t-97 -91t-133 -32.5q-73 0 -134 32.5zM382.5 89.5q39.5 22.5 62.5 63t23 92.5q0 53 -23 94t-62.5 63.5t-86.5 22.5q-48 0 -88 -22.5t-63 -63.5t-23 -94
q0 -52 23.5 -92.5t63 -63t87.5 -22.5q47 0 86.5 22.5z" />
    <glyph glyph-name="p" unicode="p" horiz-adv-x="600" 
d="M443.5 471.5q58.5 -32.5 93 -91.5t34.5 -134q0 -76 -34.5 -134.5t-93 -91t-128.5 -32.5q-99 0 -158 61v-253h-89v696h79l5 -54q59 66 163 66q70 0 128.5 -32.5zM391 89.5q40 22.5 63.5 63.5t23.5 93t-23.5 93t-63.5 63.5t-89 22.5q-45 0 -83.5 -20t-61.5 -55v-208
q23 -35 61.5 -55t83.5 -20q49 0 89 22.5z" />
    <glyph glyph-name="q" unicode="q" horiz-adv-x="600" 
d="M532 492v-696h-90v252q-58 -60 -157 -60q-70 0 -129 32.5t-93 91.5t-34 134q0 76 34 134.5t93 91t129 32.5q103 0 162 -66l6 54h79zM380.5 86.5q37.5 19.5 61.5 54.5v210q-24 35 -61.5 54.5t-83.5 19.5q-49 0 -89 -22.5t-63 -63.5t-23 -93t23 -93t63 -63.5t89 -22.5
q46 0 83.5 19.5z" />
    <glyph glyph-name="r" unicode="r" horiz-adv-x="366" 
d="M357 495v-79q-25 3 -52 3q-48 0 -86.5 -18.5t-61.5 -56.5v-344h-89v492h81l5 -61q29 31 68.5 49t84.5 18q25 0 50 -3z" />
    <glyph glyph-name="s" unicode="s" horiz-adv-x="472" 
d="M398 389q-77 40 -167 40q-112 0 -112 -64q0 -22 13 -36t35 -22t57 -15l50 -9q92 -18 133.5 -53.5t41.5 -92.5q0 -45 -26 -78.5t-75.5 -52t-117.5 -18.5q-56 0 -109 14.5t-97 41.5l37 66q39 -22 82.5 -34t86.5 -12q64 0 97 17.5t33 48.5q0 22 -10.5 35.5t-36.5 23.5
t-74 19l-45 9q-77 14 -120 50t-43 94q0 43 23.5 75.5t69 50.5t109.5 18q111 0 199 -48z" />
    <glyph glyph-name="t" unicode="t" horiz-adv-x="341" 
d="M191 414v-287q0 -55 63 -55q23 0 50 5l14 -72q-36 -11 -81 -11q-68 0 -101.5 32t-33.5 99v289h-94v78h96v138h87v-138h136v-78h-136z" />
    <glyph glyph-name="u" unicode="u" horiz-adv-x="558" 
d="M490 492v-492h-81l-4 48q-60 -60 -147 -60q-61 0 -105 24t-67 68.5t-23 106.5v305h89v-297q0 -66 30 -97t88 -31q77 0 131 61v364h89z" />
    <glyph glyph-name="v" unicode="v" horiz-adv-x="475" 
d="M479 492q-39 -118 -90.5 -248t-104.5 -244h-94q-49 106 -99.5 234.5t-95.5 257.5h94q29 -91 68.5 -196.5t81.5 -205.5q41 97 80 202t70 200h90z" />
    <glyph glyph-name="w" unicode="w" horiz-adv-x="829" 
d="M833 492q-40 -122 -90 -251t-101 -241h-92l-136 380l-135 -380h-92q-49 107 -99 235.5t-93 256.5h90q72 -222 146 -398l141 398h83l143 -398q74 176 146 398h89z" />
    <glyph glyph-name="x" unicode="x" horiz-adv-x="491" 
d="M395 0l-151 192l-154 -192h-100l206 253l-192 239h106l138 -174l138 174h101l-191 -235l205 -257h-106z" />
    <glyph glyph-name="y" unicode="y" horiz-adv-x="475" 
d="M479 492q-39 -118 -90.5 -248t-104.5 -244q-53 -119 -100 -204h-93q64 112 104 204q-53 115 -106 244.5t-94 247.5h94q54 -171 152 -397q41 98 80 202t68 195h90z" />
    <glyph glyph-name="z" unicode="z" horiz-adv-x="473" 
d="M448 78v-78h-423v54q166 186 299 360h-289v78h408v-56q-134 -179 -289 -358h294z" />
    <glyph glyph-name="braceleft" unicode="{" horiz-adv-x="408" 
d="M198 -133.5q-38 31.5 -38 100.5v225q0 30 -18 46t-64 17v78q46 1 64 17t18 46v224q0 69 38 100.5t105 31.5h66v-77h-61q-36 0 -48 -16.5t-12 -43.5v-234q0 -41 -18.5 -62.5t-62.5 -23.5v-2q44 -2 62.5 -23.5t18.5 -62.5v-235q0 -27 12 -43.5t48 -16.5h61v-77h-66
q-67 0 -105 31.5z" />
    <glyph glyph-name="bar" unicode="|" horiz-adv-x="236" 
d="M158 -204h-80v1001h80v-1001z" />
    <glyph glyph-name="braceright" unicode="}" horiz-adv-x="408" 
d="M39 -165v77h62q36 0 47.5 16.5t11.5 43.5v235q0 41 19 62.5t63 23.5v2q-44 2 -63 23.5t-19 62.5v234q0 27 -11.5 43.5t-47.5 16.5h-62v77h67q66 0 104 -31.5t38 -100.5v-224q0 -30 18 -46t64 -17v-78q-46 -1 -64 -17t-18 -46v-225q0 -69 -38 -100.5t-104 -31.5h-67z" />
    <glyph glyph-name="asciitilde" unicode="~" 
d="M370 293.5q-24 9.5 -57 27.5q-29 16 -47 23.5t-36 7.5q-45 0 -55 -55l-74 13q9 59 42 91.5t86 32.5q25 0 49.5 -9.5t61.5 -28.5q27 -15 45 -22.5t34 -7.5q45 0 55 55l74 -13q-9 -58 -42 -91t-86 -33q-26 0 -50 9.5z" />
    <glyph glyph-name="uni00A0" unicode="&#xa0;" horiz-adv-x="308" 
 />
    <glyph glyph-name="exclamdown" unicode="&#xa1;" horiz-adv-x="288" 
d="M177 511.5q15 -8.5 24 -23.5t9 -33t-9 -33t-24 -24t-33 -9t-33 9t-24 24t-9 33t9 33t24 23.5t33 8.5t33 -8.5zM197 -204h-106l13 507h80z" />
    <glyph glyph-name="cent" unicode="&#xa2;" 
d="M473.5 235.5q-44.5 -20.5 -95.5 -23.5v-119h-64v123q-62 10 -111.5 44.5t-78 88.5t-28.5 121q0 69 28 124t77.5 89.5t112.5 42.5v107h64v-105q50 -4 95 -24t79 -54l-58 -59q-22 25 -52 40.5t-64 17.5v-357q34 2 64 17.5t52 40.5l59 -59q-35 -35 -79.5 -55.5zM205 391.5
q16 -35.5 44.5 -59.5t64.5 -34v345q-36 -10 -64.5 -34t-44.5 -60t-16 -79t16 -78.5z" />
    <glyph glyph-name="sterling" unicode="&#xa3;" 
d="M566 84v-84h-469v83q54 36 80.5 74t26.5 92q0 19 -3 35h-117v70h93l-13 27q-23 47 -35 81t-12 75q0 57 27.5 100t78 67t117.5 24q60 0 116 -18.5t102 -52.5l-43 -71q-84 59 -176 59q-61 0 -93.5 -29.5t-32.5 -78.5q0 -26 9.5 -53t28.5 -68q16 -34 26 -62h199v-70h-180
q3 -16 3 -34q0 -52 -24.5 -92t-64.5 -74h356z" />
    <glyph glyph-name="currency" unicode="&#xa4;" 
d="M541 277.5q-14 -37.5 -39 -67.5l76 -76l-47 -48l-80 80q-56 -35 -123 -35q-69 0 -127 37l-82 -82l-47 48l79 79q-24 30 -37 66.5t-13 76.5t13 76.5t37 66.5l-79 79l47 48l82 -82q58 37 127 37q67 0 123 -35l80 80l47 -48l-76 -76q25 -30 39 -67.5t14 -78.5t-14 -78.5z
M209 286q18 -31 49 -49t70 -18t70 18t49 49t18 70t-18 70t-49 49t-70 18t-70 -18t-49 -49t-18 -70t18 -70z" />
    <glyph glyph-name="yen" unicode="&#xa5;" 
d="M616 708l-203 -329h132v-70h-174v-75h174v-69h-174v-165h-94v165h-172v69h172v75h-172v70h131l-203 329v4h108l185 -310l187 310h103v-4z" />
    <glyph glyph-name="brokenbar" unicode="&#xa6;" horiz-adv-x="236" 
d="M158 398h-80v399h80v-399zM158 -204h-80v399h80v-399z" />
    <glyph glyph-name="section" unicode="&#xa7;" horiz-adv-x="587" 
d="M522 110.5q-31 -40.5 -87 -65.5q26 -24 39.5 -51.5t13.5 -59.5q0 -46 -23 -79.5t-65.5 -52t-100.5 -18.5q-54 0 -102.5 12.5t-88.5 35.5l33 68q74 -40 160 -40q46 0 72 19t26 54q0 24 -12.5 42t-30.5 30.5t-57 35.5l-90 54q-60 36 -97 67t-57.5 67.5t-20.5 81.5
q0 50 31 90.5t87 65.5q-27 25 -40.5 52.5t-13.5 61.5q0 44 23 77.5t66 51.5t101 18q106 0 191 -48l-33 -68q-74 40 -160 40q-46 0 -72 -18.5t-26 -51.5q0 -25 12.5 -43.5t30 -31t56.5 -36.5l90 -54q60 -36 97.5 -67t58 -67.5t20.5 -81.5q0 -50 -31 -90.5zM439.5 137
q24.5 29 24.5 63q0 39 -27 69.5t-86 66.5l-91 55q-21 12 -39 24q-50 -11 -74 -40t-24 -63q0 -39 26.5 -69.5t85.5 -66.5l92 -55l38 -24q50 11 74.5 40z" />
    <glyph glyph-name="dieresis" unicode="&#xa8;" horiz-adv-x="500" 
d="M95 616q0 23 16.5 39.5t39.5 16.5t39.5 -16.5t16.5 -39.5t-16.5 -39.5t-39.5 -16.5t-39.5 16.5t-16.5 39.5zM288 616q0 23 16.5 39.5t39.5 16.5t39.5 -16.5t16.5 -39.5t-16.5 -39.5t-39.5 -16.5t-39.5 16.5t-16.5 39.5z" />
    <glyph glyph-name="copyright" unicode="&#xa9;" horiz-adv-x="816" 
d="M215.5 33.5q-85.5 49.5 -134 134.5t-48.5 188t48.5 188.5t134 135t191.5 49.5q107 0 193 -49.5t134.5 -135t48.5 -188.5t-49 -188t-135 -134.5t-192 -49.5t-191.5 49.5zM563.5 91.5q69.5 40.5 108.5 110.5t39 154q0 85 -39 155t-108.5 110.5t-156.5 40.5
q-86 0 -155 -40.5t-108 -110.5t-39 -155t39 -154.5t108 -110t155 -40.5q87 0 156.5 40.5zM310.5 177.5q-48.5 26.5 -76.5 73t-28 105.5q0 60 28 107t76.5 73.5t107.5 26.5q46 0 85.5 -17t69.5 -49l-52 -51q-19 23 -46 35.5t-56 12.5q-36 0 -66 -17.5t-47.5 -49t-17.5 -71.5
t17.5 -71t47.5 -48t66 -17q30 0 56.5 12.5t45.5 34.5l52 -50q-29 -32 -68.5 -49t-86.5 -17q-59 0 -107.5 26.5z" />
    <glyph glyph-name="ordfeminine" unicode="&#xaa;" horiz-adv-x="430" 
d="M313 322l-6 41q-21 -24 -53.5 -37.5t-72.5 -13.5q-45 0 -79.5 15.5t-53 45t-18.5 69.5q0 38 20 67.5t61.5 47t104.5 17.5q44 0 85 -11q-1 29 -9.5 49.5t-32.5 32t-66 11.5q-26 0 -56 -6.5t-60 -19.5l-22 66q70 30 146 30q92 0 138 -40t46 -114v-187l6 -63h-78zM135 396
q23 -18 61 -18q35 0 59 11.5t46 32.5v78q-37 13 -81 13q-56 0 -82 -18.5t-26 -50.5q0 -30 23 -48z" />
    <glyph glyph-name="guillemotleft" unicode="&#xab;" horiz-adv-x="550" 
d="M143 270l146 -187l-65 -42l-178 229l178 229l65 -42zM354 270l146 -187l-65 -42l-178 229l178 229l65 -42z" />
    <glyph glyph-name="logicalnot" unicode="&#xac;" 
d="M550 426v-262h-86v183h-365v79h451z" />
    <glyph glyph-name="uni00AD" unicode="&#xad;" horiz-adv-x="369" 
d="M39 321h291v-79h-291v79z" />
    <glyph glyph-name="registered" unicode="&#xae;" horiz-adv-x="594" 
d="M422 696q57 -32 89.5 -86.5t32.5 -120.5t-32.5 -120.5t-89.5 -86.5t-125 -32t-125 32t-89.5 86.5t-32.5 120.5t32.5 120.5t89.5 86.5t125 32t125 -32zM396.5 323q44.5 25 70 69t25.5 97t-25.5 96.5t-70 69t-99.5 25.5t-99.5 -25.5t-70 -69t-25.5 -96.5t25.5 -97t70 -69
t99.5 -25t99.5 25zM356 461l53 -96h-52l-48 88h-58v-88h-47v249h106q39 0 66.5 -19t27.5 -62q0 -52 -48 -72zM307 492q51 0 51 41q0 24 -15 33.5t-36 9.5h-56v-84h56z" />
    <glyph glyph-name="macron" unicode="&#xaf;" horiz-adv-x="500" 
d="M389 572h-278v77h278v-77z" />
    <glyph glyph-name="degree" unicode="&#xb0;" horiz-adv-x="361" 
d="M113.5 485q-30.5 17 -47.5 46t-17 63q0 35 17 64t47.5 45.5t67.5 16.5t67 -16.5t47.5 -45.5t17.5 -64q0 -34 -17.5 -63t-47.5 -46t-67 -17t-67.5 17zM226 549q18 18 18 45t-18 44.5t-45 17.5t-45 -17.5t-18 -44.5t18.5 -45t44.5 -18q27 0 45 18z" />
    <glyph glyph-name="plusminus" unicode="&#xb1;" 
d="M559 412v-79h-192v-167h-86v167h-191v79h191v168h86v-168h192zM90 79h469v-79h-469v79z" />
    <glyph glyph-name="twosuperior" unicode="&#xb2;" horiz-adv-x="330" 
d="M320 573v-69h-302v55l160 142q28 25 42 48t14 52q0 30 -19 49t-53 19q-28 0 -47.5 -15.5t-29.5 -44.5l-73 20q14 53 55 82.5t99 29.5q44 0 78 -17.5t52.5 -48.5t18.5 -70q0 -32 -11.5 -59t-32.5 -50.5t-56 -53.5l-80 -69h185z" />
    <glyph glyph-name="threesuperior" unicode="&#xb3;" horiz-adv-x="371" 
d="M327 694.5q21 -28.5 21 -67.5q0 -38 -21.5 -68.5t-59.5 -47t-86 -16.5q-61 0 -105 28.5t-61 78.5l73 25q11 -31 36 -45.5t58 -14.5q38 0 61 17.5t23 47.5t-22 46.5t-62 16.5h-45v63h42q33 0 52.5 16t19.5 43q0 24 -19.5 39.5t-52.5 15.5q-64 0 -82 -60l-73 19
q31 110 157 110q46 0 80.5 -15.5t52.5 -41.5t18 -57t-16 -55.5t-47 -37.5q37 -11 58 -39.5z" />
    <glyph glyph-name="acute" unicode="&#xb4;" horiz-adv-x="500" 
d="M142 605l151 171l63 -58l-159 -157z" />
    <glyph glyph-name="mu" unicode="&#xb5;" horiz-adv-x="563" 
d="M495 492v-492h-81l-4 48q-60 -60 -147 -60q-59 0 -106 29v-221h-89v696h89v-297q0 -66 30 -97t88 -31q77 0 131 61v364h89z" />
    <glyph glyph-name="paragraph" unicode="&#xb6;" horiz-adv-x="563" 
d="M484 0h-79v632h-63v-632h-80v363q-65 0 -114.5 20t-77 58.5t-27.5 93.5q0 89 60.5 133t175.5 44h205v-712z" />
    <glyph glyph-name="periodcentered" unicode="&#xb7;" horiz-adv-x="203" 
d="M68 299q-15 9 -23.5 24t-8.5 33t8.5 33t23.5 24t33 9t33 -9t24 -24t9 -33t-9 -33t-24 -24t-33 -9t-33 9z" />
    <glyph glyph-name="cedilla" unicode="&#xb8;" horiz-adv-x="500" 
d="M349 -131q0 -44 -31.5 -70.5t-90.5 -26.5q-22 0 -44.5 5.5t-41.5 16.5l25 53q32 -15 61 -15q23 0 36.5 10t13.5 30t-21 32t-56 14l25 105h48l-14 -57q42 -11 66 -36.5t24 -60.5z" />
    <glyph glyph-name="onesuperior" unicode="&#xb9;" horiz-adv-x="262" 
d="M213 931v-427h-80v333l-115 -57v74l145 77h50z" />
    <glyph glyph-name="ordmasculine" unicode="&#xba;" horiz-adv-x="478" 
d="M130 339.5q-49 26.5 -78 74t-29 106.5q0 60 29 107.5t78 74t109 26.5q59 0 108.5 -26.5t78.5 -74t29 -107.5q0 -59 -29 -106.5t-78.5 -74t-108.5 -26.5q-60 0 -109 26.5zM304.5 403q29.5 17 47 47.5t17.5 69.5q0 40 -17.5 71t-47 48t-65.5 17t-65.5 -17.5t-47 -48.5
t-17.5 -70t17.5 -69.5t47 -47.5t65.5 -17t65.5 17z" />
    <glyph glyph-name="guillemotright" unicode="&#xbb;" horiz-adv-x="550" 
d="M294 270l-178 -229l-65 42l146 187l-146 187l65 42zM504 270l-177 -229l-65 42l145 187l-145 187l65 42z" />
    <glyph glyph-name="onequarter" unicode="&#xbc;" horiz-adv-x="857" 
d="M213 711v-427h-80v333l-115 -57v74l145 77h50zM214 -15l-61 42l511 699l61 -41zM842 98h-59v-98h-78v98h-210v74q82 148 190 255h98v-260h59v-69zM705 167v188q-73 -81 -133 -188h133z" />
    <glyph glyph-name="onehalf" unicode="&#xbd;" horiz-adv-x="896" 
d="M213 711v-427h-80v333l-115 -57v74l145 77h50zM214 -15l-61 42l511 699l61 -41zM886 69v-69h-302v55l160 142q28 25 42 48t14 52q0 30 -19 49t-53 19q-28 0 -47.5 -15.5t-29.5 -44.5l-73 20q14 53 55 82.5t99 29.5q44 0 78 -17.5t52.5 -48.5t18.5 -70q0 -32 -11.5 -59
t-32.5 -50.5t-56 -53.5l-80 -69h185z" />
    <glyph glyph-name="threequarters" unicode="&#xbe;" horiz-adv-x="907" 
d="M327 474.5q21 -28.5 21 -67.5q0 -38 -21.5 -68.5t-59.5 -47t-86 -16.5q-61 0 -105 28.5t-61 78.5l73 25q11 -31 36 -45.5t58 -14.5q38 0 61 17.5t23 47.5t-22 46.5t-62 16.5h-45v63h42q33 0 52.5 16t19.5 43q0 24 -19.5 39.5t-52.5 15.5q-64 0 -82 -60l-73 19
q31 110 157 110q46 0 80.5 -15.5t52.5 -41.5t18 -57t-16 -55.5t-47 -37.5q37 -11 58 -39.5zM263 -15l-61 42l511 699l61 -41zM891 98h-59v-98h-78v98h-210v74q82 148 190 255h98v-260h59v-69zM754 167v188q-73 -81 -133 -188h133z" />
    <glyph glyph-name="questiondown" unicode="&#xbf;" horiz-adv-x="516" 
d="M321 505q19 -19 19 -47q0 -18 -9 -33t-24 -23.5t-33 -8.5t-33 8.5t-24 23.5t-9 33t9 33t24 24t33 9q28 0 47 -19zM130 -189q-52 27 -77.5 71t-25.5 93q0 57 27.5 101t80.5 80q43 29 63 51t27 46.5t10 67.5h85q-2 -51 -11.5 -84.5t-32 -62t-66.5 -62.5q-30 -24 -48 -42.5
t-28 -41t-10 -51.5q0 -28 15.5 -52t45 -39t69.5 -15q59 0 95.5 26.5t54.5 83.5l88 -31q-26 -84 -87.5 -125t-146.5 -41q-76 0 -128 27z" />
    <glyph glyph-name="Agrave" unicode="&#xc0;" horiz-adv-x="666" 
d="M504 196h-343q-22 -64 -64 -196h-98q65 203 134 381.5t147 330.5h107q143 -279 280 -712h-98q-42 132 -65 196zM474 282q-69 185 -141 339q-74 -154 -141 -339h282zM184 919l64 58l150 -171l-54 -44z" />
    <glyph glyph-name="Aacute" unicode="&#xc1;" horiz-adv-x="666" 
d="M504 196h-343q-22 -64 -64 -196h-98q65 203 134 381.5t147 330.5h107q143 -279 280 -712h-98q-42 132 -65 196zM474 282q-69 185 -141 339q-74 -154 -141 -339h282zM279 805l151 171l63 -58l-159 -157z" />
    <glyph glyph-name="Acircumflex" unicode="&#xc2;" horiz-adv-x="666" 
d="M504 196h-343q-22 -64 -64 -196h-98q65 203 134 381.5t147 330.5h107q143 -279 280 -712h-98q-42 132 -65 196zM474 282q-69 185 -141 339q-74 -154 -141 -339h282zM462 759l-127 104l-130 -104l-51 52l180 144l180 -144z" />
    <glyph glyph-name="Atilde" unicode="&#xc3;" horiz-adv-x="666" 
d="M504 196h-343q-22 -64 -64 -196h-98q65 203 134 381.5t147 330.5h107q143 -279 280 -712h-98q-42 132 -65 196zM474 282q-69 185 -141 339q-74 -154 -141 -339h282zM358.5 760q-18.5 8 -42.5 23q-15 10 -25 15t-19 5q-13 0 -21.5 -9t-17.5 -35l-70 22q13 48 38 70.5
t67 22.5q24 0 42.5 -8t42.5 -23q13 -10 23.5 -15t20.5 -5q13 0 21.5 9t17.5 35l71 -16q-27 -99 -106 -99q-24 0 -42.5 8z" />
    <glyph glyph-name="Adieresis" unicode="&#xc4;" horiz-adv-x="666" 
d="M504 196h-343q-22 -64 -64 -196h-98q65 203 134 381.5t147 330.5h107q143 -279 280 -712h-98q-42 132 -65 196zM474 282q-69 185 -141 339q-74 -154 -141 -339h282zM195.5 776.5q-16.5 16.5 -16.5 39.5t16.5 39.5t39.5 16.5t39.5 -16.5t16.5 -39.5t-16.5 -39.5
t-39.5 -16.5t-39.5 16.5zM388.5 776.5q-16.5 16.5 -16.5 39.5t16.5 39.5t39.5 16.5t39.5 -16.5t16.5 -39.5t-16.5 -39.5t-39.5 -16.5t-39.5 16.5z" />
    <glyph glyph-name="Aring" unicode="&#xc5;" horiz-adv-x="666" 
d="M504 196h-343q-22 -64 -64 -196h-98q65 203 134 381.5t147 330.5h107q143 -279 280 -712h-98q-42 132 -65 196zM474 282q-69 185 -141 339q-74 -154 -141 -339h282zM272 776.5q-28 15.5 -44 42t-16 59.5t16 59.5t44 42t62 15.5t62 -15.5t44 -42t16 -59.5t-16 -59.5
t-44 -42t-62 -15.5t-62 15.5zM374 837q17 15 17 39q0 25 -16.5 41.5t-40.5 16.5t-40.5 -16t-16.5 -40q0 -25 16.5 -40.5t40.5 -15.5q23 0 40 15z" />
    <glyph glyph-name="AE" unicode="&#xc6;" horiz-adv-x="953" 
d="M905 84v-84h-437v178h-308q-32 -79 -64 -178h-97q64 197 158 388.5t196 323.5h538v-84h-329v-226h313v-82h-313v-236h343zM468 261v367h-69q-53 -74 -105.5 -168t-98.5 -199h273z" />
    <glyph glyph-name="Ccedilla" unicode="&#xc7;" horiz-adv-x="716" 
d="M580 26q-70 -34 -157 -38l-6 -22q42 -11 66 -36.5t24 -60.5q0 -44 -31.5 -70.5t-90.5 -26.5q-22 0 -44.5 5.5t-41.5 16.5l25 53q32 -15 61 -15q23 0 36.5 10t13.5 30t-21 32t-56 14l17 71q-97 6 -175 55.5t-122.5 131t-44.5 182.5q0 105 48.5 189.5t133 132.5t187.5 48
q93 0 168 -34t127 -96l-66 -58q-42 48 -99.5 74t-128.5 26q-77 0 -139 -35.5t-97.5 -100t-35.5 -146.5t35.5 -146.5t97.5 -100t139 -35.5q73 0 131 26.5t99 76.5l65 -61q-48 -58 -118 -92z" />
    <glyph glyph-name="Egrave" unicode="&#xc8;" horiz-adv-x="603" 
d="M556 84v-84h-478v712h463v-84h-369v-226h353v-82h-353v-236h384zM160 919l64 58l150 -171l-54 -44z" />
    <glyph glyph-name="Eacute" unicode="&#xc9;" horiz-adv-x="603" 
d="M556 84v-84h-478v712h463v-84h-369v-226h353v-82h-353v-236h384zM255 805l151 171l63 -58l-159 -157z" />
    <glyph glyph-name="Ecircumflex" unicode="&#xca;" horiz-adv-x="603" 
d="M556 84v-84h-478v712h463v-84h-369v-226h353v-82h-353v-236h384zM438 759l-127 104l-130 -104l-51 52l180 144l180 -144z" />
    <glyph glyph-name="Edieresis" unicode="&#xcb;" horiz-adv-x="603" 
d="M556 84v-84h-478v712h463v-84h-369v-226h353v-82h-353v-236h384zM171.5 776.5q-16.5 16.5 -16.5 39.5t16.5 39.5t39.5 16.5t39.5 -16.5t16.5 -39.5t-16.5 -39.5t-39.5 -16.5t-39.5 16.5zM364.5 776.5q-16.5 16.5 -16.5 39.5t16.5 39.5t39.5 16.5t39.5 -16.5t16.5 -39.5
t-16.5 -39.5t-39.5 -16.5t-39.5 16.5z" />
    <glyph glyph-name="Igrave" unicode="&#xcc;" horiz-adv-x="250" 
d="M78 712h94v-712h-94v712zM-25 919l64 58l150 -171l-54 -44z" />
    <glyph glyph-name="Iacute" unicode="&#xcd;" horiz-adv-x="250" 
d="M78 712h94v-712h-94v712zM70 805l151 171l63 -58l-159 -157z" />
    <glyph glyph-name="Icircumflex" unicode="&#xce;" horiz-adv-x="250" 
d="M78 712h94v-712h-94v712zM253 759l-127 104l-130 -104l-51 52l180 144l180 -144z" />
    <glyph glyph-name="Idieresis" unicode="&#xcf;" horiz-adv-x="250" 
d="M78 712h94v-712h-94v712zM-13.5 776.5q-16.5 16.5 -16.5 39.5t16.5 39.5t39.5 16.5t39.5 -16.5t16.5 -39.5t-16.5 -39.5t-39.5 -16.5t-39.5 16.5zM179.5 776.5q-16.5 16.5 -16.5 39.5t16.5 39.5t39.5 16.5t39.5 -16.5t16.5 -39.5t-16.5 -39.5t-39.5 -16.5t-39.5 16.5z
" />
    <glyph glyph-name="Eth" unicode="&#xd0;" horiz-adv-x="716" 
d="M490 669q91 -43 142 -123.5t51 -189.5t-51 -189.5t-142 -123.5t-209 -43h-203v322h-64v69h64v321h203q118 0 209 -43zM444 117.5q68 33.5 104.5 94.5t36.5 144t-36.5 144t-104.5 94.5t-161 33.5h-111v-237h196v-69h-196v-238h111q93 0 161 33.5z" />
    <glyph glyph-name="Ntilde" unicode="&#xd1;" horiz-adv-x="740" 
d="M662 712v-712h-122l-301 487l-69 119v-606h-92v712h126l300 -486q3 -5 7 -12t9 -16q30 -48 51 -87v601h91zM394.5 760q-18.5 8 -42.5 23q-15 10 -25 15t-19 5q-13 0 -21.5 -9t-17.5 -35l-70 22q13 48 38 70.5t67 22.5q24 0 42.5 -8t42.5 -23q13 -10 23.5 -15t20.5 -5
q13 0 21.5 9t17.5 35l71 -16q-27 -99 -106 -99q-24 0 -42.5 8z" />
    <glyph glyph-name="Ograve" unicode="&#xd2;" horiz-adv-x="806" 
d="M215 36q-85 48 -133.5 132.5t-48.5 189.5t48.5 189.5t133.5 132.5t188 48q104 0 188.5 -48t133.5 -132.5t49 -189.5t-49 -189.5t-133.5 -132.5t-188.5 -48q-103 0 -188 48zM542.5 111.5q62.5 35.5 98 100t35.5 146.5t-35.5 146t-98 100t-139.5 36q-76 0 -138.5 -36
t-98 -100t-35.5 -146t35.5 -146.5t97.5 -100t139 -35.5t139.5 35.5zM253 935l64 58l150 -171l-54 -44z" />
    <glyph glyph-name="Oacute" unicode="&#xd3;" horiz-adv-x="806" 
d="M215 36q-85 48 -133.5 132.5t-48.5 189.5t48.5 189.5t133.5 132.5t188 48q104 0 188.5 -48t133.5 -132.5t49 -189.5t-49 -189.5t-133.5 -132.5t-188.5 -48q-103 0 -188 48zM542.5 111.5q62.5 35.5 98 100t35.5 146.5t-35.5 146t-98 100t-139.5 36q-76 0 -138.5 -36
t-98 -100t-35.5 -146t35.5 -146.5t97.5 -100t139 -35.5t139.5 35.5zM348 821l151 171l63 -58l-159 -157z" />
    <glyph glyph-name="Ocircumflex" unicode="&#xd4;" horiz-adv-x="806" 
d="M215 36q-85 48 -133.5 132.5t-48.5 189.5t48.5 189.5t133.5 132.5t188 48q104 0 188.5 -48t133.5 -132.5t49 -189.5t-49 -189.5t-133.5 -132.5t-188.5 -48q-103 0 -188 48zM542.5 111.5q62.5 35.5 98 100t35.5 146.5t-35.5 146t-98 100t-139.5 36q-76 0 -138.5 -36
t-98 -100t-35.5 -146t35.5 -146.5t97.5 -100t139 -35.5t139.5 35.5zM531 775l-127 104l-130 -104l-51 52l180 144l180 -144z" />
    <glyph glyph-name="Otilde" unicode="&#xd5;" horiz-adv-x="806" 
d="M215 36q-85 48 -133.5 132.5t-48.5 189.5t48.5 189.5t133.5 132.5t188 48q104 0 188.5 -48t133.5 -132.5t49 -189.5t-49 -189.5t-133.5 -132.5t-188.5 -48q-103 0 -188 48zM542.5 111.5q62.5 35.5 98 100t35.5 146.5t-35.5 146t-98 100t-139.5 36q-76 0 -138.5 -36
t-98 -100t-35.5 -146t35.5 -146.5t97.5 -100t139 -35.5t139.5 35.5zM427.5 776q-18.5 8 -42.5 23q-15 10 -25 15t-19 5q-13 0 -21.5 -9t-17.5 -35l-70 22q13 48 38 70.5t67 22.5q24 0 42.5 -8t42.5 -23q13 -10 23.5 -15t20.5 -5q13 0 21.5 9t17.5 35l71 -16
q-27 -99 -106 -99q-24 0 -42.5 8z" />
    <glyph glyph-name="Odieresis" unicode="&#xd6;" horiz-adv-x="806" 
d="M215 36q-85 48 -133.5 132.5t-48.5 189.5t48.5 189.5t133.5 132.5t188 48q104 0 188.5 -48t133.5 -132.5t49 -189.5t-49 -189.5t-133.5 -132.5t-188.5 -48q-103 0 -188 48zM542.5 111.5q62.5 35.5 98 100t35.5 146.5t-35.5 146t-98 100t-139.5 36q-76 0 -138.5 -36
t-98 -100t-35.5 -146t35.5 -146.5t97.5 -100t139 -35.5t139.5 35.5zM264.5 792.5q-16.5 16.5 -16.5 39.5t16.5 39.5t39.5 16.5t39.5 -16.5t16.5 -39.5t-16.5 -39.5t-39.5 -16.5t-39.5 16.5zM457.5 792.5q-16.5 16.5 -16.5 39.5t16.5 39.5t39.5 16.5t39.5 -16.5t16.5 -39.5
t-16.5 -39.5t-39.5 -16.5t-39.5 16.5z" />
    <glyph glyph-name="multiply" unicode="&#xd7;" 
d="M381 356l150 -148l-56 -57l-150 149l-151 -149l-56 57l150 148l-150 149l56 56l151 -149l150 149l56 -56z" />
    <glyph glyph-name="Oslash" unicode="&#xd8;" horiz-adv-x="806" 
d="M753 486q21 -60 21 -128q0 -105 -49 -189.5t-133.5 -132.5t-188.5 -48q-66 0 -125 20t-107 57l-78 -79l-56 56l78 78q-40 48 -61 108.5t-21 129.5q0 105 48.5 189.5t133.5 132.5t188 48q67 0 126.5 -20.5t107.5 -58.5l76 77l56 -56l-75 -76q38 -48 59 -108zM144 266
q13 -43 37 -78l392 396q-35 27 -78.5 41.5t-91.5 14.5q-76 0 -138.5 -36t-98 -100t-35.5 -146q0 -49 13 -92zM542.5 111.5q62.5 35.5 98 100t35.5 146.5q0 48 -12.5 91t-36.5 77l-391 -395q34 -27 77 -41t90 -14q77 0 139.5 35.5z" />
    <glyph glyph-name="Ugrave" unicode="&#xd9;" horiz-adv-x="697" 
d="M198.5 21q-64.5 33 -100 99t-35.5 162v430h94v-430q0 -105 52 -155.5t140 -50.5q87 0 139 50.5t52 155.5v430h94v-430q0 -96 -35.5 -162t-99.5 -99t-150 -33t-150.5 33zM199 919l64 58l150 -171l-54 -44z" />
    <glyph glyph-name="Uacute" unicode="&#xda;" horiz-adv-x="697" 
d="M198.5 21q-64.5 33 -100 99t-35.5 162v430h94v-430q0 -105 52 -155.5t140 -50.5q87 0 139 50.5t52 155.5v430h94v-430q0 -96 -35.5 -162t-99.5 -99t-150 -33t-150.5 33zM294 805l151 171l63 -58l-159 -157z" />
    <glyph glyph-name="Ucircumflex" unicode="&#xdb;" horiz-adv-x="697" 
d="M198.5 21q-64.5 33 -100 99t-35.5 162v430h94v-430q0 -105 52 -155.5t140 -50.5q87 0 139 50.5t52 155.5v430h94v-430q0 -96 -35.5 -162t-99.5 -99t-150 -33t-150.5 33zM477 759l-127 104l-130 -104l-51 52l180 144l180 -144z" />
    <glyph glyph-name="Udieresis" unicode="&#xdc;" horiz-adv-x="697" 
d="M198.5 21q-64.5 33 -100 99t-35.5 162v430h94v-430q0 -105 52 -155.5t140 -50.5q87 0 139 50.5t52 155.5v430h94v-430q0 -96 -35.5 -162t-99.5 -99t-150 -33t-150.5 33zM209.5 776.5q-16.5 16.5 -16.5 39.5t16.5 39.5t39.5 16.5t39.5 -16.5t16.5 -39.5t-16.5 -39.5
t-39.5 -16.5t-39.5 16.5zM402.5 776.5q-16.5 16.5 -16.5 39.5t16.5 39.5t39.5 16.5t39.5 -16.5t16.5 -39.5t-16.5 -39.5t-39.5 -16.5t-39.5 16.5z" />
    <glyph glyph-name="Yacute" unicode="&#xdd;" horiz-adv-x="622" 
d="M623 712v-4l-265 -397v-311h-95v312l-264 396v4h109l205 -312l207 312h103zM259 805l151 171l63 -58l-159 -157z" />
    <glyph glyph-name="Thorn" unicode="&#xde;" horiz-adv-x="609" 
d="M473 547q56 -30 84 -80.5t28 -110.5t-28 -110.5t-84 -80.5t-137 -30h-164v-135h-94v712h94v-135h164q81 0 137 -30zM418 236.5q34 17.5 51.5 48.5t17.5 71t-17.5 71t-51.5 48.5t-82 17.5h-164v-274h164q48 0 82 17.5z" />
    <glyph glyph-name="germandbls" unicode="&#xdf;" horiz-adv-x="596" 
d="M529 316q38 -49 38 -121q0 -60 -29 -107t-80.5 -73.5t-114.5 -26.5q-80 0 -137 32l37 68q22 -12 45.5 -18t52.5 -6q40 0 71 17t48 47t17 68q0 41 -19 71.5t-56 47.5t-90 17h-35v75h12q32 0 62.5 12t50.5 40t20 72q0 33 -16.5 59.5t-47.5 42.5t-70 16q-42 0 -71.5 -16.5
t-44.5 -45.5t-15 -67v-521h-89v524q0 59 26 105.5t76.5 73t119.5 26.5q72 0 122 -28t74.5 -71t24.5 -87q0 -56 -24.5 -95t-67.5 -62q72 -20 110 -69z" />
    <glyph glyph-name="agrave" unicode="&#xe0;" horiz-adv-x="528" 
d="M391 0l-7 50q-27 -29 -67 -45t-88 -16q-57 0 -100 20t-66.5 56.5t-23.5 85.5q0 48 25 86t75 60.5t123 22.5q66 0 116 -16q-1 41 -13.5 67.5t-42.5 40.5t-82 14q-30 0 -67 -8t-75 -24l-25 74q89 36 176 36q108 0 163.5 -48.5t55.5 -140.5v-240l8 -75h-85zM140.5 107.5
q13.5 -20.5 39 -31.5t59.5 -11q46 0 78 14.5t61 43.5v106q-49 17 -108 17q-74 0 -108.5 -25t-34.5 -67q0 -26 13.5 -46.5zM109 719l64 58l150 -171l-54 -44z" />
    <glyph glyph-name="aacute" unicode="&#xe1;" horiz-adv-x="528" 
d="M391 0l-7 50q-27 -29 -67 -45t-88 -16q-57 0 -100 20t-66.5 56.5t-23.5 85.5q0 48 25 86t75 60.5t123 22.5q66 0 116 -16q-1 41 -13.5 67.5t-42.5 40.5t-82 14q-30 0 -67 -8t-75 -24l-25 74q89 36 176 36q108 0 163.5 -48.5t55.5 -140.5v-240l8 -75h-85zM140.5 107.5
q13.5 -20.5 39 -31.5t59.5 -11q46 0 78 14.5t61 43.5v106q-49 17 -108 17q-74 0 -108.5 -25t-34.5 -67q0 -26 13.5 -46.5zM204 605l151 171l63 -58l-159 -157z" />
    <glyph glyph-name="acircumflex" unicode="&#xe2;" horiz-adv-x="528" 
d="M391 0l-7 50q-27 -29 -67 -45t-88 -16q-57 0 -100 20t-66.5 56.5t-23.5 85.5q0 48 25 86t75 60.5t123 22.5q66 0 116 -16q-1 41 -13.5 67.5t-42.5 40.5t-82 14q-30 0 -67 -8t-75 -24l-25 74q89 36 176 36q108 0 163.5 -48.5t55.5 -140.5v-240l8 -75h-85zM140.5 107.5
q13.5 -20.5 39 -31.5t59.5 -11q46 0 78 14.5t61 43.5v106q-49 17 -108 17q-74 0 -108.5 -25t-34.5 -67q0 -26 13.5 -46.5zM387 559l-127 104l-130 -104l-51 52l180 144l180 -144z" />
    <glyph glyph-name="atilde" unicode="&#xe3;" horiz-adv-x="528" 
d="M391 0l-7 50q-27 -29 -67 -45t-88 -16q-57 0 -100 20t-66.5 56.5t-23.5 85.5q0 48 25 86t75 60.5t123 22.5q66 0 116 -16q-1 41 -13.5 67.5t-42.5 40.5t-82 14q-30 0 -67 -8t-75 -24l-25 74q89 36 176 36q108 0 163.5 -48.5t55.5 -140.5v-240l8 -75h-85zM140.5 107.5
q13.5 -20.5 39 -31.5t59.5 -11q46 0 78 14.5t61 43.5v106q-49 17 -108 17q-74 0 -108.5 -25t-34.5 -67q0 -26 13.5 -46.5zM283.5 560q-18.5 8 -42.5 23q-15 10 -25 15t-19 5q-13 0 -21.5 -9t-17.5 -35l-70 22q13 48 38 70.5t67 22.5q24 0 42.5 -8t42.5 -23q13 -10 23.5 -15
t20.5 -5q13 0 21.5 9t17.5 35l71 -16q-27 -99 -106 -99q-24 0 -42.5 8z" />
    <glyph glyph-name="adieresis" unicode="&#xe4;" horiz-adv-x="528" 
d="M391 0l-7 50q-27 -29 -67 -45t-88 -16q-57 0 -100 20t-66.5 56.5t-23.5 85.5q0 48 25 86t75 60.5t123 22.5q66 0 116 -16q-1 41 -13.5 67.5t-42.5 40.5t-82 14q-30 0 -67 -8t-75 -24l-25 74q89 36 176 36q108 0 163.5 -48.5t55.5 -140.5v-240l8 -75h-85zM140.5 107.5
q13.5 -20.5 39 -31.5t59.5 -11q46 0 78 14.5t61 43.5v106q-49 17 -108 17q-74 0 -108.5 -25t-34.5 -67q0 -26 13.5 -46.5zM120.5 576.5q-16.5 16.5 -16.5 39.5t16.5 39.5t39.5 16.5t39.5 -16.5t16.5 -39.5t-16.5 -39.5t-39.5 -16.5t-39.5 16.5zM313.5 576.5
q-16.5 16.5 -16.5 39.5t16.5 39.5t39.5 16.5t39.5 -16.5t16.5 -39.5t-16.5 -39.5t-39.5 -16.5t-39.5 16.5z" />
    <glyph glyph-name="aring" unicode="&#xe5;" horiz-adv-x="528" 
d="M391 0l-7 50q-27 -29 -67 -45t-88 -16q-57 0 -100 20t-66.5 56.5t-23.5 85.5q0 48 25 86t75 60.5t123 22.5q66 0 116 -16q-1 41 -13.5 67.5t-42.5 40.5t-82 14q-30 0 -67 -8t-75 -24l-25 74q89 36 176 36q108 0 163.5 -48.5t55.5 -140.5v-240l8 -75h-85zM140.5 107.5
q13.5 -20.5 39 -31.5t59.5 -11q46 0 78 14.5t61 43.5v106q-49 17 -108 17q-74 0 -108.5 -25t-34.5 -67q0 -26 13.5 -46.5zM197 576.5q-28 15.5 -44 42t-16 59.5t16 59.5t44 42t62 15.5t62 -15.5t44 -42t16 -59.5t-16 -59.5t-44 -42t-62 -15.5t-62 15.5zM299 637q17 15 17 39
q0 25 -16.5 41.5t-40.5 16.5t-40.5 -16t-16.5 -40q0 -25 16.5 -40.5t40.5 -15.5q23 0 40 15z" />
    <glyph glyph-name="ae" unicode="&#xe6;" horiz-adv-x="900" 
d="M860 220h-393q4 -47 25.5 -81.5t58.5 -53.5t86 -19q45 0 85.5 19t70.5 54l58 -57q-45 -50 -99.5 -72t-117.5 -22q-64 0 -114.5 23t-84.5 64q-20 -22 -52 -41.5t-72 -32t-82 -12.5q-57 0 -100 20t-66.5 56.5t-23.5 85.5q0 48 25 86.5t76 61t126 22.5q58 0 112 -17
q-1 41 -13.5 67.5t-42.5 40.5t-82 14q-30 0 -67 -8t-75 -24l-25 74q89 36 176 36q69 0 116.5 -23t71.5 -69q33 43 83 67.5t104 24.5q73 0 127 -33.5t82.5 -90t28.5 -122.5q0 -25 -2 -38zM522 392q-41 -35 -52 -98h299q-4 41 -23.5 71t-50.5 46t-71 16q-61 0 -102 -35z
M399 134q-18 43 -21 95q-49 17 -108 17q-74 0 -108.5 -25t-34.5 -67q0 -26 13.5 -46.5t39 -31.5t59.5 -11q82 0 160 69z" />
    <glyph glyph-name="ccedilla" unicode="&#xe7;" horiz-adv-x="509" 
d="M402.5 9q-47.5 -20 -101.5 -21l-6 -22q42 -11 66 -36.5t24 -60.5q0 -44 -31.5 -70.5t-90.5 -26.5q-22 0 -44.5 5.5t-41.5 16.5l25 53q32 -15 61 -15q23 0 36.5 10t13.5 30t-21 32t-56 14l17 73q-63 9 -114 43.5t-80.5 89t-29.5 121.5q0 76 34 135t93 91.5t132 32.5
q57 0 108.5 -20.5t88.5 -58.5l-58 -59q-24 28 -58 43.5t-73 15.5q-48 0 -88 -22.5t-63 -63.5t-23 -94q0 -52 23.5 -92.5t63 -63t87.5 -22.5q39 0 73 15.5t58 43.5l59 -59q-36 -38 -83.5 -58z" />
    <glyph glyph-name="egrave" unicode="&#xe8;" horiz-adv-x="551" 
d="M511 220h-393q4 -47 25.5 -81.5t58.5 -53.5t86 -19q45 0 85 19t70 54l58 -57q-84 -94 -217 -94q-79 0 -136.5 34t-88 92.5t-30.5 130.5q0 77 31.5 135.5t87.5 91t127 32.5q73 0 127 -33.5t82.5 -90t28.5 -122.5q0 -12 -2 -38zM172 392q-41 -35 -51 -98h298
q-4 41 -23.5 71t-50.5 46t-71 16q-61 0 -102 -35zM125 719l64 58l150 -171l-54 -44z" />
    <glyph glyph-name="eacute" unicode="&#xe9;" horiz-adv-x="551" 
d="M511 220h-393q4 -47 25.5 -81.5t58.5 -53.5t86 -19q45 0 85 19t70 54l58 -57q-84 -94 -217 -94q-79 0 -136.5 34t-88 92.5t-30.5 130.5q0 77 31.5 135.5t87.5 91t127 32.5q73 0 127 -33.5t82.5 -90t28.5 -122.5q0 -12 -2 -38zM172 392q-41 -35 -51 -98h298
q-4 41 -23.5 71t-50.5 46t-71 16q-61 0 -102 -35zM220 605l151 171l63 -58l-159 -157z" />
    <glyph glyph-name="ecircumflex" unicode="&#xea;" horiz-adv-x="551" 
d="M511 220h-393q4 -47 25.5 -81.5t58.5 -53.5t86 -19q45 0 85 19t70 54l58 -57q-84 -94 -217 -94q-79 0 -136.5 34t-88 92.5t-30.5 130.5q0 77 31.5 135.5t87.5 91t127 32.5q73 0 127 -33.5t82.5 -90t28.5 -122.5q0 -12 -2 -38zM172 392q-41 -35 -51 -98h298
q-4 41 -23.5 71t-50.5 46t-71 16q-61 0 -102 -35zM403 559l-127 104l-130 -104l-51 52l180 144l180 -144z" />
    <glyph glyph-name="edieresis" unicode="&#xeb;" horiz-adv-x="551" 
d="M511 220h-393q4 -47 25.5 -81.5t58.5 -53.5t86 -19q45 0 85 19t70 54l58 -57q-84 -94 -217 -94q-79 0 -136.5 34t-88 92.5t-30.5 130.5q0 77 31.5 135.5t87.5 91t127 32.5q73 0 127 -33.5t82.5 -90t28.5 -122.5q0 -12 -2 -38zM172 392q-41 -35 -51 -98h298
q-4 41 -23.5 71t-50.5 46t-71 16q-61 0 -102 -35zM135.5 576.5q-16.5 16.5 -16.5 39.5t16.5 39.5t39.5 16.5t39.5 -16.5t16.5 -39.5t-16.5 -39.5t-39.5 -16.5t-39.5 16.5zM328.5 576.5q-16.5 16.5 -16.5 39.5t16.5 39.5t39.5 16.5t39.5 -16.5t16.5 -39.5t-16.5 -39.5
t-39.5 -16.5t-39.5 16.5z" />
    <glyph glyph-name="igrave" unicode="&#xec;" horiz-adv-x="259" 
d="M191 0h-89v414h-94v78h183v-492zM-8 719l64 58l150 -171l-54 -44z" />
    <glyph glyph-name="iacute" unicode="&#xed;" horiz-adv-x="259" 
d="M191 0h-89v414h-94v78h183v-492zM86 605l151 171l63 -58l-159 -157z" />
    <glyph glyph-name="icircumflex" unicode="&#xee;" horiz-adv-x="259" 
d="M191 0h-89v414h-94v78h183v-492zM269 559l-127 104l-130 -104l-51 52l180 144l180 -144z" />
    <glyph glyph-name="idieresis" unicode="&#xef;" horiz-adv-x="259" 
d="M191 0h-89v414h-94v78h183v-492zM2.5 576.5q-16.5 16.5 -16.5 39.5t16.5 39.5t39.5 16.5t39.5 -16.5t16.5 -39.5t-16.5 -39.5t-39.5 -16.5t-39.5 16.5zM195.5 576.5q-16.5 16.5 -16.5 39.5t16.5 39.5t39.5 16.5t39.5 -16.5t16.5 -39.5t-16.5 -39.5t-39.5 -16.5
t-39.5 16.5z" />
    <glyph glyph-name="eth" unicode="&#xf0;" horiz-adv-x="591" 
d="M519.5 440q42.5 -86 42.5 -174q0 -87 -36 -149.5t-96.5 -95.5t-134.5 -33q-72 0 -133 32.5t-97 90.5t-36 133t35 134t93.5 91.5t125.5 32.5q40 0 70 -8.5t56 -26.5q-34 51 -92 114l-140 -45l-20 63l108 34l-53 51l63 50l62 -59l15 -14l120 38l20 -62l-89 -29
q74 -82 116.5 -168zM381.5 89.5q39.5 22.5 62.5 62.5t23 92q0 53 -23 93.5t-62.5 63t-86.5 22.5t-86.5 -22.5t-62.5 -63t-23 -93.5q0 -52 23 -92t62.5 -62.5t86.5 -22.5t86.5 22.5z" />
    <glyph glyph-name="ntilde" unicode="&#xf1;" horiz-adv-x="558" 
d="M405 480q44 -24 67 -68.5t23 -106.5v-305h-89v297q0 128 -118 128q-77 0 -131 -61v-364h-89v492h81l4 -47q61 59 146 59q62 0 106 -24zM310.5 560q-18.5 8 -42.5 23q-15 10 -25 15t-19 5q-13 0 -21.5 -9t-17.5 -35l-70 22q13 48 38 70.5t67 22.5q24 0 42.5 -8t42.5 -23
q13 -10 23.5 -15t20.5 -5q13 0 21.5 9t17.5 35l71 -16q-27 -99 -106 -99q-24 0 -42.5 8z" />
    <glyph glyph-name="ograve" unicode="&#xf2;" horiz-adv-x="591" 
d="M162 20.5q-61 32.5 -97 91t-36 133.5q0 76 36 135t97 91.5t134 32.5q72 0 133 -32.5t97 -92t36 -134.5t-36 -133.5t-97 -91t-133 -32.5q-73 0 -134 32.5zM382.5 89.5q39.5 22.5 62.5 63t23 92.5q0 53 -23 94t-62.5 63.5t-86.5 22.5q-48 0 -88 -22.5t-63 -63.5t-23 -94
q0 -52 23.5 -92.5t63 -63t87.5 -22.5q47 0 86.5 22.5zM146 719l64 58l150 -171l-54 -44z" />
    <glyph glyph-name="oacute" unicode="&#xf3;" horiz-adv-x="591" 
d="M162 20.5q-61 32.5 -97 91t-36 133.5q0 76 36 135t97 91.5t134 32.5q72 0 133 -32.5t97 -92t36 -134.5t-36 -133.5t-97 -91t-133 -32.5q-73 0 -134 32.5zM382.5 89.5q39.5 22.5 62.5 63t23 92.5q0 53 -23 94t-62.5 63.5t-86.5 22.5q-48 0 -88 -22.5t-63 -63.5t-23 -94
q0 -52 23.5 -92.5t63 -63t87.5 -22.5q47 0 86.5 22.5zM240 605l151 171l63 -58l-159 -157z" />
    <glyph glyph-name="ocircumflex" unicode="&#xf4;" horiz-adv-x="591" 
d="M162 20.5q-61 32.5 -97 91t-36 133.5q0 76 36 135t97 91.5t134 32.5q72 0 133 -32.5t97 -92t36 -134.5t-36 -133.5t-97 -91t-133 -32.5q-73 0 -134 32.5zM382.5 89.5q39.5 22.5 62.5 63t23 92.5q0 53 -23 94t-62.5 63.5t-86.5 22.5q-48 0 -88 -22.5t-63 -63.5t-23 -94
q0 -52 23.5 -92.5t63 -63t87.5 -22.5q47 0 86.5 22.5zM423 559l-127 104l-130 -104l-51 52l180 144l180 -144z" />
    <glyph glyph-name="otilde" unicode="&#xf5;" horiz-adv-x="591" 
d="M162 20.5q-61 32.5 -97 91t-36 133.5q0 76 36 135t97 91.5t134 32.5q72 0 133 -32.5t97 -92t36 -134.5t-36 -133.5t-97 -91t-133 -32.5q-73 0 -134 32.5zM382.5 89.5q39.5 22.5 62.5 63t23 92.5q0 53 -23 94t-62.5 63.5t-86.5 22.5q-48 0 -88 -22.5t-63 -63.5t-23 -94
q0 -52 23.5 -92.5t63 -63t87.5 -22.5q47 0 86.5 22.5zM319.5 560q-18.5 8 -42.5 23q-15 10 -25 15t-19 5q-13 0 -21.5 -9t-17.5 -35l-70 22q13 48 38 70.5t67 22.5q24 0 42.5 -8t42.5 -23q13 -10 23.5 -15t20.5 -5q13 0 21.5 9t17.5 35l71 -16q-27 -99 -106 -99
q-24 0 -42.5 8z" />
    <glyph glyph-name="odieresis" unicode="&#xf6;" horiz-adv-x="591" 
d="M162 20.5q-61 32.5 -97 91t-36 133.5q0 76 36 135t97 91.5t134 32.5q72 0 133 -32.5t97 -92t36 -134.5t-36 -133.5t-97 -91t-133 -32.5q-73 0 -134 32.5zM382.5 89.5q39.5 22.5 62.5 63t23 92.5q0 53 -23 94t-62.5 63.5t-86.5 22.5q-48 0 -88 -22.5t-63 -63.5t-23 -94
q0 -52 23.5 -92.5t63 -63t87.5 -22.5q47 0 86.5 22.5zM156.5 576.5q-16.5 16.5 -16.5 39.5t16.5 39.5t39.5 16.5t39.5 -16.5t16.5 -39.5t-16.5 -39.5t-39.5 -16.5t-39.5 16.5zM349.5 576.5q-16.5 16.5 -16.5 39.5t16.5 39.5t39.5 16.5t39.5 -16.5t16.5 -39.5t-16.5 -39.5
t-39.5 -16.5t-39.5 16.5z" />
    <glyph glyph-name="divide" unicode="&#xf7;" 
d="M286.5 498q-15.5 16 -15.5 38q0 23 15 38.5t39 15.5q23 0 38 -15.5t15 -38.5q0 -22 -15 -38t-38 -16t-38.5 16zM89 396h471v-80h-471v80zM286.5 139q-15.5 16 -15.5 38t15.5 38t38.5 16t38 -16t15 -38t-15 -38t-38 -16t-38.5 16z" />
    <glyph glyph-name="oslash" unicode="&#xf8;" horiz-adv-x="591" 
d="M513 398q24 -31 36.5 -70t12.5 -83q0 -75 -36 -133.5t-97 -91t-133 -32.5q-48 0 -91.5 14.5t-78.5 41.5l-62 -57l-47 49l61 56q-24 31 -36.5 70t-12.5 83q0 76 36 135t97 91.5t134 32.5q48 0 91.5 -15t78.5 -42l62 56l46 -49zM144 152l260 237q-46 37 -108 37
q-48 0 -88 -22.5t-63.5 -64t-23.5 -94.5t23 -93zM447 338l-258 -237q22 -17 49.5 -26t57.5 -9q47 0 87 22.5t63 63.5t23 93q0 51 -22 93z" />
    <glyph glyph-name="ugrave" unicode="&#xf9;" horiz-adv-x="558" 
d="M490 492v-492h-81l-4 48q-60 -60 -147 -60q-61 0 -105 24t-67 68.5t-23 106.5v305h89v-297q0 -66 30 -97t88 -31q77 0 131 61v364h89zM129 719l64 58l150 -171l-54 -44z" />
    <glyph glyph-name="uacute" unicode="&#xfa;" horiz-adv-x="558" 
d="M490 492v-492h-81l-4 48q-60 -60 -147 -60q-61 0 -105 24t-67 68.5t-23 106.5v305h89v-297q0 -66 30 -97t88 -31q77 0 131 61v364h89zM224 605l151 171l63 -58l-159 -157z" />
    <glyph glyph-name="ucircumflex" unicode="&#xfb;" horiz-adv-x="558" 
d="M490 492v-492h-81l-4 48q-60 -60 -147 -60q-61 0 -105 24t-67 68.5t-23 106.5v305h89v-297q0 -66 30 -97t88 -31q77 0 131 61v364h89zM407 559l-127 104l-130 -104l-51 52l180 144l180 -144z" />
    <glyph glyph-name="udieresis" unicode="&#xfc;" horiz-adv-x="558" 
d="M490 492v-492h-81l-4 48q-60 -60 -147 -60q-61 0 -105 24t-67 68.5t-23 106.5v305h89v-297q0 -66 30 -97t88 -31q77 0 131 61v364h89zM140.5 576.5q-16.5 16.5 -16.5 39.5t16.5 39.5t39.5 16.5t39.5 -16.5t16.5 -39.5t-16.5 -39.5t-39.5 -16.5t-39.5 16.5zM333.5 576.5
q-16.5 16.5 -16.5 39.5t16.5 39.5t39.5 16.5t39.5 -16.5t16.5 -39.5t-16.5 -39.5t-39.5 -16.5t-39.5 16.5z" />
    <glyph glyph-name="yacute" unicode="&#xfd;" horiz-adv-x="475" 
d="M479 492q-39 -118 -90.5 -248t-104.5 -244q-53 -119 -100 -204h-93q64 112 104 204q-53 115 -106 244.5t-94 247.5h94q54 -171 152 -397q41 98 80 202t68 195h90zM183 605l151 171l63 -58l-159 -157z" />
    <glyph glyph-name="thorn" unicode="&#xfe;" horiz-adv-x="600" 
d="M443.5 471.5q58.5 -32.5 93 -91.5t34.5 -134q0 -76 -34.5 -134.5t-93 -91t-128.5 -32.5q-99 0 -158 61v-253h-89v916h89v-269q59 61 158 61q70 0 128.5 -32.5zM391 89.5q40 22.5 63.5 63.5t23.5 93t-23.5 93t-63.5 63.5t-89 22.5q-45 0 -83.5 -20t-61.5 -55v-208
q23 -35 61.5 -55t83.5 -20q49 0 89 22.5z" />
    <glyph glyph-name="ydieresis" unicode="&#xff;" horiz-adv-x="475" 
d="M479 492q-39 -118 -90.5 -248t-104.5 -244q-53 -119 -100 -204h-93q64 112 104 204q-53 115 -106 244.5t-94 247.5h94q54 -171 152 -397q41 98 80 202t68 195h90zM99.5 576.5q-16.5 16.5 -16.5 39.5t16.5 39.5t39.5 16.5t39.5 -16.5t16.5 -39.5t-16.5 -39.5t-39.5 -16.5
t-39.5 16.5zM292.5 576.5q-16.5 16.5 -16.5 39.5t16.5 39.5t39.5 16.5t39.5 -16.5t16.5 -39.5t-16.5 -39.5t-39.5 -16.5t-39.5 16.5z" />
    <glyph glyph-name="Amacron" unicode="&#x100;" horiz-adv-x="666" 
d="M504 196h-343q-22 -64 -64 -196h-98q65 203 134 381.5t147 330.5h107q143 -279 280 -712h-98q-42 132 -65 196zM474 282q-69 185 -141 339q-74 -154 -141 -339h282zM473 772h-278v77h278v-77z" />
    <glyph glyph-name="amacron" unicode="&#x101;" horiz-adv-x="528" 
d="M391 0l-7 50q-27 -29 -67 -45t-88 -16q-57 0 -100 20t-66.5 56.5t-23.5 85.5q0 48 25 86t75 60.5t123 22.5q66 0 116 -16q-1 41 -13.5 67.5t-42.5 40.5t-82 14q-30 0 -67 -8t-75 -24l-25 74q89 36 176 36q108 0 163.5 -48.5t55.5 -140.5v-240l8 -75h-85zM140.5 107.5
q13.5 -20.5 39 -31.5t59.5 -11q46 0 78 14.5t61 43.5v106q-49 17 -108 17q-74 0 -108.5 -25t-34.5 -67q0 -26 13.5 -46.5zM398 572h-278v77h278v-77z" />
    <glyph glyph-name="Abreve" unicode="&#x102;" horiz-adv-x="666" 
d="M504 196h-343q-22 -64 -64 -196h-98q65 203 134 381.5t147 330.5h107q143 -279 280 -712h-98q-42 132 -65 196zM474 282q-69 185 -141 339q-74 -154 -141 -339h282zM258 779q-34 18 -55 51t-24 75l78 9q4 -38 24 -59t53 -21t53 21t24 59l78 -9q-3 -42 -24 -75t-55 -51
t-76 -18t-76 18z" />
    <glyph glyph-name="abreve" unicode="&#x103;" horiz-adv-x="528" 
d="M391 0l-7 50q-27 -29 -67 -45t-88 -16q-57 0 -100 20t-66.5 56.5t-23.5 85.5q0 48 25 86t75 60.5t123 22.5q66 0 116 -16q-1 41 -13.5 67.5t-42.5 40.5t-82 14q-30 0 -67 -8t-75 -24l-25 74q89 36 176 36q108 0 163.5 -48.5t55.5 -140.5v-240l8 -75h-85zM140.5 107.5
q13.5 -20.5 39 -31.5t59.5 -11q46 0 78 14.5t61 43.5v106q-49 17 -108 17q-74 0 -108.5 -25t-34.5 -67q0 -26 13.5 -46.5zM183 579q-34 18 -55 51t-24 75l78 9q4 -38 24 -59t53 -21t53 21t24 59l78 -9q-3 -42 -24 -75t-55 -51t-76 -18t-76 18z" />
    <glyph glyph-name="Aogonek" unicode="&#x104;" horiz-adv-x="666" 
d="M596 -145.5q14 4.5 31 12.5l28 -56q-21 -13 -46.5 -20.5t-52.5 -7.5q-32 0 -57.5 12.5t-39.5 34t-14 47.5q0 34 26.5 64t95.5 64q-27 89 -63 191h-343q-22 -64 -64 -196h-98q65 203 134 381.5t147 330.5h107q143 -279 280 -712h-20q-52 -29 -78.5 -47t-37.5 -32t-11 -29
q0 -19 13 -30.5t35 -11.5q14 0 28 4.5zM474 282q-69 185 -141 339q-74 -154 -141 -339h282z" />
    <glyph glyph-name="aogonek" unicode="&#x105;" horiz-adv-x="528" 
d="M417 -145.5q14 4.5 31 12.5l28 -56q-21 -13 -46.5 -20.5t-52.5 -7.5q-32 0 -57.5 12.5t-39.5 34t-14 47.5q0 34 27 64.5t97 64.5l-6 44q-27 -29 -67 -45t-88 -16q-57 0 -100 20t-66.5 56.5t-23.5 85.5q0 48 25 86t75 60.5t123 22.5q66 0 116 -16q-1 41 -13.5 67.5
t-42.5 40.5t-82 14q-30 0 -67 -8t-75 -24l-25 74q89 36 176 36q108 0 163.5 -48.5t55.5 -140.5v-240l8 -75h-8q-52 -29 -78.5 -47t-37.5 -32t-11 -29q0 -19 13 -30.5t35 -11.5q14 0 28 4.5zM140.5 107.5q13.5 -20.5 39 -31.5t59.5 -11q46 0 78 14.5t61 43.5v106
q-49 17 -108 17q-74 0 -108.5 -25t-34.5 -67q0 -26 13.5 -46.5z" />
    <glyph glyph-name="Cacute" unicode="&#x106;" horiz-adv-x="716" 
d="M214.5 36q-84.5 48 -133 132.5t-48.5 189.5t48.5 189.5t133 132.5t187.5 48q93 0 168 -34t127 -96l-66 -58q-42 48 -99.5 74t-128.5 26q-77 0 -139 -35.5t-97.5 -100t-35.5 -146.5t35.5 -146.5t97.5 -100t139 -35.5q73 0 131 26.5t99 76.5l65 -61q-52 -62 -127 -96
t-169 -34q-103 0 -187.5 48zM347 821l151 171l63 -58l-159 -157z" />
    <glyph glyph-name="cacute" unicode="&#x107;" horiz-adv-x="509" 
d="M161 20.5q-61 32.5 -96.5 91t-35.5 133.5q0 76 34 135t93 91.5t132 32.5q57 0 108.5 -20.5t88.5 -58.5l-58 -59q-24 28 -58 43.5t-73 15.5q-48 0 -88 -22.5t-63 -63.5t-23 -94q0 -52 23.5 -92.5t63 -63t87.5 -22.5q39 0 73 15.5t58 43.5l59 -59q-37 -38 -85.5 -58.5
t-105.5 -20.5q-73 0 -134 32.5zM230 605l151 171l63 -58l-159 -157z" />
    <glyph glyph-name="Ccircumflex" unicode="&#x108;" horiz-adv-x="716" 
d="M214.5 36q-84.5 48 -133 132.5t-48.5 189.5t48.5 189.5t133 132.5t187.5 48q93 0 168 -34t127 -96l-66 -58q-42 48 -99.5 74t-128.5 26q-77 0 -139 -35.5t-97.5 -100t-35.5 -146.5t35.5 -146.5t97.5 -100t139 -35.5q73 0 131 26.5t99 76.5l65 -61q-52 -62 -127 -96
t-169 -34q-103 0 -187.5 48zM530 775l-127 104l-130 -104l-51 52l180 144l180 -144z" />
    <glyph glyph-name="ccircumflex" unicode="&#x109;" horiz-adv-x="509" 
d="M161 20.5q-61 32.5 -96.5 91t-35.5 133.5q0 76 34 135t93 91.5t132 32.5q57 0 108.5 -20.5t88.5 -58.5l-58 -59q-24 28 -58 43.5t-73 15.5q-48 0 -88 -22.5t-63 -63.5t-23 -94q0 -52 23.5 -92.5t63 -63t87.5 -22.5q39 0 73 15.5t58 43.5l59 -59q-37 -38 -85.5 -58.5
t-105.5 -20.5q-73 0 -134 32.5zM413 559l-127 104l-130 -104l-51 52l180 144l180 -144z" />
    <glyph glyph-name="Cdotaccent" unicode="&#x10a;" horiz-adv-x="716" 
d="M214.5 36q-84.5 48 -133 132.5t-48.5 189.5t48.5 189.5t133 132.5t187.5 48q93 0 168 -34t127 -96l-66 -58q-42 48 -99.5 74t-128.5 26q-77 0 -139 -35.5t-97.5 -100t-35.5 -146.5t35.5 -146.5t97.5 -100t139 -35.5q73 0 131 26.5t99 76.5l65 -61q-52 -62 -127 -96
t-169 -34q-103 0 -187.5 48zM362 803q-17 17 -17 40t17 40t40 17t40 -17t17 -40t-17 -40t-40 -17t-40 17z" />
    <glyph glyph-name="cdotaccent" unicode="&#x10b;" horiz-adv-x="509" 
d="M161 20.5q-61 32.5 -96.5 91t-35.5 133.5q0 76 34 135t93 91.5t132 32.5q57 0 108.5 -20.5t88.5 -58.5l-58 -59q-24 28 -58 43.5t-73 15.5q-48 0 -88 -22.5t-63 -63.5t-23 -94q0 -52 23.5 -92.5t63 -63t87.5 -22.5q39 0 73 15.5t58 43.5l59 -59q-37 -38 -85.5 -58.5
t-105.5 -20.5q-73 0 -134 32.5zM245 587q-17 17 -17 40t17 40t40 17t40 -17t17 -40t-17 -40t-40 -17t-40 17z" />
    <glyph glyph-name="Ccaron" unicode="&#x10c;" horiz-adv-x="716" 
d="M214.5 36q-84.5 48 -133 132.5t-48.5 189.5t48.5 189.5t133 132.5t187.5 48q93 0 168 -34t127 -96l-66 -58q-42 48 -99.5 74t-128.5 26q-77 0 -139 -35.5t-97.5 -100t-35.5 -146.5t35.5 -146.5t97.5 -100t139 -35.5q73 0 131 26.5t99 76.5l65 -61q-52 -62 -127 -96
t-169 -34q-103 0 -187.5 48zM582 919l-180 -144l-180 144l52 52l127 -103l130 103z" />
    <glyph glyph-name="ccaron" unicode="&#x10d;" horiz-adv-x="509" 
d="M161 20.5q-61 32.5 -96.5 91t-35.5 133.5q0 76 34 135t93 91.5t132 32.5q57 0 108.5 -20.5t88.5 -58.5l-58 -59q-24 28 -58 43.5t-73 15.5q-48 0 -88 -22.5t-63 -63.5t-23 -94q0 -52 23.5 -92.5t63 -63t87.5 -22.5q39 0 73 15.5t58 43.5l59 -59q-37 -38 -85.5 -58.5
t-105.5 -20.5q-73 0 -134 32.5zM465 703l-180 -144l-180 144l52 52l127 -103l130 103z" />
    <glyph glyph-name="Dcaron" unicode="&#x10e;" horiz-adv-x="716" 
d="M490 669q91 -43 142 -123.5t51 -189.5t-51 -189.5t-142 -123.5t-209 -43h-203v712h203q118 0 209 -43zM444 117.5q68 33.5 104.5 94.5t36.5 144t-36.5 144t-104.5 94.5t-161 33.5h-111v-544h111q93 0 161 33.5zM528 903l-180 -144l-180 144l52 52l127 -103l130 103z" />
    <glyph glyph-name="dcaron" unicode="&#x10f;" horiz-adv-x="681" 
d="M532 712v-712h-79l-6 53q-60 -65 -162 -65q-70 0 -129 32.5t-93 91.5t-34 134q0 76 34 134.5t93 91t129 32.5q97 0 157 -60v268h90zM380.5 86.5q37.5 19.5 61.5 54.5v210q-24 35 -61.5 54.5t-83.5 19.5q-49 0 -89 -22.5t-63 -63.5t-23 -93t23 -93t63 -63.5t89 -22.5
q46 0 83.5 19.5zM610 712h80q0 -53 -9.5 -105t-26.5 -95h-72q28 101 28 200z" />
    <glyph glyph-name="Dcroat" unicode="&#x110;" horiz-adv-x="716" 
d="M490 669q91 -43 142 -123.5t51 -189.5t-51 -189.5t-142 -123.5t-209 -43h-203v322h-64v69h64v321h203q118 0 209 -43zM444 117.5q68 33.5 104.5 94.5t36.5 144t-36.5 144t-104.5 94.5t-161 33.5h-111v-237h196v-69h-196v-238h111q93 0 161 33.5z" />
    <glyph glyph-name="dcroat" unicode="&#x111;" horiz-adv-x="600" 
d="M624 567h-92v-567h-79l-6 53q-60 -65 -162 -65q-70 0 -129 32.5t-93 91.5t-34 134q0 76 34 134.5t93 91t129 32.5q97 0 157 -60v123h-174v69h174v76h90v-76h92v-69zM380.5 86.5q37.5 19.5 61.5 54.5v210q-24 35 -61.5 54.5t-83.5 19.5q-49 0 -89 -22.5t-63 -63.5t-23 -93
t23 -93t63 -63.5t89 -22.5q46 0 83.5 19.5z" />
    <glyph glyph-name="Emacron" unicode="&#x112;" horiz-adv-x="603" 
d="M556 84v-84h-478v712h463v-84h-369v-226h353v-82h-353v-236h384zM449 772h-278v77h278v-77z" />
    <glyph glyph-name="emacron" unicode="&#x113;" horiz-adv-x="551" 
d="M511 220h-393q4 -47 25.5 -81.5t58.5 -53.5t86 -19q45 0 85 19t70 54l58 -57q-84 -94 -217 -94q-79 0 -136.5 34t-88 92.5t-30.5 130.5q0 77 31.5 135.5t87.5 91t127 32.5q73 0 127 -33.5t82.5 -90t28.5 -122.5q0 -12 -2 -38zM172 392q-41 -35 -51 -98h298
q-4 41 -23.5 71t-50.5 46t-71 16q-61 0 -102 -35zM414 572h-278v77h278v-77z" />
    <glyph glyph-name="Ebreve" unicode="&#x114;" horiz-adv-x="603" 
d="M556 84v-84h-478v712h463v-84h-369v-226h353v-82h-353v-236h384zM234 779q-34 18 -55 51t-24 75l78 9q4 -38 24 -59t53 -21t53 21t24 59l78 -9q-3 -42 -24 -75t-55 -51t-76 -18t-76 18z" />
    <glyph glyph-name="ebreve" unicode="&#x115;" horiz-adv-x="551" 
d="M511 220h-393q4 -47 25.5 -81.5t58.5 -53.5t86 -19q45 0 85 19t70 54l58 -57q-84 -94 -217 -94q-79 0 -136.5 34t-88 92.5t-30.5 130.5q0 77 31.5 135.5t87.5 91t127 32.5q73 0 127 -33.5t82.5 -90t28.5 -122.5q0 -12 -2 -38zM172 392q-41 -35 -51 -98h298
q-4 41 -23.5 71t-50.5 46t-71 16q-61 0 -102 -35zM199 579q-34 18 -55 51t-24 75l78 9q4 -38 24 -59t53 -21t53 21t24 59l78 -9q-3 -42 -24 -75t-55 -51t-76 -18t-76 18z" />
    <glyph glyph-name="Edotaccent" unicode="&#x116;" horiz-adv-x="603" 
d="M556 84v-84h-478v712h463v-84h-369v-226h353v-82h-353v-236h384zM270 787q-17 17 -17 40t17 40t40 17t40 -17t17 -40t-17 -40t-40 -17t-40 17z" />
    <glyph glyph-name="edotaccent" unicode="&#x117;" horiz-adv-x="551" 
d="M511 220h-393q4 -47 25.5 -81.5t58.5 -53.5t86 -19q45 0 85 19t70 54l58 -57q-84 -94 -217 -94q-79 0 -136.5 34t-88 92.5t-30.5 130.5q0 77 31.5 135.5t87.5 91t127 32.5q73 0 127 -33.5t82.5 -90t28.5 -122.5q0 -12 -2 -38zM172 392q-41 -35 -51 -98h298
q-4 41 -23.5 71t-50.5 46t-71 16q-61 0 -102 -35zM235 587q-17 17 -17 40t17 40t40 17t40 -17t17 -40t-17 -40t-40 -17t-40 17z" />
    <glyph glyph-name="Eogonek" unicode="&#x118;" horiz-adv-x="603" 
d="M467.5 -47q-26.5 -18 -37.5 -32t-11 -29q0 -19 13 -30.5t35 -11.5q14 0 28 4.5t31 12.5l28 -56q-21 -13 -46.5 -20.5t-52.5 -7.5q-32 0 -57.5 12.5t-39.5 34t-14 47.5q0 33 24.5 62t88.5 61h-379v712h463v-84h-369v-226h353v-82h-353v-236h384v-84h-10q-52 -29 -78.5 -47
z" />
    <glyph glyph-name="eogonek" unicode="&#x119;" horiz-adv-x="551" 
d="M511 220h-393q4 -47 25.5 -81.5t58.5 -53.5t86 -19q45 0 85 19t70 54l58 -57q-43 -48 -98 -71q-51 -29 -78 -47t-37.5 -32t-10.5 -29q0 -19 13 -30.5t35 -11.5q14 0 28 4.5t31 12.5l28 -56q-21 -13 -46.5 -20.5t-52.5 -7.5q-32 0 -57.5 12.5t-39.5 34t-14 47.5
q0 27 16 51t56 49q-76 2 -131.5 37t-84.5 92.5t-29 127.5q0 77 31.5 135.5t87.5 91t127 32.5q73 0 127 -33.5t82.5 -90t28.5 -122.5q0 -12 -2 -38zM172 392q-41 -35 -51 -98h298q-4 41 -23.5 71t-50.5 46t-71 16q-61 0 -102 -35z" />
    <glyph glyph-name="Ecaron" unicode="&#x11a;" horiz-adv-x="603" 
d="M556 84v-84h-478v712h463v-84h-369v-226h353v-82h-353v-236h384zM490 903l-180 -144l-180 144l52 52l127 -103l130 103z" />
    <glyph glyph-name="ecaron" unicode="&#x11b;" horiz-adv-x="551" 
d="M511 220h-393q4 -47 25.5 -81.5t58.5 -53.5t86 -19q45 0 85 19t70 54l58 -57q-84 -94 -217 -94q-79 0 -136.5 34t-88 92.5t-30.5 130.5q0 77 31.5 135.5t87.5 91t127 32.5q73 0 127 -33.5t82.5 -90t28.5 -122.5q0 -12 -2 -38zM172 392q-41 -35 -51 -98h298
q-4 41 -23.5 71t-50.5 46t-71 16q-61 0 -102 -35zM455 703l-180 -144l-180 144l52 52l127 -103l130 103z" />
    <glyph glyph-name="Gcircumflex" unicode="&#x11c;" horiz-adv-x="802" 
d="M770 380v-23q0 -104 -47.5 -188.5t-131.5 -132.5t-188 -48q-103 0 -188 48t-133.5 132.5t-48.5 189.5t48.5 189.5t132.5 132.5t186 48q100 0 182.5 -42.5t138.5 -119.5l-78 -50q-41 60 -103 92t-137 32q-77 0 -139 -36t-97.5 -100t-35.5 -146t35.5 -146.5t97.5 -100
t139 -35.5q68 0 124.5 27.5t93.5 78t48 116.5h-280v82h381zM531 775l-127 104l-130 -104l-51 52l180 144l180 -144z" />
    <glyph glyph-name="gcircumflex" unicode="&#x11d;" horiz-adv-x="600" 
d="M532 492v-459q0 -75 -31 -131.5t-87.5 -87t-132.5 -30.5q-113 0 -203 53l37 69q37 -21 79.5 -32t84.5 -11q51 0 87 20t54.5 57.5t18.5 87.5v18q-57 -57 -154 -57q-70 0 -129 32.5t-93 91t-34 134.5q0 75 34 133.5t93 91t129 32.5q104 0 163 -66l5 54h79zM378 86.5
q37 18.5 61 51.5l1 216q-24 34 -61.5 52.5t-81.5 18.5q-49 0 -89 -22.5t-63 -63t-23 -92.5q0 -53 23 -93.5t63 -63t89 -22.5q44 0 81 18.5zM410 559l-127 104l-130 -104l-51 52l180 144l180 -144z" />
    <glyph glyph-name="Gbreve" unicode="&#x11e;" horiz-adv-x="802" 
d="M770 380v-23q0 -104 -47.5 -188.5t-131.5 -132.5t-188 -48q-103 0 -188 48t-133.5 132.5t-48.5 189.5t48.5 189.5t132.5 132.5t186 48q100 0 182.5 -42.5t138.5 -119.5l-78 -50q-41 60 -103 92t-137 32q-77 0 -139 -36t-97.5 -100t-35.5 -146t35.5 -146.5t97.5 -100
t139 -35.5q68 0 124.5 27.5t93.5 78t48 116.5h-280v82h381zM327 795q-34 18 -55 51t-24 75l78 9q4 -38 24 -59t53 -21t53 21t24 59l78 -9q-3 -42 -24 -75t-55 -51t-76 -18t-76 18z" />
    <glyph glyph-name="gbreve" unicode="&#x11f;" horiz-adv-x="600" 
d="M532 492v-459q0 -75 -31 -131.5t-87.5 -87t-132.5 -30.5q-113 0 -203 53l37 69q37 -21 79.5 -32t84.5 -11q51 0 87 20t54.5 57.5t18.5 87.5v18q-57 -57 -154 -57q-70 0 -129 32.5t-93 91t-34 134.5q0 75 34 133.5t93 91t129 32.5q104 0 163 -66l5 54h79zM378 86.5
q37 18.5 61 51.5l1 216q-24 34 -61.5 52.5t-81.5 18.5q-49 0 -89 -22.5t-63 -63t-23 -92.5q0 -53 23 -93.5t63 -63t89 -22.5q44 0 81 18.5zM207 579q-34 18 -55 51t-24 75l78 9q4 -38 24 -59t53 -21t53 21t24 59l78 -9q-3 -42 -24 -75t-55 -51t-76 -18t-76 18z" />
    <glyph glyph-name="Gdotaccent" unicode="&#x120;" horiz-adv-x="802" 
d="M770 380v-23q0 -104 -47.5 -188.5t-131.5 -132.5t-188 -48q-103 0 -188 48t-133.5 132.5t-48.5 189.5t48.5 189.5t132.5 132.5t186 48q100 0 182.5 -42.5t138.5 -119.5l-78 -50q-41 60 -103 92t-137 32q-77 0 -139 -36t-97.5 -100t-35.5 -146t35.5 -146.5t97.5 -100
t139 -35.5q68 0 124.5 27.5t93.5 78t48 116.5h-280v82h381zM363 803q-17 17 -17 40t17 40t40 17t40 -17t17 -40t-17 -40t-40 -17t-40 17z" />
    <glyph glyph-name="gdotaccent" unicode="&#x121;" horiz-adv-x="600" 
d="M532 492v-459q0 -75 -31 -131.5t-87.5 -87t-132.5 -30.5q-113 0 -203 53l37 69q37 -21 79.5 -32t84.5 -11q51 0 87 20t54.5 57.5t18.5 87.5v18q-57 -57 -154 -57q-70 0 -129 32.5t-93 91t-34 134.5q0 75 34 133.5t93 91t129 32.5q104 0 163 -66l5 54h79zM378 86.5
q37 18.5 61 51.5l1 216q-24 34 -61.5 52.5t-81.5 18.5q-49 0 -89 -22.5t-63 -63t-23 -92.5q0 -53 23 -93.5t63 -63t89 -22.5q44 0 81 18.5zM243 587q-17 17 -17 40t17 40t40 17t40 -17t17 -40t-17 -40t-40 -17t-40 17z" />
    <glyph glyph-name="Gcommaaccent" unicode="&#x122;" horiz-adv-x="802" 
d="M770 380v-23q0 -104 -47.5 -188.5t-131.5 -132.5t-188 -48q-103 0 -188 48t-133.5 132.5t-48.5 189.5t48.5 189.5t132.5 132.5t186 48q100 0 182.5 -42.5t138.5 -119.5l-78 -50q-41 60 -103 92t-137 32q-77 0 -139 -36t-97.5 -100t-35.5 -146t35.5 -146.5t97.5 -100
t139 -35.5q68 0 124.5 27.5t93.5 78t48 116.5h-280v82h381zM335 -267q28 101 28 200h80q0 -54 -9.5 -105.5t-26.5 -94.5h-72z" />
    <glyph glyph-name="gcommaaccent" unicode="&#x123;" horiz-adv-x="600" 
d="M532 492v-459q0 -75 -31 -131.5t-87.5 -87t-132.5 -30.5q-113 0 -203 53l37 69q37 -21 79.5 -32t84.5 -11q51 0 87 20t54.5 57.5t18.5 87.5v18q-57 -57 -154 -57q-70 0 -129 32.5t-93 91t-34 134.5q0 75 34 133.5t93 91t129 32.5q104 0 163 -66l5 54h79zM378 86.5
q37 18.5 61 51.5l1 216q-24 34 -61.5 52.5t-81.5 18.5q-49 0 -89 -22.5t-63 -63t-23 -92.5q0 -53 23 -93.5t63 -63t89 -22.5q44 0 81 18.5zM252.5 664.5q9.5 51.5 26.5 94.5h72q-28 -101 -28 -200h-80q0 54 9.5 105.5z" />
    <glyph glyph-name="Hcircumflex" unicode="&#x124;" horiz-adv-x="736" 
d="M658 712v-712h-94v323h-392v-323h-94v712h94v-301h392v301h94zM496 759l-127 104l-130 -104l-51 52l180 144l180 -144z" />
    <glyph glyph-name="hcircumflex" unicode="&#x125;" horiz-adv-x="563" 
d="M410 480q44 -24 67 -68.5t23 -106.5v-305h-89v297q0 66 -30 97t-88 31q-79 0 -136 -67v-358h-89v712h89v-269q59 61 148 61q61 0 105 -24zM241 779l-127 104l-130 -104l-51 52l180 144l180 -144z" />
    <glyph glyph-name="Hbar" unicode="&#x126;" horiz-adv-x="736" 
d="M721 525h-63v-525h-94v323h-392v-323h-94v525h-64v72h64v115h94v-115h392v115h94v-115h63v-72zM564 525h-392v-114h392v114z" />
    <glyph glyph-name="hbar" unicode="&#x127;" horiz-adv-x="563" 
d="M410 480q44 -24 67 -68.5t23 -106.5v-305h-89v297q0 66 -30 97t-88 31q-79 0 -136 -67v-358h-89v567h-92v69h92v76h89v-76h175v-69h-175v-124q59 61 148 61q61 0 105 -24z" />
    <glyph glyph-name="Itilde" unicode="&#x128;" horiz-adv-x="250" 
d="M78 712h94v-712h-94v712zM151 769.5q-16 7.5 -38 22.5q-16 11 -25.5 16t-18.5 5q-11 0 -19 -9.5t-16 -34.5l-66 16q12 49 36 74t61 25q20 0 36.5 -8t37.5 -23q11 -8 22 -14t20 -6q12 0 19.5 9t15.5 35l66 -16q-25 -99 -97 -99q-18 0 -34 7.5z" />
    <glyph glyph-name="itilde" unicode="&#x129;" horiz-adv-x="259" 
d="M191 0h-89v414h-94v78h183v-492zM167 569.5q-16 7.5 -38 22.5q-16 11 -25.5 16t-18.5 5q-11 0 -19 -9.5t-16 -34.5l-66 16q12 49 36 74t61 25q20 0 36.5 -8t37.5 -23q11 -8 22 -14t20 -6q12 0 19.5 9t15.5 35l66 -16q-25 -99 -97 -99q-18 0 -34 7.5z" />
    <glyph glyph-name="Imacron" unicode="&#x12a;" horiz-adv-x="250" 
d="M78 712h94v-712h-94v712zM264 772h-278v77h278v-77z" />
    <glyph glyph-name="imacron" unicode="&#x12b;" horiz-adv-x="259" 
d="M191 0h-89v414h-94v78h183v-492zM280 572h-278v77h278v-77z" />
    <glyph glyph-name="Ibreve" unicode="&#x12c;" horiz-adv-x="250" 
d="M78 712h94v-712h-94v712zM49 779q-34 18 -55 51t-24 75l78 9q4 -38 24 -59t53 -21t53 21t24 59l78 -9q-3 -42 -24 -75t-55 -51t-76 -18t-76 18z" />
    <glyph glyph-name="ibreve" unicode="&#x12d;" horiz-adv-x="259" 
d="M191 0h-89v414h-94v78h183v-492zM66 579q-34 18 -55 51t-24 75l78 9q4 -38 24 -59t53 -21t53 21t24 59l78 -9q-3 -42 -24 -75t-55 -51t-76 -18t-76 18z" />
    <glyph glyph-name="Iogonek" unicode="&#x12e;" horiz-adv-x="250" 
d="M216 -188q-18 -13 -40 -20.5t-45 -7.5q-27 0 -49.5 12t-36 33.5t-13.5 49.5q0 29 20.5 60.5t57.5 60.5h-32v712h94v-712h-6q-31 -34 -45 -59t-14 -48q0 -19 9.5 -29.5t26.5 -10.5q12 0 22 3.5t23 11.5z" />
    <glyph glyph-name="iogonek" unicode="&#x12f;" horiz-adv-x="259" 
d="M101 587q-17 17 -17 40t17 40t40 17t40 -17t17 -40t-17 -40t-40 -17t-40 17zM236 -188q-18 -13 -40 -20.5t-45 -7.5q-27 0 -49.5 12t-36 33.5t-13.5 49.5q0 29 20.5 60.5t57.5 60.5h-28v414h-94v78h183v-492h-5q-31 -34 -45 -59t-14 -48q0 -19 9.5 -29.5t26.5 -10.5
q12 0 22 3.5t23 11.5z" />
    <glyph glyph-name="Idotaccent" unicode="&#x130;" horiz-adv-x="250" 
d="M78 712h94v-712h-94v712zM85 787q-17 17 -17 40t17 40t40 17t40 -17t17 -40t-17 -40t-40 -17t-40 17z" />
    <glyph glyph-name="dotlessi" unicode="&#x131;" horiz-adv-x="259" 
d="M191 0h-89v414h-94v78h183v-492z" />
    <glyph glyph-name="IJ" unicode="&#x132;" horiz-adv-x="744" 
d="M78 712h94v-712h-94v712zM681 258q0 -126 -64 -198t-197 -72q-77 0 -151 33l27 82q32 -13 64 -20t58 -7q89 0 129 47t40 135v370h-247v84h341v-454z" />
    <glyph glyph-name="ij" unicode="&#x133;" horiz-adv-x="518" 
d="M101.5 586.5q-16.5 16.5 -16.5 40.5t16.5 40.5t39.5 16.5q24 0 40.5 -16.5t16.5 -40.5t-16.5 -40.5t-40.5 -16.5q-23 0 -39.5 16.5zM191 0h-89v414h-94v78h183v-492zM360.5 586.5q-16.5 16.5 -16.5 40.5t16.5 40.5t39.5 16.5q24 0 40.5 -16.5t16.5 -40.5t-16.5 -40.5
t-40.5 -16.5q-23 0 -39.5 16.5zM450 -77q0 -61 -34.5 -97t-97.5 -36q-21 0 -41 4.5t-34 12.5l23 70q19 -9 44 -9q26 0 38.5 13.5t12.5 45.5v487h-94v78h183v-569z" />
    <glyph glyph-name="Jcircumflex" unicode="&#x134;" horiz-adv-x="494" 
d="M431 258q0 -126 -64 -198t-197 -72q-77 0 -151 33l27 82q32 -13 64 -20t58 -7q89 0 129 47t40 135v370h-247v84h341v-454zM389 759l-127 104l-130 -104l-51 52l180 144l180 -144z" />
    <glyph glyph-name="jcircumflex" unicode="&#x135;" horiz-adv-x="259" 
d="M191 -77q0 -61 -34.5 -97t-97.5 -36q-21 0 -41 4.5t-34 12.5l23 70q19 -9 44 -9q26 0 38.5 13.5t12.5 45.5v487h-94v78h183v-569zM269 559l-127 104l-130 -104l-51 52l180 144l180 -144z" />
    <glyph glyph-name="Kcommaaccent" unicode="&#x136;" horiz-adv-x="671" 
d="M452.5 328q38.5 -47 67.5 -89q47 -67 82 -123t65 -114v-2h-108q-19 38 -47 82t-74 111q-24 36 -59 78.5t-74 81.5l-133 -130v-223h-94v712h94v-372l379 372h121l-300 -294q42 -43 80.5 -90zM295 -267q28 101 28 200h80q0 -54 -9.5 -105.5t-26.5 -94.5h-72z" />
    <glyph glyph-name="kcommaaccent" unicode="&#x137;" horiz-adv-x="529" 
d="M520 2v-2h-97q-37 71 -86 137q-45 63 -90 111l-90 -82v-166h-89v712h89v-439l239 219h118l-206 -188q48 -51 105 -127q53 -73 107 -175zM218 -267q28 101 28 200h80q0 -54 -9.5 -105.5t-26.5 -94.5h-72z" />
    <glyph glyph-name="kgreenlandic" unicode="&#x138;" horiz-adv-x="529" 
d="M520 2v-2h-97q-37 71 -86 137q-45 63 -90 111l-90 -82v-166h-89v492h89v-219l239 219h118l-206 -188q48 -51 105 -127q53 -73 107 -175z" />
    <glyph glyph-name="Lacute" unicode="&#x139;" horiz-adv-x="540" 
d="M521 84v-84h-443v712h94v-628h349zM70 805l151 171l63 -58l-159 -157z" />
    <glyph glyph-name="lacute" unicode="&#x13a;" horiz-adv-x="225" 
d="M68 712h89v-712h-89v712zM58 825l151 171l63 -58l-159 -157z" />
    <glyph glyph-name="Lcommaaccent" unicode="&#x13b;" horiz-adv-x="540" 
d="M521 84v-84h-443v712h94v-628h349zM231 -267q28 101 28 200h80q0 -54 -9.5 -105.5t-26.5 -94.5h-72z" />
    <glyph glyph-name="lcommaaccent" unicode="&#x13c;" horiz-adv-x="225" 
d="M68 712h89v-712h-89v712zM45 -267q28 101 28 200h80q0 -54 -9.5 -105.5t-26.5 -94.5h-72z" />
    <glyph glyph-name="Lcaron" unicode="&#x13d;" horiz-adv-x="540" 
d="M521 84v-84h-443v712h94v-628h349zM363 712h80q0 -53 -9.5 -105t-26.5 -95h-72q28 101 28 200z" />
    <glyph glyph-name="lcaron" unicode="&#x13e;" horiz-adv-x="307" 
d="M68 712h89v-712h-89v712zM236 712h80q0 -53 -9.5 -105t-26.5 -95h-72q28 101 28 200z" />
    <glyph glyph-name="Ldot" unicode="&#x13f;" horiz-adv-x="540" 
d="M521 84v-84h-443v712h94v-628h349zM354 348q-17 17 -17 40t17 40t40 17t40 -17t17 -40t-17 -40t-40 -17t-40 17z" />
    <glyph glyph-name="ldot" unicode="&#x140;" horiz-adv-x="357" 
d="M68 712h89v-712h-89v712zM258 299q-15 9 -23.5 24t-8.5 33t8.5 33t23.5 24t33 9t33 -9t24 -24t9 -33t-9 -33t-24 -24t-33 -9t-33 9z" />
    <glyph glyph-name="Lslash" unicode="&#x141;" horiz-adv-x="540" 
d="M521 84v-84h-443v307l-64 -23v81l64 23v324h94v-289l171 62v-81l-171 -62v-258h349z" />
    <glyph glyph-name="lslash" unicode="&#x142;" horiz-adv-x="277" 
d="M277 371l-94 -38v-333h-89v298l-94 -38v82l94 38v332h89v-297l94 38v-82z" />
    <glyph glyph-name="Nacute" unicode="&#x143;" horiz-adv-x="740" 
d="M662 712v-712h-122l-301 487l-69 119v-606h-92v712h126l300 -486q3 -5 7 -12t9 -16q30 -48 51 -87v601h91zM315 805l151 171l63 -58l-159 -157z" />
    <glyph glyph-name="nacute" unicode="&#x144;" horiz-adv-x="558" 
d="M405 480q44 -24 67 -68.5t23 -106.5v-305h-89v297q0 128 -118 128q-77 0 -131 -61v-364h-89v492h81l4 -47q61 59 146 59q62 0 106 -24zM231 605l151 171l63 -58l-159 -157z" />
    <glyph glyph-name="Ncommaaccent" unicode="&#x145;" horiz-adv-x="740" 
d="M662 712v-712h-122l-301 487l-69 119v-606h-92v712h126l300 -486q3 -5 7 -12t9 -16q30 -48 51 -87v601h91zM302 -267q28 101 28 200h80q0 -54 -9.5 -105.5t-26.5 -94.5h-72z" />
    <glyph glyph-name="ncommaaccent" unicode="&#x146;" horiz-adv-x="558" 
d="M405 480q44 -24 67 -68.5t23 -106.5v-305h-89v297q0 128 -118 128q-77 0 -131 -61v-364h-89v492h81l4 -47q61 59 146 59q62 0 106 -24zM220 -267q28 101 28 200h80q0 -54 -9.5 -105.5t-26.5 -94.5h-72z" />
    <glyph glyph-name="Ncaron" unicode="&#x147;" horiz-adv-x="740" 
d="M662 712v-712h-122l-301 487l-69 119v-606h-92v712h126l300 -486q3 -5 7 -12t9 -16q30 -48 51 -87v601h91zM550 903l-180 -144l-180 144l52 52l127 -103l130 103z" />
    <glyph glyph-name="ncaron" unicode="&#x148;" horiz-adv-x="558" 
d="M405 480q44 -24 67 -68.5t23 -106.5v-305h-89v297q0 128 -118 128q-77 0 -131 -61v-364h-89v492h81l4 -47q61 59 146 59q62 0 106 -24zM466 703l-180 -144l-180 144l52 52l127 -103l130 103z" />
    <glyph glyph-name="napostrophe" unicode="&#x149;" horiz-adv-x="665" 
d="M57 712h84q0 -64 -11 -125.5t-32 -111.5h-74q33 116 33 237zM511.5 480q43.5 -24 66.5 -68.5t23 -106.5v-305h-89v297q0 128 -117 128q-77 0 -131 -61v-364h-89v492h81l4 -47q59 59 146 59q62 0 105.5 -24z" />
    <glyph glyph-name="Eng" unicode="&#x14a;" horiz-adv-x="740" 
d="M662 712v-789q0 -61 -35 -97t-98 -36q-21 0 -41 4.5t-34 12.5l24 70q20 -9 43 -9q26 0 38 13.5t12 45.5v73l-320 487q-55 87 -81 131v-618h-92v712h129l318 -486l46 -74v560h91z" />
    <glyph glyph-name="eng" unicode="&#x14b;" horiz-adv-x="558" 
d="M405 480q44 -24 67 -68.5t23 -106.5v-382q0 -61 -35 -97t-98 -36q-21 0 -40.5 4.5t-33.5 12.5l23 70q20 -9 44 -9q26 0 38.5 13.5t12.5 45.5v370q0 128 -118 128q-77 0 -131 -61v-364h-89v492h81l4 -47q61 59 146 59q62 0 106 -24z" />
    <glyph glyph-name="Omacron" unicode="&#x14c;" horiz-adv-x="806" 
d="M215 36q-85 48 -133.5 132.5t-48.5 189.5t48.5 189.5t133.5 132.5t188 48q104 0 188.5 -48t133.5 -132.5t49 -189.5t-49 -189.5t-133.5 -132.5t-188.5 -48q-103 0 -188 48zM542.5 111.5q62.5 35.5 98 100t35.5 146.5t-35.5 146t-98 100t-139.5 36q-76 0 -138.5 -36
t-98 -100t-35.5 -146t35.5 -146.5t97.5 -100t139 -35.5t139.5 35.5zM542 788h-278v77h278v-77z" />
    <glyph glyph-name="omacron" unicode="&#x14d;" horiz-adv-x="591" 
d="M162 20.5q-61 32.5 -97 91t-36 133.5q0 76 36 135t97 91.5t134 32.5q72 0 133 -32.5t97 -92t36 -134.5t-36 -133.5t-97 -91t-133 -32.5q-73 0 -134 32.5zM382.5 89.5q39.5 22.5 62.5 63t23 92.5q0 53 -23 94t-62.5 63.5t-86.5 22.5q-48 0 -88 -22.5t-63 -63.5t-23 -94
q0 -52 23.5 -92.5t63 -63t87.5 -22.5q47 0 86.5 22.5zM435 572h-278v77h278v-77z" />
    <glyph glyph-name="Obreve" unicode="&#x14e;" horiz-adv-x="806" 
d="M215 36q-85 48 -133.5 132.5t-48.5 189.5t48.5 189.5t133.5 132.5t188 48q104 0 188.5 -48t133.5 -132.5t49 -189.5t-49 -189.5t-133.5 -132.5t-188.5 -48q-103 0 -188 48zM542.5 111.5q62.5 35.5 98 100t35.5 146.5t-35.5 146t-98 100t-139.5 36q-76 0 -138.5 -36
t-98 -100t-35.5 -146t35.5 -146.5t97.5 -100t139 -35.5t139.5 35.5zM327 795q-34 18 -55 51t-24 75l78 9q4 -38 24 -59t53 -21t53 21t24 59l78 -9q-3 -42 -24 -75t-55 -51t-76 -18t-76 18z" />
    <glyph glyph-name="obreve" unicode="&#x14f;" horiz-adv-x="591" 
d="M162 20.5q-61 32.5 -97 91t-36 133.5q0 76 36 135t97 91.5t134 32.5q72 0 133 -32.5t97 -92t36 -134.5t-36 -133.5t-97 -91t-133 -32.5q-73 0 -134 32.5zM382.5 89.5q39.5 22.5 62.5 63t23 92.5q0 53 -23 94t-62.5 63.5t-86.5 22.5q-48 0 -88 -22.5t-63 -63.5t-23 -94
q0 -52 23.5 -92.5t63 -63t87.5 -22.5q47 0 86.5 22.5zM220 579q-34 18 -55 51t-24 75l78 9q4 -38 24 -59t53 -21t53 21t24 59l78 -9q-3 -42 -24 -75t-55 -51t-76 -18t-76 18z" />
    <glyph glyph-name="Ohungarumlaut" unicode="&#x150;" horiz-adv-x="806" 
d="M215 36q-85 48 -133.5 132.5t-48.5 189.5t48.5 189.5t133.5 132.5t188 48q104 0 188.5 -48t133.5 -132.5t49 -189.5t-49 -189.5t-133.5 -132.5t-188.5 -48q-103 0 -188 48zM542.5 111.5q62.5 35.5 98 100t35.5 146.5t-35.5 146t-98 100t-139.5 36q-76 0 -138.5 -36
t-98 -100t-35.5 -146t35.5 -146.5t97.5 -100t139 -35.5t139.5 35.5zM290 793l55 179l82 -19l-67 -175zM436 796l61 176l79 -22l-70 -173z" />
    <glyph glyph-name="ohungarumlaut" unicode="&#x151;" horiz-adv-x="591" 
d="M162 20.5q-61 32.5 -97 91t-36 133.5q0 76 36 135t97 91.5t134 32.5q72 0 133 -32.5t97 -92t36 -134.5t-36 -133.5t-97 -91t-133 -32.5q-73 0 -134 32.5zM382.5 89.5q39.5 22.5 62.5 63t23 92.5q0 53 -23 94t-62.5 63.5t-86.5 22.5q-48 0 -88 -22.5t-63 -63.5t-23 -94
q0 -52 23.5 -92.5t63 -63t87.5 -22.5q47 0 86.5 22.5zM182 577l55 179l82 -19l-67 -175zM328 580l61 176l79 -22l-70 -173z" />
    <glyph glyph-name="OE" unicode="&#x152;" horiz-adv-x="1136" 
d="M1088 84v-84h-477v54q-91 -66 -212 -66q-100 0 -184 48t-133 132.5t-49 189.5q0 101 48 186t132 134.5t186 49.5q126 0 212 -63v47h463v-84h-369v-226h353v-82h-353v-236h383zM516 96q55 24 95 68v388q-40 43 -94.5 67t-117.5 24q-75 0 -136 -36.5t-96.5 -101.5
t-35.5 -147t35.5 -147.5t96.5 -102t136 -36.5q62 0 117 24z" />
    <glyph glyph-name="oe" unicode="&#x153;" horiz-adv-x="990" 
d="M950 220h-393q4 -47 25.5 -81.5t58.5 -53.5t86 -19q45 0 85 19t70 54l58 -57q-84 -94 -217 -94q-72 0 -125.5 29t-86.5 80q-35 -52 -91.5 -80.5t-123.5 -28.5q-73 0 -134 32.5t-97 91t-36 133.5q0 76 36 135t97 91.5t134 32.5q67 0 123.5 -28.5t91.5 -80.5q31 52 84 80.5
t119 28.5q73 0 127 -33.5t82.5 -90t28.5 -122.5q0 -12 -2 -38zM611.5 392q-40.5 -35 -51.5 -98h298q-4 41 -23.5 71t-50.5 46t-71 16q-61 0 -101.5 -35zM382.5 89.5q39.5 22.5 62.5 63t23 92.5q0 53 -23 94t-62.5 63.5t-86.5 22.5q-48 0 -88 -22.5t-63 -63.5t-23 -94
q0 -52 23.5 -92.5t63 -63t87.5 -22.5q47 0 86.5 22.5z" />
    <glyph glyph-name="Racute" unicode="&#x154;" horiz-adv-x="638" 
d="M564 104q31 -52 56 -102v-2h-100q-22 41 -48.5 84.5t-48.5 75.5q-23 33 -44 61.5t-39 49.5h-3h-165v-271h-94v712h259q82 0 138 -30.5t83 -80.5t27 -109q0 -70 -37 -124.5t-109 -79.5q27 -34 68 -93q26 -39 57 -91zM172 354h165q48 0 82 17.5t51 48.5t17 71t-17 71
t-51 48.5t-82 17.5h-165v-274zM252 805l151 171l63 -58l-159 -157z" />
    <glyph glyph-name="racute" unicode="&#x155;" horiz-adv-x="366" 
d="M357 495v-79q-25 3 -52 3q-48 0 -86.5 -18.5t-61.5 -56.5v-344h-89v492h81l5 -61q29 31 68.5 49t84.5 18q25 0 50 -3zM164 605l151 171l63 -58l-159 -157z" />
    <glyph glyph-name="Rcommaaccent" unicode="&#x156;" horiz-adv-x="638" 
d="M564 104q31 -52 56 -102v-2h-100q-22 41 -48.5 84.5t-48.5 75.5q-23 33 -44 61.5t-39 49.5h-3h-165v-271h-94v712h259q82 0 138 -30.5t83 -80.5t27 -109q0 -70 -37 -124.5t-109 -79.5q27 -34 68 -93q26 -39 57 -91zM172 354h165q48 0 82 17.5t51 48.5t17 71t-17 71
t-51 48.5t-82 17.5h-165v-274zM276 -267q28 101 28 200h80q0 -54 -9.5 -105.5t-26.5 -94.5h-72z" />
    <glyph glyph-name="rcommaaccent" unicode="&#x157;" horiz-adv-x="366" 
d="M357 495v-79q-25 3 -52 3q-48 0 -86.5 -18.5t-61.5 -56.5v-344h-89v492h81l5 -61q29 31 68.5 49t84.5 18q25 0 50 -3zM45 -267q28 101 28 200h80q0 -54 -9.5 -105.5t-26.5 -94.5h-72z" />
    <glyph glyph-name="Rcaron" unicode="&#x158;" horiz-adv-x="638" 
d="M564 104q31 -52 56 -102v-2h-100q-22 41 -48.5 84.5t-48.5 75.5q-23 33 -44 61.5t-39 49.5h-3h-165v-271h-94v712h259q82 0 138 -30.5t83 -80.5t27 -109q0 -70 -37 -124.5t-109 -79.5q27 -34 68 -93q26 -39 57 -91zM172 354h165q48 0 82 17.5t51 48.5t17 71t-17 71
t-51 48.5t-82 17.5h-165v-274zM487 903l-180 -144l-180 144l52 52l127 -103l130 103z" />
    <glyph glyph-name="rcaron" unicode="&#x159;" horiz-adv-x="366" 
d="M357 495v-79q-25 3 -52 3q-48 0 -86.5 -18.5t-61.5 -56.5v-344h-89v492h81l5 -61q29 31 68.5 49t84.5 18q25 0 50 -3zM399 703l-180 -144l-180 144l52 52l127 -103l130 103z" />
    <glyph glyph-name="Sacute" unicode="&#x15a;" horiz-adv-x="588" 
d="M140.5 11.5q-68.5 23.5 -122.5 68.5l50 67q98 -76 214 -76q80 0 130 30.5t50 90.5q0 31 -15 51.5t-49 36.5t-95 32l-47 12q-219 56 -219 211q0 57 29.5 101t87.5 68t139 24q69 0 133 -19.5t115 -53.5l-44 -71q-97 61 -203 61q-82 0 -121 -28t-39 -78q0 -48 35 -79
t116 -51l42 -10q89 -22 139.5 -51t71.5 -67.5t21 -92.5t-29.5 -99t-92 -73t-155.5 -28q-73 0 -141.5 23.5zM238 821l151 171l63 -58l-159 -157z" />
    <glyph glyph-name="sacute" unicode="&#x15b;" horiz-adv-x="472" 
d="M398 389q-77 40 -167 40q-112 0 -112 -64q0 -22 13 -36t35 -22t57 -15l50 -9q92 -18 133.5 -53.5t41.5 -92.5q0 -45 -26 -78.5t-75.5 -52t-117.5 -18.5q-56 0 -109 14.5t-97 41.5l37 66q39 -22 82.5 -34t86.5 -12q64 0 97 17.5t33 48.5q0 22 -10.5 35.5t-36.5 23.5
t-74 19l-45 9q-77 14 -120 50t-43 94q0 43 23.5 75.5t69 50.5t109.5 18q111 0 199 -48zM177 605l151 171l63 -58l-159 -157z" />
    <glyph glyph-name="Scircumflex" unicode="&#x15c;" horiz-adv-x="588" 
d="M140.5 11.5q-68.5 23.5 -122.5 68.5l50 67q98 -76 214 -76q80 0 130 30.5t50 90.5q0 31 -15 51.5t-49 36.5t-95 32l-47 12q-219 56 -219 211q0 57 29.5 101t87.5 68t139 24q69 0 133 -19.5t115 -53.5l-44 -71q-97 61 -203 61q-82 0 -121 -28t-39 -78q0 -48 35 -79
t116 -51l42 -10q89 -22 139.5 -51t71.5 -67.5t21 -92.5t-29.5 -99t-92 -73t-155.5 -28q-73 0 -141.5 23.5zM421 775l-127 104l-130 -104l-51 52l180 144l180 -144z" />
    <glyph glyph-name="scircumflex" unicode="&#x15d;" horiz-adv-x="472" 
d="M398 389q-77 40 -167 40q-112 0 -112 -64q0 -22 13 -36t35 -22t57 -15l50 -9q92 -18 133.5 -53.5t41.5 -92.5q0 -45 -26 -78.5t-75.5 -52t-117.5 -18.5q-56 0 -109 14.5t-97 41.5l37 66q39 -22 82.5 -34t86.5 -12q64 0 97 17.5t33 48.5q0 22 -10.5 35.5t-36.5 23.5
t-74 19l-45 9q-77 14 -120 50t-43 94q0 43 23.5 75.5t69 50.5t109.5 18q111 0 199 -48zM360 559l-127 104l-130 -104l-51 52l180 144l180 -144z" />
    <glyph glyph-name="Scedilla" unicode="&#x15e;" horiz-adv-x="588" 
d="M532.5 93.5q-26.5 -43.5 -82.5 -72t-139 -32.5l-6 -23q42 -11 66 -36.5t24 -60.5q0 -44 -31.5 -70.5t-90.5 -26.5q-22 0 -44.5 5.5t-41.5 16.5l25 53q32 -15 61 -15q23 0 36.5 10t13.5 30t-21 32t-56 14l17 70q-68 3 -131.5 26.5t-113.5 65.5l50 67q98 -76 214 -76
q80 0 130 30.5t50 90.5q0 31 -15 51.5t-49 36.5t-95 32l-47 12q-219 56 -219 211q0 57 29.5 101t87.5 68t139 24q69 0 133 -19.5t115 -53.5l-44 -71q-97 61 -203 61q-82 0 -121 -28t-39 -78q0 -48 35 -79t116 -51l42 -10q89 -22 139.5 -51t71.5 -67.5t21 -92.5
q0 -51 -26.5 -94.5z" />
    <glyph glyph-name="scedilla" unicode="&#x15f;" horiz-adv-x="472" 
d="M426 62.5q-23 -32.5 -67 -51.5t-105 -22l-6 -23q42 -11 66 -36.5t24 -60.5q0 -44 -31.5 -70.5t-90.5 -26.5q-22 0 -44.5 5.5t-41.5 16.5l25 53q32 -15 61 -15q23 0 36.5 10t13.5 30t-21 32t-56 14l17 71q-50 2 -96 16.5t-86 38.5l37 66q39 -22 82.5 -34t86.5 -12
q64 0 97 17.5t33 48.5q0 22 -10.5 35.5t-36.5 23.5t-74 19l-45 9q-77 14 -120 50t-43 94q0 43 23.5 75.5t69 50.5t109.5 18q111 0 199 -48l-34 -68q-77 40 -167 40q-112 0 -112 -64q0 -22 13 -36t35 -22t57 -15l50 -9q92 -18 133.5 -53.5t41.5 -92.5q0 -42 -23 -74.5z" />
    <glyph glyph-name="Scaron" unicode="&#x160;" horiz-adv-x="588" 
d="M140.5 11.5q-68.5 23.5 -122.5 68.5l50 67q98 -76 214 -76q80 0 130 30.5t50 90.5q0 31 -15 51.5t-49 36.5t-95 32l-47 12q-219 56 -219 211q0 57 29.5 101t87.5 68t139 24q69 0 133 -19.5t115 -53.5l-44 -71q-97 61 -203 61q-82 0 -121 -28t-39 -78q0 -48 35 -79
t116 -51l42 -10q89 -22 139.5 -51t71.5 -67.5t21 -92.5t-29.5 -99t-92 -73t-155.5 -28q-73 0 -141.5 23.5zM473 919l-180 -144l-180 144l52 52l127 -103l130 103z" />
    <glyph glyph-name="scaron" unicode="&#x161;" horiz-adv-x="472" 
d="M398 389q-77 40 -167 40q-112 0 -112 -64q0 -22 13 -36t35 -22t57 -15l50 -9q92 -18 133.5 -53.5t41.5 -92.5q0 -45 -26 -78.5t-75.5 -52t-117.5 -18.5q-56 0 -109 14.5t-97 41.5l37 66q39 -22 82.5 -34t86.5 -12q64 0 97 17.5t33 48.5q0 22 -10.5 35.5t-36.5 23.5
t-74 19l-45 9q-77 14 -120 50t-43 94q0 43 23.5 75.5t69 50.5t109.5 18q111 0 199 -48zM412 703l-180 -144l-180 144l52 52l127 -103l130 103z" />
    <glyph glyph-name="uni0162" unicode="&#x162;" horiz-adv-x="615" 
d="M330 0l-8 -34q42 -11 66 -36.5t24 -60.5q0 -44 -31.5 -70.5t-90.5 -26.5q-22 0 -44.5 5.5t-41.5 16.5l25 53q32 -15 61 -15q23 0 36.5 10t13.5 30t-21 32t-56 14l20 82h-23v630h-241v82h577v-82h-242v-630h-24z" />
    <glyph glyph-name="uni0163" unicode="&#x163;" horiz-adv-x="341" 
d="M191 414v-287q0 -55 63 -55q23 0 50 5l14 -72q-36 -11 -81 -11h-3l-7 -28q42 -11 66 -36.5t24 -60.5q0 -44 -31.5 -70.5t-90.5 -26.5q-22 0 -44.5 5.5t-41.5 16.5l25 53q32 -15 61 -15q23 0 36.5 10t13.5 30t-21 32t-56 14l19 81q-43 11 -64 42t-21 84v289h-94v78h96v138
h87v-138h136v-78h-136z" />
    <glyph glyph-name="Tcaron" unicode="&#x164;" horiz-adv-x="615" 
d="M596 630h-242v-630h-94v630h-241v82h577v-82zM487 903l-180 -144l-180 144l52 52l127 -103l130 103z" />
    <glyph glyph-name="tcaron" unicode="&#x165;" horiz-adv-x="361" 
d="M191 414v-287q0 -55 63 -55q23 0 50 5l14 -72q-36 -11 -81 -11q-68 0 -101.5 32t-33.5 99v289h-94v78h96v138h87v-138h136v-78h-136zM279 760h80q0 -53 -9.5 -105t-26.5 -95h-72q28 101 28 200z" />
    <glyph glyph-name="Tbar" unicode="&#x166;" horiz-adv-x="615" 
d="M354 630v-223h134v-69h-134v-338h-94v338h-134v69h134v223h-241v82h577v-82h-242z" />
    <glyph glyph-name="tbar" unicode="&#x167;" horiz-adv-x="347" 
d="M195 414v-129h118v-69h-118v-89q0 -26 14.5 -40.5t48.5 -14.5q22 0 50 5l14 -72q-36 -11 -81 -11q-68 0 -101.5 32t-33.5 99v91h-94v69h94v129h-94v78h96v138h87v-138h136v-78h-136z" />
    <glyph glyph-name="Utilde" unicode="&#x168;" horiz-adv-x="697" 
d="M198.5 21q-64.5 33 -100 99t-35.5 162v430h94v-430q0 -105 52 -155.5t140 -50.5q87 0 139 50.5t52 155.5v430h94v-430q0 -96 -35.5 -162t-99.5 -99t-150 -33t-150.5 33zM373.5 760q-18.5 8 -42.5 23q-15 10 -25 15t-19 5q-13 0 -21.5 -9t-17.5 -35l-70 22q13 48 38 70.5
t67 22.5q24 0 42.5 -8t42.5 -23q13 -10 23.5 -15t20.5 -5q13 0 21.5 9t17.5 35l71 -16q-27 -99 -106 -99q-24 0 -42.5 8z" />
    <glyph glyph-name="utilde" unicode="&#x169;" horiz-adv-x="558" 
d="M490 492v-492h-81l-4 48q-60 -60 -147 -60q-61 0 -105 24t-67 68.5t-23 106.5v305h89v-297q0 -66 30 -97t88 -31q77 0 131 61v364h89zM303.5 560q-18.5 8 -42.5 23q-15 10 -25 15t-19 5q-13 0 -21.5 -9t-17.5 -35l-70 22q13 48 38 70.5t67 22.5q24 0 42.5 -8t42.5 -23
q13 -10 23.5 -15t20.5 -5q13 0 21.5 9t17.5 35l71 -16q-27 -99 -106 -99q-24 0 -42.5 8z" />
    <glyph glyph-name="Umacron" unicode="&#x16a;" horiz-adv-x="697" 
d="M198.5 21q-64.5 33 -100 99t-35.5 162v430h94v-430q0 -105 52 -155.5t140 -50.5q87 0 139 50.5t52 155.5v430h94v-430q0 -96 -35.5 -162t-99.5 -99t-150 -33t-150.5 33zM488 772h-278v77h278v-77z" />
    <glyph glyph-name="umacron" unicode="&#x16b;" horiz-adv-x="558" 
d="M490 492v-492h-81l-4 48q-60 -60 -147 -60q-61 0 -105 24t-67 68.5t-23 106.5v305h89v-297q0 -66 30 -97t88 -31q77 0 131 61v364h89zM418 572h-278v77h278v-77z" />
    <glyph glyph-name="Ubreve" unicode="&#x16c;" horiz-adv-x="697" 
d="M198.5 21q-64.5 33 -100 99t-35.5 162v430h94v-430q0 -105 52 -155.5t140 -50.5q87 0 139 50.5t52 155.5v430h94v-430q0 -96 -35.5 -162t-99.5 -99t-150 -33t-150.5 33zM273 779q-34 18 -55 51t-24 75l78 9q4 -38 24 -59t53 -21t53 21t24 59l78 -9q-3 -42 -24 -75
t-55 -51t-76 -18t-76 18z" />
    <glyph glyph-name="ubreve" unicode="&#x16d;" horiz-adv-x="558" 
d="M490 492v-492h-81l-4 48q-60 -60 -147 -60q-61 0 -105 24t-67 68.5t-23 106.5v305h89v-297q0 -66 30 -97t88 -31q77 0 131 61v364h89zM203 579q-34 18 -55 51t-24 75l78 9q4 -38 24 -59t53 -21t53 21t24 59l78 -9q-3 -42 -24 -75t-55 -51t-76 -18t-76 18z" />
    <glyph glyph-name="Uring" unicode="&#x16e;" horiz-adv-x="697" 
d="M198.5 21q-64.5 33 -100 99t-35.5 162v430h94v-430q0 -105 52 -155.5t140 -50.5q87 0 139 50.5t52 155.5v430h94v-430q0 -96 -35.5 -162t-99.5 -99t-150 -33t-150.5 33zM287 776.5q-28 15.5 -44 42t-16 59.5t16 59.5t44 42t62 15.5t62 -15.5t44 -42t16 -59.5t-16 -59.5
t-44 -42t-62 -15.5t-62 15.5zM389 837q17 15 17 39q0 25 -16.5 41.5t-40.5 16.5t-40.5 -16t-16.5 -40q0 -25 16.5 -40.5t40.5 -15.5q23 0 40 15z" />
    <glyph glyph-name="uring" unicode="&#x16f;" horiz-adv-x="558" 
d="M490 492v-492h-81l-4 48q-60 -60 -147 -60q-61 0 -105 24t-67 68.5t-23 106.5v305h89v-297q0 -66 30 -97t88 -31q77 0 131 61v364h89zM217 576.5q-28 15.5 -44 42t-16 59.5t16 59.5t44 42t62 15.5t62 -15.5t44 -42t16 -59.5t-16 -59.5t-44 -42t-62 -15.5t-62 15.5z
M319 637q17 15 17 39q0 25 -16.5 41.5t-40.5 16.5t-40.5 -16t-16.5 -40q0 -25 16.5 -40.5t40.5 -15.5q23 0 40 15z" />
    <glyph glyph-name="Uhungarumlaut" unicode="&#x170;" horiz-adv-x="697" 
d="M198.5 21q-64.5 33 -100 99t-35.5 162v430h94v-430q0 -105 52 -155.5t140 -50.5q87 0 139 50.5t52 155.5v430h94v-430q0 -96 -35.5 -162t-99.5 -99t-150 -33t-150.5 33zM235 777l55 179l82 -19l-67 -175zM381 780l61 176l79 -22l-70 -173z" />
    <glyph glyph-name="uhungarumlaut" unicode="&#x171;" horiz-adv-x="558" 
d="M490 492v-492h-81l-4 48q-60 -60 -147 -60q-61 0 -105 24t-67 68.5t-23 106.5v305h89v-297q0 -66 30 -97t88 -31q77 0 131 61v364h89zM166 577l55 179l82 -19l-67 -175zM312 580l61 176l79 -22l-70 -173z" />
    <glyph glyph-name="Uogonek" unicode="&#x172;" horiz-adv-x="697" 
d="M634 712v-430q0 -114 -49 -185t-137 -96q-53 -30 -79.5 -47.5t-37.5 -31.5t-11 -30q0 -19 13 -30.5t35 -11.5q14 0 28 4.5t31 12.5l28 -56q-21 -13 -46.5 -20.5t-52.5 -7.5q-32 0 -57.5 12.5t-39.5 34t-14 47.5q0 30 20 56.5t71 54.5q-82 3 -143.5 36.5t-95.5 98.5
t-34 159v430h94v-430q0 -105 52 -155.5t140 -50.5q87 0 139 50.5t52 155.5v430h94z" />
    <glyph glyph-name="uogonek" unicode="&#x173;" horiz-adv-x="558" 
d="M403.5 -47q-26.5 -18 -37.5 -32t-11 -29q0 -19 13 -30.5t35 -11.5q14 0 28 4.5t31 12.5l28 -56q-21 -13 -46.5 -20.5t-52.5 -7.5q-32 0 -57.5 12.5t-39.5 34t-14 47.5q0 35 28 65.5t100 65.5l-3 40q-60 -60 -147 -60q-61 0 -105 24t-67 68.5t-23 106.5v305h89v-297
q0 -66 30 -97t88 -31q77 0 131 61v364h89v-492h-8q-52 -29 -78.5 -47z" />
    <glyph glyph-name="Wcircumflex" unicode="&#x174;" horiz-adv-x="1001" 
d="M987 712q-46 -180 -103 -366t-116 -346h-108l-159 579l-160 -579h-107q-59 157 -115.5 342t-104.5 370h98q38 -151 83.5 -307t89.5 -286l163 593h105l163 -594q44 132 90 288.5t84 305.5h97zM629 759l-127 104l-130 -104l-51 52l180 144l180 -144z" />
    <glyph glyph-name="wcircumflex" unicode="&#x175;" horiz-adv-x="829" 
d="M833 492q-40 -122 -90 -251t-101 -241h-92l-136 380l-135 -380h-92q-49 107 -99 235.5t-93 256.5h90q72 -222 146 -398l141 398h83l143 -398q74 176 146 398h89zM542 559l-127 104l-130 -104l-51 52l180 144l180 -144z" />
    <glyph glyph-name="Ycircumflex" unicode="&#x176;" horiz-adv-x="622" 
d="M623 712v-4l-265 -397v-311h-95v312l-264 396v4h109l205 -312l207 312h103zM441 759l-127 104l-130 -104l-51 52l180 144l180 -144z" />
    <glyph glyph-name="ycircumflex" unicode="&#x177;" horiz-adv-x="475" 
d="M479 492q-39 -118 -90.5 -248t-104.5 -244q-53 -119 -100 -204h-93q64 112 104 204q-53 115 -106 244.5t-94 247.5h94q54 -171 152 -397q41 98 80 202t68 195h90zM366 559l-127 104l-130 -104l-51 52l180 144l180 -144z" />
    <glyph glyph-name="Ydieresis" unicode="&#x178;" horiz-adv-x="622" 
d="M623 712v-4l-265 -397v-311h-95v312l-264 396v4h109l205 -312l207 312h103zM174.5 776.5q-16.5 16.5 -16.5 39.5t16.5 39.5t39.5 16.5t39.5 -16.5t16.5 -39.5t-16.5 -39.5t-39.5 -16.5t-39.5 16.5zM367.5 776.5q-16.5 16.5 -16.5 39.5t16.5 39.5t39.5 16.5t39.5 -16.5
t16.5 -39.5t-16.5 -39.5t-39.5 -16.5t-39.5 16.5z" />
    <glyph glyph-name="Zacute" unicode="&#x179;" horiz-adv-x="644" 
d="M600 84v-84h-556v67q118 134 231.5 281.5t200.5 279.5h-415v84h533v-65q-203 -310 -420 -563h426zM273 805l151 171l63 -58l-159 -157z" />
    <glyph glyph-name="zacute" unicode="&#x17a;" horiz-adv-x="473" 
d="M448 78v-78h-423v54q166 186 299 360h-289v78h408v-56q-134 -179 -289 -358h294zM182 605l151 171l63 -58l-159 -157z" />
    <glyph glyph-name="Zdotaccent" unicode="&#x17b;" horiz-adv-x="644" 
d="M600 84v-84h-556v67q118 134 231.5 281.5t200.5 279.5h-415v84h533v-65q-203 -310 -420 -563h426zM288 787q-17 17 -17 40t17 40t40 17t40 -17t17 -40t-17 -40t-40 -17t-40 17z" />
    <glyph glyph-name="zdotaccent" unicode="&#x17c;" horiz-adv-x="473" 
d="M448 78v-78h-423v54q166 186 299 360h-289v78h408v-56q-134 -179 -289 -358h294zM197 587q-17 17 -17 40t17 40t40 17t40 -17t17 -40t-17 -40t-40 -17t-40 17z" />
    <glyph glyph-name="Zcaron" unicode="&#x17d;" horiz-adv-x="644" 
d="M600 84v-84h-556v67q118 134 231.5 281.5t200.5 279.5h-415v84h533v-65q-203 -310 -420 -563h426zM508 903l-180 -144l-180 144l52 52l127 -103l130 103z" />
    <glyph glyph-name="zcaron" unicode="&#x17e;" horiz-adv-x="473" 
d="M448 78v-78h-423v54q166 186 299 360h-289v78h408v-56q-134 -179 -289 -358h294zM417 703l-180 -144l-180 144l52 52l127 -103l130 103z" />
    <glyph glyph-name="Schwa" unicode="&#x18f;" horiz-adv-x="802" 
d="M589 680q84 -48 132.5 -132.5t48.5 -189.5t-49 -189.5t-133.5 -132.5t-188.5 -48t-187.5 48t-131 132.5t-47.5 188.5v23h638q-5 76 -41.5 135.5t-97 92t-133.5 32.5q-74 0 -136 -32t-104 -92l-78 50q56 77 138.5 119.5t183.5 42.5q102 0 186 -48zM523.5 103.5
q56.5 27.5 94 77.5t49.5 117h-534q11 -66 48.5 -116.5t94 -78t124.5 -27.5q67 0 123.5 27.5z" />
    <glyph glyph-name="florin" unicode="&#x192;" 
d="M441.5 631.5q-26.5 -19.5 -33.5 -59.5l-32 -179h154v-70h-166l-33 -183q-13 -73 -60 -112.5t-122 -39.5q-32 0 -61.5 5t-49.5 12l21 72q15 -5 37 -8.5t45 -3.5q42 0 68 19.5t33 59.5l32 179h-154v70h166l33 182q13 74 60 113.5t122 39.5q31 0 60.5 -5t50.5 -13l-21 -71
q-17 5 -38.5 8.5t-43.5 3.5q-41 0 -67.5 -19.5z" />
    <glyph glyph-name="uni01F4" unicode="&#x1f4;" horiz-adv-x="802" 
d="M770 380v-23q0 -104 -47.5 -188.5t-131.5 -132.5t-188 -48q-103 0 -188 48t-133.5 132.5t-48.5 189.5t48.5 189.5t132.5 132.5t186 48q100 0 182.5 -42.5t138.5 -119.5l-78 -50q-41 60 -103 92t-137 32q-77 0 -139 -36t-97.5 -100t-35.5 -146t35.5 -146.5t97.5 -100
t139 -35.5q68 0 124.5 27.5t93.5 78t48 116.5h-280v82h381zM348 821l151 171l63 -58l-159 -157z" />
    <glyph glyph-name="uni01F5" unicode="&#x1f5;" horiz-adv-x="600" 
d="M532 492v-459q0 -75 -31 -131.5t-87.5 -87t-132.5 -30.5q-113 0 -203 53l37 69q37 -21 79.5 -32t84.5 -11q51 0 87 20t54.5 57.5t18.5 87.5v18q-57 -57 -154 -57q-70 0 -129 32.5t-93 91t-34 134.5q0 75 34 133.5t93 91t129 32.5q104 0 163 -66l5 54h79zM378 86.5
q37 18.5 61 51.5l1 216q-24 34 -61.5 52.5t-81.5 18.5q-49 0 -89 -22.5t-63 -63t-23 -92.5q0 -53 23 -93.5t63 -63t89 -22.5q44 0 81 18.5zM227 605l151 171l63 -58l-159 -157z" />
    <glyph glyph-name="Aringacute" unicode="&#x1fa;" horiz-adv-x="666" 
d="M332 902l-53 43l148 168l61 -56zM504 196h-343q-22 -64 -64 -196h-98q62 193 126.5 362t137.5 315q-24 17 -38 42t-14 55q0 32 16.5 59t44.5 42.5t62 15.5q33 0 61 -15.5t44.5 -42.5t16.5 -59q0 -30 -14 -55.5t-38 -41.5q73 -146 137.5 -316t125.5 -361h-98
q-42 132 -65 196zM293.5 813.5q-16.5 -15.5 -16.5 -39.5q0 -26 16 -41t41 -15q24 0 40.5 14.5t16.5 39.5t-16.5 41t-40.5 16t-40.5 -15.5zM474 282q-69 185 -141 339q-74 -154 -141 -339h282z" />
    <glyph glyph-name="aringacute" unicode="&#x1fb;" horiz-adv-x="528" 
d="M391 0l-7 50q-27 -29 -67 -45t-88 -16q-57 0 -100 20t-66.5 56.5t-23.5 85.5q0 48 25 86t75 60.5t123 22.5q66 0 116 -16q-1 41 -13.5 67.5t-42.5 40.5t-82 14q-30 0 -67 -8t-75 -24l-25 74q89 36 176 36q108 0 163.5 -48.5t55.5 -140.5v-240l8 -75h-85zM140.5 107.5
q13.5 -20.5 39 -31.5t59.5 -11q46 0 78 14.5t61 43.5v106q-49 17 -108 17q-74 0 -108.5 -25t-34.5 -67q0 -26 13.5 -46.5zM197 576.5q-28 15.5 -44 42t-16 59.5t16 59.5t44 42t62 15.5t62 -15.5t44 -42t16 -59.5t-16 -59.5t-44 -42t-62 -15.5t-62 15.5zM299 637q17 15 17 39
q0 25 -16.5 41.5t-40.5 16.5t-40.5 -16t-16.5 -40q0 -25 16.5 -40.5t40.5 -15.5q23 0 40 15zM204 868l151 171l63 -58l-159 -157z" />
    <glyph glyph-name="AEacute" unicode="&#x1fc;" horiz-adv-x="953" 
d="M905 84v-84h-437v178h-308q-32 -79 -64 -178h-97q64 197 158 388.5t196 323.5h538v-84h-329v-226h313v-82h-313v-236h343zM468 261v367h-69q-53 -74 -105.5 -168t-98.5 -199h273zM534 805l151 171l63 -58l-159 -157z" />
    <glyph glyph-name="aeacute" unicode="&#x1fd;" horiz-adv-x="900" 
d="M860 220h-393q4 -47 25.5 -81.5t58.5 -53.5t86 -19q45 0 85.5 19t70.5 54l58 -57q-45 -50 -99.5 -72t-117.5 -22q-64 0 -114.5 23t-84.5 64q-20 -22 -52 -41.5t-72 -32t-82 -12.5q-57 0 -100 20t-66.5 56.5t-23.5 85.5q0 48 25 86.5t76 61t126 22.5q58 0 112 -17
q-1 41 -13.5 67.5t-42.5 40.5t-82 14q-30 0 -67 -8t-75 -24l-25 74q89 36 176 36q69 0 116.5 -23t71.5 -69q33 43 83 67.5t104 24.5q73 0 127 -33.5t82.5 -90t28.5 -122.5q0 -25 -2 -38zM522 392q-41 -35 -52 -98h299q-4 41 -23.5 71t-50.5 46t-71 16q-61 0 -102 -35z
M399 134q-18 43 -21 95q-49 17 -108 17q-74 0 -108.5 -25t-34.5 -67q0 -26 13.5 -46.5t39 -31.5t59.5 -11q82 0 160 69zM381 605l151 171l63 -58l-159 -157z" />
    <glyph glyph-name="Oslashacute" unicode="&#x1fe;" horiz-adv-x="806" 
d="M753 486q21 -60 21 -128q0 -105 -49 -189.5t-133.5 -132.5t-188.5 -48q-66 0 -125 20t-107 57l-78 -79l-56 56l78 78q-40 48 -61 108.5t-21 129.5q0 105 48.5 189.5t133.5 132.5t188 48q67 0 126.5 -20.5t107.5 -58.5l76 77l56 -56l-75 -76q38 -48 59 -108zM144 266
q13 -43 37 -78l392 396q-35 27 -78.5 41.5t-91.5 14.5q-76 0 -138.5 -36t-98 -100t-35.5 -146q0 -49 13 -92zM542.5 111.5q62.5 35.5 98 100t35.5 146.5q0 48 -12.5 91t-36.5 77l-391 -395q34 -27 77 -41t90 -14q77 0 139.5 35.5zM348 821l151 171l63 -58l-159 -157z" />
    <glyph glyph-name="oslashacute" unicode="&#x1ff;" horiz-adv-x="591" 
d="M513 398q24 -31 36.5 -70t12.5 -83q0 -75 -36 -133.5t-97 -91t-133 -32.5q-48 0 -91.5 14.5t-78.5 41.5l-62 -57l-47 49l61 56q-24 31 -36.5 70t-12.5 83q0 76 36 135t97 91.5t134 32.5q48 0 91.5 -15t78.5 -42l62 56l46 -49zM144 152l260 237q-46 37 -108 37
q-48 0 -88 -22.5t-63.5 -64t-23.5 -94.5t23 -93zM447 338l-258 -237q22 -17 49.5 -26t57.5 -9q47 0 87 22.5t63 63.5t23 93q0 51 -22 93zM240 605l151 171l63 -58l-159 -157z" />
    <glyph glyph-name="Scommaaccent" unicode="&#x218;" horiz-adv-x="588" 
d="M140.5 11.5q-68.5 23.5 -122.5 68.5l50 67q98 -76 214 -76q80 0 130 30.5t50 90.5q0 31 -15 51.5t-49 36.5t-95 32l-47 12q-219 56 -219 211q0 57 29.5 101t87.5 68t139 24q69 0 133 -19.5t115 -53.5l-44 -71q-97 61 -203 61q-82 0 -121 -28t-39 -78q0 -48 35 -79
t116 -51l42 -10q89 -22 139.5 -51t71.5 -67.5t21 -92.5t-29.5 -99t-92 -73t-155.5 -28q-73 0 -141.5 23.5zM235 -267q28 101 28 200h80q0 -54 -9.5 -105.5t-26.5 -94.5h-72z" />
    <glyph glyph-name="scommaaccent" unicode="&#x219;" horiz-adv-x="472" 
d="M398 389q-77 40 -167 40q-112 0 -112 -64q0 -22 13 -36t35 -22t57 -15l50 -9q92 -18 133.5 -53.5t41.5 -92.5q0 -45 -26 -78.5t-75.5 -52t-117.5 -18.5q-56 0 -109 14.5t-97 41.5l37 66q39 -22 82.5 -34t86.5 -12q64 0 97 17.5t33 48.5q0 22 -10.5 35.5t-36.5 23.5
t-74 19l-45 9q-77 14 -120 50t-43 94q0 43 23.5 75.5t69 50.5t109.5 18q111 0 199 -48zM176 -267q28 101 28 200h80q0 -54 -9.5 -105.5t-26.5 -94.5h-72z" />
    <glyph glyph-name="uni021A" unicode="&#x21a;" horiz-adv-x="615" 
d="M596 630h-242v-630h-94v630h-241v82h577v-82zM239 -267q28 101 28 200h80q0 -54 -9.5 -105.5t-26.5 -94.5h-72z" />
    <glyph glyph-name="uni021B" unicode="&#x21b;" horiz-adv-x="341" 
d="M191 414v-287q0 -55 63 -55q23 0 50 5l14 -72q-36 -11 -81 -11q-68 0 -101.5 32t-33.5 99v289h-94v78h96v138h87v-138h136v-78h-136zM151 -267q28 101 28 200h80q0 -54 -9.5 -105.5t-26.5 -94.5h-72z" />
    <glyph glyph-name="dotlessj" unicode="&#x237;" horiz-adv-x="259" 
d="M191 -77q0 -61 -34.5 -97t-97.5 -36q-21 0 -41 4.5t-34 12.5l23 70q19 -9 44 -9q26 0 38.5 13.5t12.5 45.5v487h-94v78h183v-569z" />
    <glyph glyph-name="schwa" unicode="&#x259;" horiz-adv-x="551" 
d="M403.5 470q57.5 -34 88 -92.5t30.5 -130.5q0 -77 -31.5 -135.5t-87.5 -91t-127 -32.5q-73 0 -127 33.5t-82.5 90t-28.5 122.5q0 12 2 38h393q-4 47 -25.5 81.5t-58.5 53.5t-86 19q-45 0 -85 -19t-70 -54l-58 57q84 94 217 94q79 0 136.5 -34zM379 100q41 35 51 98h-298
q4 -41 23.5 -71t50.5 -46t71 -16q61 0 102 35z" />
    <glyph glyph-name="circumflex" unicode="&#x2c6;" horiz-adv-x="500" 
d="M378 559l-127 104l-130 -104l-51 52l180 144l180 -144z" />
    <glyph glyph-name="caron" unicode="&#x2c7;" horiz-adv-x="500" 
d="M430 703l-180 -144l-180 144l52 52l127 -103l130 103z" />
    <glyph glyph-name="breve" unicode="&#x2d8;" horiz-adv-x="500" 
d="M95 705l78 9q4 -38 24 -59t53 -21t53 21t24 59l78 -9q-3 -42 -24 -75t-55 -51t-76 -18t-76 18t-55 51t-24 75z" />
    <glyph glyph-name="dotaccent" unicode="&#x2d9;" horiz-adv-x="500" 
d="M193 627q0 23 17 40t40 17t40 -17t17 -40t-17 -40t-40 -17t-40 17t-17 40z" />
    <glyph glyph-name="ring" unicode="&#x2da;" horiz-adv-x="500" 
d="M128 678q0 33 16 59.5t44 42t62 15.5t62 -15.5t44 -42t16 -59.5t-16 -59.5t-44 -42t-62 -15.5t-62 15.5t-44 42t-16 59.5zM307 676q0 25 -16.5 41.5t-40.5 16.5t-40.5 -16t-16.5 -40q0 -25 16.5 -40.5t40.5 -15.5q23 0 40 15t17 39z" />
    <glyph glyph-name="ogonek" unicode="&#x2db;" horiz-adv-x="500" 
d="M348 -188q-21 -13 -46.5 -20.5t-52.5 -7.5q-32 0 -57.5 12.5t-39.5 34t-14 47.5t14.5 49t52.5 48t105 53l35 -24q-54 -30 -82 -48.5t-39 -32.5t-11 -30q0 -19 13 -30.5t35 -11.5q14 0 28 4.5t31 12.5z" />
    <glyph glyph-name="tilde" unicode="&#x2dc;" horiz-adv-x="500" 
d="M232 583q-15 10 -25 15t-19 5q-13 0 -21.5 -9t-17.5 -35l-70 22q13 48 38 70.5t67 22.5q24 0 42.5 -8t42.5 -23q13 -10 23.5 -15t20.5 -5q13 0 21.5 9t17.5 35l71 -16q-27 -99 -106 -99q-24 0 -42.5 8t-42.5 23z" />
    <glyph glyph-name="hungarumlaut" unicode="&#x2dd;" horiz-adv-x="500" 
d="M107 577l55 179l82 -19l-67 -175zM253 580l61 176l79 -22l-70 -173z" />
    <glyph glyph-name="gravecomb" unicode="&#x300;" horiz-adv-x="0" 
d="M-107 718l64 58l150 -171l-54 -44z" />
    <glyph glyph-name="acutecomb" unicode="&#x301;" horiz-adv-x="0" 
d="M-107 605l151 171l63 -58l-159 -157z" />
    <glyph glyph-name="circumflexcomb" unicode="&#x302;" horiz-adv-x="0" 
d="M128 559l-127 104l-130 -104l-51 52l180 144l180 -144z" />
    <glyph glyph-name="tildecomb" unicode="&#x303;" horiz-adv-x="0" 
d="M23.5 560q-18.5 8 -42.5 23q-15 10 -25 15t-19 5q-13 0 -21.5 -9t-17.5 -35l-70 22q13 48 38 70.5t67 22.5q24 0 42.5 -8t42.5 -23q13 -10 23.5 -15t20.5 -5q13 0 21.5 9t17.5 35l71 -16q-27 -99 -106 -99q-24 0 -42.5 8z" />
    <glyph glyph-name="macroncomb" unicode="&#x304;" horiz-adv-x="0" 
d="M139 572h-278v77h278v-77z" />
    <glyph glyph-name="brevecomb" unicode="&#x306;" horiz-adv-x="0" 
d="M-76 579q-34 18 -55 51t-24 75l78 9q4 -38 24 -59t53 -21t53 21t24 59l78 -9q-3 -42 -24 -75t-55 -51t-76 -18t-76 18z" />
    <glyph glyph-name="dotaccentcomb" unicode="&#x307;" horiz-adv-x="0" 
d="M-40 587q-17 17 -17 40t17 40t40 17t40 -17t17 -40t-17 -40t-40 -17t-40 17z" />
    <glyph glyph-name="dieresiscomb" unicode="&#x308;" horiz-adv-x="0" 
d="M-136.5 576.5q-16.5 16.5 -16.5 39.5t16.5 39.5t39.5 16.5t39.5 -16.5t16.5 -39.5t-16.5 -39.5t-39.5 -16.5t-39.5 16.5zM56.5 576.5q-16.5 16.5 -16.5 39.5t16.5 39.5t39.5 16.5t39.5 -16.5t16.5 -39.5t-16.5 -39.5t-39.5 -16.5t-39.5 16.5z" />
    <glyph glyph-name="ringcomb" unicode="&#x30a;" horiz-adv-x="0" 
d="M-62 576.5q-28 15.5 -44 42t-16 59.5t16 59.5t44 42t62 15.5t62 -15.5t44 -42t16 -59.5t-16 -59.5t-44 -42t-62 -15.5t-62 15.5zM40 637q17 15 17 39q0 25 -16.5 41.5t-40.5 16.5t-40.5 -16t-16.5 -40q0 -25 16.5 -40.5t40.5 -15.5q23 0 40 15z" />
    <glyph glyph-name="hungarumlautcomb" unicode="&#x30b;" horiz-adv-x="0" 
d="M-143 577l55 179l82 -19l-67 -175zM3 580l61 176l79 -22l-70 -173z" />
    <glyph glyph-name="caroncomb" unicode="&#x30c;" horiz-adv-x="0" 
d="M180 703l-180 -144l-180 144l52 52l127 -103l130 103z" />
    <glyph glyph-name="commaturnedabovecomb" unicode="&#x312;" horiz-adv-x="0" 
d="M-44.5 664.5q9.5 51.5 26.5 94.5h72q-28 -101 -28 -200h-80q0 54 9.5 105.5z" />
    <glyph glyph-name="uni0313" unicode="&#x313;" horiz-adv-x="0" 
d="M-26 712h80q0 -53 -9.5 -105t-26.5 -95h-72q28 101 28 200z" />
    <glyph glyph-name="dotbelowcomb" unicode="&#x323;" horiz-adv-x="0" 
d="M-57 -117q0 23 17 40t40 17t40 -17t17 -40t-17 -40t-40 -17t-40 17t-17 40z" />
    <glyph glyph-name="uni0324" unicode="&#x324;" horiz-adv-x="0" 
d="M-153 -128q0 23 16.5 39.5t39.5 16.5t39.5 -16.5t16.5 -39.5t-16.5 -39.5t-39.5 -16.5t-39.5 16.5t-16.5 39.5zM40 -128q0 23 16.5 39.5t39.5 16.5t39.5 -16.5t16.5 -39.5t-16.5 -39.5t-39.5 -16.5t-39.5 16.5t-16.5 39.5z" />
    <glyph glyph-name="uni0325" unicode="&#x325;" horiz-adv-x="0" 
d="M-122 -185q0 33 16 59.5t44 42t62 15.5t62 -15.5t44 -42t16 -59.5t-16 -59.5t-44 -42t-62 -15.5t-62 15.5t-44 42t-16 59.5zM57 -187q0 25 -16.5 41.5t-40.5 16.5t-40.5 -16t-16.5 -40q0 -25 16.5 -40.5t40.5 -15.5q23 0 40 15t17 39z" />
    <glyph glyph-name="commaaccent" unicode="&#x326;" horiz-adv-x="0" 
d="M-54 -267q28 101 28 200h80q0 -54 -9.5 -105.5t-26.5 -94.5h-72z" />
    <glyph glyph-name="cedillacomb" unicode="&#x327;" horiz-adv-x="0" 
d="M80 -70.5q24 -25.5 24 -60.5q0 -44 -31.5 -70.5t-90.5 -26.5q-22 0 -44.5 5.5t-41.5 16.5l25 53q32 -15 61 -15q23 0 36.5 10t13.5 30t-21 32t-56 14l25 105h48l-14 -57q42 -11 66 -36.5z" />
    <glyph glyph-name="ogonekcomb" unicode="&#x328;" horiz-adv-x="0" 
d="M105 -188q-21 -13 -46.5 -20.5t-52.5 -7.5q-32 0 -57.5 12.5t-39.5 34t-14 47.5t14.5 49t52.5 48t105 53l35 -24q-54 -30 -82 -48.5t-39 -32.5t-11 -30q0 -19 13 -30.5t35 -11.5q14 0 28 4.5t31 12.5z" />
    <glyph glyph-name="uni032E" unicode="&#x32e;" horiz-adv-x="0" 
d="M-155 -77l78 9q4 -38 24 -59t53 -21t53 21t24 59l78 -9q-3 -42 -24 -75t-55 -51t-76 -18t-76 18t-55 51t-24 75z" />
    <glyph glyph-name="uni0331" unicode="&#x331;" horiz-adv-x="0" 
d="M139 -155h-278v77h278v-77z" />
    <glyph glyph-name="uni0335" unicode="&#x335;" horiz-adv-x="0" 
d="M-151 402h302v-69h-302v69z" />
    <glyph glyph-name="uni0337" unicode="&#x337;" horiz-adv-x="0" 
d="M-232 -12l-46 49l510 467l46 -49z" />
    <glyph glyph-name="uni0338" unicode="&#x338;" horiz-adv-x="0" 
d="M-310 -12l-56 56l676 684l56 -56z" />
    <glyph glyph-name="delta" unicode="&#x394;" horiz-adv-x="666" 
d="M533 381.5q69 -178.5 134 -381.5h-668q65 203 134 381.5t147 330.5h106q78 -152 147 -330.5zM542 86q-105 317 -210 536q-107 -223 -209 -536h419z" />
    <glyph glyph-name="delta" unicode="&#x3b4;" horiz-adv-x="666" 
d="M533 381.5q69 -178.5 134 -381.5h-668q65 203 134 381.5t147 330.5h106q78 -152 147 -330.5zM542 86q-105 317 -210 536q-107 -223 -209 -536h419z" />
    <glyph glyph-name="omega" unicode="&#x3a9;" horiz-adv-x="733" 
d="M503 84h197v-84h-292v170q92 21 144 80.5t52 151.5q0 68 -30.5 122.5t-85 85.5t-122.5 31t-122 -31t-84.5 -85.5t-30.5 -122.5q0 -92 52 -151.5t144 -80.5v-170h-292v84h197v31q-61 24 -105 67.5t-68 102.5t-24 126q0 90 43.5 162.5t119.5 113.5t170 41q95 0 171 -41
t119.5 -113.5t43.5 -162.5q0 -67 -24 -126t-68 -102.5t-105 -67.5v-31z" />
    <glyph glyph-name="omega" unicode="&#x3c9;" horiz-adv-x="733" 
d="M503 84h197v-84h-292v170q92 21 144 80.5t52 151.5q0 68 -30.5 122.5t-85 85.5t-122.5 31t-122 -31t-84.5 -85.5t-30.5 -122.5q0 -92 52 -151.5t144 -80.5v-170h-292v84h197v31q-61 24 -105 67.5t-68 102.5t-24 126q0 90 43.5 162.5t119.5 113.5t170 41q95 0 171 -41
t119.5 -113.5t43.5 -162.5q0 -67 -24 -126t-68 -102.5t-105 -67.5v-31z" />
    <glyph glyph-name="uni03BC" unicode="&#x3bc;" horiz-adv-x="563" 
d="M495 492v-492h-81l-4 48q-60 -60 -147 -60q-59 0 -106 29v-221h-89v696h89v-297q0 -66 30 -97t88 -31q77 0 131 61v364h89z" />
    <glyph glyph-name="pi" unicode="&#x3c0;" horiz-adv-x="635" 
d="M621 5q-36 -11 -81 -11q-68 0 -101.5 32t-33.5 99v289h-214v-414h-89v414h-94v78h604v-78h-118v-287q0 -26 14.5 -40.5t48.5 -14.5q22 0 50 5z" />
    <glyph glyph-name="Wgrave" unicode="&#x1e80;" horiz-adv-x="1001" 
d="M987 712q-46 -180 -103 -366t-116 -346h-108l-159 579l-160 -579h-107q-59 157 -115.5 342t-104.5 370h98q38 -151 83.5 -307t89.5 -286l163 593h105l163 -594q44 132 90 288.5t84 305.5h97zM351 919l64 58l150 -171l-54 -44z" />
    <glyph glyph-name="wgrave" unicode="&#x1e81;" horiz-adv-x="829" 
d="M833 492q-40 -122 -90 -251t-101 -241h-92l-136 380l-135 -380h-92q-49 107 -99 235.5t-93 256.5h90q72 -222 146 -398l141 398h83l143 -398q74 176 146 398h89zM264 719l64 58l150 -171l-54 -44z" />
    <glyph glyph-name="Wacute" unicode="&#x1e82;" horiz-adv-x="1001" 
d="M987 712q-46 -180 -103 -366t-116 -346h-108l-159 579l-160 -579h-107q-59 157 -115.5 342t-104.5 370h98q38 -151 83.5 -307t89.5 -286l163 593h105l163 -594q44 132 90 288.5t84 305.5h97zM446 805l151 171l63 -58l-159 -157z" />
    <glyph glyph-name="wacute" unicode="&#x1e83;" horiz-adv-x="829" 
d="M833 492q-40 -122 -90 -251t-101 -241h-92l-136 380l-135 -380h-92q-49 107 -99 235.5t-93 256.5h90q72 -222 146 -398l141 398h83l143 -398q74 176 146 398h89zM359 605l151 171l63 -58l-159 -157z" />
    <glyph glyph-name="Wdieresis" unicode="&#x1e84;" horiz-adv-x="1001" 
d="M987 712q-46 -180 -103 -366t-116 -346h-108l-159 579l-160 -579h-107q-59 157 -115.5 342t-104.5 370h98q38 -151 83.5 -307t89.5 -286l163 593h105l163 -594q44 132 90 288.5t84 305.5h97zM362.5 776.5q-16.5 16.5 -16.5 39.5t16.5 39.5t39.5 16.5t39.5 -16.5
t16.5 -39.5t-16.5 -39.5t-39.5 -16.5t-39.5 16.5zM555.5 776.5q-16.5 16.5 -16.5 39.5t16.5 39.5t39.5 16.5t39.5 -16.5t16.5 -39.5t-16.5 -39.5t-39.5 -16.5t-39.5 16.5z" />
    <glyph glyph-name="wdieresis" unicode="&#x1e85;" horiz-adv-x="829" 
d="M833 492q-40 -122 -90 -251t-101 -241h-92l-136 380l-135 -380h-92q-49 107 -99 235.5t-93 256.5h90q72 -222 146 -398l141 398h83l143 -398q74 176 146 398h89zM275.5 576.5q-16.5 16.5 -16.5 39.5t16.5 39.5t39.5 16.5t39.5 -16.5t16.5 -39.5t-16.5 -39.5t-39.5 -16.5
t-39.5 16.5zM468.5 576.5q-16.5 16.5 -16.5 39.5t16.5 39.5t39.5 16.5t39.5 -16.5t16.5 -39.5t-16.5 -39.5t-39.5 -16.5t-39.5 16.5z" />
    <glyph glyph-name="Germandbls" unicode="&#x1e9e;" horiz-adv-x="693" 
d="M556 394q50 -28 79.5 -76t29.5 -109q0 -65 -29.5 -116t-83.5 -80t-125 -29q-58 0 -106.5 22t-79.5 61l65 61q20 -29 51.5 -45t68.5 -16q40 0 73 17t52.5 49t19.5 76q0 36 -19 66.5t-51.5 48.5t-71.5 18q-18 0 -37.5 -5.5t-37.5 -16.5l-49 63q127 125 220 245h-174
q-89 0 -141.5 -52t-52.5 -158v-418h-94v418q0 96 36 162t100.5 99t151.5 33h286v-65q-45 -62 -87 -112t-102 -111q58 -2 108 -30z" />
    <glyph glyph-name="Ygrave" unicode="&#x1ef2;" horiz-adv-x="622" 
d="M623 712v-4l-265 -397v-311h-95v312l-264 396v4h109l205 -312l207 312h103zM164 919l64 58l150 -171l-54 -44z" />
    <glyph glyph-name="ygrave" unicode="&#x1ef3;" horiz-adv-x="475" 
d="M479 492q-39 -118 -90.5 -248t-104.5 -244q-53 -119 -100 -204h-93q64 112 104 204q-53 115 -106 244.5t-94 247.5h94q54 -171 152 -397q41 98 80 202t68 195h90zM89 719l64 58l150 -171l-54 -44z" />
    <glyph glyph-name="uni2011" unicode="&#x2011;" horiz-adv-x="369" 
d="M39 321h291v-79h-291v79z" />
    <glyph glyph-name="endash" unicode="&#x2013;" horiz-adv-x="452" 
d="M0 321h452v-79h-452v79z" />
    <glyph glyph-name="emdash" unicode="&#x2014;" horiz-adv-x="886" 
d="M0 321h887v-79h-887v79z" />
    <glyph glyph-name="quoteleft" unicode="&#x2018;" horiz-adv-x="195" 
d="M171 712q-36 -130 -36 -254h-89q0 69 12 134.5t34 119.5h79z" />
    <glyph glyph-name="quoteright" unicode="&#x2019;" horiz-adv-x="195" 
d="M23 458q37 126 37 254h89q0 -69 -12 -134.5t-34 -119.5h-80z" />
    <glyph glyph-name="quotesinglbase" unicode="&#x201a;" horiz-adv-x="196" 
d="M24 -161q36 124 36 255h90q0 -69 -12 -135t-34 -120h-80z" />
    <glyph glyph-name="quotedblleft" unicode="&#x201c;" horiz-adv-x="358" 
d="M171 712q-36 -130 -36 -254h-89q0 69 12 134.5t34 119.5h79zM335 712q-36 -124 -36 -254h-90q0 69 12 134.5t34 119.5h80z" />
    <glyph glyph-name="quotedblright" unicode="&#x201d;" horiz-adv-x="359" 
d="M24 458q36 123 36 254h90q0 -69 -12 -134.5t-34 -119.5h-80zM188 458q36 123 36 254h89q0 -69 -12 -134.5t-34 -119.5h-79z" />
    <glyph glyph-name="quotedblbase" unicode="&#x201e;" horiz-adv-x="359" 
d="M24 -161q36 124 36 255h90q0 -69 -12 -135t-34 -120h-80zM188 -161q36 124 36 255h89q0 -69 -12 -135t-34 -120h-79z" />
    <glyph glyph-name="dagger" unicode="&#x2020;" horiz-adv-x="609" 
d="M590 426h-239v-630h-93v630h-239v82h239v204h93v-204h239v-82z" />
    <glyph glyph-name="daggerdbl" unicode="&#x2021;" horiz-adv-x="609" 
d="M351 426v-344h239v-82h-239v-204h-93v204h-239v82h239v344h-239v82h239v204h93v-204h239v-82h-239z" />
    <glyph glyph-name="bullet" unicode="&#x2022;" horiz-adv-x="394" 
d="M140 257.5q-26 15.5 -41.5 41.5t-15.5 57t15.5 57t41.5 41.5t57 15.5t57 -15.5t41.5 -41.5t15.5 -57t-15.5 -57t-41.5 -41.5t-57 -15.5t-57 15.5z" />
    <glyph glyph-name="ellipsis" unicode="&#x2026;" horiz-adv-x="616" 
d="M36 53q0 18 8.5 33t23.5 24t33 9q28 0 47 -19t19 -47q0 -18 -9 -33t-24 -23.5t-33 -8.5t-33 8.5t-23.5 23.5t-8.5 33zM243 53q0 18 8.5 33t23.5 24t33 9q28 0 47 -19t19 -47q0 -18 -9 -33t-24 -23.5t-33 -8.5t-33 8.5t-23.5 23.5t-8.5 33zM449 53q0 18 8.5 33t23.5 24
t33 9q28 0 47 -19t19 -47q0 -18 -9 -33t-24 -23.5t-33 -8.5t-33 8.5t-23.5 23.5t-8.5 33z" />
    <glyph glyph-name="perthousand" unicode="&#x2030;" horiz-adv-x="1386" 
d="M32 497q0 69 20 119t58 77t92 27t92 -26.5t58 -77t20 -119.5t-20 -119t-58 -77t-92 -27t-92 27t-58 77t-20 119zM291 497q0 150 -89 150q-44 0 -66 -36.5t-22 -113.5t22 -113.5t66 -36.5t66.5 36.5t22.5 113.5zM266 -15l-61 42l511 699l61 -41zM610 213q0 69 20 119
t58 77t92 27t92 -26.5t58 -77t20 -119.5t-20 -119t-58 -77t-92 -27t-92 27t-58 77t-20 119zM869 213q0 150 -89 150q-44 0 -66 -36.5t-22 -113.5t22 -113.5t66 -36.5t66.5 36.5t22.5 113.5zM1014 213q0 69 20 119t58 77t92 27t92 -26.5t58 -77t20 -119.5t-20 -119t-58 -77
t-92 -27t-92 27t-58 77t-20 119zM1273 213q0 150 -89 150q-44 0 -66 -36.5t-22 -113.5t22 -113.5t66 -36.5t66.5 36.5t22.5 113.5z" />
    <glyph glyph-name="guilsinglleft" unicode="&#x2039;" horiz-adv-x="340" 
d="M143 270l146 -187l-65 -42l-178 229l178 229l65 -42z" />
    <glyph glyph-name="guilsinglright" unicode="&#x203a;" horiz-adv-x="340" 
d="M294 270l-178 -229l-65 42l146 187l-146 187l65 42z" />
    <glyph glyph-name="fraction" unicode="&#x2044;" horiz-adv-x="554" 
d="M52 -15l-61 42l511 699l61 -41z" />
    <glyph glyph-name="zero.superior" unicode="&#x2070;" horiz-adv-x="404" 
d="M110 522q-38 27 -58 77t-20 119t20 119t58 77t92 27t92 -26.5t58 -77t20 -119.5t-20 -119t-58 -77t-92 -27t-92 27zM268.5 604.5q22.5 36.5 22.5 113.5q0 150 -89 150q-44 0 -66 -36.5t-22 -113.5t22 -113.5t66 -36.5t66.5 36.5z" />
    <glyph glyph-name="four.superior" unicode="&#x2074;" horiz-adv-x="372" 
d="M356 602h-59v-98h-78v98h-210v74q82 148 190 255h98v-260h59v-69zM219 671v188q-73 -81 -133 -188h133z" />
    <glyph glyph-name="five.superior" unicode="&#x2075;" horiz-adv-x="350" 
d="M252 765.5q35 -18.5 55 -51t20 -72.5q0 -41 -21.5 -74.5t-59 -53t-83.5 -19.5q-37 0 -68.5 13t-53 36t-30.5 53l73 21q7 -23 28 -39t50 -16q23 0 42 10.5t30 29t11 41.5q0 21 -11 38.5t-30 27.5t-42 10t-42 -11.5t-30 -29.5l-70 21l47 231h234v-69h-176l-21 -97
q31 19 71 19q42 0 77 -18.5z" />
    <glyph glyph-name="six.superior" unicode="&#x2076;" horiz-adv-x="359" 
d="M272.5 767q34.5 -19 54 -51.5t19.5 -71.5q0 -42 -21 -76t-58 -53.5t-81 -19.5q-78 0 -124 57q-22 28 -35 69t-13 90q0 110 44.5 170t128.5 60q54 0 91.5 -24.5t56.5 -66.5l-71 -27q-11 23 -30 35.5t-48 12.5q-45 0 -69.5 -33t-27.5 -105q16 25 45.5 39t62.5 14
q41 0 75.5 -19zM225.5 573.5q18.5 10.5 29.5 29t11 39.5t-11 39t-29.5 28.5t-40.5 10.5q-21 0 -39.5 -10.5t-29.5 -28.5t-11 -39t11 -39.5t30 -29t40 -10.5t39.5 10.5z" />
    <glyph glyph-name="seven.superior" unicode="&#x2077;" horiz-adv-x="309" 
d="M311 931v-54q-65 -80 -109 -176.5t-61 -196.5h-82q17 93 56.5 186.5t97.5 171.5h-203v69h301z" />
    <glyph glyph-name="eight.superior" unicode="&#x2078;" horiz-adv-x="388" 
d="M346 687.5q18 -26.5 18 -63.5q0 -35 -20.5 -64.5t-59 -46.5t-90.5 -17q-53 0 -91.5 17t-59 46t-20.5 65q0 37 18.5 63.5t56.5 40.5q-30 15 -45 39.5t-15 55.5q0 34 19 60.5t54 42t83 15.5t82.5 -15.5t53 -42t18.5 -60.5q0 -31 -14.5 -55.5t-43.5 -39.5q38 -14 56 -40.5z
M137.5 857q-20.5 -17 -20.5 -44q0 -26 20.5 -43t56.5 -17q35 0 56 17t21 43q0 27 -21 44t-56 17q-36 0 -56.5 -17zM256.5 583q22.5 19 22.5 48q0 28 -22.5 46.5t-62.5 18.5q-41 0 -63 -18.5t-22 -46.5q0 -29 22 -48t63 -19q40 0 62.5 19z" />
    <glyph glyph-name="nine.superior" unicode="&#x2079;" horiz-adv-x="359" 
d="M333 815q13 -41 13 -90q0 -110 -45 -170t-129 -60q-54 0 -91.5 24.5t-55.5 66.5l70 27q11 -23 30 -35.5t48 -12.5q94 0 98 140q-16 -25 -45 -40t-63 -15q-42 0 -76 19t-53.5 52t-19.5 72q0 42 21 75.5t57.5 53t80.5 19.5q78 0 124 -57q23 -28 36 -69zM213.5 727.5
q18.5 10.5 29.5 28t11 39.5q0 21 -11 39t-29.5 28.5t-40.5 10.5q-21 0 -39.5 -10.5t-29.5 -28.5t-11 -39q0 -22 11 -39.5t29.5 -28t40.5 -10.5q21 0 39.5 10.5z" />
    <glyph glyph-name="zero.inferior" unicode="&#x2080;" horiz-adv-x="404" 
d="M110 -186q-38 27 -58 77t-20 119t20 119t58 77t92 27t92 -26.5t58 -77t20 -119.5t-20 -119t-58 -77t-92 -27t-92 27zM268.5 -103.5q22.5 36.5 22.5 113.5q0 150 -89 150q-44 0 -66 -36.5t-22 -113.5t22 -113.5t66 -36.5t66.5 36.5z" />
    <glyph glyph-name="one.inferior" unicode="&#x2081;" horiz-adv-x="262" 
d="M213 223v-427h-80v333l-115 -57v74l145 77h50z" />
    <glyph glyph-name="two.inferior" unicode="&#x2082;" horiz-adv-x="330" 
d="M320 -135v-69h-302v55l160 142q28 25 42 48t14 52q0 30 -19 49t-53 19q-28 0 -47.5 -15.5t-29.5 -44.5l-73 20q14 53 55 82.5t99 29.5q44 0 78 -17.5t52.5 -48.5t18.5 -70q0 -32 -11.5 -59t-32.5 -50.5t-56 -53.5l-80 -69h185z" />
    <glyph glyph-name="three.inferior" unicode="&#x2083;" horiz-adv-x="371" 
d="M327 -13.5q21 -28.5 21 -67.5q0 -38 -21.5 -68.5t-59.5 -47t-86 -16.5q-61 0 -105 28.5t-61 78.5l73 25q11 -31 36 -45.5t58 -14.5q38 0 61 17.5t23 47.5t-22 46.5t-62 16.5h-45v63h42q33 0 52.5 16t19.5 43q0 24 -19.5 39.5t-52.5 15.5q-64 0 -82 -60l-73 19
q31 110 157 110q46 0 80.5 -15.5t52.5 -41.5t18 -57t-16 -55.5t-47 -37.5q37 -11 58 -39.5z" />
    <glyph glyph-name="four.inferior" unicode="&#x2084;" horiz-adv-x="372" 
d="M356 -106h-59v-98h-78v98h-210v74q82 148 190 255h98v-260h59v-69zM219 -37v188q-73 -81 -133 -188h133z" />
    <glyph glyph-name="five.inferior" unicode="&#x2085;" horiz-adv-x="350" 
d="M252 57.5q35 -18.5 55 -51t20 -72.5q0 -41 -21.5 -74.5t-59 -53t-83.5 -19.5q-37 0 -68.5 13t-53 36t-30.5 53l73 21q7 -23 28 -39t50 -16q23 0 42 10.5t30 29t11 41.5q0 21 -11 38.5t-30 27.5t-42 10t-42 -11.5t-30 -29.5l-70 21l47 231h234v-69h-176l-21 -97
q31 19 71 19q42 0 77 -18.5z" />
    <glyph glyph-name="six.inferior" unicode="&#x2086;" horiz-adv-x="359" 
d="M272.5 59q34.5 -19 54 -51.5t19.5 -71.5q0 -42 -21 -76t-58 -53.5t-81 -19.5q-78 0 -124 57q-22 28 -35 69t-13 90q0 110 44.5 170t128.5 60q54 0 91.5 -24.5t56.5 -66.5l-71 -27q-11 23 -30 35.5t-48 12.5q-45 0 -69.5 -33t-27.5 -105q16 25 45.5 39t62.5 14
q41 0 75.5 -19zM225.5 -134.5q18.5 10.5 29.5 29t11 39.5t-11 39t-29.5 28.5t-40.5 10.5q-21 0 -39.5 -10.5t-29.5 -28.5t-11 -39t11 -39.5t30 -29t40 -10.5t39.5 10.5z" />
    <glyph glyph-name="seven.inferior" unicode="&#x2087;" horiz-adv-x="309" 
d="M311 223v-54q-65 -80 -109 -176.5t-61 -196.5h-82q17 93 56.5 186.5t97.5 171.5h-203v69h301z" />
    <glyph glyph-name="eight.inferior" unicode="&#x2088;" horiz-adv-x="388" 
d="M346 -20.5q18 -26.5 18 -63.5q0 -35 -20.5 -64.5t-59 -46.5t-90.5 -17q-53 0 -91.5 17t-59 46t-20.5 65q0 37 18.5 63.5t56.5 40.5q-30 15 -45 39.5t-15 55.5q0 34 19 60.5t54 42t83 15.5t82.5 -15.5t53 -42t18.5 -60.5q0 -31 -14.5 -55.5t-43.5 -39.5q38 -14 56 -40.5z
M137.5 149q-20.5 -17 -20.5 -44q0 -26 20.5 -43t56.5 -17q35 0 56 17t21 43q0 27 -21 44t-56 17q-36 0 -56.5 -17zM256.5 -125q22.5 19 22.5 48q0 28 -22.5 46.5t-62.5 18.5q-41 0 -63 -18.5t-22 -46.5q0 -29 22 -48t63 -19q40 0 62.5 19z" />
    <glyph glyph-name="nine.inferior" unicode="&#x2089;" horiz-adv-x="359" 
d="M333 107q13 -41 13 -90q0 -110 -45 -170t-129 -60q-54 0 -91.5 24.5t-55.5 66.5l70 27q11 -23 30 -35.5t48 -12.5q94 0 98 140q-16 -25 -45 -40t-63 -15q-42 0 -76 19t-53.5 52t-19.5 72q0 42 21 75.5t57.5 53t80.5 19.5q78 0 124 -57q23 -28 36 -69zM213.5 19.5
q18.5 10.5 29.5 28t11 39.5q0 21 -11 39t-29.5 28.5t-40.5 10.5q-21 0 -39.5 -10.5t-29.5 -28.5t-11 -39q0 -22 11 -39.5t29.5 -28t40.5 -10.5q21 0 39.5 10.5z" />
    <glyph glyph-name="Euro" unicode="&#x20ac;" 
d="M606 136q-62 -148 -220 -148q-109 0 -173 67t-82 193h-87v68h81q-1 13 -1 40q0 24 1 35h-81v69h87q18 128 81.5 196t173.5 68q157 0 218 -146l-79 -33q-36 95 -136 95q-69 0 -108.5 -44.5t-52.5 -135.5h229v-69h-235q-1 -11 -1 -35q0 -27 1 -40h235v-68h-229
q14 -89 53.5 -132.5t107.5 -43.5q101 0 137 96z" />
    <glyph glyph-name="uni20B8" unicode="&#x20b8;" 
d="M587 712v-78h-524v78h524zM63 559h524v-79h-215v-480h-94v480h-215v79z" />
    <glyph glyph-name="uni20B9" unicode="&#x20b9;" 
d="M464 644q38 -40 47 -97h68v-68h-67q-7 -55 -39.5 -93.5t-84.5 -58t-118 -19.5h-64l311 -308h-128l-318 318v72h195q61 0 99.5 22t48.5 67h-343v68h343q-10 45 -48.5 67t-99.5 22h-195v76h508v-68h-115z" />
    <glyph glyph-name="uni20BA" unicode="&#x20ba;" 
d="M602 372q-7 -174 -93.5 -273t-257.5 -99h-93v319l-91 -42l-19 59l110 51v76l-91 -42l-19 59l110 51v181h93v-137l147 68l19 -59l-166 -77v-76l147 68l19 -59l-166 -77v-277q127 0 188.5 74t68.5 212h94z" />
    <glyph glyph-name="uni20BC" unicode="&#x20bc;" 
d="M496 526.5q49 -70.5 71.5 -200t22.5 -326.5h-92q0 165 -13 273t-41 169.5t-75 79.5v-422h-90v422q-47 -19 -74.5 -81t-40 -169.5t-12.5 -271.5h-92q0 197 22.5 326.5t71 199.5t125.5 85v101h90v-101q78 -14 127 -84.5z" />
    <glyph glyph-name="uni2113" unicode="&#x2113;" horiz-adv-x="468" 
d="M263 82q16 17 26 54l72 -17q-32 -131 -154 -131q-65 0 -96 31t-31 88q0 20 3 39l7 53q-25 -4 -61 -4l10 71q29 0 61 5l42 298q11 79 47.5 119t110.5 40q62 0 95.5 -32t33.5 -88q0 -92 -29.5 -169.5t-85 -133.5t-132.5 -84l-9 -66q-3 -19 -3 -38q0 -26 11 -39t37 -13
q29 0 45 17zM194 303q74 40 114 117.5t40 176.5q0 54 -48 54q-32 0 -47.5 -19.5t-21.5 -62.5z" />
    <glyph glyph-name="uni2117" unicode="&#x2117;" horiz-adv-x="816" 
d="M600 679.5q86 -49.5 134.5 -135t48.5 -188.5t-49 -188t-135 -134.5t-192 -49.5t-191.5 49.5t-134 134.5t-48.5 188t48.5 188.5t134 135t191.5 49.5q107 0 193 -49.5zM563.5 91.5q69.5 40.5 108.5 110.5t39 154q0 85 -39 155t-108.5 110.5t-156.5 40.5q-86 0 -155 -40.5
t-108 -110.5t-39 -155t39 -154.5t108 -110t155 -40.5q87 0 156.5 40.5zM510 534.5q33 -15.5 51 -44t18 -67.5q0 -38 -18 -67t-51 -44.5t-77 -15.5h-79v-134h-78v388h157q44 0 77 -15.5zM480 378q19 16 19 45t-19 45t-51 16h-75v-122h75q32 0 51 16z" />
    <glyph glyph-name="trademark" unicode="&#x2122;" horiz-adv-x="616" 
d="M10 712h222v-39h-88v-246h-46v246h-88v39zM565 427l-17 232l-93 -232h-33l-93 232l-17 -232h-42l20 285h60l88 -223l88 223h61l19 -285h-41z" />
    <glyph glyph-name="Omega" unicode="&#x2126;" horiz-adv-x="733" 
d="M503 84h197v-84h-292v170q92 21 144 80.5t52 151.5q0 68 -30.5 122.5t-85 85.5t-122.5 31t-122 -31t-84.5 -85.5t-30.5 -122.5q0 -92 52 -151.5t144 -80.5v-170h-292v84h197v31q-61 24 -105 67.5t-68 102.5t-24 126q0 90 43.5 162.5t119.5 113.5t170 41q95 0 171 -41
t119.5 -113.5t43.5 -162.5q0 -67 -24 -126t-68 -102.5t-105 -67.5v-31z" />
    <glyph glyph-name="estimated" unicode="&#x212e;" horiz-adv-x="911" 
d="M671.5 676q91.5 -52 140 -139t48.5 -191h-646q-6 0 -10 -4t-4 -9v-176q0 -17 3.5 -27.5t12.5 -19.5q47 -46 107.5 -71t132.5 -25q75 0 142.5 31.5t109.5 83.5h73q-26 -36 -70.5 -68.5t-109 -53t-145.5 -20.5q-121 0 -213 47.5t-142.5 131.5t-50.5 190q0 105 49 189.5
t141.5 133.5t215.5 49q124 0 215.5 -52zM323.5 674.5q-60.5 -25.5 -107.5 -72.5q-9 -9 -12.5 -18.5t-3.5 -25.5v-176q0 -6 4 -9.5t10 -3.5h481q6 0 10 3.5t4 9.5v176q0 16 -3.5 25.5t-12.5 18.5q-52 51 -112.5 74.5t-124.5 23.5q-72 0 -132.5 -25.5z" />
    <glyph glyph-name="arrowleft" unicode="&#x2190;" 
d="M611 317h-437l25 -27l162 -184l-60 -51l-263 302l263 305l60 -50l-163 -186l-25 -28h438v-81z" />
    <glyph glyph-name="arrowup" unicode="&#x2191;" 
d="M629 401l-51 -58l-184 165l-27 26v-492h-84v491l-28 -25l-184 -163l-50 58l305 263z" />
    <glyph glyph-name="arrowright" unicode="&#x2192;" 
d="M607 357l-263 -302l-60 51l162 184l25 27h-437v81h438l-25 28l-163 186l60 50z" />
    <glyph glyph-name="arrowdown" unicode="&#x2193;" 
d="M629 296l-303 -266l-305 264l50 58l184 -163l28 -25v491h84v-492l27 26l184 165z" />
    <glyph glyph-name="arrowboth" unicode="&#x2194;" horiz-adv-x="875" 
d="M830 357l-263 -302l-60 51l162 184l25 27h-513l25 -27l162 -184l-60 -51l-263 302l263 305l60 -50l-162 -186l-25 -28h513l-25 28l-162 186l60 50z" />
    <glyph glyph-name="arrowupdn" unicode="&#x2195;" 
d="M565 290l50 -59l-291 -249l-289 249l51 59l170 -149l27 -25v458l-27 -24l-171 -149l-50 59l291 249l289 -249l-51 -59l-170 149l-26 24v-456l26 23z" />
    <glyph glyph-name="uni2196" unicode="&#x2196;" 
d="M519 97l-332 382q-2 -26 -4 -38l-36 -244l-78 12l60 398h403v-77h-245q-27 0 -42 1l336 -381z" />
    <glyph glyph-name="uni2197" unicode="&#x2197;" 
d="M581 209l-78 -12l-36 244q-2 11 -4 39l-332 -383l-62 53l336 381q-15 -1 -42 -1h-245v77h403z" />
    <glyph glyph-name="uni2198" unicode="&#x2198;" 
d="M581 525l-60 -398l-403 -1v77h245q27 0 42 -1l-336 382l62 53l332 -383q2 28 4 39l36 244z" />
    <glyph glyph-name="uni2199" unicode="&#x2199;" 
d="M287 211h245v-77h-403l-60 398l78 12l36 -244q2 -11 4 -39l332 383l62 -53l-336 -381q15 1 42 1z" />
    <glyph glyph-name="partialdiff" unicode="&#x2202;" 
d="M501.5 701.5q47.5 -26.5 73 -77.5t25.5 -122q0 -82 -21.5 -168t-57.5 -157.5t-80 -111.5q-84 -78 -197 -78q-53 0 -97.5 24t-70.5 68.5t-26 103.5q0 80 38.5 142.5t101.5 97.5t133 35q38 0 71.5 -13.5t58 -37.5t36.5 -54q20 75 20 134q0 155 -124 155q-98 0 -163 -111
l-77 40q44 75 105.5 116t137.5 41q66 0 113.5 -26.5zM344.5 93.5q41.5 25.5 67 68t25.5 91.5q0 35 -15 62.5t-42.5 43t-61.5 15.5q-49 0 -90 -26t-65 -68.5t-24 -90.5q0 -36 15 -63.5t42 -42.5t61 -15q46 0 87.5 25.5z" />
    <glyph glyph-name="Delta" unicode="&#x2206;" 
d="M527 373q69 -182 123 -373h-651q54 191 123 373t150 339h105q81 -157 150 -339zM528 86q-87 293 -204 535q-117 -242 -204 -535h408z" />
    <glyph glyph-name="product" unicode="&#x220f;" 
d="M540 712v-909h-93v827h-245v-827h-93v909h431z" />
    <glyph glyph-name="summation" unicode="&#x2211;" 
d="M566 -120v-84h-483v65l268 401l-268 385v65h473v-84h-150q-132 0 -200 2l252 -363v-11l-255 -378q70 2 203 2h160z" />
    <glyph glyph-name="minus" unicode="&#x2212;" 
d="M89 396h471v-80h-471v80z" />
    <glyph glyph-name="uni2215" unicode="&#x2215;" 
d="M176 -31l-76 34l373 740l76 -34z" />
    <glyph glyph-name="uni2219" unicode="&#x2219;" 
d="M284.5 286q-18.5 11 -29.5 29.5t-11 40.5t11 40.5t29.5 29.5t40.5 11t40.5 -11t29.5 -29.5t11 -40.5t-11 -40.5t-29.5 -29.5t-40.5 -11t-40.5 11z" />
    <glyph glyph-name="radical" unicode="&#x221a;" 
d="M634 705l-270 -909h-94l-124 391l-106 -40l-24 76l192 71l49 -163q31 -102 59 -213q33 132 59 215l177 600z" />
    <glyph glyph-name="infinity" unicode="&#x221e;" horiz-adv-x="799" 
d="M677 526q40 -24 62 -68t22 -102t-22 -102t-62 -68t-94 -24q-106 0 -183 117q-38 -56 -83 -86.5t-100 -30.5q-54 0 -94 24t-62 68t-22 102t22 102t62 68t94 24q55 0 100 -30.5t83 -87.5q78 118 183 118q54 0 94 -24zM291.5 268q34.5 31 67.5 88q-33 58 -68.5 88.5
t-72.5 30.5q-25 0 -47 -14t-35 -41t-13 -64t13 -64t35 -41t47 -14q39 0 73.5 31zM628.5 251q21.5 14 34.5 41t13 64t-13 64t-34.5 41t-46.5 14q-37 0 -72.5 -30.5t-68.5 -88.5q33 -57 67.5 -88t73.5 -31q25 0 46.5 14z" />
    <glyph glyph-name="integral" unicode="&#x222b;" 
d="M147 -127q29 -12 62 -12t52 20t19 59v627q0 48 19 82.5t53.5 52.5t80.5 18q52 0 91 -18l-21 -71q-28 12 -62 12q-33 0 -52 -20t-19 -59v-627q0 -48 -19 -82.5t-53.5 -52.5t-80.5 -18q-52 0 -91 18z" />
    <glyph glyph-name="approxequal" unicode="&#x2248;" 
d="M144.5 476q33.5 30 84.5 30q25 0 49 -7t62 -21q27 -11 45.5 -16.5t34.5 -5.5q20 0 34.5 11t20.5 36l73 -13q-10 -52 -44 -82t-84 -30q-25 0 -48 6.5t-59 20.5q-27 11 -46.5 17t-37.5 6q-20 0 -34.5 -11t-20.5 -36l-73 13q10 52 43.5 82zM145 292q34 30 84 30q25 0 49 -7
t62 -21q27 -11 45.5 -16.5t34.5 -5.5q20 0 34.5 10.5t20.5 35.5l73 -13q-10 -52 -44 -82t-84 -30q-25 0 -48 6.5t-59 20.5q-27 11 -46.5 17t-37.5 6q-20 0 -34.5 -11t-20.5 -36l-73 14q10 52 44 82z" />
    <glyph glyph-name="notequal" unicode="&#x2260;" 
d="M384 410l-40 -108h206v-73h-233l-42 -114l-73 21l34 93h-137v73h164l40 108h-204v73h231l39 106l73 -21l-31 -85h139v-73h-166z" />
    <glyph glyph-name="lessequal" unicode="&#x2264;" 
d="M417 452q-128 -50 -228 -83q106 -36 228 -84l134 -53v-89l-451 180v90l451 181v-89zM100 78h451v-78h-451v78z" />
    <glyph glyph-name="greaterequal" unicode="&#x2265;" 
d="M550 413v-90l-451 -180v89l134 53q122 48 228 84q-100 33 -228 83l-134 53v89zM99 78h451v-78h-451v78z" />
    <glyph glyph-name="lozenge" unicode="&#x25ca;" 
d="M588 356l-215 -356h-96l-215 356l215 356h96zM485 356l-160 263l-160 -263l160 -263z" />
    <glyph glyph-name="uniFEFF" unicode="&#xfeff;" horiz-adv-x="0" 
 />
    <glyph glyph-name="zero.lf" horiz-adv-x="654" 
d="M183 32.5q-59 44.5 -89.5 127.5t-30.5 198q0 116 30.5 199t89.5 127t144 44t144 -44t89.5 -127t30.5 -199q0 -115 -30.5 -198t-89.5 -127.5t-144 -44.5t-144 44.5zM451.5 145q41.5 70 41.5 213q0 142 -42 212.5t-124 70.5q-166 0 -166 -283q0 -144 41.5 -213.5
t124.5 -69.5t124.5 70z" />
    <glyph glyph-name="one.lf" horiz-adv-x="409" 
d="M331 712v-712h-94v599l-199 -101v94l227 120h66z" />
    <glyph glyph-name="two.lf" horiz-adv-x="517" 
d="M492 84v-84h-469v69l240 231q66 65 98 113t32 96q0 39 -16.5 68.5t-47 45.5t-72.5 16q-58 0 -93 -30.5t-50 -87.5l-93 24q21 88 82.5 135t156.5 47q70 0 122 -28t80 -76.5t28 -109.5q0 -69 -41.5 -133t-121.5 -139l-161 -157h326z" />
    <glyph glyph-name="three.lf" horiz-adv-x="601" 
d="M520.5 312q32.5 -47 32.5 -110q0 -64 -32 -112.5t-91 -75t-137 -26.5q-67 0 -121 21.5t-91 61.5t-53 94l96 19q17 -54 61.5 -81.5t108.5 -27.5q77 0 119 33.5t42 94.5t-44 94.5t-127 33.5h-79v82h78q42 0 74.5 14.5t51 40.5t18.5 60q0 53 -36.5 82t-103.5 29
q-61 0 -102 -28t-53 -86l-94 18q18 87 82.5 136t167.5 49q69 0 123 -23.5t84 -66.5t30 -101q0 -50 -24 -90t-75 -65q62 -23 94.5 -70z" />
    <glyph glyph-name="four.lf" horiz-adv-x="579" 
d="M550 192h-100v-192h-93v192h-338v104q145 218 345 416h86v-437h100v-83zM357 275v314q-139 -148 -252 -314h252z" />
    <glyph glyph-name="five.lf" horiz-adv-x="585" 
d="M412 434q57 -30 91 -83.5t34 -121.5q0 -70 -33 -126t-92.5 -87.5t-136.5 -31.5q-56 0 -104.5 19.5t-82.5 54.5t-48 81l87 22q19 -41 59 -66t88 -25q45 0 82.5 19t60 55t22.5 85q0 41 -22 75.5t-59 55t-80 20.5q-45 0 -83 -22t-60 -58l-85 22l73 390h370v-82h-294
l-41 -207q26 20 59.5 30.5t72.5 10.5q65 0 122 -30z" />
    <glyph glyph-name="six.lf" horiz-adv-x="587" 
d="M441 431q55 -33 84 -87.5t29 -118.5q0 -69 -32.5 -123.5t-89 -84.5t-125.5 -30q-115 0 -190 80q-84 92 -84 286q0 116 29.5 200t88.5 129.5t147 45.5q183 0 243 -173l-91 -28q-17 58 -54.5 86t-96.5 28q-82 0 -125.5 -68t-47.5 -198q29 43 80.5 66t104.5 23q75 0 130 -33
zM380.5 91.5q35.5 20.5 56.5 55.5t21 77t-21 77t-56 55t-77 20t-77 -20t-55.5 -55t-20.5 -77t20.5 -77t56 -55.5t76.5 -20.5t76.5 20.5z" />
    <glyph glyph-name="seven.lf" horiz-adv-x="494" 
d="M490 712v-63q-217 -277 -261 -649h-95q51 369 238 630h-348v82h466z" />
    <glyph glyph-name="eight.lf" horiz-adv-x="627" 
d="M547.5 301.5q31.5 -46.5 31.5 -103.5q0 -58 -32.5 -106t-92.5 -76t-141 -28t-141 28t-92 76t-32 106q0 57 31.5 103.5t91.5 72.5q-50 26 -75 68t-25 92q0 56 31.5 100t86.5 69t124 25t124.5 -25t87 -69t31.5 -100q0 -51 -25.5 -93t-75.5 -67q61 -26 92.5 -72.5zM238 627
q-33 -16 -51.5 -43t-18.5 -59t18.5 -59t51.5 -43.5t75 -16.5t75.5 16.5t52 43.5t18.5 59t-18.5 59t-51.5 43t-76 16q-42 0 -75 -16zM402 89.5q38 17.5 58 47t20 64.5q0 36 -20.5 65.5t-58 46.5t-88.5 17t-88.5 -17t-57.5 -46.5t-20 -65.5q0 -35 20 -64.5t57.5 -47
t88.5 -17.5t89 17.5z" />
    <glyph glyph-name="nine.lf" horiz-adv-x="587" 
d="M554 361q0 -116 -29.5 -199.5t-89 -129t-147.5 -45.5q-95 0 -154.5 45t-87.5 128l90 28q18 -58 55.5 -86t96.5 -28q82 0 126 68.5t47 197.5q-29 -43 -80.5 -66t-104.5 -23q-75 0 -130 33t-84 87.5t-29 118.5q0 69 32.5 123.5t89 84.5t125.5 30q59 0 106.5 -20.5
t82.5 -59.5q85 -91 85 -287zM359 359q35 20 56 54.5t21 76.5q0 43 -21 78t-56 55t-77 20q-41 0 -76 -20t-56 -55t-21 -78q0 -42 21 -76.5t56 -54.5t76 -20q42 0 77 20z" />
    <glyph glyph-name="zero.ss01" horiz-adv-x="654" 
d="M471 684q59 -44 89.5 -127t30.5 -199q0 -115 -30.5 -198t-89.5 -127.5t-144 -44.5t-144 44.5t-89.5 127.5t-30.5 198q0 116 30.5 199t89.5 127t144 44t144 -44zM161 358q0 -72 11 -129l290 320q-40 92 -135 92q-166 0 -166 -283zM451.5 145q41.5 70 41.5 213
q0 68 -11 125l-289 -320q40 -88 134 -88q83 0 124.5 70z" />
    <glyph glyph-name="one.ss02" horiz-adv-x="503" 
d="M484 83v-83h-462v83h197v516l-198 -101v94l226 120h66v-629h171z" />
    <glyph glyph-name="zero.tf.ss01" 
d="M471 684q59 -44 89.5 -127t30.5 -199q0 -115 -30.5 -198t-89.5 -127.5t-144 -44.5t-144 44.5t-89.5 127.5t-30.5 198q0 116 30.5 199t89.5 127t144 44t144 -44zM161 358q0 -72 11 -129l290 320q-40 92 -135 92q-166 0 -166 -283zM451.5 145q41.5 70 41.5 213
q0 68 -11 125l-289 -320q40 -88 134 -88q83 0 124.5 70z" />
    <glyph glyph-name="one.tf.ss02" 
d="M583 83v-83h-462v83h197v516l-198 -101v94l226 120h66v-629h171z" />
    <glyph glyph-name="zero.dnom" horiz-adv-x="404" 
d="M110 18q-38 27 -58 77t-20 119t20 119t58 77t92 27t92 -26.5t58 -77t20 -119.5t-20 -119t-58 -77t-92 -27t-92 27zM268.5 100.5q22.5 36.5 22.5 113.5q0 150 -89 150q-44 0 -66 -36.5t-22 -113.5t22 -113.5t66 -36.5t66.5 36.5z" />
    <glyph glyph-name="one.dnom" horiz-adv-x="262" 
d="M213 427v-427h-80v333l-115 -57v74l145 77h50z" />
    <glyph glyph-name="two.dnom" horiz-adv-x="330" 
d="M320 69v-69h-302v55l160 142q28 25 42 48t14 52q0 30 -19 49t-53 19q-28 0 -47.5 -15.5t-29.5 -44.5l-73 20q14 53 55 82.5t99 29.5q44 0 78 -17.5t52.5 -48.5t18.5 -70q0 -32 -11.5 -59t-32.5 -50.5t-56 -53.5l-80 -69h185z" />
    <glyph glyph-name="three.dnom" horiz-adv-x="371" 
d="M327 190.5q21 -28.5 21 -67.5q0 -38 -21.5 -68.5t-59.5 -47t-86 -16.5q-61 0 -105 28.5t-61 78.5l73 25q11 -31 36 -45.5t58 -14.5q38 0 61 17.5t23 47.5t-22 46.5t-62 16.5h-45v63h42q33 0 52.5 16t19.5 43q0 24 -19.5 39.5t-52.5 15.5q-64 0 -82 -60l-73 19
q31 110 157 110q46 0 80.5 -15.5t52.5 -41.5t18 -57t-16 -55.5t-47 -37.5q37 -11 58 -39.5z" />
    <glyph glyph-name="four.dnom" horiz-adv-x="372" 
d="M356 98h-59v-98h-78v98h-210v74q82 148 190 255h98v-260h59v-69zM219 167v188q-73 -81 -133 -188h133z" />
    <glyph glyph-name="five.dnom" horiz-adv-x="350" 
d="M252 261.5q35 -18.5 55 -51t20 -72.5q0 -41 -21.5 -74.5t-59 -53t-83.5 -19.5q-37 0 -68.5 13t-53 36t-30.5 53l73 21q7 -23 28 -39t50 -16q23 0 42 10.5t30 29t11 41.5q0 21 -11 38.5t-30 27.5t-42 10t-42 -11.5t-30 -29.5l-70 21l47 231h234v-69h-176l-21 -97
q31 19 71 19q42 0 77 -18.5z" />
    <glyph glyph-name="six.dnom" horiz-adv-x="359" 
d="M272.5 263q34.5 -19 54 -51.5t19.5 -71.5q0 -42 -21 -76t-58 -53.5t-81 -19.5q-78 0 -124 57q-22 28 -35 69t-13 90q0 110 44.5 170t128.5 60q54 0 91.5 -24.5t56.5 -66.5l-71 -27q-11 23 -30 35.5t-48 12.5q-45 0 -69.5 -33t-27.5 -105q16 25 45.5 39t62.5 14
q41 0 75.5 -19zM225.5 69.5q18.5 10.5 29.5 29t11 39.5t-11 39t-29.5 28.5t-40.5 10.5q-21 0 -39.5 -10.5t-29.5 -28.5t-11 -39t11 -39.5t30 -29t40 -10.5t39.5 10.5z" />
    <glyph glyph-name="seven.dnom" horiz-adv-x="309" 
d="M311 427v-54q-65 -80 -109 -176.5t-61 -196.5h-82q17 93 56.5 186.5t97.5 171.5h-203v69h301z" />
    <glyph glyph-name="eight.dnom" horiz-adv-x="388" 
d="M346 183.5q18 -26.5 18 -63.5q0 -35 -20.5 -64.5t-59 -46.5t-90.5 -17q-53 0 -91.5 17t-59 46t-20.5 65q0 37 18.5 63.5t56.5 40.5q-30 15 -45 39.5t-15 55.5q0 34 19 60.5t54 42t83 15.5t82.5 -15.5t53 -42t18.5 -60.5q0 -31 -14.5 -55.5t-43.5 -39.5q38 -14 56 -40.5z
M137.5 353q-20.5 -17 -20.5 -44q0 -26 20.5 -43t56.5 -17q35 0 56 17t21 43q0 27 -21 44t-56 17q-36 0 -56.5 -17zM256.5 79q22.5 19 22.5 48q0 28 -22.5 46.5t-62.5 18.5q-41 0 -63 -18.5t-22 -46.5q0 -29 22 -48t63 -19q40 0 62.5 19z" />
    <glyph glyph-name="nine.dnom" horiz-adv-x="359" 
d="M333 311q13 -41 13 -90q0 -110 -45 -170t-129 -60q-54 0 -91.5 24.5t-55.5 66.5l70 27q11 -23 30 -35.5t48 -12.5q94 0 98 140q-16 -25 -45 -40t-63 -15q-42 0 -76 19t-53.5 52t-19.5 72q0 42 21 75.5t57.5 53t80.5 19.5q78 0 124 -57q23 -28 36 -69zM213.5 223.5
q18.5 10.5 29.5 28t11 39.5q0 21 -11 39t-29.5 28.5t-40.5 10.5q-21 0 -39.5 -10.5t-29.5 -28.5t-11 -39q0 -22 11 -39.5t29.5 -28t40.5 -10.5q21 0 39.5 10.5z" />
    <glyph glyph-name="zero.numr" horiz-adv-x="404" 
d="M110 303q-38 27 -58 77t-20 119t20 119t58 77t92 27t92 -26.5t58 -77t20 -119.5t-20 -119t-58 -77t-92 -27t-92 27zM268.5 385.5q22.5 36.5 22.5 113.5q0 150 -89 150q-44 0 -66 -36.5t-22 -113.5t22 -113.5t66 -36.5t66.5 36.5z" />
    <glyph glyph-name="one.numr" horiz-adv-x="262" 
d="M213 712v-427h-80v333l-115 -57v74l145 77h50z" />
    <glyph glyph-name="two.numr" horiz-adv-x="330" 
d="M320 354v-69h-302v55l160 142q28 25 42 48t14 52q0 30 -19 49t-53 19q-28 0 -47.5 -15.5t-29.5 -44.5l-73 20q14 53 55 82.5t99 29.5q44 0 78 -17.5t52.5 -48.5t18.5 -70q0 -32 -11.5 -59t-32.5 -50.5t-56 -53.5l-80 -69h185z" />
    <glyph glyph-name="three.numr" horiz-adv-x="371" 
d="M327 475.5q21 -28.5 21 -67.5q0 -38 -21.5 -68.5t-59.5 -47t-86 -16.5q-61 0 -105 28.5t-61 78.5l73 25q11 -31 36 -45.5t58 -14.5q38 0 61 17.5t23 47.5t-22 46.5t-62 16.5h-45v63h42q33 0 52.5 16t19.5 43q0 24 -19.5 39.5t-52.5 15.5q-64 0 -82 -60l-73 19
q31 110 157 110q46 0 80.5 -15.5t52.5 -41.5t18 -57t-16 -55.5t-47 -37.5q37 -11 58 -39.5z" />
    <glyph glyph-name="four.numr" horiz-adv-x="372" 
d="M356 383h-59v-98h-78v98h-210v74q82 148 190 255h98v-260h59v-69zM219 452v188q-73 -81 -133 -188h133z" />
    <glyph glyph-name="five.numr" horiz-adv-x="350" 
d="M252 546.5q35 -18.5 55 -51t20 -72.5q0 -41 -21.5 -74.5t-59 -53t-83.5 -19.5q-37 0 -68.5 13t-53 36t-30.5 53l73 21q7 -23 28 -39t50 -16q23 0 42 10.5t30 29t11 41.5q0 21 -11 38.5t-30 27.5t-42 10t-42 -11.5t-30 -29.5l-70 21l47 231h234v-69h-176l-21 -97
q31 19 71 19q42 0 77 -18.5z" />
    <glyph glyph-name="six.numr" horiz-adv-x="359" 
d="M272.5 548q34.5 -19 54 -51.5t19.5 -71.5q0 -42 -21 -76t-58 -53.5t-81 -19.5q-78 0 -124 57q-22 28 -35 69t-13 90q0 110 44.5 170t128.5 60q54 0 91.5 -24.5t56.5 -66.5l-71 -27q-11 23 -30 35.5t-48 12.5q-45 0 -69.5 -33t-27.5 -105q16 25 45.5 39t62.5 14
q41 0 75.5 -19zM225.5 354.5q18.5 10.5 29.5 29t11 39.5t-11 39t-29.5 28.5t-40.5 10.5q-21 0 -39.5 -10.5t-29.5 -28.5t-11 -39t11 -39.5t30 -29t40 -10.5t39.5 10.5z" />
    <glyph glyph-name="seven.numr" horiz-adv-x="309" 
d="M311 712v-54q-65 -80 -109 -176.5t-61 -196.5h-82q17 93 56.5 186.5t97.5 171.5h-203v69h301z" />
    <glyph glyph-name="eight.numr" horiz-adv-x="388" 
d="M346 468.5q18 -26.5 18 -63.5q0 -35 -20.5 -64.5t-59 -46.5t-90.5 -17q-53 0 -91.5 17t-59 46t-20.5 65q0 37 18.5 63.5t56.5 40.5q-30 15 -45 39.5t-15 55.5q0 34 19 60.5t54 42t83 15.5t82.5 -15.5t53 -42t18.5 -60.5q0 -31 -14.5 -55.5t-43.5 -39.5q38 -14 56 -40.5z
M137.5 638q-20.5 -17 -20.5 -44q0 -26 20.5 -43t56.5 -17q35 0 56 17t21 43q0 27 -21 44t-56 17q-36 0 -56.5 -17zM256.5 364q22.5 19 22.5 48q0 28 -22.5 46.5t-62.5 18.5q-41 0 -63 -18.5t-22 -46.5q0 -29 22 -48t63 -19q40 0 62.5 19z" />
    <glyph glyph-name="nine.numr" horiz-adv-x="359" 
d="M333 596q13 -41 13 -90q0 -110 -45 -170t-129 -60q-54 0 -91.5 24.5t-55.5 66.5l70 27q11 -23 30 -35.5t48 -12.5q94 0 98 140q-16 -25 -45 -40t-63 -15q-42 0 -76 19t-53.5 52t-19.5 72q0 42 21 75.5t57.5 53t80.5 19.5q78 0 124 -57q23 -28 36 -69zM213.5 508.5
q18.5 10.5 29.5 28t11 39.5q0 21 -11 39t-29.5 28.5t-40.5 10.5q-21 0 -39.5 -10.5t-29.5 -28.5t-11 -39q0 -22 11 -39.5t29.5 -28t40.5 -10.5q21 0 39.5 10.5z" />
    <glyph glyph-name="cent.lf" horiz-adv-x="509" 
d="M406.5 235.5q-44.5 -20.5 -95.5 -23.5v-119h-64v123q-62 10 -111.5 44.5t-78 88.5t-28.5 121q0 69 28 124t77.5 89.5t112.5 42.5v107h64v-105q50 -4 95 -24t79 -54l-58 -59q-22 25 -52 40.5t-64 17.5v-357q34 2 64 17.5t52 40.5l59 -59q-35 -35 -79.5 -55.5zM138 391.5
q16 -35.5 44.5 -59.5t64.5 -34v345q-36 -10 -64.5 -34t-44.5 -60t-16 -79t16 -78.5z" />
    <glyph glyph-name="currency.lf" horiz-adv-x="644" 
d="M538 277.5q-14 -37.5 -39 -67.5l76 -76l-47 -48l-80 80q-56 -35 -123 -35q-69 0 -127 37l-82 -82l-47 48l79 79q-24 30 -37 66.5t-13 76.5t13 76.5t37 66.5l-79 79l47 48l82 -82q58 37 127 37q67 0 123 -35l80 80l47 -48l-76 -76q25 -30 39 -67.5t14 -78.5t-14 -78.5z
M206 286q18 -31 49 -49t70 -18t70 18t49 49t18 70t-18 70t-49 49t-70 18t-70 -18t-49 -49t-18 -70t18 -70z" />
    <glyph glyph-name="dollar.lf" horiz-adv-x="588" 
d="M533.5 95.5q-25.5 -42.5 -78.5 -71.5t-133 -35v-125h-64v125q-66 3 -128 26.5t-112 64.5l50 67q88 -68 190 -75v251q-221 57 -221 212q0 53 25.5 94.5t75 67t120.5 30.5v121h64v-121q60 -4 116.5 -23t102.5 -49l-44 -71q-83 53 -175 60v-244l5 -1q89 -22 139.5 -51
t71.5 -67.5t21 -92.5q0 -50 -25.5 -92.5zM163 465.5q29 -29.5 95 -49.5v227q-64 -6 -94 -33t-30 -71t29 -73.5zM424 110q38 30 38 82q0 29 -13.5 49t-43.5 35.5t-83 30.5v-234q64 7 102 37z" />
    <glyph glyph-name="Euro.lf" horiz-adv-x="667" 
d="M649 159q-63 -171 -245 -171q-118 0 -187 67.5t-89 194.5h-115v68h109q-1 12 -1 38q0 24 1 36h-109v68h115q19 128 88 196t188 68q168 0 234 -146l-85 -33q-41 95 -149 95q-77 0 -121 -44.5t-58 -135.5h231v-68h-237q-1 -12 -1 -36q0 -26 1 -38h237v-68h-231
q14 -91 58 -134.5t121 -43.5q58 0 96.5 26.5t58.5 81.5z" />
    <glyph glyph-name="florin.lf" horiz-adv-x="615" 
d="M423.5 631.5q-26.5 -19.5 -33.5 -59.5l-32 -179h154v-70h-166l-33 -183q-13 -73 -60 -112.5t-122 -39.5q-32 0 -61.5 5t-49.5 12l21 72q15 -5 37 -8.5t45 -3.5q42 0 68 19.5t33 59.5l32 179h-154v70h166l33 182q13 74 60 113.5t122 39.5q32 0 61 -5t51 -13l-21 -71
q-17 5 -39 8.5t-44 3.5q-41 0 -67.5 -19.5z" />
    <glyph glyph-name="uni20BA.lf" horiz-adv-x="609" 
d="M590 372q-5 -112 -50 -196t-129 -130t-200 -46h-93v319l-91 -42l-18 59l109 51v76l-91 -42l-18 59l109 51v181h93v-138l147 69l19 -59l-166 -77v-77l147 69l19 -59l-166 -77v-277q87 0 149.5 34.5t97 99t39.5 152.5h93z" />
    <glyph glyph-name="uni20BC.lf" horiz-adv-x="798" 
d="M611 530q64 -70 94 -200.5t30 -329.5h-93q0 170 -19.5 279.5t-62.5 169.5t-114 74v-423h-94v423q-72 -14 -115 -74.5t-62 -170t-19 -278.5h-93q0 200 30 331t93.5 200t165.5 81v100h94v-100q101 -12 165 -82z" />
    <glyph glyph-name="uni20B9.lf" horiz-adv-x="627" 
d="M498 635q32 -38 39 -89h68v-69h-67q-8 -54 -40.5 -92t-84.5 -57.5t-117 -19.5h-80l326 -308h-128l-336 318v71h213q61 0 99.5 22t49.5 66h-362v69h362q-10 45 -49 67t-100 22h-213v77h527v-77h-107z" />
    <glyph glyph-name="sterling.lf" horiz-adv-x="600" 
d="M539 84v-84h-488v83q54 36 80.5 74t26.5 92q0 19 -3 35h-117v70h93l-13 27q-23 46 -35 80.5t-12 75.5q0 57 27.5 100t78 67t117.5 24q61 0 124.5 -19.5t113.5 -53.5l-43 -72q-44 29 -94.5 45.5t-101.5 16.5q-61 0 -93.5 -29.5t-32.5 -78.5q0 -25 9.5 -53t29.5 -71
q15 -33 26 -59h216v-70h-197q3 -16 3 -34q0 -52 -25 -92t-65 -74h375z" />
    <glyph glyph-name="uni20B8.lf" horiz-adv-x="615" 
d="M596 712v-70h-577v70h577zM19 567h577v-81h-242v-486h-93v486h-242v81z" />
    <glyph glyph-name="yen.lf" horiz-adv-x="622" 
d="M623 708l-220 -329h128v-70h-173v-75h173v-69h-173v-165h-95v165h-171v69h171v75h-171v70h127l-220 329v4h109l205 -312l207 312h103v-4z" />
    <glyph glyph-name="tildecomb.case" horiz-adv-x="0" 
d="M26 569.5q-16 7.5 -38 22.5q-16 11 -25.5 16t-18.5 5q-11 0 -19 -9.5t-16 -34.5l-66 16q12 49 36 74t61 25q20 0 36.5 -8t37.5 -23q11 -8 22 -14t20 -6q12 0 19.5 9t15.5 35l66 -16q-25 -99 -97 -99q-18 0 -34 7.5z" />
    <glyph glyph-name="uni0328.case" horiz-adv-x="0" 
d="M92 -188q-18 -13 -40 -20.5t-45 -7.5q-27 0 -49.5 12t-36 33.5t-13.5 49.5q0 33 27.5 70t77.5 70l32 -16q-33 -36 -47.5 -61.5t-14.5 -48.5q0 -19 9.5 -29.5t26.5 -10.5q12 0 22 3.5t23 11.5z" />
    </font>
</defs>
</svg>
